<svg width="256" height="149" viewBox="0 0 256 149" fill="none" xmlns="http://www.w3.org/2000/svg">
<path d="M117.337 13.9917C105.379 5.46876 91.163 0.683067 76.4856 0.239782C61.8081 -0.203503 47.3289 3.71553 34.8788 11.5013C22.4286 19.2871 12.5669 30.5899 6.54052 43.9804C0.514167 57.371 -1.40609 72.2478 1.02256 86.7297C3.45122 101.212 10.1197 114.648 20.1848 125.34C30.2498 136.032 43.2594 143.499 57.5683 146.797C71.8773 150.096 86.8429 149.077 100.573 143.869C114.303 138.662 193.961 62.7846 202.484 50.827C192.389 41.9084 185.017 40.9927 169.862 43.9804C164.77 51.1243 98.1765 112.813 89.9738 115.924C81.7711 119.035 72.8301 119.643 64.2815 117.673C55.7328 115.702 47.9605 111.241 41.9473 104.854C35.934 98.4658 31.95 90.4384 30.4991 81.7864C29.0481 73.1344 30.1954 64.2465 33.7957 56.2465C37.3961 48.2465 43.2878 41.4938 50.7259 36.8423C58.1641 32.1908 66.8145 29.8495 75.5833 30.1143C84.3521 30.3791 91.8484 32.2362 98.9923 37.328L117.337 13.9917Z" fill="black"/>
<path d="M138.663 134.703C150.621 143.226 164.837 148.011 179.514 148.455C194.192 148.898 208.671 144.979 221.121 137.193C233.571 129.407 243.433 118.105 249.459 104.714C255.486 91.3235 257.406 76.4467 254.977 61.9648C252.549 47.4829 245.88 34.0464 235.815 23.3544C225.75 12.6625 212.741 5.19525 198.432 1.89706C184.123 -1.40113 169.157 -0.382156 155.427 4.82511C141.697 10.0324 62.0386 85.9099 53.5157 97.8675C63.611 106.786 70.983 107.702 86.1382 104.714C91.2301 97.5702 157.824 35.8819 166.026 32.7709C174.229 29.6599 183.17 29.0511 191.719 31.0215C200.267 32.992 208.04 37.4532 214.053 43.8409C220.066 50.2287 224.05 58.2561 225.501 66.9081C226.952 75.5601 225.805 84.448 222.204 92.448C218.604 100.448 212.712 107.201 205.274 111.852C197.836 116.504 189.185 118.845 180.417 118.58C171.648 118.315 164.152 116.458 157.008 111.366L138.663 134.703Z" fill="black"/>
</svg>
