<?xml version="1.0" encoding="UTF-8"?>
<!DOCTYPE svg PUBLIC "-//W3C//DTD SVG 1.1//EN" "http://www.w3.org/Graphics/SVG/1.1/DTD/svg11.dtd">
<!-- Creator: CorelDRAW -->
<svg xmlns="http://www.w3.org/2000/svg" xml:space="preserve" width="118.945mm" height="189.849mm" version="1.1" style="shape-rendering:geometricPrecision; text-rendering:geometricPrecision; image-rendering:optimizeQuality; fill-rule:evenodd; clip-rule:evenodd"
viewBox="0 0 12287.32 19611.82"
 xmlns:xlink="http://www.w3.org/1999/xlink"
 xmlns:xodm="http://www.corel.com/coreldraw/odm/2003">
 <defs>
  <style type="text/css">
   <![CDATA[
    .fil2 {fill:none}
    .fil1 {fill:#FEFEFE}
    .fil0 {fill:#1C1B17}
    .fil3 {fill:#C9C9C4}
    .fil4 {fill:#1C1B17;fill-rule:nonzero}
   ]]>
  </style>
 </defs>
 <g id="Plan_x0020_1">
  <metadata id="CorelCorpID_0Corel-Layer"/>
  <path class="fil0" d="M1507.76 19611.82l5.41 -166.5 -1.88 -232.06 -4.15 -160.56 7.81 0.23 28.49 -43.58 41.91 -17.6 68.74 12.57 59.5 1.68 54.48 -0.85 189.03 -3.21 332.33 -8.05 337.71 -28.48 360.14 -46.91 274.71 -36.85 174.21 -30.15 254.61 -45.23 179.23 -21.78 154.11 -25.12 185.93 -25.13 112.24 -30.14 202.68 -55.28 169.19 -25.13 169.06 -32.05 291.29 -22.65 178.01 -38.83 171.53 -58.26 242.73 -61.5 106.8 -38.83 126.23 -29.13 116.51 -6.48 74.44 -42.08 106.8 -48.54 194.19 -19.42 362.49 -97.09 275.1 -100.34 320.41 -174.77 265.39 -139.17 281.94 -115.92 192.61 -132.46 173.34 -115.19 116.31 -70.46 85 -71.57 128.61 -81.64 127.49 -67.11 99.53 -34.67 72.69 -52.56 136 -52.77 45.18 -22.11 23.08 -5.76 24.03 -16.34 67.29 -22.12 38.46 -14.42 44.21 -15.38 43.26 -14.42 68.25 -20.19 46.15 -16.34 51.91 -11.54 54.8 -15.37 74.02 -11.54 48.07 -8.66 63.45 -10.57 104.79 -16.34 52.87 0 94.21 -17.3 108.63 -11.54 124.96 -6.74 79.54 -4.13 37.05 -0.87 49.13 -6.03 64.64 2.59 58.6 0 78.43 4.31 93.93 9.47 74.12 8.63 76.7 6.89c0,0 79.29,13.79 85.33,17.24 6.03,3.45 91.35,12.07 91.35,12.07l37.05 1.73 74.12 17.23 56.02 1.73 67.53 17.54 65.34 22.66 66.67 26.67 108 30.67 65.33 24 56 45.33 58.68 29.34 60 10.67 25.33 14.66 40 33.34 33.34 52c0,0 21.34,74.67 25.34,93.33 4,18.67 17.33,24.01 17.33,24.01l38.67 74.67 54.44 45.76 4.81 17.06 -10.85 134.53 32.55 154.04 52.06 132.36 52.07 119.33 41.23 141.03 30.38 201.78 21.72 159.72 -1.69 177.89 18.64 186.36 6.78 174.5 -1.69 157.56 0 138.92 -1.69 133.84 8.47 135.53 -1.69 79.63 11.86 88.74 -10779.56 0z"/>
  <g id="_2544864057904">
   <path class="fil1" d="M1412.06 18611.26c5.18,-39.63 10.36,-79.24 15.54,-118.87 4.88,-38.71 9.76,-77.43 14.64,-116.13 3.05,-43.58 6.09,-87.18 9.14,-130.76 1.06,-45.7 2.13,-91.4 3.19,-137.1 2.1,-57.28 4.2,-114.57 6.3,-171.85 3.75,-90.64 7.51,-181.29 11.26,-271.92 0,-75.76 0,-151.51 0,-227.28 1.18,-62.79 2.36,-125.58 3.53,-188.37 2.63,-80.03 5.26,-160.07 7.89,-240.1 2.18,-41.34 4.35,-82.69 6.53,-124.04 0,-56.34 0,-112.68 0,-169.02 -0.49,-36.03 -0.97,-72.05 -1.46,-108.09 0.24,-35.55 0.49,-71.08 0.72,-106.63 -2.1,-62.28 -4.19,-124.55 -6.29,-186.83 0.46,-77.58 0.94,-155.15 1.4,-232.73 1.63,-57.72 3.27,-115.43 4.91,-173.15 5.11,-75.64 10.22,-151.28 15.33,-226.91 7.22,-75.62 14.44,-151.23 21.66,-226.85 7.97,-69.93 15.96,-139.84 23.94,-209.77 5.74,-64.36 11.48,-128.71 17.22,-193.07 6.61,-81.95 13.21,-163.91 19.82,-245.86 3.94,-55.67 7.86,-111.34 11.8,-167.01 2.65,-50.93 5.32,-101.85 7.97,-152.77 3.73,-44.45 7.47,-88.9 11.2,-133.35 8.12,-63.19 16.24,-126.38 24.36,-189.57 2.57,-33.27 5.15,-66.56 7.73,-99.83 6.62,-39.44 13.25,-78.89 19.88,-118.33 14.12,24.15 28.24,48.29 42.36,72.45 68.36,93.71 119.48,161.38 201.62,241.93 8.43,5.69 16.86,11.38 25.29,17.08 8.43,13.89 16.85,27.8 25.28,41.69 0,0 49.9,49.9 53.31,56.04 35.52,63.85 128.87,139.39 185.89,181.79 15.72,10.47 31.43,20.96 47.16,31.43 19.1,22.04 38.2,44.1 57.3,66.14 64.41,73.02 102.75,110.22 201.69,122.61 21.02,10.07 42.05,20.14 63.08,30.22 33.17,27.54 66.34,55.08 99.51,82.62 28.73,24.59 57.46,49.16 86.19,73.75 29.92,27.25 59.82,54.49 89.74,81.74 22.21,17.47 44.42,34.95 66.63,52.42 78.27,30.23 85.96,31.17 160.82,-5.33 0,0 81.74,65.75 95.07,75.52 296.43,217.38 558.02,342.75 861.23,440.75 683.28,220.88 1501.56,185.97 2203.54,-42.59 446.96,-145.53 585.55,-292.64 941.99,-585.72 7.54,36.18 15.07,72.35 22.61,108.53 16.58,14.58 33.16,29.14 49.74,43.72 14.07,5.02 28.14,10.05 42.21,15.07 18.09,5.02 36.18,10.05 54.26,15.07 17.09,-5.02 34.16,-10.05 51.25,-15.07 42.21,-34.16 84.41,-68.33 126.62,-102.5 19.6,-11.56 39.19,-23.11 58.79,-34.67 42.21,-11.56 84.41,-23.11 126.62,-34.67 28.14,-21.1 56.27,-42.21 84.41,-63.31 45.23,-28.64 90.44,-57.28 135.67,-85.92 37.18,-28.14 74.36,-56.27 111.54,-84.41 30.65,-18.09 61.3,-36.18 91.95,-54.26 30.14,-20.1 60.3,-40.19 90.44,-60.3 27.63,-19.6 55.28,-39.19 82.91,-58.79 33.16,-20.6 66.32,-41.2 99.48,-61.8 17.42,-14.87 34.84,-29.73 52.26,-44.6 12.37,-18.55 24.74,-37.11 37.11,-55.66 20.88,-34.4 41.74,-68.8 62.62,-103.2 27.05,-36.33 54.11,-72.66 81.16,-108.99 36.71,-53.35 73.44,-106.68 110.15,-160.03 26.77,-41.32 53.53,-82.63 80.3,-123.95 31.45,-38.95 62.88,-77.89 94.33,-116.84 8.57,-12.86 17.16,-25.73 25.73,-38.59 21.08,-19.3 42.16,-38.58 63.24,-57.88 16.44,-16.8 32.87,-33.58 49.31,-50.38 16.44,-18.94 32.87,-37.87 49.31,-56.81 18.22,-28.23 36.45,-56.45 54.67,-84.69 22.51,-20.36 45.02,-40.73 67.53,-61.09 18.22,-9.65 36.45,-19.3 54.67,-28.95 29.66,-16.07 59.32,-32.16 88.97,-48.23 34.3,-22.16 68.6,-44.31 102.9,-66.46 25.07,-16.72 50.14,-33.44 75.21,-50.16 24.89,-23.56 49.78,-47.14 74.67,-70.7 25.95,-30.45 51.9,-60.9 77.85,-91.35 24.36,-32.04 48.73,-64.08 73.09,-96.12 22.91,-29.24 45.82,-58.5 68.74,-87.75 27.62,-28.92 55.24,-57.84 82.86,-86.76 28.59,-29.9 57.19,-59.78 85.78,-89.68 28.27,-35.09 56.54,-70.19 84.81,-105.29 25.67,-32.49 51.34,-64.99 77.01,-97.48 26.32,-32.82 52.64,-65.64 78.96,-98.46 23.72,-25.67 47.44,-51.34 71.15,-77.01 28.92,-20.79 57.84,-41.6 86.76,-62.39 25.99,-20.79 51.99,-41.59 77.98,-62.38 24.64,-15.52 49.29,-31.03 73.92,-46.55 32.51,-16.82 65.03,-33.64 97.54,-50.45 20.55,-11.96 41.1,-23.91 61.65,-35.88 16.82,-14.58 33.64,-29.14 50.45,-43.72 6.72,34.38 13.45,68.76 20.17,103.14 11.21,50.82 22.43,101.64 33.64,152.46 3.74,33.64 7.47,67.26 11.21,100.9 4.48,25.04 8.98,50.08 13.46,75.12 4.86,28.4 9.71,56.8 14.57,85.19 4.48,32.14 8.98,64.27 13.46,96.41 5.98,39.62 11.95,79.22 17.93,118.84 3.74,41.1 7.47,82.22 11.21,123.32 9.34,48.2 18.69,96.41 28.03,144.61 9.72,58.68 19.43,117.34 29.15,176.02 7.1,44.47 14.2,88.93 21.3,133.4 5.65,28.18 11.3,56.36 16.95,84.54 7.8,29.9 15.6,59.79 23.4,89.69 14.95,38.03 29.9,76.04 44.84,114.07 16.9,37.7 33.8,75.39 50.7,113.09 21.13,44.84 42.24,89.69 63.37,134.53 16.25,34.12 32.5,68.25 48.75,102.37 18.84,33.79 37.7,67.59 56.54,101.38 13,30.55 26,61.1 39,91.65 7.15,29.24 14.31,58.49 21.46,87.73 9.07,39.35 18.15,78.71 27.22,118.05 0,0 26.91,117.35 26.91,121.36 0,4.01 25.75,104.17 25.75,108.76 0,4.59 38.36,139.11 38.36,139.11 10.68,50.75 21.37,101.5 32.05,152.26 6.11,36.83 12.21,73.65 18.32,110.48 3.66,29.77 7.31,59.54 10.97,89.32 3.19,31.61 6.39,63.22 9.59,94.83 3.73,34.81 7.47,69.62 11.2,104.43 10.3,48.3 20.6,96.62 30.9,144.92 9.41,34.1 18.82,68.19 28.23,102.29 21.52,48.84 43.05,97.67 64.56,146.51 21.47,42.28 42.94,84.56 64.41,126.85 18.17,36.66 36.33,73.33 54.5,110 15.53,46.25 31.05,92.5 46.58,138.75 2.64,28.41 5.29,56.82 7.93,85.22 4.96,37.32 9.91,74.66 14.87,111.98 3.97,34.36 7.92,68.71 11.89,103.06 8.58,24.77 17.18,49.55 25.76,74.33 0,0 37.9,101.9 37.9,115.76 0,13.86 29.47,102.26 29.47,102.26 0,0 41.6,69.34 41.6,88.41 0,19.07 32.93,157.73 32.93,157.73 0,0 17.33,133.47 17.33,149.07 0,15.6 6.93,107.48 6.93,119.6 0,12.13 -8.67,83.2 -8.67,83.2 -13.81,1.39 -27.63,2.79 -41.44,4.18 -18.15,-15.26 -36.29,-30.51 -54.44,-45.76 -12.89,-24.89 -25.77,-49.78 -38.67,-74.67 0,0 -13.34,-5.34 -17.33,-24.01 -4,-18.67 -25.34,-93.33 -25.34,-93.33 -11.12,-17.33 -22.22,-34.67 -33.34,-52 -13.34,-11.12 -26.66,-22.22 -40,-33.34 -8.44,-4.89 -16.89,-9.77 -25.33,-14.66 -20,-3.55 -40,-7.12 -60,-10.67 -19.56,-9.78 -39.12,-19.56 -58.68,-29.34 -18.67,-15.11 -37.33,-30.22 -56,-45.33 -21.78,-8 -43.55,-16 -65.33,-24 -36,-10.23 -72,-20.44 -108,-30.67 -22.22,-8.89 -44.45,-17.78 -66.67,-26.67 -21.78,-7.55 -43.56,-15.11 -65.34,-22.66 -22.51,-5.85 -45.02,-11.69 -67.53,-17.54 -18.68,-0.58 -37.34,-1.15 -56.02,-1.73 -24.71,-5.74 -49.41,-11.49 -74.12,-17.23 -12.35,-0.58 -24.7,-1.15 -37.05,-1.73 0,0 -85.32,-8.62 -91.35,-12.07 -6.03,-3.45 -85.33,-17.24 -85.33,-17.24 -25.57,-2.29 -51.13,-4.6 -76.7,-6.89 -24.71,-2.87 -49.41,-5.75 -74.12,-8.63 -31.31,-3.16 -62.62,-6.31 -93.93,-9.47 -26.15,-1.44 -52.28,-2.87 -78.43,-4.31 -19.53,0 -39.07,0 -58.6,0 -21.55,-0.87 -43.09,-1.73 -64.64,-2.59 -16.37,2.01 -32.76,4.02 -49.13,6.03 -12.35,0.29 -24.7,0.58 -37.05,0.87 -26.52,1.37 -53.03,2.76 -79.54,4.13 -41.65,2.24 -83.31,4.49 -124.96,6.74 -36.21,3.84 -72.43,7.7 -108.63,11.54 -31.4,5.76 -62.81,11.54 -94.21,17.3 -17.62,0 -35.25,0 -52.87,0 -34.93,5.44 -69.86,10.9 -104.79,16.34 -21.15,3.52 -42.3,7.05 -63.45,10.57 -16.02,2.88 -32.04,5.77 -48.07,8.66 -24.67,3.84 -49.35,7.7 -74.02,11.54 -18.26,5.12 -36.54,10.25 -54.8,15.37 -17.3,3.84 -34.61,7.7 -51.91,11.54 -15.38,5.44 -30.76,10.9 -46.15,16.34 -22.75,6.72 -45.5,13.46 -68.25,20.19 -14.42,4.8 -28.84,9.62 -43.26,14.42 -14.74,5.12 -29.47,10.26 -44.21,15.38 -12.82,4.8 -25.64,9.62 -38.46,14.42 -22.43,7.38 -44.86,14.74 -67.29,22.12 -8.01,5.44 -16.02,10.9 -24.03,16.34 -7.7,1.92 -15.38,3.84 -23.08,5.76 -15.06,7.37 -30.12,14.74 -45.18,22.11 -45.33,17.59 -90.67,35.17 -136,52.77 -24.23,17.52 -48.46,35.04 -72.69,52.56 -33.18,11.56 -66.35,23.11 -99.53,34.67 -42.5,22.36 -84.99,44.74 -127.49,67.11 -42.87,27.21 -85.74,54.43 -128.61,81.64 -28.34,23.85 -56.66,47.72 -85,71.57 -38.77,23.49 -77.54,46.97 -116.31,70.46 -57.78,38.4 -115.56,76.8 -173.34,115.19 -64.2,44.15 -128.4,88.31 -192.61,132.46 -93.98,38.64 -187.96,77.28 -281.94,115.92 -88.47,46.39 -176.93,92.78 -265.39,139.17 -106.8,58.25 -213.61,116.51 -320.41,174.77 -91.7,33.45 -183.4,66.89 -275.1,100.34 -120.83,32.36 -241.66,64.73 -362.49,97.09 -64.73,6.48 -129.46,12.94 -194.19,19.42 -35.6,16.18 -71.21,32.36 -106.8,48.54 -24.81,14.03 -49.63,28.05 -74.44,42.08 -38.84,2.16 -77.67,4.32 -116.51,6.48 -42.08,9.71 -84.15,19.42 -126.23,29.13 -35.6,12.94 -71.21,25.89 -106.8,38.83 -80.91,20.5 -161.82,41 -242.73,61.5 -57.18,19.42 -114.36,38.84 -171.53,58.26 -59.34,12.94 -118.67,25.89 -178.01,38.83 -97.09,7.55 -194.2,15.1 -291.29,22.65 -56.35,10.68 -112.71,21.37 -169.06,32.05 -56.39,8.38 -112.8,16.76 -169.19,25.13 -67.56,18.43 -135.12,36.85 -202.68,55.28 -37.42,10.05 -74.82,20.09 -112.24,30.14 -61.98,8.38 -123.95,16.76 -185.93,25.13 -51.37,8.38 -102.73,16.75 -154.11,25.12 -59.74,7.26 -119.49,14.51 -179.23,21.78 -84.87,15.07 -169.74,30.15 -254.61,45.23 -58.07,10.05 -116.14,20.1 -174.21,30.15 -91.57,12.28 -183.14,24.57 -274.71,36.85 -120.05,15.64 -240.1,31.27 -360.14,46.91 -112.57,9.49 -225.14,18.99 -337.71,28.48 -110.78,2.69 -221.55,5.36 -332.33,8.05 -63.01,1.07 -126.02,2.14 -189.03,3.21 -18.16,0.28 -36.32,0.57 -54.48,0.85 -19.83,-0.56 -39.67,-1.13 -59.5,-1.68 -22.91,-4.19 -45.82,-8.38 -68.74,-12.57 -13.97,5.87 -27.94,11.74 -41.91,17.6 -9.49,14.52 -19,29.06 -28.49,43.58 -9.78,-0.28 -19.56,-0.56 -29.34,-0.84 -17.6,-6.43 -35.21,-12.85 -52.81,-19.28 0,0 -41.9,-40.23 -45.26,-51.12 -3.36,-10.9 -13.42,-102.26 -13.42,-102.26 3.64,-44.99 7.26,-89.97 10.9,-134.95 3.36,-31.01 6.7,-62.02 10.06,-93.03 5.66,-13.39 11.31,-26.79 16.97,-40.17z"/>
   <path class="fil1" d="M1763.66 10863.35l19.98 -124.86 31.63 -184.81 24.97 -216.43 36.63 -278.04 24.97 -288.03 13.21 -230.68 -3.35 -146.44 -4.47 -196.74 -6.71 -77.14 -68.18 -186.68 -85.07 -235.02 -80.63 -225.93 -54.02 -156.7 -67.85 -181.19 -79.83 -175.03 -118.73 -184.23 -116.68 -136.12 -121.75 -118.55 -146.28 -146.28 -37.92 -1.35 -55.53 -28.44 -52.82 -35.22 -21.37 -24.31 -33.33 -30.63 -40.09 -45.04 -29.73 -45.95 -82.26 -146.13 -84.06 -183.28 -73.03 -201.18 -88.19 -219.1 -106.13 -252.52 -80.46 -299.5 -40.24 -226.19c0,0 -22.34,-226.12 -22.34,-232.72 0,-6.6 -7.71,-257.49 -7.71,-257.49l-3.3 -303.71 1.1 -293.81 -10.77 -383.79 -1.98 -333.49 -23.35 -274.59 -19.29 -172.06 -20.6 -178.69 -19.95 -164.34 -8.16 -108.11 14.83 -20.77 5.94 -44.51 36.21 -61.14 28.49 -40.36 79.91 -63.95 66.86 -47.76 118.2 -69.25 127.75 -71.63 105.07 -70.44 177.47 -122.71 253.4 -147.82c387.58,-275.05 1038.15,-719.98 1291.1,-1040.73l138.77 -96.54 226.34 -124.52 -0.06 0.05c119.79,399.33 837.76,1445.07 1123.53,1797.93 186.91,230.79 356.25,416.83 476.33,560.24 124.04,148.16 251.17,338.56 267.52,338.67l661.73 4c0.93,-27.96 22.52,-98.68 26.7,-116.81 33.73,-145.83 106.52,-210.79 238.67,-442.84 228.88,-401.88 409.39,-753.09 586.75,-1121.96 125.44,-260.87 239.54,-533.84 344.41,-847.49 121.31,-362.83 187.49,-714.26 66.91,-894.97l186.38 3.8 182.58 49.44 163.55 53.25 140.74 60.87 235.82 72.26 283.88 66.72 348.68 75.65 558.08 106.38 390.52 78.1 349.17 68.92 213.64 39.05 119.46 34.46 42.02 21.15 45.52 55.1 17.97 64.69 10.78 91.05 -58.71 -32.34 -79.07 1.2c0,0 -8.38,75.46 -9.58,87.45 -1.2,11.98 -38.34,182.09 -37.14,191.68 1.2,9.59 -19.17,250.37 -19.17,250.37l-28.75 268.34 -4.02 338.48 9.35 373.78 28.03 280.33 18.69 258.52 37.82 391.94 39.54 425.12 -16.48 247.16 29.66 204.32 13.19 250.46 3.3 293.3 -1.17 266.4 0 225.3 0 153.08c0,0 -40.44,89.54 -51.99,112.65 -11.55,23.11 -40.44,112.65 -46.22,141.53 -5.77,28.88 -46.21,138.64 -46.21,164.64 0,26 -8.67,155.98 -8.67,155.98l25.99 98.21c0,0 14.45,57.77 20.23,75.1 5.77,17.33 25.99,69.33 25.99,92.44 0,23.11 2.89,95.32 2.89,95.32l2.88 138.64c0,0 34.67,75.1 40.44,92.44 5.77,17.33 5.77,54.87 14.44,72.21 8.67,17.33 23.11,121.32 23.11,121.32l14.44 115.54 28.88 202.19c0,0 43.78,280.96 43.78,310.83 0,29.86 26.89,173.25 26.89,173.25l5.97 244.94c0,0 14.94,227.01 14.94,268.83 0,41.83 11.95,212.09 11.95,212.09l29.86 218.05 5.98 173.26 14.93 256.88 -8.96 95.59 66.42 177.76 121.57 330.92 114.8 280.27 77.67 202.61 -30.61 69.59 -41.03 50.11 -51.96 64.19 -41.27 55.02 -25.22 40.5 -29.8 42.79 -12.99 21.4 -13 17.57 -33.62 13.75 -31.33 16.05 -52.73 27.51 -45.09 27.51 -45.08 23.69 -32.1 13 -22.17 5.35 -98.57 45.08 -29.8 13.76 -18.35 19.1 -59.16 8.98 -104.84 18.84 -137.83 18.85 -127.22 3.53 -147.25 3.53 -109.55 1.18 -143.71 2.36 -155.5 0 -175.51 -16.5 -107.2 -15.31 -108.37 -27.1 -74.21 -21.2 -69.5 -12.96 -95.42 -34.16 -62.44 -34.16 -89.52 -71.86 -88.35 -75.39 -94.23 -103.66 -80.1 -96.59 -71.45 -75.91 -45.8 -60.62 -43.11 -59.27 -26.27 -41.08 -56.58 -51.86 -59.95 -28.97 -46.48 -16.84 -82.17 -20.88 -61.3 -25.6 -78.8 -50.51 -82.18 -59.95 -59.95 -45.8 -32.33 -28.28 -33.01 -36.37 -51.86 -45.8 -53.88 -49.84 -31.66 -18.85 -41.08 -16.17 -28.97 -12.13 -49.17 -4.04 -41.08 6.06 -33.68 16.84 -22.23 20.88 -26.27 27.62 -20.88 29.63 -14.14 48.5 2.7 66.01c0,0 10.09,55.22 12.12,59.26 2.02,4.05 18.86,56.58 18.86,56.58l-66.01 -39.74 -90.93 -51.19 -244.83 -99.84 -434.17 -137.04 -322.33 -71.27 -236.82 -21.92 -202.82 -1.11 -185.29 4.39 -177.61 13.16 -152.4 18.64 -164.46 42.76 -121.17 34.01 -155.7 54.82 -32.89 -17.54 -44.96 -5.49 -53.72 0 -30.7 3.3 -59.2 26.31 -30.7 27.42 -28.51 19.73 -62.5 58.11 -127.18 88.81 -80.04 37.28 -166.34 107.06 -173.9 128.28 -154.03 143.45 -182.1 186.44 -58.54 78.04c0,0 -45.53,52.03 -75.88,75.88 -30.35,23.84 -125.73,78.04 -125.73,78.04l-136.58 54.19 -130.08 30.35 -88.88 10.84 -88.88 21.68 -154.39 41.8z"/>
  </g>
  <g id="_2544864063760">
   <g>
    <g>
     <path class="fil1" d="M9392.72 4679.03c-1.66,-0.99 -7.13,-9.9 -8.7,-12.54 -2.61,-4.43 -4.9,-9.28 -6.87,-14.36 -26.8,-68.94 22.07,-148.31 99.57,-152.51 60.8,-3.29 110.84,43.17 112.39,103.85 0.33,12.79 -1.58,25.45 -5.14,36.62 -3.27,10.26 -8.26,20.7 -13.57,28.4 -6.75,9.78 -11.18,14.45 -19.29,23.09 -27.12,28.87 -54.54,59.07 -81.58,88.29 -2.5,2.7 -19.18,21.26 -20.46,21.84 -0.81,-1.22 -2.62,-3.09 -4.33,-5.6 -1.48,-2.18 -2.41,-3.97 -3.51,-6.28 -7.24,-15.07 -4.58,-33.49 4.05,-46.35l76.35 -83.27c6.25,-6.72 12.15,-12.52 17.07,-22.56 21.97,-44.95 -9.96,-97.18 -60.87,-94.52 -38.12,1.99 -64.75,33.98 -64.58,68.52 0.03,6.74 1.11,13.53 2.98,19.43 2.26,7.12 6.7,14.74 6.89,15.18l-30.39 32.78z"/>
     <path class="fil1" d="M9569.93 4698.83c1.67,0.99 7.13,9.9 8.7,12.54 2.62,4.43 4.91,9.29 6.88,14.36 26.8,68.95 -22.08,148.31 -99.58,152.51 -60.8,3.29 -110.84,-43.17 -112.39,-103.85 -0.32,-12.79 1.58,-25.45 5.14,-36.62 3.27,-10.26 8.27,-20.7 13.57,-28.39 6.75,-9.79 11.18,-14.46 19.29,-23.1 27.12,-28.87 54.54,-59.07 81.59,-88.28 2.49,-2.7 19.17,-21.27 20.45,-21.85 0.82,1.22 2.62,3.09 4.33,5.6 1.48,2.18 2.41,3.97 3.52,6.28 7.23,15.07 4.57,33.5 -4.06,46.35l-76.35 83.28c-6.25,6.71 -12.15,12.51 -17.07,22.55 -21.97,44.95 9.96,97.18 60.87,94.52 38.12,-1.99 64.76,-33.97 64.6,-68.52 -0.04,-6.74 -1.12,-13.53 -2.99,-19.42 -2.26,-7.13 -6.69,-14.75 -6.88,-15.19l30.38 -32.78z"/>
    </g>
    <g>
     <path class="fil1" d="M9360.34 6286.3c-1.61,-1.58 -8.27,-12.62 -10.22,-15.9 -3.24,-5.46 -6.3,-11.26 -9.17,-17.19 -38.97,-80.48 -18.49,-146.96 44,-125.89 49.02,16.54 101.48,81.26 117.71,144.86 3.42,13.41 4.98,25.94 4.81,36.38 -0.15,9.6 -1.67,18.82 -4.12,25.07 -3.12,7.96 -5.6,11.36 -10.11,17.69 -15.1,21.13 -30.13,43.52 -45.08,65.03 -1.38,1.98 -10.47,15.83 -11.38,16 -0.96,-1.53 -2.91,-4.07 -4.93,-7.24 -1.75,-2.75 -2.95,-4.92 -4.43,-7.69 -9.65,-18.05 -12,-36.32 -8.1,-46.86l42.02 -61.55c3.47,-4.94 6.88,-9.02 8.42,-17.85 6.93,-39.52 -32.12,-104.31 -73.18,-118.25 -30.74,-10.43 -44.69,14.07 -36.03,50.05 1.68,7.01 4.25,14.43 7.23,21.18 3.61,8.15 9.12,17.53 9.38,18.04l-16.82 24.12z"/>
     <path class="fil1" d="M9510.44 6365.03c1.61,1.58 8.27,12.63 10.22,15.9 3.23,5.46 6.3,11.26 9.17,17.19 38.97,80.48 18.49,146.97 -44,125.89 -49.02,-16.53 -101.48,-81.26 -117.71,-144.86 -3.42,-13.4 -4.98,-25.94 -4.81,-36.38 0.15,-9.6 1.67,-18.81 4.12,-25.07 3.12,-7.95 5.59,-11.36 10.11,-17.69 15.09,-21.13 30.13,-43.52 45.08,-65.03 1.38,-1.98 10.47,-15.83 11.38,-16 0.96,1.54 2.91,4.08 4.93,7.24 1.75,2.75 2.95,4.92 4.43,7.69 9.65,18.05 12,36.33 8.1,46.86l-42.02 61.55c-3.47,4.94 -6.88,9.02 -8.43,17.86 -6.92,39.51 32.13,104.3 73.19,118.24 30.74,10.44 44.69,-14.07 36.03,-50.05 -1.68,-7 -4.25,-14.43 -7.23,-21.18 -3.61,-8.15 -9.13,-17.53 -9.38,-18.04l16.82 -24.12z"/>
    </g>
    <g>
     <path class="fil1" d="M9356.47 5741.3c-1.15,-1.8 -3.09,-13.13 -3.62,-16.48 -0.88,-5.58 -1.33,-11.4 -1.45,-17.28 -1.51,-79.82 66.36,-130.94 135.4,-95.32 54.15,27.95 83.11,98.1 65.19,157.08 -3.78,12.43 -9.46,23.59 -16.12,32.48 -6.12,8.17 -13.8,15.63 -20.87,20.29 -9.01,5.93 -14.36,8.14 -24.18,12.28 -32.85,13.81 -66.39,28.75 -99.29,42.93 -3.03,1.31 -23.5,10.59 -24.79,10.49 -0.33,-1.58 -1.32,-4.31 -2.01,-7.58 -0.6,-2.84 -0.84,-5.03 -1.07,-7.82 -1.54,-18.16 6.64,-34.46 18.25,-42.37l93.13 -40.81c7.6,-3.24 14.59,-5.78 22.07,-12.9 33.47,-31.86 22.16,-98.28 -23.15,-121.77 -33.92,-17.58 -67.34,-0.54 -78.17,32.67 -2.11,6.48 -3.33,13.54 -3.56,20.15 -0.29,7.99 1.17,17.57 1.2,18.08l-36.95 15.89z"/>
     <path class="fil1" d="M9504.97 5850.93c1.14,1.81 3.08,13.14 3.61,16.48 0.89,5.59 1.34,11.4 1.45,17.29 1.52,79.82 -66.36,130.94 -135.39,95.31 -54.15,-27.94 -83.12,-98.09 -65.19,-157.07 3.77,-12.43 9.45,-23.59 16.12,-32.48 6.12,-8.17 13.79,-15.63 20.87,-20.29 9,-5.93 14.35,-8.15 24.18,-12.28 32.85,-13.82 66.39,-28.75 99.28,-42.94 3.04,-1.3 23.5,-10.59 24.8,-10.47 0.33,1.58 1.31,4.31 2,7.58 0.6,2.84 0.85,5.03 1.08,7.82 1.53,18.16 -6.64,34.46 -18.26,42.37l-93.13 40.81c-7.59,3.24 -14.59,5.77 -22.07,12.9 -33.46,31.86 -22.16,98.28 23.15,121.76 33.92,17.59 67.35,0.55 78.17,-32.66 2.12,-6.48 3.33,-13.54 3.56,-20.15 0.29,-7.99 -1.17,-17.57 -1.19,-18.08l36.95 -15.9z"/>
    </g>
    <g>
     <path class="fil1" d="M9416.18 5233.99c-1.6,-1.13 -6.34,-10.4 -7.71,-13.16 -2.26,-4.61 -4.16,-9.61 -5.73,-14.8 -21.29,-70.6 34.01,-145.36 111.95,-143.18 61.14,1.7 107.52,51.89 104.19,112.22 -0.7,12.72 -3.63,25.12 -8.09,35.91 -4.1,9.92 -9.94,19.88 -15.87,27.07 -7.54,9.16 -12.35,13.43 -21.17,21.34 -29.46,26.42 -59.36,54.15 -88.77,80.94 -2.72,2.47 -20.91,19.53 -22.24,20 -0.71,-1.28 -2.38,-3.29 -3.88,-5.91 -1.3,-2.28 -2.1,-4.13 -3.02,-6.52 -6.03,-15.55 -1.89,-33.61 7.78,-45.66l83.13 -76.39c6.81,-6.16 13.17,-11.43 18.89,-20.99 25.61,-42.8 -2.17,-97.23 -53.35,-98.75 -38.33,-1.15 -67.56,28.41 -70.17,62.7 -0.51,6.68 0.03,13.51 1.43,19.51 1.69,7.25 5.53,15.19 5.68,15.62l-33.06 30.05z"/>
     <path class="fil1" d="M9592.01 5268.11c1.59,1.13 6.34,10.4 7.7,13.16 2.27,4.61 4.16,9.61 5.73,14.8 21.3,70.6 -34,145.36 -111.94,143.18 -61.14,-1.7 -107.52,-51.89 -104.19,-112.22 0.69,-12.72 3.62,-25.12 8.09,-35.92 4.1,-9.91 9.94,-19.87 15.87,-27.05 7.54,-9.16 12.34,-13.43 21.17,-21.34 29.46,-26.42 59.35,-54.15 88.77,-80.94 2.72,-2.47 20.91,-19.53 22.23,-20 0.72,1.28 2.39,3.29 3.88,5.91 1.31,2.28 2.1,4.13 3.03,6.52 6.03,15.55 1.88,33.61 -7.79,45.66l-83.12 76.39c-6.81,6.16 -13.18,11.43 -18.9,20.99 -25.61,42.8 2.17,97.23 53.36,98.75 38.33,1.15 67.56,-28.41 70.16,-62.7 0.52,-6.68 -0.02,-13.51 -1.43,-19.51 -1.68,-7.25 -5.52,-15.19 -5.67,-15.62l33.06 -30.05z"/>
    </g>
    <g>
     <path class="fil1" d="M9353.17 4113.95c-1.6,-1.08 -6.52,-10.31 -7.92,-13.05 -2.36,-4.58 -4.34,-9.57 -6.01,-14.76 -22.63,-70.48 30.8,-146.88 108.34,-146.46 60.83,0.33 107.98,49.72 105.93,110.45 -0.43,12.8 -3.08,25.33 -7.29,36.28 -3.87,10.05 -9.48,20.2 -15.23,27.56 -7.3,9.38 -12,13.78 -20.6,21.93 -28.75,27.24 -57.9,55.78 -86.6,83.38 -2.64,2.54 -20.38,20.11 -21.69,20.61 -0.73,-1.26 -2.44,-3.24 -3.99,-5.85 -1.34,-2.26 -2.17,-4.11 -3.13,-6.49 -6.32,-15.5 -2.57,-33.74 6.79,-46.07l81.08 -78.69c6.63,-6.34 12.86,-11.78 18.36,-21.52 24.58,-43.6 -4.17,-97.69 -55.09,-98.06 -38.14,-0.28 -66.6,30.09 -68.48,64.63 -0.36,6.74 0.31,13.58 1.82,19.59 1.84,7.25 5.81,15.14 5.97,15.58l-32.25 30.95z"/>
     <path class="fil1" d="M9528.71 4144.27c1.61,1.08 6.52,10.31 7.93,13.05 2.34,4.58 4.34,9.57 6,14.76 22.63,70.48 -30.8,146.88 -108.34,146.46 -60.83,-0.33 -107.98,-49.72 -105.93,-110.45 0.43,-12.8 3.09,-25.33 7.3,-36.28 3.87,-10.05 9.47,-20.2 15.22,-27.56 7.31,-9.38 12,-13.78 20.61,-21.93 28.75,-27.24 57.89,-55.78 86.59,-83.38 2.64,-2.54 20.38,-20.11 21.69,-20.61 0.74,1.26 2.44,3.24 3.99,5.85 1.34,2.26 2.17,4.11 3.14,6.49 6.32,15.5 2.57,33.74 -6.8,46.07l-81.07 78.69c-6.64,6.34 -12.86,11.78 -18.36,21.52 -24.58,43.6 4.16,97.69 55.09,98.06 38.13,0.28 66.59,-30.09 68.47,-64.63 0.37,-6.74 -0.3,-13.58 -1.82,-19.59 -1.83,-7.25 -5.81,-15.14 -5.96,-15.58l32.24 -30.95z"/>
    </g>
    <g>
     <path class="fil1" d="M9284.9 3549c-1.67,-1 -7.12,-9.92 -8.68,-12.57 -2.61,-4.43 -4.9,-9.29 -6.86,-14.38 -26.71,-69.04 22.17,-148.42 99.59,-152.55 60.75,-3.23 110.71,43.33 112.21,104.07 0.31,12.8 -1.6,25.47 -5.17,36.65 -3.29,10.26 -8.28,20.71 -13.58,28.41 -6.76,9.78 -11.18,14.45 -19.29,23.09 -27.12,28.87 -54.54,59.08 -81.58,88.29 -2.49,2.7 -19.17,21.27 -20.45,21.85 -0.81,-1.22 -2.61,-3.1 -4.32,-5.61 -1.48,-2.18 -2.41,-3.98 -3.51,-6.29 -7.21,-15.1 -4.53,-33.53 4.09,-46.39l76.34 -83.28c6.25,-6.72 12.15,-12.51 17.07,-22.56 21.98,-44.97 -9.88,-97.28 -60.73,-94.68 -38.08,1.95 -64.72,33.93 -64.57,68.52 0.02,6.74 1.1,13.54 2.96,19.45 2.24,7.13 6.67,14.77 6.86,15.2l-30.38 32.79z"/>
     <path class="fil1" d="M9461.91 3569c1.67,0.99 7.12,9.91 8.68,12.56 2.61,4.43 4.9,9.3 6.86,14.38 26.71,69.05 -22.16,148.44 -99.59,152.55 -60.75,3.23 -110.71,-43.33 -112.2,-104.07 -0.32,-12.8 1.59,-25.46 5.17,-36.64 3.27,-10.27 8.27,-20.71 13.57,-28.41 6.76,-9.79 11.19,-14.46 19.3,-23.1 27.11,-28.87 54.53,-59.07 81.57,-88.29 2.49,-2.7 19.17,-21.27 20.45,-21.84 0.82,1.22 2.62,3.1 4.32,5.61 1.48,2.18 2.41,3.97 3.51,6.28 7.22,15.1 4.53,33.54 -4.09,46.39l-76.33 83.28c-6.26,6.72 -12.16,12.52 -17.08,22.57 -21.98,44.96 9.88,97.28 60.73,94.67 38.09,-1.95 64.72,-33.93 64.58,-68.51 -0.03,-6.75 -1.11,-13.55 -2.96,-19.45 -2.25,-7.14 -6.68,-14.77 -6.87,-15.21l30.38 -32.78z"/>
    </g>
    <g>
     <path class="fil1" d="M9229.08 2957.28c-1.62,-1.06 -6.69,-10.21 -8.14,-12.92 -2.43,-4.55 -4.49,-9.5 -6.25,-14.67 -23.81,-70.17 28.25,-147.55 105.71,-148.44 60.76,-0.7 108.69,47.95 107.68,108.77 -0.22,12.82 -2.65,25.41 -6.67,36.45 -3.7,10.12 -9.12,20.37 -14.73,27.84 -7.14,9.51 -11.76,14 -20.21,22.3 -28.25,27.75 -56.88,56.82 -85.07,84.91 -2.59,2.59 -20.01,20.47 -21.31,20.99 -0.76,-1.25 -2.49,-3.2 -4.08,-5.78 -1.38,-2.24 -2.23,-4.08 -3.24,-6.44 -6.58,-15.41 -3.14,-33.74 6,-46.24l79.63 -80.12c6.52,-6.47 12.64,-12 17.97,-21.86 23.8,-44.06 -5.84,-97.71 -56.7,-97.23 -38.09,0.37 -65.99,31.25 -67.28,65.84 -0.26,6.75 0.54,13.59 2.15,19.58 1.95,7.23 6.05,15.05 6.23,15.5l-31.68 31.52z"/>
     <path class="fil1" d="M9404.92 2984.67c1.62,1.07 6.68,10.22 8.14,12.93 2.43,4.55 4.49,9.5 6.25,14.67 23.81,70.17 -28.26,147.55 -105.71,148.44 -60.76,0.69 -108.69,-47.95 -107.68,-108.77 0.22,-12.82 2.65,-25.41 6.67,-36.45 3.7,-10.13 9.12,-20.37 14.73,-27.85 7.14,-9.5 11.76,-13.99 20.21,-22.29 28.25,-27.75 56.87,-56.82 85.06,-84.91 2.6,-2.59 20.02,-20.47 21.32,-20.99 0.76,1.25 2.49,3.2 4.08,5.78 1.38,2.24 2.23,4.08 3.24,6.44 6.58,15.4 3.14,33.74 -6,46.24l-79.63 80.12c-6.53,6.46 -12.65,12 -17.97,21.85 -23.8,44.06 5.84,97.72 56.69,97.23 38.1,-0.36 66,-31.24 67.29,-65.83 0.26,-6.75 -0.54,-13.59 -2.15,-19.59 -1.95,-7.22 -6.06,-15.05 -6.23,-15.49l31.68 -31.53z"/>
    </g>
    <g>
     <path class="fil1" d="M9200.1 2340.23c-1.63,-1.04 -6.83,-10.14 -8.33,-12.84 -2.49,-4.52 -4.64,-9.46 -6.47,-14.62 -24.89,-70.01 25.77,-148.35 102.98,-150.39 60.58,-1.6 109.17,46.47 109.14,107.46 0,12.86 -2.22,25.52 -6.05,36.64 -3.52,10.21 -8.76,20.56 -14.24,28.14 -6.96,9.64 -11.49,14.2 -19.78,22.65 -27.72,28.24 -55.78,57.81 -83.44,86.39 -2.55,2.63 -19.62,20.83 -20.91,21.36 -0.79,-1.24 -2.53,-3.17 -4.16,-5.73 -1.42,-2.23 -2.29,-4.06 -3.34,-6.42 -6.82,-15.34 -3.69,-33.77 5.23,-46.44l78.1 -81.51c6.39,-6.58 12.41,-12.23 17.55,-22.18 23.02,-44.53 -7.41,-97.89 -58.11,-96.65 -37.97,0.93 -65.3,32.31 -66.02,67.01 -0.14,6.77 0.75,13.63 2.46,19.6 2.07,7.22 6.29,15.01 6.46,15.44l-31.07 32.08z"/>
     <path class="fil1" d="M9375.88 2365.09c1.64,1.04 6.84,10.13 8.34,12.84 2.49,4.52 4.64,9.46 6.47,14.62 24.89,70.01 -25.77,148.35 -102.98,150.39 -60.58,1.6 -109.17,-46.47 -109.14,-107.46 0,-12.86 2.22,-25.53 6.05,-36.64 3.52,-10.22 8.76,-20.57 14.24,-28.14 6.96,-9.64 11.49,-14.2 19.78,-22.65 27.72,-28.24 55.78,-57.81 83.44,-86.39 2.55,-2.64 19.62,-20.83 20.91,-21.37 0.77,1.25 2.53,3.18 4.16,5.74 1.42,2.23 2.29,4.06 3.34,6.4 6.82,15.35 3.69,33.78 -5.23,46.44l-78.1 81.52c-6.39,6.58 -12.41,12.22 -17.55,22.18 -23.02,44.52 7.4,97.89 58.11,96.65 37.97,-0.94 65.3,-32.31 66.02,-67.01 0.14,-6.77 -0.75,-13.63 -2.46,-19.6 -2.07,-7.22 -6.29,-15.01 -6.46,-15.44l31.06 -32.08z"/>
    </g>
    <g>
     <path class="fil1" d="M9190.14 1702.68c-1.58,-1.13 -6.3,-10.47 -7.65,-13.25 -2.26,-4.65 -4.14,-9.69 -5.71,-14.93 -21.25,-71.2 33.38,-146.83 110.6,-144.89 60.58,1.52 106.63,52.03 103.46,112.94 -0.66,12.84 -3.53,25.37 -7.93,36.28 -4.04,10.01 -9.8,20.08 -15.66,27.36 -7.46,9.27 -12.21,13.59 -20.93,21.6 -29.13,26.79 -58.69,54.86 -87.77,81.99 -2.69,2.5 -20.67,19.78 -21.98,20.26 -0.72,-1.28 -2.38,-3.31 -3.86,-5.95 -1.3,-2.29 -2.09,-4.16 -3.01,-6.57 -6.01,-15.67 -1.94,-33.91 7.61,-46.1l82.19 -77.38c6.72,-6.24 13.03,-11.58 18.68,-21.25 25.28,-43.28 -2.36,-98.14 -53.07,-99.51 -37.96,-1.02 -66.87,28.9 -69.38,63.52 -0.49,6.76 0.05,13.65 1.46,19.7 1.68,7.31 5.5,15.31 5.65,15.75l-32.68 30.43z"/>
     <path class="fil1" d="M9364.41 1736.56c1.58,1.13 6.3,10.47 7.65,13.25 2.25,4.65 4.14,9.69 5.71,14.93 21.24,71.2 -33.38,146.83 -110.6,144.89 -60.58,-1.52 -106.63,-52.03 -103.47,-112.94 0.67,-12.84 3.54,-25.37 7.94,-36.28 4.04,-10.01 9.8,-20.08 15.66,-27.36 7.45,-9.27 12.21,-13.59 20.92,-21.6 29.13,-26.78 58.69,-54.86 87.78,-81.99 2.69,-2.5 20.67,-19.78 21.98,-20.26 0.71,1.28 2.37,3.31 3.86,5.95 1.3,2.29 2.09,4.16 3.01,6.57 6.01,15.67 1.94,33.91 -7.61,46.11l-82.19 77.37c-6.72,6.24 -13.03,11.58 -18.68,21.25 -25.28,43.28 2.36,98.15 53.06,99.51 37.97,1.02 66.88,-28.9 69.39,-63.52 0.49,-6.76 -0.06,-13.65 -1.46,-19.7 -1.68,-7.31 -5.51,-15.31 -5.65,-15.75l32.68 -30.43z"/>
    </g>
    <g>
     <path class="fil1" d="M9266.6 1111.2c-1.45,-1.3 -5.09,-11.15 -6.13,-14.07 -1.73,-4.88 -3.05,-10.1 -4.02,-15.51 -13.19,-73.3 49.33,-142.54 125.67,-131.97 59.88,8.28 99.96,63.75 90.08,124.08 -2.08,12.72 -6.3,24.88 -11.88,35.25 -5.11,9.53 -11.94,18.91 -18.55,25.52 -8.41,8.4 -13.6,12.18 -23.13,19.18 -31.85,23.42 -64.24,48.09 -96.08,71.87 -2.93,2.19 -22.67,17.4 -24.04,17.72 -0.57,-1.35 -1.98,-3.55 -3.17,-6.35 -1.03,-2.44 -1.6,-4.39 -2.25,-6.88 -4.23,-16.29 1.83,-34.01 12.64,-45.09l90.04 -67.9c7.37,-5.45 14.19,-10.06 20.87,-19.07 29.84,-40.3 8.52,-98.03 -41.6,-105.07 -37.53,-5.27 -69.49,21.31 -75.81,55.53 -1.23,6.66 -1.45,13.59 -0.73,19.78 0.87,7.48 3.76,15.87 3.86,16.32l-35.76 26.67z"/>
     <path class="fil1" d="M9435.61 1164.42c1.45,1.3 5.09,11.15 6.13,14.07 1.73,4.88 3.05,10.1 4.02,15.51 13.19,73.3 -49.33,142.54 -125.67,131.97 -59.88,-8.28 -99.96,-63.75 -90.08,-124.08 2.08,-12.72 6.3,-24.88 11.88,-35.25 5.11,-9.53 11.94,-18.91 18.55,-25.52 8.41,-8.4 13.6,-12.18 23.13,-19.18 31.85,-23.42 64.24,-48.09 96.08,-71.87 2.93,-2.19 22.67,-17.4 24.04,-17.72 0.57,1.35 1.98,3.55 3.17,6.35 1.03,2.44 1.6,4.38 2.25,6.88 4.23,16.29 -1.83,34.01 -12.64,45.09l-90.04 67.9c-7.37,5.45 -14.19,10.06 -20.87,19.07 -29.84,40.3 -8.52,98.03 41.6,105.07 37.53,5.27 69.49,-21.31 75.81,-55.53 1.23,-6.66 1.45,-13.59 0.73,-19.78 -0.87,-7.48 -3.76,-15.87 -3.86,-16.32l35.76 -26.67z"/>
    </g>
   </g>
   <g>
    <g>
     <path class="fil1" d="M624.09 6336.53c1.26,-1.28 3.67,-11.06 4.33,-13.97 1.12,-4.84 1.79,-10.06 2.1,-15.44 4.27,-73.15 -64.89,-143.82 -138.19,-134.83 -57.49,7.05 -90.1,61.76 -73.38,122.4 3.52,12.78 9.09,25.05 15.74,35.56 6.12,9.65 13.88,19.19 21.1,25.95 9.2,8.58 14.72,12.48 24.84,19.7 33.83,24.12 68.37,49.51 102.24,74 3.13,2.25 24.19,17.9 25.55,18.25 0.39,-1.34 1.52,-3.52 2.36,-6.3 0.72,-2.42 1.05,-4.36 1.39,-6.85 2.21,-16.23 -5.78,-34.1 -17.64,-45.42l-95.89 -69.9c-7.82,-5.62 -15.04,-10.38 -22.6,-19.54 -33.87,-40.98 -19.83,-98.37 28.27,-104.37 36.02,-4.49 70.35,22.8 80.53,57.2 1.98,6.7 3.02,13.66 3.04,19.84 0.04,7.47 -1.81,15.81 -1.85,16.26l38.05 27.47z"/>
     <path class="fil1" d="M465.33 6386.3c-1.25,1.27 -3.66,11.05 -4.33,13.96 -1.11,4.86 -1.78,10.07 -2.09,15.45 -4.28,73.15 64.89,143.82 138.18,134.83 57.5,-7.05 90.1,-61.76 73.38,-122.4 -3.52,-12.78 -9.08,-25.05 -15.73,-35.56 -6.12,-9.65 -13.88,-19.19 -21.12,-25.95 -9.19,-8.58 -14.71,-12.48 -24.83,-19.7 -33.84,-24.12 -68.37,-49.51 -102.25,-74 -3.12,-2.25 -24.18,-17.9 -25.55,-18.25 -0.39,1.34 -1.51,3.51 -2.34,6.3 -0.72,2.42 -1.05,4.36 -1.39,6.84 -2.21,16.24 5.78,34.11 17.64,45.43l95.87 69.9c7.83,5.62 15.04,10.38 22.61,19.54 33.87,40.98 19.83,98.37 -28.27,104.37 -36.02,4.49 -70.35,-22.8 -80.53,-57.21 -1.98,-6.7 -3.02,-13.65 -3.05,-19.83 -0.03,-7.47 1.82,-15.81 1.86,-16.27l-38.06 -27.46z"/>
    </g>
    <g>
     <path class="fil1" d="M982.84 7162.72c0.44,-1.48 -1.69,-10.63 -2.37,-13.33 -1.13,-4.51 -2.74,-9.2 -4.7,-13.94 -26.55,-64.24 -108.36,-103.94 -160.87,-73.85 -41.2,23.61 -43.88,80.64 -6.34,127.71 7.91,9.92 17.18,18.78 26.56,25.79 8.63,6.44 18.47,12.28 26.76,15.88 10.56,4.59 16.37,6.26 27.08,9.38 35.76,10.43 72.59,21.73 108.53,32.47 3.32,0.99 25.84,8.03 27.02,7.91 -0.25,-1.28 -0.27,-3.49 -0.76,-6.14 -0.43,-2.3 -0.97,-4.07 -1.73,-6.32 -4.93,-14.64 -18.34,-27.57 -32.04,-33.7l-101.98 -30.89c-8.3,-2.46 -15.76,-4.35 -25.3,-9.93 -42.67,-24.93 -55.31,-78.59 -20.88,-98.43 25.77,-14.85 63.21,-1.84 85.05,24.65 4.25,5.17 7.87,10.83 10.41,16.14 3.07,6.43 5.06,14.16 5.21,14.57l40.36 12.01z"/>
     <path class="fil1" d="M881.45 7254c-0.44,1.48 1.7,10.63 2.38,13.33 1.13,4.51 2.74,9.2 4.69,13.94 26.55,64.24 108.37,103.94 160.88,73.85 41.2,-23.61 43.87,-80.64 6.34,-127.71 -7.91,-9.92 -17.18,-18.78 -26.56,-25.79 -8.63,-6.44 -18.47,-12.27 -26.77,-15.88 -10.55,-4.59 -16.36,-6.25 -27.07,-9.37 -35.77,-10.43 -72.59,-21.75 -108.53,-32.48 -3.32,-0.98 -25.84,-8.03 -27.02,-7.91 0.25,1.28 0.27,3.49 0.76,6.14 0.43,2.3 0.97,4.07 1.73,6.32 4.92,14.64 18.34,27.58 32.04,33.7l101.98 30.9c8.3,2.45 15.76,4.34 25.3,9.92 42.67,24.93 55.31,78.59 20.88,98.43 -25.77,14.85 -63.22,1.85 -85.05,-24.65 -4.26,-5.17 -7.87,-10.83 -10.41,-16.14 -3.08,-6.42 -5.06,-14.15 -5.22,-14.57l-40.36 -12.01z"/>
    </g>
    <g>
     <path class="fil1" d="M788.89 6814.2c1.25,-1.28 3.48,-10.96 4.1,-13.83 1.02,-4.8 1.59,-9.95 1.8,-15.27 2.81,-72.13 -68.85,-140.34 -143.04,-130.01 -58.2,8.1 -90.15,62.64 -71.92,122.03 3.84,12.52 9.74,24.49 16.71,34.71 6.4,9.38 14.49,18.63 21.96,25.12 9.52,8.28 15.2,12 25.62,18.9 34.84,23.09 70.42,47.4 105.31,70.82 3.22,2.17 24.92,17.15 26.31,17.47 0.37,-1.33 1.47,-3.49 2.25,-6.25 0.68,-2.4 0.98,-4.32 1.27,-6.77 1.91,-16.03 -6.58,-33.48 -18.85,-44.39l-98.76 -66.92c-8.06,-5.38 -15.49,-9.93 -23.36,-18.8 -35.23,-39.69 -22.18,-96.49 26.52,-103.36 36.47,-5.15 71.88,21.04 82.93,54.72 2.15,6.57 3.34,13.39 3.5,19.47 0.19,7.37 -1.51,15.61 -1.55,16.06l39.19 26.28z"/>
     <path class="fil1" d="M628.8 6866.43c-1.25,1.28 -3.49,10.96 -4.1,13.83 -1.02,4.79 -1.6,9.95 -1.81,15.26 -2.8,72.14 68.86,140.35 143.05,130.02 58.2,-8.1 90.15,-62.65 71.92,-122.03 -3.85,-12.52 -9.74,-24.49 -16.71,-34.71 -6.4,-9.38 -14.49,-18.63 -21.97,-25.13 -9.51,-8.27 -15.2,-11.99 -25.62,-18.9 -34.84,-23.08 -70.41,-47.38 -105.31,-70.81 -3.21,-2.17 -24.92,-17.16 -26.3,-17.47 -0.37,1.33 -1.47,3.49 -2.25,6.25 -0.69,2.4 -0.98,4.31 -1.27,6.77 -1.91,16.03 6.57,33.48 18.85,44.39l98.76 66.92c8.06,5.38 15.47,9.93 23.36,18.8 35.23,39.68 22.17,96.49 -26.53,103.36 -36.46,5.14 -71.87,-21.04 -82.92,-54.72 -2.15,-6.57 -3.35,-13.39 -3.5,-19.47 -0.19,-7.37 1.51,-15.62 1.55,-16.06l-39.19 -26.28z"/>
    </g>
    <g>
     <path class="fil1" d="M373.89 3002.61c1.45,-1.23 5.15,-10.77 6.2,-13.6 1.76,-4.73 3.11,-9.83 4.12,-15.1 13.72,-71.57 -47.72,-141.81 -123.57,-134.13 -59.5,6.03 -99.74,59.12 -90.47,118.75 1.96,12.57 6.05,24.67 11.49,35.06 4.99,9.55 11.69,19.01 18.19,25.72 8.27,8.55 13.4,12.46 22.79,19.67 31.4,24.14 63.35,49.53 94.73,74.02 2.89,2.26 22.35,17.9 23.7,18.26 0.58,-1.31 1.99,-3.42 3.2,-6.13 1.05,-2.37 1.63,-4.26 2.29,-6.68 4.34,-15.87 -1.52,-33.49 -12.16,-44.75l-88.76 -69.92c-7.25,-5.62 -14,-10.39 -20.55,-19.48 -29.27,-40.65 -7.6,-96.63 42.2,-101.77 37.29,-3.84 68.78,23.41 74.75,57.25 1.17,6.59 1.32,13.41 0.56,19.46 -0.92,7.31 -3.87,15.45 -3.98,15.91l35.27 27.47z"/>
     <path class="fil1" d="M205.7 3048.94c-1.44,1.22 -5.14,10.76 -6.2,13.59 -1.76,4.73 -3.1,9.83 -4.11,15.1 -13.73,71.57 47.72,141.81 123.56,134.13 59.5,-6.03 99.75,-59.12 90.47,-118.75 -1.95,-12.56 -6.04,-24.67 -11.49,-35.06 -4.99,-9.55 -11.68,-19.01 -18.19,-25.72 -8.27,-8.55 -13.4,-12.45 -22.79,-19.67 -31.39,-24.14 -63.33,-49.53 -94.73,-74.02 -2.89,-2.26 -22.35,-17.9 -23.7,-18.26 -0.57,1.31 -1.99,3.42 -3.2,6.14 -1.04,2.36 -1.63,4.25 -2.29,6.67 -4.34,15.87 1.52,33.49 12.16,44.76l88.77 69.9c7.25,5.63 14,10.39 20.54,19.48 29.27,40.65 7.6,96.63 -42.2,101.77 -37.29,3.85 -68.78,-23.4 -74.75,-57.24 -1.16,-6.6 -1.32,-13.42 -0.56,-19.47 0.92,-7.31 3.87,-15.45 3.98,-15.9l-35.27 -27.47z"/>
    </g>
    <g>
     <path class="fil1" d="M405.25 3560.92c1.45,-1.23 5.15,-10.77 6.2,-13.6 1.76,-4.73 3.11,-9.83 4.12,-15.1 13.72,-71.57 -47.72,-141.81 -123.57,-134.13 -59.5,6.03 -99.74,59.12 -90.47,118.75 1.96,12.57 6.05,24.67 11.49,35.06 4.99,9.55 11.69,19.01 18.19,25.72 8.27,8.55 13.4,12.46 22.79,19.67 31.4,24.14 63.35,49.53 94.73,74.02 2.89,2.26 22.35,17.9 23.7,18.26 0.58,-1.31 1.99,-3.42 3.2,-6.13 1.05,-2.37 1.63,-4.26 2.29,-6.68 4.34,-15.87 -1.52,-33.49 -12.16,-44.75l-88.76 -69.92c-7.25,-5.62 -14,-10.39 -20.55,-19.48 -29.27,-40.65 -7.6,-96.63 42.2,-101.77 37.29,-3.84 68.78,23.41 74.75,57.25 1.17,6.59 1.32,13.41 0.56,19.46 -0.92,7.31 -3.87,15.45 -3.98,15.91l35.27 27.47z"/>
     <path class="fil1" d="M237.05 3607.25c-1.44,1.22 -5.14,10.76 -6.2,13.59 -1.76,4.73 -3.1,9.83 -4.11,15.1 -13.73,71.57 47.72,141.81 123.56,134.13 59.5,-6.03 99.75,-59.12 90.47,-118.75 -1.95,-12.56 -6.04,-24.67 -11.49,-35.06 -4.99,-9.55 -11.68,-19.01 -18.19,-25.72 -8.27,-8.55 -13.4,-12.45 -22.79,-19.67 -31.39,-24.14 -63.33,-49.53 -94.73,-74.02 -2.89,-2.26 -22.35,-17.9 -23.7,-18.26 -0.57,1.31 -1.99,3.42 -3.2,6.14 -1.04,2.36 -1.63,4.25 -2.29,6.67 -4.34,15.87 1.52,33.49 12.16,44.76l88.77 69.9c7.25,5.63 14,10.39 20.54,19.48 29.27,40.65 7.6,96.63 -42.2,101.77 -37.29,3.85 -68.78,-23.4 -74.75,-57.24 -1.16,-6.6 -1.32,-13.42 -0.56,-19.47 0.92,-7.31 3.87,-15.45 3.98,-15.9l-35.27 -27.47z"/>
    </g>
    <g>
     <path class="fil1" d="M439.55 4109.41c1.45,-1.23 5.15,-10.77 6.2,-13.6 1.76,-4.73 3.11,-9.83 4.12,-15.1 13.72,-71.57 -47.72,-141.81 -123.57,-134.13 -59.5,6.03 -99.74,59.12 -90.47,118.75 1.96,12.57 6.05,24.67 11.49,35.06 4.99,9.55 11.69,19.01 18.19,25.72 8.27,8.55 13.4,12.46 22.79,19.67 31.4,24.14 63.35,49.53 94.73,74.02 2.89,2.26 22.35,17.9 23.7,18.26 0.58,-1.31 1.99,-3.42 3.2,-6.13 1.05,-2.37 1.63,-4.26 2.29,-6.68 4.34,-15.87 -1.52,-33.49 -12.16,-44.75l-88.76 -69.92c-7.25,-5.62 -14,-10.39 -20.55,-19.48 -29.27,-40.65 -7.6,-96.63 42.2,-101.77 37.29,-3.84 68.78,23.41 74.75,57.25 1.17,6.59 1.32,13.41 0.56,19.46 -0.92,7.31 -3.87,15.45 -3.98,15.91l35.27 27.47z"/>
     <path class="fil1" d="M271.35 4155.74c-1.44,1.22 -5.14,10.76 -6.2,13.59 -1.76,4.73 -3.1,9.83 -4.11,15.1 -13.73,71.57 47.72,141.81 123.56,134.13 59.5,-6.03 99.75,-59.12 90.47,-118.75 -1.95,-12.56 -6.04,-24.67 -11.49,-35.06 -4.99,-9.55 -11.68,-19.01 -18.19,-25.72 -8.27,-8.55 -13.4,-12.45 -22.79,-19.67 -31.39,-24.14 -63.33,-49.53 -94.73,-74.02 -2.89,-2.26 -22.35,-17.9 -23.7,-18.26 -0.57,1.31 -1.99,3.42 -3.2,6.14 -1.04,2.36 -1.63,4.25 -2.29,6.67 -4.34,15.87 1.52,33.49 12.16,44.76l88.77 69.9c7.25,5.63 14,10.39 20.54,19.48 29.27,40.65 7.6,96.63 -42.2,101.77 -37.29,3.85 -68.78,-23.4 -74.75,-57.24 -1.16,-6.6 -1.32,-13.42 -0.56,-19.47 0.92,-7.31 3.87,-15.45 3.98,-15.9l-35.27 -27.47z"/>
    </g>
    <g>
     <path class="fil1" d="M415.51 4677.82c1.45,-1.23 5.15,-10.77 6.2,-13.6 1.76,-4.73 3.11,-9.83 4.12,-15.1 13.72,-71.57 -47.72,-141.81 -123.57,-134.13 -59.5,6.03 -99.74,59.12 -90.47,118.75 1.96,12.57 6.05,24.67 11.49,35.06 4.99,9.55 11.69,19.01 18.19,25.72 8.27,8.55 13.4,12.46 22.79,19.67 31.4,24.14 63.35,49.53 94.73,74.02 2.89,2.26 22.35,17.9 23.7,18.26 0.58,-1.31 1.99,-3.42 3.2,-6.13 1.05,-2.37 1.63,-4.26 2.29,-6.68 4.34,-15.87 -1.52,-33.49 -12.16,-44.75l-88.76 -69.92c-7.25,-5.62 -14,-10.39 -20.55,-19.48 -29.27,-40.65 -7.6,-96.63 42.2,-101.77 37.29,-3.84 68.78,23.41 74.75,57.25 1.17,6.59 1.32,13.41 0.56,19.46 -0.92,7.31 -3.87,15.45 -3.98,15.91l35.27 27.47z"/>
     <path class="fil1" d="M247.32 4724.15c-1.44,1.22 -5.14,10.76 -6.2,13.59 -1.76,4.73 -3.1,9.83 -4.11,15.1 -13.73,71.57 47.72,141.81 123.56,134.13 59.5,-6.03 99.75,-59.12 90.47,-118.75 -1.95,-12.56 -6.04,-24.67 -11.49,-35.06 -4.99,-9.55 -11.68,-19.01 -18.19,-25.72 -8.27,-8.55 -13.4,-12.45 -22.79,-19.67 -31.39,-24.14 -63.33,-49.53 -94.73,-74.02 -2.89,-2.26 -22.35,-17.9 -23.7,-18.26 -0.57,1.31 -1.99,3.42 -3.2,6.14 -1.04,2.36 -1.63,4.25 -2.29,6.67 -4.34,15.87 1.52,33.49 12.16,44.76l88.77 69.9c7.25,5.63 14,10.39 20.54,19.48 29.27,40.65 7.6,96.63 -42.2,101.77 -37.29,3.85 -68.78,-23.4 -74.75,-57.24 -1.16,-6.6 -1.32,-13.42 -0.56,-19.47 0.92,-7.31 3.87,-15.45 3.98,-15.9l-35.27 -27.47z"/>
    </g>
    <g>
     <path class="fil1" d="M404.89 5231.75c1.53,-1.08 5.94,-10.24 7.2,-12.95 2.1,-4.53 3.82,-9.48 5.23,-14.64 19.02,-69.93 -37.03,-145.72 -113.26,-145.32 -59.8,0.32 -103.89,49.32 -99.09,109.55 1.02,12.71 4.2,25.14 8.85,36 4.27,9.98 10.24,20.04 16.23,27.34 7.61,9.31 12.44,13.68 21.27,21.76 29.51,27.03 59.49,55.36 88.97,82.73 2.72,2.52 20.96,19.95 22.27,20.44 0.67,-1.25 2.25,-3.21 3.66,-5.81 1.22,-2.24 1.94,-4.07 2.79,-6.43 5.5,-15.37 0.97,-33.48 -8.8,-45.71l-83.33 -78.07c-6.82,-6.3 -13.19,-11.69 -19.04,-21.36 -26.17,-43.25 -0.39,-96.92 49.67,-97.27 37.48,-0.27 66.86,29.86 70.3,64.12 0.67,6.67 0.32,13.48 -0.89,19.43 -1.47,7.2 -5.02,15.02 -5.15,15.45l33.13 30.71z"/>
     <path class="fil1" d="M233.68 5261.8c-1.53,1.07 -5.94,10.23 -7.2,12.94 -2.1,4.55 -3.82,9.48 -5.23,14.64 -19.02,69.93 37.04,145.72 113.27,145.32 59.79,-0.31 103.89,-49.31 99.08,-109.55 -1.01,-12.7 -4.19,-25.13 -8.84,-36 -4.28,-9.98 -10.25,-20.03 -16.23,-27.34 -7.62,-9.31 -12.44,-13.68 -21.27,-21.76 -29.52,-27.03 -59.49,-55.35 -88.98,-82.72 -2.72,-2.53 -20.96,-19.96 -22.27,-20.45 -0.67,1.26 -2.25,3.22 -3.66,5.81 -1.22,2.24 -1.94,4.07 -2.78,6.43 -5.51,15.38 -0.98,33.48 8.79,45.71l83.33 78.07c6.82,6.3 13.19,11.69 19.04,21.36 26.18,43.26 0.39,96.92 -49.66,97.28 -37.49,0.27 -66.87,-29.86 -70.31,-64.13 -0.66,-6.67 -0.32,-13.47 0.9,-19.43 1.47,-7.19 5.01,-15.01 5.14,-15.44l-33.13 -30.71z"/>
    </g>
    <g>
     <path class="fil1" d="M472.73 5787.53c1.35,-1.33 4.36,-11.12 5.21,-14.02 1.4,-4.84 2.38,-10.02 3.01,-15.36 8.51,-72.36 -57.86,-137.98 -132.95,-124.82 -58.91,10.32 -95.2,66.19 -81.64,124.99 2.86,12.39 7.82,24.16 14,34.13 5.67,9.16 13.04,18.11 20.01,24.35 8.87,7.92 14.26,11.45 24.15,17.96 33.06,21.8 66.75,44.81 99.84,66.96 3.05,2.04 23.58,16.23 24.96,16.5 0.48,-1.35 1.74,-3.55 2.75,-6.35 0.87,-2.42 1.31,-4.35 1.81,-6.83 3.17,-16.13 -3.95,-33.28 -15.37,-43.75l-93.59 -63.29c-7.64,-5.09 -14.72,-9.36 -21.9,-17.95 -32.14,-38.42 -14.58,-95.82 34.71,-104.56 36.92,-6.54 70.3,18.37 78.71,51.68 1.64,6.5 2.29,13.28 1.96,19.38 -0.38,7.37 -2.74,15.69 -2.81,16.15l37.16 24.84z"/>
     <path class="fil1" d="M308.34 5845.92c-1.35,1.33 -4.36,11.12 -5.2,14.02 -1.4,4.84 -2.39,10.03 -3.02,15.36 -8.5,72.36 57.86,137.98 132.95,124.82 58.91,-10.32 95.2,-66.18 81.64,-124.99 -2.86,-12.39 -7.82,-24.16 -14,-34.13 -5.67,-9.15 -13.03,-18.11 -20,-24.34 -8.87,-7.93 -14.27,-11.45 -24.15,-17.97 -33.07,-21.8 -66.76,-44.8 -99.84,-66.96 -3.05,-2.04 -23.59,-16.23 -24.96,-16.5 -0.48,1.35 -1.75,3.55 -2.75,6.35 -0.88,2.43 -1.32,4.36 -1.81,6.83 -3.18,16.14 3.94,33.28 15.37,43.76l93.59 63.29c7.63,5.08 14.71,9.35 21.89,17.94 32.14,38.42 14.59,95.83 -34.71,104.56 -36.92,6.54 -70.3,-18.36 -78.71,-51.68 -1.63,-6.49 -2.29,-13.28 -1.96,-19.38 0.39,-7.37 2.74,-15.69 2.81,-16.15l-37.16 -24.84z"/>
    </g>
   </g>
  </g>
  <g id="_2544726042672">
   <path class="fil2" d="M9126.36 1159.98c-255.8,-75.31 -500.33,-143.58 -751.12,-206.59 -343.32,-86.27 -705.67,-139.63 -1046.09,-221.97 -281.61,-68.09 -531.26,-184.62 -802.52,-275.49l0.01 -4.16 -0.04 -9.27 -0.01 -1.47 -0.01 -0.2 -0.02 -1.27 -0.2 -10.35 -0.03 -1.35 -0.06 -1.9 -0.35 -9.79 -0.05 -1.31 -0.08 -1.5 -0.54 -10.09 -0.06 -1.24 -0.03 -0.37 -0.06 -0.9 -0.72 -10.4 -0.14 -1.78 -0.91 -10.24 -0.32 -3.26 -0.94 -8.77 -0.35 -2.96 -1.19 -9.29 -0.36 -2.67c-0.46,-3.34 -0.96,-6.63 -1.48,-9.93l-0.13 -0.86 -0.11 -0.64c-0.58,-3.57 -1.18,-7.12 -1.82,-10.63l-0.07 -0.44 -0.12 -0.67c-0.61,-3.34 -1.25,-6.65 -1.93,-9.94l-0.38 -1.86c-0.68,-3.26 -1.38,-6.5 -2.12,-9.71l-0.14 -0.65 -0.15 -0.64c-0.77,-3.35 -1.59,-6.68 -2.44,-9.99l-0.11 -0.48 -0.21 -0.8c-0.82,-3.2 -1.68,-6.36 -2.57,-9.5l-0.36 -1.25c-0.93,-3.22 -1.87,-6.4 -2.85,-9.57l-0.14 -0.46 -0.08 -0.25c-0.96,-3.05 -1.95,-6.07 -2.98,-9.08l-0.63 -1.86c-1.05,-3.04 -2.13,-6.05 -3.25,-9.04l-0.37 -0.96c-1.18,-3.11 -2.39,-6.2 -3.63,-9.25l-0.11 -0.29 -0.26 -0.59c-1.2,-2.9 -2.42,-5.76 -3.69,-8.62l-0.43 -0.99c-1.35,-3.01 -2.75,-5.99 -4.16,-8.94l-0.25 -0.51c-1.38,-2.84 -2.81,-5.67 -4.27,-8.45l-0.24 -0.45 -0.06 -0.13 -0.34 -0.62c-1.45,-2.72 -2.92,-5.4 -4.42,-8.06l-0.38 -0.69c-1.62,-2.85 -3.3,-5.65 -5,-8.42l-0.2 -0.32c-1.76,-2.84 -3.56,-5.65 -5.4,-8.41l186.38 3.8 182.58 49.44 163.55 53.25 140.74 60.87 235.82 72.26 283.88 66.72 348.68 75.65 558.08 106.38 390.52 78.1 224.12 44.24c-19.35,126.66 -36.21,246.82 -50.82,361.81z"/>
   <path class="fil1" d="M506.4 2836.13c215.41,-174.03 420.98,-335.99 633.62,-495.38 277.89,-208.29 578.82,-394.2 855.02,-597.84 268.22,-197.74 485.07,-438.82 749.28,-648.3l-6.11 -13.02 -0.02 -0.04 -1.5 -3.23 -1.49 -3.22 -1.48 -3.2 -1.47 -3.2 -4.34 -9.52 -1.42 -3.15 -5.69 -12.77 -3.75 -8.56 -0.11 -0.26 -0.11 -0.27 -0.11 -0.26 -0.11 -0.26 -0.11 -0.26 -0.11 -0.26 -0.11 -0.27 -0.11 -0.26 -0.44 -1.03 -0.11 -0.27 -4.97 -11.58 -0.11 -0.26 -0.1 -0.25 -0.11 -0.26 -0.1 -0.26 -0.11 -0.25 -0.1 -0.26 -0.03 -0.06 -2.13 -5.07 -0.11 -0.27 -0.11 -0.27 -0.1 -0.26 -0.11 -0.27 -0.11 -0.27 -0.11 -0.27 -6.17 -14.99 -0.1 -0.26 -0.24 -0.6 -2.01 -5.01 -0.11 -0.29 -0.11 -0.29 -0.12 -0.29 -0.11 -0.29 -0.11 -0.29 -0.11 -0.3 -0.11 -0.29c-1.96,-4.91 -3.83,-9.77 -5.69,-14.58l-0.11 -0.29 -0.1 -0.28 -0.11 -0.28 -0.1 -0.29 -0.11 -0.28 -0.1 -0.28 -0.89 -2.31 -0.02 -0.06 -0.11 -0.3c-2.28,-6.02 -4.45,-11.93 -6.54,-17.75l-0.1 -0.28 -0.1 -0.29 -0.48 -1.31 -0.08 -0.23c-2.33,-6.55 -4.55,-12.96 -6.61,-19.25l-0.21 -0.63c-2.06,-6.24 -3.99,-12.35 -5.78,-18.31l-0.09 -0.29 -0.08 -0.3 -0.09 -0.29 0.06 -0.05 -226.34 124.52 -138.77 96.54c-252.96,320.75 -903.52,765.68 -1291.1,1040.73l-253.4 147.82 -177.47 122.71 -105.07 70.44 -14.53 8.15 4.34 26.04 0.1 0.63 0.61 3.78 2.84 17.88 0.71 4.52 0.21 1.3 0.5 3.24 3.5 23.05 0.3 1.99 0.39 2.68 2.76 18.87 0.68 4.77 0.68 4.79 0.68 4.8 2.71 19.44 0.49 3.49 0.19 1.4 0.67 4.93 0.66 4.95 1.33 9.94 0.66 5 0.66 5.02 0.66 5.04 0.65 5.05 0.65 5.07 0.65 5.09 0.65 5.1 1.14 9 0.17 1.28 0.64 5.15 0.64 5.18 0.64 5.2 0.64 5.22 0.17 1.34 1.1 9.13 0.64 5.27 0.63 5.28 0.62 5.29 0.63 5.32 1.86 16.03 0.62 5.38 0.61 5.39 0.62 5.4 1.82 16.32 0.61 5.48 0.02 0.01z"/>
  </g>
  <g id="_2544726044496">
   <g>
    <path class="fil3" d="M1125.3 7495.75c3.8,17.7 7.42,35.24 10.87,52.62l32.11 31.26c-14.48,-27.94 -28.84,-55.9 -42.97,-83.88zm782.19 1712.75c313.02,363.77 621.07,741.73 904.82,1070.51l112.27 -104.56c-471.95,-602.85 -910.54,-1190.12 -1284.8,-1779.84l26.87 77.93 80.63 225.93 85.07 235.02 68.18 186.68 6.71 77.14 0.26 11.19z"/>
    <path class="fil3" d="M1686.59 3148.5l-17.34 25.36 -0.04 0.01c-6.36,9.38 -12.79,18.93 -19.29,28.64 -6.49,9.7 -13.07,19.56 -19.71,29.57l-20.04 30.53 -0.02 0c-6.77,10.32 -13.6,20.82 -20.42,31.47l-0.01 0.01c-6.88,10.65 -13.83,21.48 -20.76,32.44l-0.02 0.01c-7.01,10.98 -14.02,22.11 -21.15,33.41 -7.08,11.27 -14.25,22.76 -21.44,34.37 -7.24,11.63 -14.47,23.42 -21.79,35.35l-0.04 0.01c-7.3,11.96 -14.65,24.06 -22.07,36.35 -7.46,12.28 -14.93,24.74 -22.43,37.35 -7.52,12.61 -15.07,25.39 -22.65,38.31l-0.01 0.01c-7.61,12.95 -15.29,26.06 -23.01,39.35l-0.02 0.01c-7.68,13.27 -15.43,26.73 -23.22,40.35 -7.79,13.63 -15.66,27.42 -23.49,41.37l0 0.01c-7.92,13.97 -15.79,28.1 -23.76,42.4l-0.02 0.01c-7.99,14.32 -15.96,28.77 -24.03,43.45 -8.04,14.64 -16.13,29.46 -24.22,44.47l-0.05 0.01c-8.13,15.01 -16.23,30.15 -24.46,45.52 -16.35,30.69 -32.87,62.08 -49.56,94.2l0 0.01c-8.35,16.05 -16.68,32.27 -25.06,48.69 -8.4,16.39 -16.83,32.98 -25.27,49.76 -16.9,33.54 -33.95,67.81 -51.06,102.8 -8.58,17.48 -17.17,35.16 -25.77,53 -17.24,35.72 -34.53,72.16 -51.96,109.35 -8.73,18.62 -17.42,37.37 -26.17,56.33 -8.74,18.96 -17.53,38.11 -26.29,57.45 -8.76,19.33 -17.56,38.87 -26.41,58.57l0 0.01c-8.78,19.71 -17.61,39.59 -26.47,59.69l0 0.01c-8.85,20.1 -17.7,40.36 -26.56,60.83 -8.88,20.46 -17.78,41.12 -26.66,61.98l-0.03 0.01c-8.88,20.85 -17.77,41.87 -26.7,63.11l0 0.01c-8.89,21.23 -17.84,42.64 -26.74,64.29l-0.01 0.01c-8.91,21.6 -17.86,43.42 -26.84,65.44 -8.93,22.01 -17.87,44.18 -26.86,66.6l-0.01 0.02c-8.91,22.36 -17.9,44.96 -26.87,67.77l-0.02 0.01c-17.92,45.6 -35.87,91.95 -53.79,139.12l0 0.01c-8.96,23.58 -17.91,47.35 -26.87,71.33l-0.02 0.01c-8.98,24.01 -17.95,48.16 -26.89,72.54 -10.66,28.98 -21.09,57.75 -31.34,86.4 -10.13,28.43 -20.11,56.67 -29.91,84.78l-0.23 0.72c-21.21,60.98 -179.87,534.41 -279.38,833.12l61.87 147.21 88.19 219.1 73.03 201.18 84.06 183.28 82.26 146.13 29.73 45.95 40.09 45.04 17.79 16.34c-13.98,-1113.22 342.11,-2882.95 965.81,-4007.74 -19.58,-38.57 -38.77,-76.77 -57.55,-114.6z"/>
   </g>
   <path class="fil3" d="M9553.71 5940.64l0 -0.01c-14.08,-38.91 -27.59,-79.41 -40.52,-121.44 -18.73,1309.68 -371.35,2672.77 -701.58,4200.21 276.79,-442.89 486.7,-1566.93 757.49,-2602.99 38.02,-145.46 75.9,-289.78 113.62,-431.04l-2.71 -21.66c0,0 -14.44,-103.98 -23.11,-121.32 -8.67,-17.33 -8.67,-54.87 -14.44,-72.21 -5.77,-17.33 -40.44,-92.44 -40.44,-92.44l-2.88 -138.64c0,0 -2.89,-72.21 -2.89,-95.32 0,-23.11 -20.22,-75.1 -25.99,-92.44 -5.77,-17.33 -20.23,-75.1 -20.23,-75.1l-25.99 -98.21c0,0 8.67,-129.98 8.67,-155.98l0.03 -1.28 0.03 -0.69 0.05 -0.7 0 -0.01 0.07 -0.74 0.07 -0.76 0 -0.01 0.09 -0.8 0.1 -0.82 0 -0.01 0.12 -0.86 0.12 -0.87 0 -0.01 0.14 -0.91 0.15 -0.92 0.01 -0.02 0.17 -0.95 0.18 -0.96 0 -0.03 0.2 -1 0.2 -1 0.01 -0.03 0.22 -1.05 0.22 -1.04 0.01 -0.03 0.24 -1.1 0.24 -1.08 0.01 -0.04 0.26 -1.15 0.26 -1.11 0.01 -0.05 0.28 -1.19 0.28 -1.15 0.01 -0.05 0.3 -1.22 0.3 -1.19 0.01 -0.06 0.32 -1.26 0.31 -1.21 0.01 -0.06 0.34 -1.3 0.32 -1.24 0.02 -0.07 0.35 -1.32 0.34 -1.27 0.02 -0.08 0.37 -1.35 0.35 -1.29 0.03 -0.09 0.38 -1.38 0.36 -1.31 0.03 -0.09 0.39 -1.42 0.38 -1.34 0.02 -0.09 0.41 -1.45 0.39 -1.35 0.03 -0.1 0.42 -1.47 0.87 -2.98 0.4 -1.38 0.04 -0.11 0.44 -1.51 0.41 -1.39 0.04 -0.13 0.45 -1.53 0.42 -1.4 0.04 -0.13 0.46 -1.54 0.42 -1.42 0.05 -0.14 0.48 -1.56 0.43 -1.42 0.04 -0.15 0.49 -1.57 0.43 -1.43 0.05 -0.15 0.49 -1.58 0.44 -1.44 0.05 -0.15 0.5 -1.59 0.44 -1.44 0.05 -0.17 0.5 -1.6 0.44 -1.44 0.06 -0.17 0.51 -1.61 0.44 -1.43 0.06 -0.18 0.51 -1.61 0.44 -1.43 0.06 -0.19z"/>
   <path class="fil3" d="M6992.84 1594.04l3.61 1.97c17.48,9.67 35.47,19.7 53.91,30.15l0.02 0c9.19,5.23 18.57,10.56 28.02,16.01 9.48,5.43 19.05,10.99 28.77,16.62l29.46 17.29 0.01 -0.01c9.9,5.87 19.96,11.84 30.13,17.92l0.02 0c10.13,6.08 20.44,12.29 30.8,18.62 10.42,6.29 20.94,12.72 31.55,19.25 10.65,6.52 21.36,13.17 32.24,19.93 10.83,6.76 21.78,13.65 32.88,20.62l0.01 0c11.05,7 22.23,14.11 33.55,21.33 11.31,7.22 22.73,14.57 34.24,22.03 11.52,7.46 23.15,15.04 34.87,22.74l0.01 0c11.75,7.71 23.56,15.53 35.54,23.47l0.02 -0.01c11.96,7.96 24.02,16.03 36.16,24.22 12.21,8.18 24.48,16.51 36.87,24.95l0 0.01c12.38,8.43 24.88,17 37.44,25.7l0.04 -0.01c12.57,8.72 25.29,17.52 38.09,26.49 12.83,8.94 25.73,18.03 38.74,27.24l0.01 0c13.02,9.22 26.08,18.56 39.33,28.04 26.45,18.95 53.3,38.42 80.53,58.44l0.01 0.02c13.65,10 27.33,20.14 41.16,30.43 13.86,10.27 27.79,20.68 41.83,31.24 28.04,21.12 56.47,42.8 85.3,65.04 14.43,11.11 28.94,22.38 43.54,33.77 29.22,22.81 58.83,46.18 88.79,70.15 15.03,11.99 30.08,24.12 45.26,36.38 15.18,12.28 30.46,24.7 45.81,37.28 15.34,12.57 30.8,25.31 46.37,38.16l0 0.01c15.57,12.88 31.15,25.89 46.89,39.07l0.01 0.01c15.73,13.18 31.54,26.52 47.45,40 15.91,13.47 31.94,27.12 48.01,40.92 16.08,13.81 32.25,27.74 48.51,41.85l0 0.02c16.25,14.11 32.61,28.36 49.02,42.8l0.02 0.01c16.46,14.41 32.97,29 49.56,43.75 16.63,14.75 33.28,29.64 50.09,44.71l0 0.02c16.79,15.04 33.66,30.27 50.59,45.67l0 0.01c33.89,30.8 68.12,62.23 102.69,94.34l0 0.02c17.25,16.05 34.62,32.27 52.07,48.66l0.01 0c17.42,16.41 34.94,32.95 52.53,49.69 20.92,19.88 41.58,39.68 62.03,59.45 20.25,19.63 40.34,39.17 60.15,58.7l548.47 634.52c17.18,16.9 34.18,33.77 51.02,50.6l-2.21 33.16 29.66 204.32 13.19 250.46 -6.77 571.14c-230.86,-904.19 -1611.78,-2466.18 -2534.03,-3100.5 -1.1,-39.59 -2.37,-79.21 -3.93,-118.88z"/>
  </g>
  <g id="_2544726046560">
   <g>
    <path class="fil0" d="M2864.26 18934.52l247.16 -377.93c101.92,-132.86 230.33,-321.15 339.37,-489.06 416.87,-641.98 411.61,-1235.52 214.31,-1959.56 -59.83,-219.53 -117.58,-471.83 -174.79,-733.74 -104.17,-58.58 -209.25,-126.49 -319.1,-207.05 -13.33,-9.77 -95.07,-75.52 -95.07,-75.52 -63.15,30.78 -78.5,34.94 -128.74,17.33 62.79,381.29 124.58,769.62 194.47,1085.83 148.48,671.79 126.89,1215.48 -283.36,1784.8 -84.36,117.01 -560.66,713.27 -808.93,1020.08l0.99 -0.02 5.2 -0.12 5.2 -0.13 5.19 -0.12 5.2 -0.12 5.2 -0.12 5.19 -0.12 5.2 -0.12 5.2 -0.13 5.19 -0.12 5.2 -0.12 5.2 -0.12 5.19 -0.12 5.2 -0.12 5.19 -0.12 5.2 -0.13 5.2 -0.12 5.19 -0.12 5.2 -0.12 5.2 -0.12 5.19 -0.12 5.2 -0.13 5.2 -0.12 5.19 -0.12 5.2 -0.12 5.2 -0.12 5.19 -0.12 5.2 -0.13 5.2 -0.12 5.19 -0.12 5.2 -0.12 5.2 -0.12 5.19 -0.12 5.2 -0.13 5.2 -0.12 5.2 -0.12 5.19 -0.12 5.2 -0.12 5.2 -0.13 5.19 -0.12 5.2 -0.12 5.2 -0.12 5.19 -0.12 5.2 -0.12 5.2 -0.13 5.19 -0.12 5.2 -0.12c112.57,-9.49 225.14,-18.99 337.71,-28.48l5.63 -0.73 5.62 -0.73 5.63 -0.73 5.63 -0.73 5.63 -0.73 5.62 -0.73 5.63 -0.73 5.63 -0.73 5.63 -0.73 5.62 -0.73 5.63 -0.73 5.63 -0.73 5.63 -0.72 5.62 -0.73 5.63 -0.73 5.63 -0.73 5.62 -0.73 5.63 -0.73 5.63 -0.73 5.63 -0.73 5.62 -0.73 5.63 -0.73 5.63 -0.73 5.63 -0.73 5.62 -0.73 5.63 -0.73 5.63 -0.73 5.63 -0.73 5.62 -0.73 5.63 -0.73 5.63 -0.73 5.62 -0.72 5.63 -0.73 5.63 -0.73 5.63 -0.73 5.62 -0.73 5.63 -0.73 5.63 -0.73 5.63 -0.73 5.62 -0.73 5.63 -0.73 5.63 -0.73 0.76 -0.1z"/>
    <path class="fil0" d="M2459.13 10646.52c-118.37,-452.35 -381.22,-796.48 -551.23,-981.27l-6.06 105.93 -24.97 288.03 -25.66 194.74c59.24,167.83 132.3,378.99 176.52,543.38l68.08 -8.3 130.08 -30.35 136.58 -54.19c0,0 56.79,-32.27 96.67,-57.96z"/>
   </g>
   <path class="fil0" d="M10199.8 16668.19l-104.36 -108.42c-135.26,-120.73 -310,-295.23 -459.92,-451.98 -573.16,-599.34 -686.06,-1235.88 -619.98,-2052.68 9.79,-121.04 17.49,-250.36 23.83,-385.1l23.31 -23.82c16.44,-18.94 32.87,-37.87 49.31,-56.81 18.22,-28.23 36.45,-56.45 54.67,-84.69 22.51,-20.36 45.02,-40.73 67.53,-61.09 18.22,-9.65 36.45,-19.3 54.67,-28.95 29.66,-16.07 59.32,-32.16 88.97,-48.23 34.3,-22.16 68.6,-44.31 102.9,-66.46 25.07,-16.72 50.14,-33.44 75.21,-50.16l34.53 -32.7c5.74,291.5 8.94,574.36 0.94,820.57 -24.36,750.53 107.24,1328.08 658.82,1851 144.31,136.75 312.15,288.66 441.43,393.09l628.16 473.59 -9.93 -3.45c-22.51,-5.85 -45.02,-11.69 -67.53,-17.54 -18.68,-0.58 -37.34,-1.15 -56.02,-1.73 -24.71,-5.74 -49.41,-11.49 -74.12,-17.23 -12.35,-0.58 -24.7,-1.15 -37.05,-1.73 0,0 -85.32,-8.62 -91.35,-12.07 -6.03,-3.45 -85.33,-17.24 -85.33,-17.24 -25.57,-2.29 -51.13,-4.6 -76.7,-6.89 -24.71,-2.87 -49.41,-5.75 -74.12,-8.63 -31.31,-3.16 -62.62,-6.31 -93.93,-9.47 -26.15,-1.44 -52.28,-2.87 -78.43,-4.31 -19.53,0 -39.07,0 -58.6,0 -21.55,-0.87 -43.09,-1.73 -64.64,-2.59 -16.37,2.01 -32.76,4.02 -49.13,6.03 -12.35,0.29 -24.7,0.58 -37.05,0.87 -26.52,1.37 -53.03,2.76 -79.54,4.13l-86.55 4.67z"/>
   <path class="fil0" d="M9144.38 10843.42c145.72,-652.37 347.03,-1431.02 455.94,-1996.83 25.21,-130.94 59.17,-240.44 84.78,-357.56l112.42 -579.44 2.46 100.87c0,0 14.94,227.01 14.94,268.83 0,41.83 11.95,212.09 11.95,212.09l25.17 183.85 -1.2 28.92 -0.68 15.94 -0.03 0.44 -0.68 16.39 -0.72 16.43 -2.16 49.43 -0.15 3.39 -0.58 13.15 -0.75 16.54 -0.74 16.58 -1.5 33.2 -0.34 7.26 -0.44 9.37 -0.03 0.87 -1.51 32.47 -0.77 16.68 -0.79 16.69 -0.53 11.17 -0.29 5.57 -0.8 16.72 -0.8 16.75 -0.81 16.77 -0.81 16.78 -0.74 15.09 -0.1 1.69 -0.81 16.8 -0.84 16.81 -0.85 16.82 -0.82 16.82 -0.85 16.83 -0.1 2.2 -0.74 14.65 -0.86 16.83 -0.84 16.85 -0.87 16.85 -0.88 16.87 -0.3 6.09 -0.56 10.75 -0.87 16.85 -0.87 16.87 -0.89 16.86 -1.76 33.71 -0.89 16.86 -0.9 16.85 -0.89 16.85 -0.88 16.84 -0.74 13.89 -0.17 2.93 -0.91 16.83 -0.89 16.82 -0.92 16.82 -0.91 16.8 -0.91 16.79 -0.04 0.96 -0.88 15.83 -0.91 16.78 -0.91 16.76 -0.92 16.73 -0.94 16.73 -0.25 4.82 -0.66 11.89 -0.93 16.68 -0.93 16.68 -0.92 16.66 -0.93 16.64 8.71 -157.97c-65.06,390.66 -156.63,850.44 -236.06,1279.24l-39.58 6 -104.84 18.84 -137.83 18.85 -127.12 3.53 -0.09 0 -21.01 0.51z"/>
  </g>
  <g id="_2544726049920">
   <g>
    <path class="fil0" d="M9177.18 798.18l125.05 24.68 213.64 39.05 119.46 34.46 42.02 21.15 45.52 55.1 17.97 64.69 10.78 91.05 -58.71 -32.34 -79.07 1.2c0,0 -8.38,75.46 -9.58,87.45 -1.2,11.98 -38.34,182.09 -37.14,191.68 1.2,9.59 -19.17,250.37 -19.17,250.37l-28.75 268.34 -4.02 338.48 9.35 373.78 28.03 280.33 18.69 258.52 37.82 391.94 39.54 425.12 -16.48 247.16 29.66 204.32 13.19 250.46 3.3 293.3 -1.17 266.4 0 225.3 0 153.08c0,0 -40.44,89.54 -51.99,112.65 -11.55,23.11 -40.44,112.65 -46.22,141.53 -5.77,28.88 -46.21,138.64 -46.21,164.64 0,26 -8.67,155.98 -8.67,155.98l25.99 98.21c0,0 14.45,57.77 20.23,75.1 5.77,17.33 25.99,69.33 25.99,92.44 0,23.11 2.89,95.32 2.89,95.32l2.88 138.64c0,0 34.67,75.1 40.44,92.44 5.77,17.33 5.77,54.87 14.44,72.21 8.67,17.33 23.11,121.32 23.11,121.32l14.44 115.54 14.44 101.1c-274.22,-92.4 -538.15,-866.56 -451.79,-1405.06 72.18,-450.06 72.48,-807.86 20.25,-1213.37 -210.34,-1632.95 -334.58,-2229.55 -100.17,-3763.75z"/>
    <path class="fil0" d="M1540.57 8125.43l-75.63 -165.8 -118.73 -184.23 -116.68 -136.12 -121.75 -118.55 -146.28 -146.28 -37.92 -1.35 -55.53 -28.44 -52.82 -35.22 -21.37 -24.31 -33.33 -30.63 -40.09 -45.04 -29.73 -45.95 -82.26 -146.13 -84.06 -183.28 -73.03 -201.18 -88.19 -219.1 -106.13 -252.52 -80.46 -299.5 -40.24 -226.19c0,0 -22.34,-226.12 -22.34,-232.72 0,-6.6 -7.71,-257.49 -7.71,-257.49l-3.3 -303.71 1.1 -293.81 -10.77 -383.79 -1.98 -333.49 -23.35 -274.59 -19.29 -172.06 -20.6 -178.69 -19.95 -164.34 -8.16 -108.11 14.83 -20.77 5.94 -44.51 36.21 -61.14 28.49 -40.36 79.91 -63.95 66.86 -47.76 118.2 -69.25 113.22 -63.48c95.39,560.06 145.63,1697.57 90.57,2283.28 -40.88,434.88 -28.41,870.08 102.09,1296.21 72.56,236.93 115.22,655.53 375.7,973.32 300.71,366.88 581.9,786.59 545.94,916.24l-37.4 134.82z"/>
    <path class="fil4" d="M6111.87 846.44c14.36,-116.95 170.8,-357.84 155.58,-536.94 -7.95,-93.62 -132.9,-209.44 -225.96,-238.07 -13.06,-23.27 -60.51,-48.18 -73.58,-71.43 170.37,62.91 177.71,71.9 348.08,134.81 46.99,29.46 118.12,9.6 146.85,52.65 120.58,180.71 54.4,532.14 -66.91,894.97 -104.87,313.66 -218.97,586.62 -344.41,847.49 -177.36,368.87 -357.87,720.08 -586.75,1121.96 -132.15,232.05 -204.94,297 -238.67,442.84 -4.18,18.13 -25.77,88.85 -26.7,116.81l-661.73 -4c-16.35,-0.1 -143.49,-190.51 -267.52,-338.67 -120.08,-143.41 -289.42,-329.45 -476.33,-560.24 -285.77,-352.86 -1003.74,-1398.6 -1123.53,-1797.93 116.24,-88.55 269.73,-209.59 351.28,-332.84 4.35,10.42 8.52,20.62 12.51,30.64 2.63,44.79 5.27,89.57 7.9,134.37 25.4,299.09 252.06,534.53 397.59,813.27 153.41,293.82 1394.78,1893.18 1400.36,1915.7l109.22 -199.75c150.25,-274.78 207.91,-320.19 361.95,-593.35 172.01,-305.04 323.44,-610.23 444.13,-948.15 5.6,-10.02 11.21,-20.04 16.82,-30.06 49.39,-111.12 98.78,-222.26 148.17,-333.38 24.7,-63.99 49.39,-127.96 74.08,-191.95 48.5,-151.57 86.93,-180.67 117.58,-328.77z"/>
   </g>
   <g>
    <path class="fil0" d="M9093.88 1443.19c-67.25,-19.11 -146.37,-40.41 -219.59,-59.71 -569.4,-150.06 -1225.31,-211.57 -1738.67,-449.63 -182.71,-84.73 -417.89,-129.52 -645.7,-185.35l0.04 -0.18 2.07 -9.65 0.87 -4.09 0.17 -0.81 1.01 -4.89 1 -4.88 0.99 -4.88 0.08 -0.36 0.38 -1.95 2.43 -12.24 0.29 -1.52 2.34 -12.37 0.11 -0.59 0.51 -2.65 0.39 -2.15 0.87 -4.79 1.52 -8.43 0.02 -0.13 0.18 -0.99 2.18 -12.74 0.26 -1.52 0.03 -0.14 0.21 -1.26 2.08 -12.76 0.21 -1.27 0.18 -1.12 1.79 -11.67 0.36 -2.38 0.34 -2.29 1.33 -9.3 0.5 -3.46 0.15 -1.17 0.62 -4.62 0.62 -4.61 0.15 -1.2 0.85 -6.62 0.18 -1.36 0.56 -4.57 0.55 -4.57 0.37 -3.18 0.17 -1.36 0.51 -4.53 0.51 -4.51 0.23 -2.1 0.25 -2.42 0.9 -8.88 0.44 -4.57 0.41 -4.45 0.39 -4.45 0.06 -0.68 0.32 -3.75 0.36 -4.41 0.34 -4.41 0.13 -1.9 0.44 -6.14 0.05 -0.72 0.29 -4.37 0.27 -4.35 0.24 -3.99 0.51 -9.56 0.22 -4.87 0.31 -8.12 0.19 -5.37 0.21 -8.09 0.11 -6.5 0.01 -0.39 0.05 -4.17 0.03 -4.16c271.25,90.86 520.9,207.4 802.52,275.49 340.42,82.33 702.78,135.7 1046.09,221.97 250.79,63.01 495.32,131.29 751.12,206.59 -12.45,97.98 -23.25,192.19 -32.48,283.2z"/>
    <path class="fil0" d="M533.69 3125.97c58.44,-49.52 167.45,-134.22 263.99,-208.13 459.49,-351.73 1011.3,-656.67 1404.78,-1066.32 177.47,-184.77 440.41,-343.87 663.08,-524.32l-2.19 -3.92 -2.18 -3.9 -2.17 -3.89 -8.59 -15.52 -2.13 -3.86 -2.12 -3.85 -12.53 -22.93 -2.06 -3.79 -12.16 -22.58 -1.99 -3.73 -1.98 -3.73 -1.97 -3.71 -9.73 -18.44 -1.91 -3.66 -1.91 -3.66 -1.9 -3.64 -7.49 -14.46 -1.85 -3.59 -1.84 -3.58 -1.83 -3.56 -1.82 -3.56 -8.93 -17.65 -1.76 -3.5 -1.75 -3.49 -8.56 -17.29 -1.67 -3.42 -1.67 -3.42 -1.66 -3.4 -6.52 -13.5 -1.6 -3.36 -1.59 -3.33 -1.58 -3.33 -1.57 -3.32c-264.22,209.48 -481.06,450.55 -749.28,648.3 -276.2,203.64 -577.13,389.55 -855.02,597.84 -212.64,159.39 -418.21,321.34 -633.62,495.38l-0.02 -0.01 0.46 4.28 0.48 4.28 0.46 4.3 1.39 12.92 0.46 4.33 0.45 4.34 0.46 4.35 0.45 4.35 2.72 26.31 0.44 4.41 0.45 4.42 0.44 4.43 1.77 17.81 0.44 4.47 0.43 4.47 0.43 4.49 1.74 18.03 0.42 4.52 0.43 4.53 0.42 4.53 0.42 4.56 0.42 4.56 0.85 9.13 0.41 4.58 0.42 4.59 0.41 4.6 0.41 4.6 2.47 27.76 0.4 4.65 0.4 4.65 2 23.38 0.39 4.7 0.39 4.7 0.39 4.71 0.39 4.71 0.39 4.72 0.77 9.46 0.38 4.74 0.38 4.74 0.38 4.75z"/>
   </g>
  </g>
 </g>
</svg>
