<?xml version="1.0" encoding="UTF-8"?>
<!DOCTYPE svg PUBLIC "-//W3C//DTD SVG 1.1//EN" "http://www.w3.org/Graphics/SVG/1.1/DTD/svg11.dtd">
<!-- Creator: CorelDRAW -->
<svg xmlns="http://www.w3.org/2000/svg" xml:space="preserve" width="118.945mm" height="189.849mm" version="1.1" style="shape-rendering:geometricPrecision; text-rendering:geometricPrecision; image-rendering:optimizeQuality; fill-rule:evenodd; clip-rule:evenodd"
viewBox="0 0 12287.32 19611.82"
 xmlns:xlink="http://www.w3.org/1999/xlink"
 xmlns:xodm="http://www.corel.com/coreldraw/odm/2003">
 <defs>
  <style type="text/css">
   <![CDATA[
    .fil4 {fill:none}
    .fil1 {fill:#FEFEFE}
    .fil0 {fill:#1C1B17}
    .fil3 {fill:#C9C9C4}
    .fil2 {fill:#1C1B17;fill-rule:nonzero}
   ]]>
  </style>
 </defs>
 <g id="Plan_x0020_1">
  <metadata id="CorelCorpID_0Corel-Layer"/>
  <path class="fil0" d="M1507.76 19611.82l5.41 -166.5 -1.88 -232.06 -4.15 -160.56 7.81 0.23 28.49 -43.58 41.91 -17.6 68.74 12.57 59.5 1.68 54.48 -0.85 189.03 -3.21 332.33 -8.05 337.71 -28.48 360.14 -46.91 274.71 -36.85 174.21 -30.15 254.61 -45.23 179.23 -21.78 154.11 -25.12 185.93 -25.13 112.24 -30.14 202.68 -55.28 169.19 -25.13 169.06 -32.05 291.29 -22.65 178.01 -38.83 171.53 -58.26 242.73 -61.5 106.8 -38.83 126.23 -29.13 116.51 -6.48 74.44 -42.08 106.8 -48.54 194.19 -19.42 362.49 -97.09 275.1 -100.34 320.41 -174.77 265.39 -139.17 281.94 -115.92 192.61 -132.46 173.34 -115.19 116.31 -70.46 85 -71.57 128.61 -81.64 127.49 -67.11 99.53 -34.67 72.69 -52.56 136 -52.77 45.18 -22.11 23.08 -5.76 24.03 -16.34 67.29 -22.12 38.46 -14.42 44.21 -15.38 43.26 -14.42 68.25 -20.19 46.15 -16.34 51.91 -11.54 54.8 -15.37 74.02 -11.54 48.07 -8.66 63.45 -10.57 104.79 -16.34 52.87 0 94.21 -17.3 108.63 -11.54 124.96 -6.74 79.54 -4.13 37.05 -0.87 49.13 -6.03 64.64 2.59 58.6 0 78.43 4.31 93.93 9.47 74.12 8.63 76.7 6.89c0,0 79.29,13.79 85.33,17.24 6.03,3.45 91.35,12.07 91.35,12.07l37.05 1.73 74.12 17.23 56.02 1.73 67.53 17.54 65.34 22.66 66.67 26.67 108 30.67 65.33 24 56 45.33 58.68 29.34 60 10.67 25.33 14.66 40 33.34 33.34 52c0,0 21.34,74.67 25.34,93.33 4,18.67 17.33,24.01 17.33,24.01l38.67 74.67 54.44 45.76 4.81 17.06 -10.85 134.53 32.55 154.04 52.06 132.36 52.07 119.33 41.23 141.03 30.38 201.78 21.72 159.72 -1.69 177.89 18.64 186.36 6.78 174.5 -1.69 157.56 0 138.92 -1.69 133.84 8.47 135.53 -1.69 79.63 11.86 88.74 -10779.56 0z"/>
  <g id="_2544732422944">
   <path class="fil1" d="M1412.06 18611.26c5.18,-39.63 10.36,-79.24 15.54,-118.87 4.88,-38.71 9.76,-77.43 14.64,-116.13 3.05,-43.58 6.09,-87.18 9.14,-130.76 1.06,-45.7 2.13,-91.4 3.19,-137.1 2.1,-57.28 4.2,-114.57 6.3,-171.85 3.75,-90.64 7.51,-181.29 11.26,-271.92 0,-75.76 0,-151.51 0,-227.28 1.18,-62.79 2.36,-125.58 3.53,-188.37 2.63,-80.03 5.26,-160.07 7.89,-240.1 2.18,-41.34 4.35,-82.69 6.53,-124.04 0,-56.34 0,-112.68 0,-169.02 -0.49,-36.03 -0.97,-72.05 -1.46,-108.09 0.24,-35.55 0.49,-71.08 0.72,-106.63 -2.1,-62.28 -4.19,-124.55 -6.29,-186.83 0.46,-77.58 0.94,-155.15 1.4,-232.73 1.63,-57.72 3.27,-115.43 4.91,-173.15 5.11,-75.64 10.22,-151.28 15.33,-226.91 7.22,-75.62 14.44,-151.23 21.66,-226.85 7.97,-69.93 15.96,-139.84 23.94,-209.77 5.74,-64.36 11.48,-128.71 17.22,-193.07 6.61,-81.95 13.21,-163.91 19.82,-245.86 3.94,-55.67 7.86,-111.34 11.8,-167.01 2.65,-50.93 5.32,-101.85 7.97,-152.77 3.73,-44.45 7.47,-88.9 11.2,-133.35 8.12,-63.19 16.24,-126.38 24.36,-189.57 2.57,-33.27 5.15,-66.56 7.73,-99.83 6.62,-39.44 13.25,-78.89 19.88,-118.33 14.12,24.15 28.24,48.29 42.36,72.45 68.36,93.71 119.48,161.38 201.62,241.93 8.43,5.69 16.86,11.38 25.29,17.08 8.43,13.89 16.85,27.8 25.28,41.69 0,0 49.9,49.9 53.31,56.04 35.52,63.85 128.87,139.39 185.89,181.79 15.72,10.47 31.43,20.96 47.16,31.43 19.1,22.04 38.2,44.1 57.3,66.14 64.41,73.02 102.75,110.22 201.69,122.61 21.02,10.07 42.05,20.14 63.08,30.22 33.17,27.54 66.34,55.08 99.51,82.62 28.73,24.59 57.46,49.16 86.19,73.75 29.92,27.25 59.82,54.49 89.74,81.74 22.21,17.47 44.42,34.95 66.63,52.42 78.27,30.23 85.96,31.17 160.82,-5.33 0,0 81.74,65.75 95.07,75.52 296.43,217.38 558.02,342.75 861.23,440.75 683.28,220.88 1501.56,185.97 2203.54,-42.59 446.96,-145.53 585.55,-292.64 941.99,-585.72 7.54,36.18 15.07,72.35 22.61,108.53 16.58,14.58 33.16,29.14 49.74,43.72 14.07,5.02 28.14,10.05 42.21,15.07 18.09,5.02 36.18,10.05 54.26,15.07 17.09,-5.02 34.16,-10.05 51.25,-15.07 42.21,-34.16 84.41,-68.33 126.62,-102.5 19.6,-11.56 39.19,-23.11 58.79,-34.67 42.21,-11.56 84.41,-23.11 126.62,-34.67 28.14,-21.1 56.27,-42.21 84.41,-63.31 45.23,-28.64 90.44,-57.28 135.67,-85.92 37.18,-28.14 74.36,-56.27 111.54,-84.41 30.65,-18.09 61.3,-36.18 91.95,-54.26 30.14,-20.1 60.3,-40.19 90.44,-60.3 27.63,-19.6 55.28,-39.19 82.91,-58.79 33.16,-20.6 66.32,-41.2 99.48,-61.8 17.42,-14.87 34.84,-29.73 52.26,-44.6 12.37,-18.55 24.74,-37.11 37.11,-55.66 20.88,-34.4 41.74,-68.8 62.62,-103.2 27.05,-36.33 54.11,-72.66 81.16,-108.99 36.71,-53.35 73.44,-106.68 110.15,-160.03 26.77,-41.32 53.53,-82.63 80.3,-123.95 31.45,-38.95 62.88,-77.89 94.33,-116.84 8.57,-12.86 17.16,-25.73 25.73,-38.59 21.08,-19.3 42.16,-38.58 63.24,-57.88 16.44,-16.8 32.87,-33.58 49.31,-50.38 16.44,-18.94 32.87,-37.87 49.31,-56.81 18.22,-28.23 36.45,-56.45 54.67,-84.69 22.51,-20.36 45.02,-40.73 67.53,-61.09 18.22,-9.65 36.45,-19.3 54.67,-28.95 29.66,-16.07 59.32,-32.16 88.97,-48.23 34.3,-22.16 68.6,-44.31 102.9,-66.46 25.07,-16.72 50.14,-33.44 75.21,-50.16 24.89,-23.56 49.78,-47.14 74.67,-70.7 25.95,-30.45 51.9,-60.9 77.85,-91.35 24.36,-32.04 48.73,-64.08 73.09,-96.12 22.91,-29.24 45.82,-58.5 68.74,-87.75 27.62,-28.92 55.24,-57.84 82.86,-86.76 28.59,-29.9 57.19,-59.78 85.78,-89.68 28.27,-35.09 56.54,-70.19 84.81,-105.29 25.67,-32.49 51.34,-64.99 77.01,-97.48 26.32,-32.82 52.64,-65.64 78.96,-98.46 23.72,-25.67 47.44,-51.34 71.15,-77.01 28.92,-20.79 57.84,-41.6 86.76,-62.39 25.99,-20.79 51.99,-41.59 77.98,-62.38 24.64,-15.52 49.29,-31.03 73.92,-46.55 32.51,-16.82 65.03,-33.64 97.54,-50.45 20.55,-11.96 41.1,-23.91 61.65,-35.88 16.82,-14.58 33.64,-29.14 50.45,-43.72 6.72,34.38 13.45,68.76 20.17,103.14 11.21,50.82 22.43,101.64 33.64,152.46 3.74,33.64 7.47,67.26 11.21,100.9 4.48,25.04 8.98,50.08 13.46,75.12 4.86,28.4 9.71,56.8 14.57,85.19 4.48,32.14 8.98,64.27 13.46,96.41 5.98,39.62 11.95,79.22 17.93,118.84 3.74,41.1 7.47,82.22 11.21,123.32 9.34,48.2 18.69,96.41 28.03,144.61 9.72,58.68 19.43,117.34 29.15,176.02 7.1,44.47 14.2,88.93 21.3,133.4 5.65,28.18 11.3,56.36 16.95,84.54 7.8,29.9 15.6,59.79 23.4,89.69 14.95,38.03 29.9,76.04 44.84,114.07 16.9,37.7 33.8,75.39 50.7,113.09 21.13,44.84 42.24,89.69 63.37,134.53 16.25,34.12 32.5,68.25 48.75,102.37 18.84,33.79 37.7,67.59 56.54,101.38 13,30.55 26,61.1 39,91.65 7.15,29.24 14.31,58.49 21.46,87.73 9.07,39.35 18.15,78.71 27.22,118.05 0,0 26.91,117.35 26.91,121.36 0,4.01 25.75,104.17 25.75,108.76 0,4.59 38.36,139.11 38.36,139.11 10.68,50.75 21.37,101.5 32.05,152.26 6.11,36.83 12.21,73.65 18.32,110.48 3.66,29.77 7.31,59.54 10.97,89.32 3.19,31.61 6.39,63.22 9.59,94.83 3.73,34.81 7.47,69.62 11.2,104.43 10.3,48.3 20.6,96.62 30.9,144.92 9.41,34.1 18.82,68.19 28.23,102.29 21.52,48.84 43.05,97.67 64.56,146.51 21.47,42.28 42.94,84.56 64.41,126.85 18.17,36.66 36.33,73.33 54.5,110 15.53,46.25 31.05,92.5 46.58,138.75 2.64,28.41 5.29,56.82 7.93,85.22 4.96,37.32 9.91,74.66 14.87,111.98 3.97,34.36 7.92,68.71 11.89,103.06 8.58,24.77 17.18,49.55 25.76,74.33 0,0 37.9,101.9 37.9,115.76 0,13.86 29.47,102.26 29.47,102.26 0,0 41.6,69.34 41.6,88.41 0,19.07 32.93,157.73 32.93,157.73 0,0 17.33,133.47 17.33,149.07 0,15.6 6.93,107.48 6.93,119.6 0,12.13 -8.67,83.2 -8.67,83.2 -13.81,1.39 -27.63,2.79 -41.44,4.18 -18.15,-15.26 -36.29,-30.51 -54.44,-45.76 -12.89,-24.89 -25.77,-49.78 -38.67,-74.67 0,0 -13.34,-5.34 -17.33,-24.01 -4,-18.67 -25.34,-93.33 -25.34,-93.33 -11.12,-17.33 -22.22,-34.67 -33.34,-52 -13.34,-11.12 -26.66,-22.22 -40,-33.34 -8.44,-4.89 -16.89,-9.77 -25.33,-14.66 -20,-3.55 -40,-7.12 -60,-10.67 -19.56,-9.78 -39.12,-19.56 -58.68,-29.34 -18.67,-15.11 -37.33,-30.22 -56,-45.33 -21.78,-8 -43.55,-16 -65.33,-24 -36,-10.23 -72,-20.44 -108,-30.67 -22.22,-8.89 -44.45,-17.78 -66.67,-26.67 -21.78,-7.55 -43.56,-15.11 -65.34,-22.66 -22.51,-5.85 -45.02,-11.69 -67.53,-17.54 -18.68,-0.58 -37.34,-1.15 -56.02,-1.73 -24.71,-5.74 -49.41,-11.49 -74.12,-17.23 -12.35,-0.58 -24.7,-1.15 -37.05,-1.73 0,0 -85.32,-8.62 -91.35,-12.07 -6.03,-3.45 -85.33,-17.24 -85.33,-17.24 -25.57,-2.29 -51.13,-4.6 -76.7,-6.89 -24.71,-2.87 -49.41,-5.75 -74.12,-8.63 -31.31,-3.16 -62.62,-6.31 -93.93,-9.47 -26.15,-1.44 -52.28,-2.87 -78.43,-4.31 -19.53,0 -39.07,0 -58.6,0 -21.55,-0.87 -43.09,-1.73 -64.64,-2.59 -16.37,2.01 -32.76,4.02 -49.13,6.03 -12.35,0.29 -24.7,0.58 -37.05,0.87 -26.52,1.37 -53.03,2.76 -79.54,4.13 -41.65,2.24 -83.31,4.49 -124.96,6.74 -36.21,3.84 -72.43,7.7 -108.63,11.54 -31.4,5.76 -62.81,11.54 -94.21,17.3 -17.62,0 -35.25,0 -52.87,0 -34.93,5.44 -69.86,10.9 -104.79,16.34 -21.15,3.52 -42.3,7.05 -63.45,10.57 -16.02,2.88 -32.04,5.77 -48.07,8.66 -24.67,3.84 -49.35,7.7 -74.02,11.54 -18.26,5.12 -36.54,10.25 -54.8,15.37 -17.3,3.84 -34.61,7.7 -51.91,11.54 -15.38,5.44 -30.76,10.9 -46.15,16.34 -22.75,6.72 -45.5,13.46 -68.25,20.19 -14.42,4.8 -28.84,9.62 -43.26,14.42 -14.74,5.12 -29.47,10.26 -44.21,15.38 -12.82,4.8 -25.64,9.62 -38.46,14.42 -22.43,7.38 -44.86,14.74 -67.29,22.12 -8.01,5.44 -16.02,10.9 -24.03,16.34 -7.7,1.92 -15.38,3.84 -23.08,5.76 -15.06,7.37 -30.12,14.74 -45.18,22.11 -45.33,17.59 -90.67,35.17 -136,52.77 -24.23,17.52 -48.46,35.04 -72.69,52.56 -33.18,11.56 -66.35,23.11 -99.53,34.67 -42.5,22.36 -84.99,44.74 -127.49,67.11 -42.87,27.21 -85.74,54.43 -128.61,81.64 -28.34,23.85 -56.66,47.72 -85,71.57 -38.77,23.49 -77.54,46.97 -116.31,70.46 -57.78,38.4 -115.56,76.8 -173.34,115.19 -64.2,44.15 -128.4,88.31 -192.61,132.46 -93.98,38.64 -187.96,77.28 -281.94,115.92 -88.47,46.39 -176.93,92.78 -265.39,139.17 -106.8,58.25 -213.61,116.51 -320.41,174.77 -91.7,33.45 -183.4,66.89 -275.1,100.34 -120.83,32.36 -241.66,64.73 -362.49,97.09 -64.73,6.48 -129.46,12.94 -194.19,19.42 -35.6,16.18 -71.21,32.36 -106.8,48.54 -24.81,14.03 -49.63,28.05 -74.44,42.08 -38.84,2.16 -77.67,4.32 -116.51,6.48 -42.08,9.71 -84.15,19.42 -126.23,29.13 -35.6,12.94 -71.21,25.89 -106.8,38.83 -80.91,20.5 -161.82,41 -242.73,61.5 -57.18,19.42 -114.36,38.84 -171.53,58.26 -59.34,12.94 -118.67,25.89 -178.01,38.83 -97.09,7.55 -194.2,15.1 -291.29,22.65 -56.35,10.68 -112.71,21.37 -169.06,32.05 -56.39,8.38 -112.8,16.76 -169.19,25.13 -67.56,18.43 -135.12,36.85 -202.68,55.28 -37.42,10.05 -74.82,20.09 -112.24,30.14 -61.98,8.38 -123.95,16.76 -185.93,25.13 -51.37,8.38 -102.73,16.75 -154.11,25.12 -59.74,7.26 -119.49,14.51 -179.23,21.78 -84.87,15.07 -169.74,30.15 -254.61,45.23 -58.07,10.05 -116.14,20.1 -174.21,30.15 -91.57,12.28 -183.14,24.57 -274.71,36.85 -120.05,15.64 -240.1,31.27 -360.14,46.91 -112.57,9.49 -225.14,18.99 -337.71,28.48 -110.78,2.69 -221.55,5.36 -332.33,8.05 -63.01,1.07 -126.02,2.14 -189.03,3.21 -18.16,0.28 -36.32,0.57 -54.48,0.85 -19.83,-0.56 -39.67,-1.13 -59.5,-1.68 -22.91,-4.19 -45.82,-8.38 -68.74,-12.57 -13.97,5.87 -27.94,11.74 -41.91,17.6 -9.49,14.52 -19,29.06 -28.49,43.58 -9.78,-0.28 -19.56,-0.56 -29.34,-0.84 -17.6,-6.43 -35.21,-12.85 -52.81,-19.28 0,0 -41.9,-40.23 -45.26,-51.12 -3.36,-10.9 -13.42,-102.26 -13.42,-102.26 3.64,-44.99 7.26,-89.97 10.9,-134.95 3.36,-31.01 6.7,-62.02 10.06,-93.03 5.66,-13.39 11.31,-26.79 16.97,-40.17z"/>
   <path class="fil1" d="M1763.66 10863.35l19.98 -124.86 31.63 -184.81 24.97 -216.43 36.63 -278.04 24.97 -288.03 13.21 -230.68 -3.35 -146.44 -4.47 -196.74 -6.71 -77.14 -68.18 -186.68 -85.07 -235.02 -80.63 -225.93 -54.02 -156.7 -67.85 -181.19 -79.83 -175.03 -118.73 -184.23 -116.68 -136.12 -121.75 -118.55 -146.28 -146.28 -37.92 -1.35 -55.53 -28.44 -52.82 -35.22 -21.37 -24.31 -33.33 -30.63 -40.09 -45.04 -29.73 -45.95 -82.26 -146.13 -84.06 -183.28 -73.03 -201.18 -88.19 -219.1 -106.13 -252.52 -80.46 -299.5 -40.24 -226.19c0,0 -22.34,-226.12 -22.34,-232.72 0,-6.6 -7.71,-257.49 -7.71,-257.49l-3.3 -303.71 1.1 -293.81 -10.77 -383.79 -1.98 -333.49 -23.35 -274.59 -19.29 -172.06 -20.6 -178.69 -19.95 -164.34 -8.16 -108.11 14.83 -20.77 5.94 -44.51 36.21 -61.14 28.49 -40.36 79.91 -63.95 66.86 -47.76 118.2 -69.25 127.75 -71.63 105.07 -70.44 177.47 -122.71 253.4 -147.82c387.58,-275.05 1038.15,-719.98 1291.1,-1040.73l138.77 -96.54 226.34 -124.52 -0.06 0.05c119.79,399.33 837.76,1445.07 1123.53,1797.93 186.91,230.79 356.25,416.83 476.33,560.24 124.04,148.16 251.17,338.56 267.52,338.67l661.73 4c0.93,-27.96 22.52,-98.68 26.7,-116.81 33.73,-145.83 106.52,-210.79 238.67,-442.84 228.88,-401.88 409.39,-753.09 586.75,-1121.96 125.44,-260.87 239.54,-533.84 344.41,-847.49 121.31,-362.83 187.49,-714.26 66.91,-894.97l186.38 3.8 182.58 49.44 163.55 53.25 140.74 60.87 235.82 72.26 283.88 66.72 348.68 75.65 558.08 106.38 390.52 78.1 349.17 68.92 213.64 39.05 119.46 34.46 42.02 21.15 45.52 55.1 17.97 64.69 10.78 91.05 -58.71 -32.34 -79.07 1.2c0,0 -8.38,75.46 -9.58,87.45 -1.2,11.98 -38.34,182.09 -37.14,191.68 1.2,9.59 -19.17,250.37 -19.17,250.37l-28.75 268.34 -4.02 338.48 9.35 373.78 28.03 280.33 18.69 258.52 37.82 391.94 39.54 425.12 -16.48 247.16 29.66 204.32 13.19 250.46 3.3 293.3 -1.17 266.4 0 225.3 0 153.08c0,0 -40.44,89.54 -51.99,112.65 -11.55,23.11 -40.44,112.65 -46.22,141.53 -5.77,28.88 -46.21,138.64 -46.21,164.64 0,26 -8.67,155.98 -8.67,155.98l25.99 98.21c0,0 14.45,57.77 20.23,75.1 5.77,17.33 25.99,69.33 25.99,92.44 0,23.11 2.89,95.32 2.89,95.32l2.88 138.64c0,0 34.67,75.1 40.44,92.44 5.77,17.33 5.77,54.87 14.44,72.21 8.67,17.33 23.11,121.32 23.11,121.32l14.44 115.54 28.88 202.19c0,0 43.78,280.96 43.78,310.83 0,29.86 26.89,173.25 26.89,173.25l5.97 244.94c0,0 14.94,227.01 14.94,268.83 0,41.83 11.95,212.09 11.95,212.09l29.86 218.05 5.98 173.26 14.93 256.88 -8.96 95.59 66.42 177.76 121.57 330.92 114.8 280.27 77.67 202.61 -30.61 69.59 -41.03 50.11 -51.96 64.19 -41.27 55.02 -25.22 40.5 -29.8 42.79 -12.99 21.4 -13 17.57 -33.62 13.75 -31.33 16.05 -52.73 27.51 -45.09 27.51 -45.08 23.69 -32.1 13 -22.17 5.35 -98.57 45.08 -29.8 13.76 -18.35 19.1 -59.16 8.98 -104.84 18.84 -137.83 18.85 -127.22 3.53 -147.25 3.53 -109.55 1.18 -143.71 2.36 -155.5 0 -175.51 -16.5 -107.2 -15.31 -108.37 -27.1 -74.21 -21.2 -69.5 -12.96 -95.42 -34.16 -62.44 -34.16 -89.52 -71.86 -88.35 -75.39 -94.23 -103.66 -80.1 -96.59 -71.45 -75.91 -45.8 -60.62 -43.11 -59.27 -26.27 -41.08 -56.58 -51.86 -59.95 -28.97 -46.48 -16.84 -82.17 -20.88 -61.3 -25.6 -78.8 -50.51 -82.18 -59.95 -59.95 -45.8 -32.33 -28.28 -33.01 -36.37 -51.86 -45.8 -53.88 -49.84 -31.66 -18.85 -41.08 -16.17 -28.97 -12.13 -49.17 -4.04 -41.08 6.06 -33.68 16.84 -22.23 20.88 -26.27 27.62 -20.88 29.63 -14.14 48.5 2.7 66.01c0,0 10.09,55.22 12.12,59.26 2.02,4.05 18.86,56.58 18.86,56.58l-66.01 -39.74 -90.93 -51.19 -244.83 -99.84 -434.17 -137.04 -322.33 -71.27 -236.82 -21.92 -202.82 -1.11 -185.29 4.39 -177.61 13.16 -152.4 18.64 -164.46 42.76 -121.17 34.01 -155.7 54.82 -32.89 -17.54 -44.96 -5.49 -53.72 0 -30.7 3.3 -59.2 26.31 -30.7 27.42 -28.51 19.73 -62.5 58.11 -127.18 88.81 -80.04 37.28 -166.34 107.06 -173.9 128.28 -154.03 143.45 -182.1 186.44 -58.54 78.04c0,0 -45.53,52.03 -75.88,75.88 -30.35,23.84 -125.73,78.04 -125.73,78.04l-136.58 54.19 -130.08 30.35 -88.88 10.84 -88.88 21.68 -154.39 41.8z"/>
  </g>
  <g id="_2544732424240">
   <path class="fil0" d="M9177.18 798.18l125.05 24.68 213.64 39.05 119.46 34.46 42.02 21.15 45.52 55.1 17.97 64.69 10.78 91.05 -58.71 -32.34 -79.07 1.2c0,0 -8.38,75.46 -9.58,87.45 -1.2,11.98 -38.34,182.09 -37.14,191.68 1.2,9.59 -19.17,250.37 -19.17,250.37l-28.75 268.34 -4.02 338.48 9.35 373.78 28.03 280.33 18.69 258.52 37.82 391.94 39.54 425.12 -16.48 247.16 29.66 204.32 13.19 250.46 3.3 293.3 -1.17 266.4 0 225.3 0 153.08c0,0 -40.44,89.54 -51.99,112.65 -11.55,23.11 -40.44,112.65 -46.22,141.53 -5.77,28.88 -46.21,138.64 -46.21,164.64 0,26 -8.67,155.98 -8.67,155.98l25.99 98.21c0,0 14.45,57.77 20.23,75.1 5.77,17.33 25.99,69.33 25.99,92.44 0,23.11 2.89,95.32 2.89,95.32l2.88 138.64c0,0 34.67,75.1 40.44,92.44 5.77,17.33 5.77,54.87 14.44,72.21 8.67,17.33 23.11,121.32 23.11,121.32l14.44 115.54 14.44 101.1c-274.22,-92.4 -538.15,-866.56 -451.79,-1405.06 72.18,-450.06 72.48,-807.86 20.25,-1213.37 -210.34,-1632.95 -334.58,-2229.55 -100.17,-3763.75z"/>
   <path class="fil0" d="M1540.57 8125.43l-75.63 -165.8 -118.73 -184.23 -116.68 -136.12 -121.75 -118.55 -146.28 -146.28 -37.92 -1.35 -55.53 -28.44 -52.82 -35.22 -21.37 -24.31 -33.33 -30.63 -40.09 -45.04 -29.73 -45.95 -82.26 -146.13 -84.06 -183.28 -73.03 -201.18 -88.19 -219.1 -106.13 -252.52 -80.46 -299.5 -40.24 -226.19c0,0 -22.34,-226.12 -22.34,-232.72 0,-6.6 -7.71,-257.49 -7.71,-257.49l-3.3 -303.71 1.1 -293.81 -10.77 -383.79 -1.98 -333.49 -23.35 -274.59 -19.29 -172.06 -20.6 -178.69 -19.95 -164.34 -8.16 -108.11 14.83 -20.77 5.94 -44.51 36.21 -61.14 28.49 -40.36 79.91 -63.95 66.86 -47.76 118.2 -69.25 113.22 -63.48c95.39,560.06 145.63,1697.57 90.57,2283.28 -40.88,434.88 -28.41,870.08 102.09,1296.21 72.56,236.93 115.22,655.53 375.7,973.32 300.71,366.88 581.9,786.59 545.94,916.24l-37.4 134.82z"/>
   <path class="fil2" d="M6111.87 846.44c14.36,-116.95 170.8,-357.84 155.58,-536.94 -7.95,-93.62 -132.9,-209.44 -225.96,-238.07 -13.06,-23.27 -60.51,-48.18 -73.58,-71.43 170.37,62.91 177.71,71.9 348.08,134.81 46.99,29.46 118.12,9.6 146.85,52.65 120.58,180.71 54.4,532.14 -66.91,894.97 -104.87,313.66 -218.97,586.62 -344.41,847.49 -177.36,368.87 -357.87,720.08 -586.75,1121.96 -132.15,232.05 -204.94,297 -238.67,442.84 -4.18,18.13 -25.77,88.85 -26.7,116.81l-661.73 -4c-16.35,-0.1 -143.49,-190.51 -267.52,-338.67 -120.08,-143.41 -289.42,-329.45 -476.33,-560.24 -285.77,-352.86 -1003.74,-1398.6 -1123.53,-1797.93 116.24,-88.55 269.73,-209.59 351.28,-332.84 4.35,10.42 8.52,20.62 12.51,30.64 2.63,44.79 5.27,89.57 7.9,134.37 25.4,299.09 252.06,534.53 397.59,813.27 153.41,293.82 1394.78,1893.18 1400.36,1915.7l109.22 -199.75c150.25,-274.78 207.91,-320.19 361.95,-593.35 172.01,-305.04 323.44,-610.23 444.13,-948.15 5.6,-10.02 11.21,-20.04 16.82,-30.06 49.39,-111.12 98.78,-222.26 148.17,-333.38 24.7,-63.99 49.39,-127.96 74.08,-191.95 48.5,-151.57 86.93,-180.67 117.58,-328.77z"/>
  </g>
  <g id="_2544732436240">
   <g>
    <path class="fil0" d="M1412.06 18611.26c5.18,-39.63 10.36,-79.24 15.54,-118.87 4.88,-38.71 9.76,-77.43 14.64,-116.13 3.05,-43.58 6.09,-87.18 9.14,-130.76 1.06,-45.7 2.13,-91.4 3.19,-137.1 2.1,-57.28 4.2,-114.57 6.3,-171.85 3.75,-90.64 7.51,-181.29 11.26,-271.92 0,-75.76 0,-151.51 0,-227.28 1.18,-62.79 2.36,-125.58 3.53,-188.37 2.63,-80.03 5.26,-160.07 7.89,-240.1 2.18,-41.34 4.35,-82.69 6.53,-124.04 0,-56.34 0,-112.68 0,-169.02 -0.49,-36.03 -0.97,-72.05 -1.46,-108.09 0.24,-35.55 0.49,-71.08 0.72,-106.63 -2.1,-62.28 -4.19,-124.55 -6.29,-186.83 0.46,-77.58 0.94,-155.15 1.4,-232.73 1.63,-57.72 3.27,-115.43 4.91,-173.15 5.11,-75.64 10.22,-151.28 15.33,-226.91 7.22,-75.62 14.44,-151.23 21.66,-226.85 7.97,-69.93 15.96,-139.84 23.94,-209.77 5.74,-64.36 11.48,-128.71 17.22,-193.07 6.61,-81.95 13.21,-163.91 19.82,-245.86 3.94,-55.67 7.86,-111.34 11.8,-167.01 2.65,-50.93 5.32,-101.85 7.97,-152.77 3.73,-44.45 7.47,-88.9 11.2,-133.35 8.12,-63.19 16.24,-126.38 24.36,-189.57 2.57,-33.27 5.15,-66.56 7.73,-99.83 6.62,-39.44 13.25,-78.89 19.88,-118.33 14.12,24.15 28.24,48.29 42.36,72.45 68.36,93.71 119.48,161.38 201.62,241.93 8.43,5.69 16.86,11.38 25.29,17.08 8.43,13.89 16.85,27.8 25.28,41.69 0,0 49.9,49.9 53.31,56.04 35.52,63.85 128.87,139.39 185.89,181.79 15.72,10.47 31.43,20.96 47.16,31.43 19.1,22.04 38.2,44.1 57.3,66.14 27.04,30.66 49.49,55.01 73.76,73.85 -58.27,819.38 -107.64,1636.18 -107.64,2400.52 0,466.8 181.31,1137.63 211.08,1849.34l-196.24 16.55c-110.78,2.69 -221.55,5.36 -332.33,8.05 -63.01,1.07 -126.02,2.14 -189.03,3.21 -18.16,0.28 -36.32,0.57 -54.48,0.85 -19.83,-0.56 -39.67,-1.13 -59.5,-1.68 -22.91,-4.19 -45.82,-8.38 -68.74,-12.57 -13.97,5.87 -27.94,11.74 -41.91,17.6 -9.49,14.52 -19,29.06 -28.49,43.58 -9.78,-0.28 -19.56,-0.56 -29.34,-0.84 -17.6,-6.43 -35.21,-12.85 -52.81,-19.28 0,0 -41.9,-40.23 -45.26,-51.12 -3.36,-10.9 -13.42,-102.26 -13.42,-102.26 3.64,-44.99 7.26,-89.97 10.9,-134.95 3.36,-31.01 6.7,-62.02 10.06,-93.03 5.66,-13.39 11.31,-26.79 16.97,-40.17z"/>
    <path class="fil0" d="M1763.66 10863.35l19.98 -124.86 31.63 -184.81 24.97 -216.43 36.63 -278.04 24.97 -288.03 13.21 -230.68 -3.35 -146.44 -4.47 -196.74 -6.71 -77.14 -68.18 -186.68 -85.07 -235.02 -80.63 -225.93 -54.02 -156.7 -67.85 -181.19 -79.83 -175.03 -118.73 -184.23 -7.19 -8.39c445.22,163.97 817.9,629.69 1075.1,1782.4 68.61,307.49 110.64,650.32 133.2,1019.68 -16.03,17.33 -40.45,42.67 -59.13,57.35 -30.35,23.84 -125.73,78.04 -125.73,78.04l-136.58 54.19 -130.08 30.35 -88.88 10.84 -88.88 21.68 -154.39 41.8z"/>
   </g>
   <g>
    <path class="fil0" d="M9571.2 6354.14c6.76,19.57 25.05,67.66 25.05,89.65 0,23.11 2.89,95.32 2.89,95.32l2.88 138.64c0,0 34.67,75.1 40.44,92.44 5.77,17.33 5.77,54.87 14.44,72.21 8.67,17.33 23.11,121.32 23.11,121.32l14.44 115.54 28.88 202.19c0,0 43.78,280.96 43.78,310.83 0,29.86 26.89,173.25 26.89,173.25l5.97 244.94c0,0 14.94,227.01 14.94,268.83 0,41.83 11.95,212.09 11.95,212.09l29.86 218.05 5.98 173.26 14.93 256.88 -8.96 95.59 66.42 177.76 121.57 330.92 114.8 280.27 77.67 202.61 -30.61 69.59 -41.03 50.11 -51.96 64.19 -41.27 55.02 -25.22 40.5 -29.8 42.79 -12.99 21.4 -13 17.57 -33.62 13.75 -31.33 16.05 -52.73 27.51 -45.09 27.51 -45.08 23.69 -32.1 13 -22.17 5.35 -98.57 45.08 -29.8 13.76 -18.35 19.1 -59.16 8.98 -45.11 8.11c-195.16,-759.85 -322.64,-1450.16 -328.05,-2059.85 -8.77,-990.65 134.05,-1792.94 409.08,-2395.8z"/>
    <path class="fil0" d="M11173.57 16729.66c-106.37,-241.76 -210.42,-488.03 -311.62,-738.76 -286.03,-708.65 -238.46,-1407.01 -474.01,-2174.86 -117.31,-382.43 -234.13,-754.87 -346.49,-1116.58l62.28 -77.32c25.67,-32.49 51.34,-64.99 77.01,-97.48 26.32,-32.82 52.64,-65.64 78.96,-98.46 23.72,-25.67 47.44,-51.34 71.15,-77.01 28.92,-20.79 57.84,-41.6 86.76,-62.39 25.99,-20.79 51.99,-41.59 77.98,-62.38 24.64,-15.52 49.29,-31.03 73.92,-46.55 32.51,-16.82 65.03,-33.64 97.54,-50.45 20.55,-11.96 41.1,-23.91 61.65,-35.88 16.82,-14.58 33.64,-29.14 50.45,-43.72 6.72,34.38 13.45,68.76 20.17,103.14 11.21,50.82 22.43,101.64 33.64,152.46 3.74,33.64 7.47,67.26 11.21,100.9 4.48,25.04 8.98,50.08 13.46,75.12 4.86,28.4 9.71,56.8 14.57,85.19 4.48,32.14 8.98,64.27 13.46,96.41 5.98,39.62 11.95,79.22 17.93,118.84 3.74,41.1 7.47,82.22 11.21,123.32 9.34,48.2 18.69,96.41 28.03,144.61 9.72,58.68 19.43,117.34 29.15,176.02 7.1,44.47 14.2,88.93 21.3,133.4 5.65,28.18 11.3,56.36 16.95,84.54 7.8,29.9 15.6,59.79 23.4,89.69 14.95,38.03 29.9,76.04 44.84,114.07 16.9,37.7 33.8,75.39 50.7,113.09 21.13,44.84 42.24,89.69 63.37,134.53 16.25,34.12 32.5,68.25 48.75,102.37 18.84,33.79 37.7,67.59 56.54,101.38 13,30.55 26,61.1 39,91.65 7.15,29.24 14.31,58.49 21.46,87.73 9.07,39.35 18.15,78.71 27.22,118.05 0,0 26.91,117.35 26.91,121.36 0,4.01 25.75,104.17 25.75,108.76 0,4.59 38.36,139.11 38.36,139.11 10.68,50.75 21.37,101.5 32.05,152.26 6.11,36.83 12.21,73.65 18.32,110.48 3.66,29.77 7.31,59.54 10.97,89.32 3.19,31.61 6.39,63.22 9.59,94.83 3.73,34.81 7.47,69.62 11.2,104.43 10.3,48.3 20.6,96.62 30.9,144.92 9.41,34.1 18.82,68.19 28.23,102.29 21.52,48.84 43.05,97.67 64.56,146.51 21.47,42.28 42.94,84.56 64.41,126.85 18.17,36.66 36.33,73.33 54.5,110 15.53,46.25 31.05,92.5 46.58,138.75 2.64,28.41 5.29,56.82 7.93,85.22 4.96,37.32 9.91,74.66 14.87,111.98 3.97,34.36 7.92,68.71 11.89,103.06 8.58,24.77 17.18,49.55 25.76,74.33 0,0 37.9,101.9 37.9,115.76 0,13.86 29.47,102.26 29.47,102.26 0,0 41.6,69.34 41.6,88.41 0,19.07 32.93,157.73 32.93,157.73 0,0 17.33,133.47 17.33,149.07 0,15.6 6.93,107.48 6.93,119.6 0,12.13 -8.67,83.2 -8.67,83.2 -13.81,1.39 -27.63,2.79 -41.44,4.18 -18.15,-15.26 -36.29,-30.51 -54.44,-45.76 -12.89,-24.89 -25.77,-49.78 -38.67,-74.67 0,0 -13.34,-5.34 -17.33,-24.01 -4,-18.67 -25.34,-93.33 -25.34,-93.33 -11.12,-17.33 -22.22,-34.67 -33.34,-52 -13.34,-11.12 -26.66,-22.22 -40,-33.34 -8.44,-4.89 -16.89,-9.77 -25.33,-14.66 -20,-3.55 -40,-7.12 -60,-10.67 -19.56,-9.78 -39.12,-19.56 -58.68,-29.34 -18.67,-15.11 -37.33,-30.22 -56,-45.33 -21.78,-8 -43.55,-16 -65.33,-24 -36,-10.23 -72,-20.44 -108,-30.67 -22.22,-8.89 -44.45,-17.78 -66.67,-26.67 -21.78,-7.55 -43.56,-15.11 -65.34,-22.66 -22.51,-5.85 -45.02,-11.69 -67.53,-17.54 -18.68,-0.58 -37.34,-1.15 -56.02,-1.73l-12.78 -2.98z"/>
   </g>
  </g>
  <g id="_2544732436480">
   <g>
    <polygon class="fil3" points="9661.62,13944.29 9068.33,13639.69 9111.99,13589.38 9157.17,13519.38 10014.42,13959.5 "/>
    <path class="fil3" d="M9283.67 13928.06l-334.71 -171.84 1.18 -1.77c21.08,-19.3 42.16,-38.58 63.24,-57.88l45.67 -46.66 570.79 293.04 -346.17 -14.89z"/>
    <polygon class="fil3" points="8905.72,13911.84 9245.21,13926.43 8939.96,13769.71 8924.4,13793.04 8851.13,13883.8 "/>
    <polygon class="fil3" points="8831.11,13908.6 8860.58,13909.86 8839.03,13898.79 "/>
    <polygon class="fil3" points="7096.06,16441.48 8131.62,16973.17 7927.57,16965.23 6938.81,16457.58 "/>
    <path class="fil3" d="M10041.45 12699.47l-22.53 27.96c-28.59,29.9 -57.19,59.78 -85.78,89.68 -27.62,28.92 -55.24,57.84 -82.86,86.76 -22.91,29.24 -45.82,58.5 -68.74,87.75 -24.36,32.04 -48.73,64.08 -73.09,96.12 -25.95,30.45 -51.9,60.9 -77.85,91.35 -24.89,23.56 -49.78,47.14 -74.67,70.7 -25.07,16.72 -50.14,33.44 -75.21,50.16 -34.3,22.16 -68.6,44.31 -102.9,66.46 -29.66,16.07 -59.32,32.16 -88.97,48.23 -18.22,9.65 -36.45,19.3 -54.67,28.95 -22.51,20.36 -45.02,40.73 -67.53,61.09l-3.77 5.84 876.6 450.07 394.25 16.95c-14.02,-53.51 -29.18,-107.33 -45.8,-161.5 -117.31,-382.43 -234.13,-754.87 -346.49,-1116.58z"/>
    <polygon class="fil3" points="7405.67,17866.88 7350.98,17838.8 7202.41,17837.42 7334.94,17905.45 "/>
    <polygon class="fil3" points="7234.79,17960.08 6991.84,17835.36 6849.6,17834.01 7167.07,17997.02 "/>
    <polygon class="fil3" points="7054.54,18048.48 6632.74,17831.89 6496.7,17830.62 6976.53,18076.94 "/>
    <polygon class="fil3" points="6848.48,18123.64 6273.57,17828.46 6143.76,17827.15 6766.56,18146.95 6834.29,18128.81 "/>
    <polygon class="fil3" points="6618.68,18186.57 5914.44,17825.02 5790.89,17823.77 6539.1,18207.88 "/>
    <polygon class="fil3" points="6363.98,18236.69 5555.36,17821.53 5437.93,17820.4 6271.24,18248.23 6277.62,18245.33 "/>
    <path class="fil3" d="M6071.1 18323.24l1.25 -0.25 1.24 -0.24 2.5 -0.46 1.22 -0.24 1.25 -0.24 1.24 -0.24 2.49 -0.46 1.25 -0.24 1.23 -0.24 3.73 -0.7 1.23 -0.24c17.82,-3.42 35.42,-6.67 53.25,-10.1l5.02 -2.83 -951.82 -488.66 -111.11 -1.12 986.01 506.23 0.02 0.02z"/>
    <path class="fil3" d="M5817.03 18370.56l1.2 -0.21 1.18 -0.23 1.19 -0.21 1.2 -0.23 1.19 -0.21 1.18 -0.21 1.2 -0.23 1.2 -0.21 1.17 -0.22 1.2 -0.22 1.2 -0.21 1.17 -0.22 1.2 -0.22 1.18 -0.2 1.19 -0.23 1.2 -0.21 2.38 -0.43 1.18 -0.21c17.09,-3.11 34.01,-6.09 51.15,-9.26l1.19 -0.21 1.2 -0.23 -1056.13 -542.19 -104.86 -1.05 1084.89 557z"/>
    <polygon class="fil3" points="5559.21,18415.95 5560.34,18415.76 5561.47,18415.57 5562.6,18415.38 5563.72,18415.19 5564.87,18414.99 5566,18414.8 5567.12,18414.61 5568.27,18414.41 5569.39,18414.23 5570.51,18414.04 5571.64,18413.84 5572.78,18413.65 5573.91,18413.46 5575.04,18413.27 5576.18,18413.07 5623.74,18404.92 5624.89,18404.72 5626.02,18404.54 5627.16,18404.34 5628.3,18404.14 5629.45,18403.94 5630.56,18403.74 5631.71,18403.54 4477.85,17811.16 4379.24,17810.16 "/>
    <polygon class="fil3" points="5297.18,18459.23 5366.17,18448.11 4118.77,17807.66 4026.33,17806.78 "/>
    <polygon class="fil3" points="5030.44,18500.09 5031.46,18499.95 5032.47,18499.78 5033.49,18499.64 5076.38,18493.19 5077.41,18493.02 5078.43,18492.88 5079.45,18492.71 5080.48,18492.57 5081.5,18492.42 5082.52,18492.27 5083.54,18492.11 5084.57,18491.96 5085.59,18491.8 5086.61,18491.65 5087.63,18491.49 5088.66,18491.34 5089.68,18491.18 5090.7,18491.02 5091.72,18490.88 5092.73,18490.71 5093.75,18490.57 5094.77,18490.41 5095.8,18490.27 3759.59,17804.26 3673.43,17803.41 "/>
    <polygon class="fil3" points="4757.87,18537.93 4758.21,18537.88 4819.51,18529.7 4820.06,18529.62 3400.44,17800.78 3320.51,17799.99 "/>
    <path class="fil3" d="M4478.23 18572.14l0.93 -0.09 0.91 -0.12 0.93 -0.09 0.94 -0.1 0.92 -0.1 0.92 -0.1 0.92 -0.11 0.93 -0.1 0.92 -0.09 0.92 -0.1 0.92 -0.11 0.93 -0.1 0.92 -0.1 0.92 -0.09 1.85 -0.22 0.92 -0.1 0.92 -0.1c13.94,-1.61 27.63,-3.09 41.64,-4.74l0.92 -0.12 -1496.11 -768.14 -73.68 -0.66 1510.61 775.53z"/>
    <polygon class="fil3" points="4190.9,18602.36 4191.75,18602.28 4192.6,18602.19 4193.47,18602.11 4194.33,18602.03 4195.17,18601.95 4196.05,18601.86 4196.9,18601.78 4223.75,18599.1 4224.61,18599.01 4225.48,18598.93 4226.35,18598.84 4227.21,18598.75 4228.08,18598.67 4228.95,18598.59 4229.82,18598.51 4230.69,18598.4 4231.56,18598.31 4232.42,18598.23 4233.29,18598.15 4234.17,18598.05 4235.04,18597.97 4235.89,18597.89 4236.76,18597.8 4237.63,18597.71 4238.5,18597.63 4239.37,18597.53 4240.22,18597.44 4241.09,18597.36 4241.96,18597.28 4242.82,18597.19 4243.68,18597.1 4244.55,18597.02 4245.41,18596.94 4246.28,18596.85 2682.18,17793.84 2614.72,17793.16 "/>
    <polygon class="fil3" points="3891.74,18626.64 3892.58,18626.57 3893.41,18626.52 3894.24,18626.46 3895.08,18626.4 3895.91,18626.35 3896.74,18626.28 3897.58,18626.23 3898.41,18626.19 3899.24,18626.13 3900.07,18626.08 3900.91,18626.02 3901.72,18625.96 3902.57,18625.9 3903.39,18625.85 3904.21,18625.8 3905.05,18625.74 3909.19,18625.47 3910.02,18625.42 3910.85,18625.36 3939.96,18623.4 3940.8,18623.34 3941.64,18623.28 3942.49,18623.22 3943.32,18623.17 3944.18,18623.09 3945.02,18623.04 2344.24,17801.21 2349.4,17834.8 3891.72,18626.63 "/>
    <polygon class="fil3" points="3578.13,18643.34 3578.91,18643.31 3579.69,18643.29 3627.62,18641.46 3628.4,18641.44 2374.73,17997.79 2379.4,18027.94 "/>
    <path class="fil3" d="M3239.78 18647.41l0.76 0.01c15.67,0.22 31.36,0.43 47.29,0.54l0.77 0.01 -884.04 -453.86 3.87 26.45 831.34 426.86z"/>
    <path class="fil3" d="M2893.89 18629.96l0.79 0.06 0.8 0.08 0.8 0.06 0.79 0.06 0.8 0.08 0.8 0.06 0.8 0.07 0.77 0.07 0.79 0.06 0.8 0.08 0.8 0.06 -470.74 -241.71 2.96 22.86 417.33 214.28c13.56,1.42 27.87,2.51 41.74,3.8z"/>
    <g>
     <polygon class="fil3" points="3864.28,16772.41 3763.15,16782.77 3806.26,16804.86 3937.4,16810.01 "/>
     <polygon class="fil3" points="4158.09,16742.35 4051.94,16753.2 4180.88,16819.47 4318.69,16824.8 "/>
     <polygon class="fil3" points="4451.88,16712.26 4340.56,16723.62 4555.49,16834.03 4700.01,16839.64 "/>
     <polygon class="fil3" points="4745.63,16682.18 4629.26,16694.11 4930.22,16848.61 5081.29,16854.43 "/>
     <polygon class="fil3" points="5039.42,16652.07 5462.57,16869.31 5304.81,16863.17 4917.95,16664.52 "/>
     <polygon class="fil3" points="5333.25,16621.98 5206.65,16634.96 5679.54,16877.78 5843.88,16884.15 "/>
     <polygon class="fil3" points="5627.07,16591.9 6225.12,16899.01 6054.14,16892.33 5495.35,16605.4 "/>
     <polygon class="fil3" points="5920.85,16561.83 6606.47,16913.81 6428.88,16906.9 5784.02,16575.86 "/>
     <polygon class="fil3" points="6214.62,16531.75 6987.72,16928.66 6803.51,16921.49 6072.74,16546.28 "/>
     <polygon class="fil3" points="6508.4,16501.64 7369.01,16943.49 7178.22,16936.03 6361.39,16516.69 "/>
     <polygon class="fil3" points="6802.23,16471.54 7750.39,16958.27 7552.92,16950.62 6650.11,16487.14 "/>
     <polygon class="fil3" points="2340.8,15341.38 4309.83,16352.29 4461.58,16355.42 2345.41,15268.95 "/>
     <polygon class="fil3" points="2351.9,15169.31 4670.51,16359.69 4828.58,16362.88 2356.9,15093.88 "/>
     <polygon class="fil3" points="2484.84,14978.69 2365.07,14973.22 2363.41,14997.47 5031.09,16367.1 5195.67,16370.42 "/>
     <path class="fil3" d="M3066.4 15096.36l43.4 22.28c24.2,19.36 53.84,42.98 61.41,48.53 296.43,217.38 558.02,342.75 861.23,440.75 24.98,8.08 50.15,15.76 75.48,23.16l1454.74 746.86 -170.9 -3.5 -2700.28 -1386.32 100.28 4.58 56.94 51.87c22.21,17.47 44.42,34.95 66.63,52.42 74.74,28.86 85.12,31.02 151.08,-0.62z"/>
     <path class="fil3" d="M4669.85 15738.61l1259.85 646.81 -177.38 -3.59 -1314.17 -674.74c76.37,13.17 153.7,23.69 231.71,31.53z"/>
     <path class="fil3" d="M5056.63 15756.33l1240.06 636.69 -183.61 -3.81 -1238.95 -636.1c60.64,2.56 121.5,3.65 182.49,3.21z"/>
     <path class="fil3" d="M5378.33 15740.51l1285.44 659.99 -190.07 -3.95 -1256 -644.82c53.57,-2.63 107.15,-6.37 160.62,-11.22z"/>
     <path class="fil3" d="M5660.85 15704.61l1369.93 703.36 -196.43 -4 -1320.72 -678.08c49.24,-6.18 98.33,-13.28 147.22,-21.28z"/>
     <path class="fil3" d="M5915.32 15654.35l2597.59 1333.63 -210.62 -8.24 -1074.76 -551.73 130.22 -13.39 -162.69 -3.31 -1417.38 -727.64c46.16,-8.98 92.04,-18.76 137.64,-29.33z"/>
     <path class="fil3" d="M6017.76 15629.13l2659.15 1365.27 217.31 8.38 -2746.37 -1409.99c-42.99,12.82 -86.37,24.95 -130.09,36.34z"/>
     <path class="fil3" d="M6238.25 15564.59l2739.52 1406.42 117.76 -45.69 -2734.24 -1403.84c-38.39,14.48 -79.21,28.8 -123.04,43.11z"/>
     <path class="fil3" d="M6439.78 15490.25l2732.89 1403.16 4.32 -1.08c8.01,-5.44 16.02,-10.9 24.03,-16.34 22.43,-7.38 44.86,-14.74 67.29,-22.12l23.42 -8.78 -2739.45 -1406.45c-35.24,17.68 -72.51,34.8 -112.5,51.62z"/>
     <path class="fil3" d="M6617.83 15403.89l2753.23 1413.48 23.18 -7.73c22.75,-6.72 45.5,-13.46 68.25,-20.19l43.45 -15.38 -2787.64 -1431.18c-32.35,21.23 -65.57,41.49 -100.47,61z"/>
     <path class="fil3" d="M6772.81 15305.68l2818.83 1447.17 23.71 -6.65c24.67,-3.84 49.35,-7.7 74.02,-11.54 16.02,-2.88 32.04,-5.77 48.07,-8.66l20.62 -3.44 -2893.35 -1485.4c-30.84,24.03 -61.22,46.79 -91.9,68.51z"/>
     <polygon class="fil3" points="11673.42,15688.35 11673.43,15688.35 11673.28,15688.01 "/>
     <polygon class="fil3" points="10677.65,15352.19 10671.86,15351.92 10678.25,15355.19 "/>
     <polyline class="fil4" points="10685.2,15389.43 10606.32,15348.93 10291.9,15334.62 10722.84,15555.87 "/>
     <path class="fil3" d="M10795.01 15807.62l-962.13 -493.98 -301.07 -13.72 1326.12 680.84c-23.06,-57.76 -43.92,-115.46 -62.92,-173.13z"/>
     <path class="fil3" d="M10878.31 16031.35l-1432.22 -735.3 -294.28 -13.45 1797.97 923.09c-23.98,-57.88 -47.8,-115.99 -71.47,-174.34z"/>
     <path class="fil3" d="M10972.65 16260.71l-1913.27 -982.28 -287.59 -13.11 2273.14 1167c-24.23,-56.96 -48.32,-114.16 -72.27,-171.61z"/>
     <path class="fil3" d="M11070.26 16491.71l-2397.61 -1230.93 -280.88 -12.82 2751.55 1412.68c-24.48,-56.08 -48.85,-112.38 -73.07,-168.93z"/>
     <path class="fil3" d="M11171.31 16724.52l-2885.43 -1481.37 -274.14 -12.46 2819.88 1447.67 66.89 6.01c0,0 79.29,13.79 85.33,17.24 6.03,3.45 91.35,12.07 91.35,12.07 12.35,0.58 24.7,1.15 37.05,1.73l61.34 14.26 -2.26 -5.14z"/>
     <path class="fil3" d="M10701.53 16664.2l-2802.32 -1438.7 -267.46 -12.18 2806.46 1440.87 13.86 -1.7c21.55,0.87 43.09,1.73 64.64,2.59 19.53,0 39.07,0 58.6,0 26.15,1.44 52.28,2.87 78.43,4.31l47.79 4.81z"/>
     <path class="fil3" d="M10342.07 16660.63l-2829.64 -1452.73 -260.7 -11.9 2878.07 1477.62 31.59 -3.36c41.65,-2.24 83.31,-4.49 124.96,-6.74l55.72 -2.89z"/>
     <path class="fil3" d="M10036.73 16684.74l-2911.04 -1494.5 -191.3 -8.7 -22.18 17.95 2937.83 1508.27 55.63 -8.67c17.62,0 35.25,0 52.87,0l78.19 -14.36z"/>
     <polygon class="fil3" points="2294.98,16206.78 2506.53,16315.39 2626.52,16317.86 2297.4,16148.89 "/>
     <polygon class="fil3" points="2302.56,16032.87 2867.23,16322.76 2993.49,16325.38 2305.43,15972.1 "/>
     <polygon class="fil3" points="2311.03,15859.44 3227.88,16330.17 3360.54,16332.88 2314.35,15795.77 "/>
     <polygon class="fil3" points="2320.3,15686.38 3588.55,16337.53 3727.52,16340.43 2324.05,15619.83 "/>
     <polygon class="fil3" points="2330.24,15513.79 3949.12,16344.89 4094.61,16347.92 2334.44,15444.19 "/>
    </g>
   </g>
   <g>
    <polygon class="fil3" points="9137.33,9291.37 9112.2,9278.5 9194.62,9284.87 9195.13,9289.64 "/>
    <path class="fil3" d="M2733.46 10209.63l-228.48 -117.3c-16.45,-136.97 -36.47,-269.1 -60.54,-395.87l1126.07 25.37 -1.82 1.26 -62.5 58.11 -127.18 88.81 -80.04 37.28 -166.34 107.06 -173.9 128.28 -76.59 71.33 -148.69 -4.34zm3382.13 -430.44l256.41 5.77 0.94 22.89c0,0 10.09,55.22 12.12,59.26 2.02,4.05 18.86,56.58 18.86,56.58l-66.01 -39.74 -90.93 -51.19 -131.39 -53.58zm725.44 16.34l2435.88 54.89c32.29,179.57 70.67,364.1 114.19,553.36l-1818.59 -53.04 -8.01 -9.66 -71.45 -75.91 -45.8 -60.62 -43.11 -59.27 -26.27 -41.08 -56.58 -51.86 -59.95 -28.97 -46.48 -16.84 -82.17 -20.88 -61.3 -25.6 -78.8 -50.51 -82.18 -59.95 -59.95 -45.8 -9.45 -8.27z"/>
    <path class="fil3" d="M2506.48 10104.89l202.61 104.02 -191.66 -5.59c-3.45,-33.08 -7.11,-65.89 -10.95,-98.43z"/>
    <polygon class="fil3" points="1860.41,10184.15 1860.4,10184.15 1866.47,10138.15 "/>
    <path class="fil3" d="M5663.33 8567.14l-3581.46 -37.65c119.52,246.58 226.53,561.51 319.1,962.01l6714.68 -199.46 -30.6 -15.66 -5749.99 -447.51 2328.27 -261.74z"/>
    <g>
     <polygon class="fil3" points="7621.9,1553.22 7723.02,1542.86 7679.92,1520.78 7548.78,1515.62 "/>
     <polygon class="fil3" points="7328.09,1583.29 7434.24,1572.44 7305.3,1506.15 7167.48,1500.83 "/>
     <polygon class="fil3" points="7034.3,1613.38 7145.61,1602.01 6930.69,1491.6 6786.16,1486 "/>
     <polygon class="fil3" points="6740.55,1643.45 6856.93,1631.53 6555.95,1477.03 6404.88,1471.2 "/>
     <polygon class="fil3" points="6446.76,1673.56 6218.84,1556.55 6219.24,1555.59 6219.63,1554.63 6220.04,1553.67 6220.43,1552.71 6220.66,1552.16 6220.83,1551.75 6221.22,1550.79 6221.63,1549.83 6222.02,1548.86 6222.41,1547.9 6222.81,1546.94 6223.21,1545.98 6223.61,1545.02 6224,1544.05 6224.41,1543.09 6224.8,1542.13 6225.2,1541.17 6225.59,1540.21 6225.99,1539.24 6226.06,1539.08 6226.39,1538.28 6226.78,1537.32 6227.18,1536.34 6227.58,1535.38 6227.97,1534.42 6228.37,1533.45 6228.76,1532.49 6229.16,1531.53 6229.56,1530.56 6229.95,1529.6 6230.34,1528.63 6230.75,1527.67 6231.14,1526.7 6231.44,1525.97 6231.53,1525.73 6231.93,1524.76 6232.33,1523.79 6232.72,1522.83 6233.11,1521.86 6233.51,1520.89 6233.91,1519.93 6234.3,1518.96 6234.69,1517.99 6235.09,1517.03 6235.49,1516.06 6235.88,1515.09 6236.27,1514.11 6236.67,1513.14 6236.8,1512.82 6237.06,1512.18 6237.45,1511.21 6237.86,1510.24 6238.25,1509.27 6238.64,1508.3 6239.03,1507.33 6239.43,1506.36 6239.82,1505.38 6240.21,1504.41 6240.61,1503.44 6241.01,1502.47 6241.4,1501.5 6241.79,1500.53 6242.15,1499.64 6242.18,1499.56 6242.58,1498.59 6242.97,1497.62 6243.36,1496.64 6243.75,1495.66 6244.15,1494.69 6568.23,1661.11 "/>
     <polygon class="fil3" points="6156.03,1703.33 6279.53,1690.68 6183.1,1641.17 6182.68,1642.15 6182.46,1642.66 6182.27,1643.12 6181.84,1644.1 6181.42,1645.07 6181,1646.05 6180.58,1647.02 6180.16,1648 6179.74,1648.98 6179.32,1649.96 6178.9,1650.93 6178.48,1651.91 6178.05,1652.88 6177.63,1653.86 6177.22,1654.83 6176.95,1655.45 6176.79,1655.8 6176.37,1656.78 6175.95,1657.76 6175.52,1658.73 6175.11,1659.71 6174.69,1660.68 6174.26,1661.65 6173.84,1662.62 6173.42,1663.59 6172.99,1664.57 6172.57,1665.55 6172.15,1666.52 6171.73,1667.49 6171.41,1668.22 6171.31,1668.46 6170.88,1669.43 6170.46,1670.4 6170.04,1671.37 6169.61,1672.34 6169.19,1673.31 6168.77,1674.28 6168.34,1675.26 6167.92,1676.23 6167.5,1677.2 6167.07,1678.17 6166.65,1679.14 6166.23,1680.11 6165.86,1680.95 6165.8,1681.08 6165.38,1682.05 6164.95,1683.01 6164.53,1683.98 6164.11,1684.96 6163.68,1685.93 6163.26,1686.9 6162.84,1687.86 6162.41,1688.83 6161.99,1689.8 6161.56,1690.77 6161.13,1691.73 6160.71,1692.7 6160.3,1693.64 6160.29,1693.66 6159.86,1694.63 6159.44,1695.61 6159.01,1696.57 6158.58,1697.54 6158.16,1698.5 6157.73,1699.47 6157.31,1700.44 6156.88,1701.4 6156.45,1702.37 "/>
     <path class="fil3" d="M9081.83 2951.63l-1905.48 -978.28 -151.75 -3.13 2064.23 1059.81c-2.43,-26.26 -4.78,-52.42 -7,-78.4z"/>
     <path class="fil3" d="M9099.32 3138.37l-2283.66 -1172.42 -158.07 -3.19 2450.28 1258.02c-2.96,-27.7 -5.8,-55.12 -8.55,-82.4z"/>
     <polygon class="fil3" points="9001.35,3346.94 9122.5,3352.47 9119.53,3326.5 6455.09,1958.53 6290.51,1955.22 "/>
     <polygon class="fil3" points="8614.61,3329.29 6019.22,1996.83 6041.22,1951.32 6041.8,1950.12 6094.42,1951.2 8794.7,3337.52 "/>
     <polygon class="fil3" points="8227.89,3311.71 5948.43,2141.44 5948.97,2140.34 5949.51,2139.26 5950.04,2138.16 5950.59,2137.08 5951.12,2136 5951.13,2135.98 5951.67,2134.9 5952.2,2133.8 5952.74,2132.72 5953.28,2131.62 5953.81,2130.54 5954.35,2129.45 5954.9,2128.36 5955.44,2127.27 5955.97,2126.18 5956.51,2125.09 5957.05,2124 5957.59,2122.91 5958.12,2121.81 5958.66,2120.73 5959.2,2119.63 5959.56,2118.91 5959.73,2118.55 5960.27,2117.45 5960.81,2116.37 5961.35,2115.27 5961.88,2114.18 5962.42,2113.09 5962.96,2112 5963.49,2110.91 5964.03,2109.82 5964.57,2108.73 5965.11,2107.64 5965.64,2106.54 5966.18,2105.46 5966.72,2104.36 5967.25,2103.28 5967.79,2102.18 5967.98,2101.8 5968.33,2101.09 5968.87,2100 5969.4,2098.91 5969.94,2097.81 5970.47,2096.73 5971,2095.63 5971.54,2094.55 5972.08,2093.45 5972.62,2092.36 5973.15,2091.27 5973.69,2090.18 5974.23,2089.08 5974.76,2088 5975.29,2086.91 5975.83,2085.81 5976.37,2084.73 5976.39,2084.68 5976.9,2083.63 5977.44,2082.54 5977.98,2081.45 5978.5,2080.36 5979.04,2079.26 5979.58,2078.17 5980.12,2077.08 5980.65,2075.99 5981.19,2074.89 5981.72,2073.8 5982.25,2072.71 5982.79,2071.62 8414.66,3320.22 "/>
     <polygon class="fil3" points="7841.11,3294.07 5876.52,2285.37 5877.09,2284.24 5877.66,2283.12 5878.23,2281.99 5878.8,2280.88 5879.36,2279.75 5879.93,2278.62 5880.5,2277.5 5881.07,2276.37 5881.63,2275.25 5882.2,2274.13 5882.76,2273 5882.94,2272.65 5883.33,2271.88 5883.9,2270.75 5884.47,2269.63 5885.03,2268.51 5885.59,2267.38 5886.16,2266.26 5886.73,2265.13 5887.3,2264.01 5887.86,2262.88 5888.42,2261.77 5888.99,2260.64 5889.56,2259.51 5890.12,2258.39 5890.69,2257.26 5891.25,2256.15 5891.54,2255.57 5891.82,2255.02 5892.38,2253.89 5892.95,2252.77 5893.52,2251.64 5894.07,2250.53 5894.64,2249.4 5895.21,2248.27 5895.77,2247.15 5896.34,2246.02 5896.9,2244.91 5897.46,2243.78 5898.03,2242.65 5898.59,2241.53 5899.16,2240.4 5899.72,2239.29 5900.12,2238.49 5900.28,2238.16 5900.84,2237.03 5901.41,2235.91 5901.97,2234.79 5902.54,2233.67 5903.1,2232.54 5903.66,2231.42 5904.23,2230.29 5904.79,2229.17 5905.35,2228.05 5905.91,2226.92 5906.47,2225.8 5907.04,2224.68 5907.6,2223.55 5908.17,2222.43 5908.67,2221.42 5908.72,2221.3 5909.29,2220.19 5909.85,2219.06 5910.41,2217.93 5910.98,2216.81 5911.53,2215.69 5912.1,2214.57 5912.66,2213.44 8034.65,3302.9 "/>
     <polygon class="fil3" points="7454.35,3276.45 5803.29,2428.74 5803.89,2427.59 5804.27,2426.84 5804.49,2426.42 5805.09,2425.26 5805.69,2424.11 5806.29,2422.94 5806.89,2421.78 5807.49,2420.62 5808.09,2419.46 5808.69,2418.3 5809.28,2417.14 5809.88,2415.99 5810.48,2414.82 5811.08,2413.66 5811.67,2412.5 5812.27,2411.35 5812.87,2410.18 5813.14,2409.65 5813.47,2409.02 5814.07,2407.87 5814.66,2406.71 5815.26,2405.54 5815.85,2404.38 5816.45,2403.23 5817.04,2402.07 5817.64,2400.91 5818.83,2398.59 5819.43,2397.43 5820.03,2396.28 5820.62,2395.12 5821.22,2393.96 5821.8,2392.8 5821.97,2392.48 5822.4,2391.65 5823,2390.49 5823.59,2389.32 5824.19,2388.17 5824.78,2387.01 5825.38,2385.85 5825.97,2384.7 5826.57,2383.54 5827.16,2382.38 5827.74,2381.22 5828.34,2380.07 5828.93,2378.91 5829.53,2377.75 5830.12,2376.6 5830.71,2375.44 5830.77,2375.33 5831.31,2374.28 5831.9,2373.13 5832.5,2371.97 5833.09,2370.81 5833.67,2369.65 5834.26,2368.5 5834.86,2367.34 5835.45,2366.18 5836.04,2365.03 5836.63,2363.87 5837.23,2362.71 5837.82,2361.56 5838.41,2360.4 5838.99,2359.24 5839.54,2358.19 5839.59,2358.08 5840.18,2356.93 5840.77,2355.77 5841.36,2354.61 7654.69,3285.55 "/>
     <polygon class="fil3" points="7067.59,3258.83 5728.71,2571.42 5729.34,2570.23 5730.61,2567.84 5731.24,2566.64 5731.87,2565.44 5732.01,2565.19 5732.5,2564.25 5733.13,2563.06 5733.76,2561.86 5734.4,2560.66 5735.03,2559.46 5735.66,2558.27 5736.29,2557.08 5736.92,2555.88 5737.55,2554.69 5738.18,2553.49 5738.81,2552.3 5739.44,2551.11 5740.07,2549.91 5740.69,2548.72 5741.19,2547.79 5741.32,2547.52 5741.95,2546.33 5742.58,2545.13 5743.21,2543.95 5743.84,2542.75 5744.46,2541.56 5745.09,2540.36 5745.72,2539.17 5746.35,2537.98 5746.97,2536.79 5747.6,2535.6 5748.23,2534.4 5748.85,2533.21 5749.48,2532.01 5750.1,2530.83 5750.32,2530.43 5750.73,2529.64 5751.36,2528.44 5751.98,2527.25 5752.61,2526.06 5753.23,2524.87 5753.86,2523.68 5754.48,2522.49 5755.11,2521.3 5755.73,2520.1 5756.35,2518.92 5756.98,2517.73 5757.6,2516.54 5758.23,2515.34 5758.85,2514.15 5759.4,2513.11 5759.47,2512.97 5760.1,2511.78 5760.72,2510.59 5761.34,2509.4 5761.96,2508.21 5762.59,2507.02 5763.21,2505.83 5763.83,2504.64 5764.45,2503.45 5765.07,2502.26 5765.7,2501.08 5766.32,2499.89 5766.94,2498.7 5767.56,2497.51 5768.18,2496.32 5768.45,2495.81 5768.8,2495.14 7274.62,3268.24 "/>
     <polygon class="fil3" points="6680.85,3241.18 5652.79,2713.36 5653.45,2712.13 5654.12,2710.9 5654.79,2709.67 5655.46,2708.45 5656.12,2707.21 5656.78,2705.98 5657.01,2705.57 5657.45,2704.75 5658.11,2703.52 5658.77,2702.29 5659.43,2701.06 5660.11,2699.83 5660.77,2698.6 5661.43,2697.38 5662.09,2696.15 5662.75,2694.92 5663.41,2693.69 5664.08,2692.46 5664.74,2691.23 5665.4,2690.01 5666.07,2688.79 5666.55,2687.89 5666.73,2687.56 5667.39,2686.33 5668.05,2685.1 5668.7,2683.88 5669.36,2682.65 5670.02,2681.42 5670.68,2680.2 5671.34,2678.97 5672.01,2677.74 5672.67,2676.52 5673.32,2675.3 5673.98,2674.08 5674.64,2672.85 5675.3,2671.63 5675.95,2670.4 5676.04,2670.23 5676.61,2669.18 5677.27,2667.95 5677.92,2666.73 5678.59,2665.5 5679.24,2664.28 5679.9,2663.06 5680.55,2661.83 5681.21,2660.62 5681.86,2659.4 5682.52,2658.17 5683.17,2656.95 5683.83,2655.73 5684.48,2654.5 5685.14,2653.28 5685.49,2652.63 5685.8,2652.06 5686.45,2650.84 5687.1,2649.62 5687.76,2648.4 5688.41,2647.18 5689.06,2645.96 5689.71,2644.74 5690.36,2643.52 5691.02,2642.3 5691.67,2641.08 5692.33,2639.86 5692.98,2638.64 5693.63,2637.42 5694.28,2636.21 5694.89,2635.07 5694.93,2634.99 6894.62,3250.88 "/>
     <path class="fil3" d="M6294.21 3223.58l220.32 10.02 -894.81 -459.42 -0.68 1.25 -0.68 1.25 -0.05 0.09 -0.63 1.16 -0.68 1.25 -0.68 1.25 -0.69 1.25 -0.68 1.25 -0.68 1.25 -0.68 1.25 -0.68 1.25 -0.69 1.25 -0.68 1.25 -0.68 1.25 -2.75 5.01 -0.68 1.25 -0.69 1.26 -0.69 1.25 -0.68 1.25 -0.69 1.26 -0.68 1.25 -0.69 1.25 -0.69 1.26 -0.68 1.25 -0.69 1.26 -0.69 1.25 -0.69 1.26 -0.68 1.26 -0.52 0.93 -0.18 0.32 -0.69 1.26 -0.69 1.25 -0.69 1.26 -0.69 1.26 -0.69 1.26 -0.69 1.25 -0.69 1.26 -0.69 1.26 -0.69 1.26 -0.69 1.26 -0.69 1.25 -0.69 1.26 -4.17 7.56 -0.69 1.26 -1.39 2.53 -0.7 1.26 -0.69 1.26 -0.69 1.26 -0.7 1.26 -0.7 1.27 -0.69 1.26 -0.98 1.79 -0.41 0.73 -0.7 1.27 -0.7 1.26 -0.69 1.27 -0.7 1.26 718.7 368.98zm-3362.13 -1780.35l0.7 1.21 0.71 1.2 0.7 1.21 0.71 1.21 0.71 1.21 0.7 1.21 0.71 1.21 0.71 1.21 0.71 1.21 0.71 1.21 0.71 1.21 0.71 1.21 0.71 1.22 0.71 1.21 0.71 1.21 0.71 1.21 3.58 6.07 0.72 1.21 0.72 1.22 0.71 1.22 0.72 1.22 0.72 1.21 0.72 1.22 0.71 1.22 0.72 1.22 2.9 4.88 0.72 1.22 0.72 1.22 0.72 1.22 0.73 1.23 0.72 1.22 0.73 1.22 0.72 1.22 0.73 1.23 0.72 1.22 0.73 1.23 2.92 4.9 0.73 1.23 0.73 1.22 0.73 1.23 0.73 1.23 0.73 1.23 0.74 1.22 0.73 1.23 0.73 1.23 0.73 1.23 0.74 1.23 0.73 1.23 0.74 1.23 0.73 1.23 0.74 1.23 0.74 1.24 0.73 1.23 0.73 1.23 -386.45 -198.4 193.63 7.46c48.27,38.35 97.08,76.02 146.47,112.92l0.01 0z"/>
     <path class="fil3" d="M5907.42 3205.93l227.16 10.31 -591.32 -303.57 -0.71 1.28 -0.71 1.28 -0.71 1.28 -0.03 0.06 -1.4 2.49 -0.71 1.28 -0.71 1.28 -0.06 0.12 -1.37 2.44 -0.71 1.29 -0.72 1.28 -0.71 1.28 -0.72 1.28 -0.71 1.28 -0.72 1.28 -0.71 1.29 -0.72 1.28 -0.71 1.28 -0.72 1.29 -0.72 1.28 -0.71 1.29 -0.3 0.54 -0.42 0.74 -0.72 1.29 -0.72 1.28 -0.72 1.29 -0.71 1.28 -0.72 1.29 -0.72 1.28 -0.72 1.29 -0.72 1.29 -0.72 1.29 -0.72 1.28 -0.72 1.29 -0.72 1.29 -0.73 1.29 -0.54 0.97 -0.19 0.32 -0.72 1.29 -0.72 1.29 -0.72 1.29 -0.73 1.29 -0.72 1.29 -0.72 1.29 -0.73 1.29 -0.72 1.29 -0.73 1.29 -0.72 1.3 -0.73 1.29 -0.72 1.29 -0.73 1.29 -0.72 1.3 -0.06 0.1 -0.67 1.19 -0.73 1.3 -0.72 1.29 -0.73 1.29 -0.73 1.3 -0.73 1.3 -0.72 1.29 -0.73 1.3 -0.73 1.29 -0.73 1.3 -0.73 1.3 -0.73 1.29 -0.73 1.3 -0.73 1.3 410.48 210.76zm-2862.57 -1575.9l-610.29 -313.32 -223.83 -8.78 933.31 479.19 -1.57 -2.46 -1.58 -2.47 -1.58 -2.46 -1.58 -2.47 -1.58 -2.46 -1.58 -2.47 -1.57 -2.46 -1.58 -2.47 -7.87 -12.31 -1.57 -2.46 -1.57 -2.47 -1.56 -2.46 -1.57 -2.46 -1.57 -2.46 -1.56 -2.47 -1.57 -2.46 -1.56 -2.46 -1.57 -2.46 -1.56 -2.46 -1.56 -2.46 -0.6 -0.93 -0.96 -1.54 -1.56 -2.46 -1.56 -2.46 -1.55 -2.46 -1.56 -2.46 -1.55 -2.45 -1.56 -2.46 -1.55 -2.46 -1.55 -2.46 -1.55 -2.46 -1.55 -2.45 -1.55 -2.46 -1.55 -2.46 -1.54 -2.45 -1.55 -2.46 -1.54 -2.45 -1.54 -2.46 -0.17 -0.26 -4.45 -7.1 -1.54 -2.45 -6.14 -9.79 -1.53 -2.45 -1.53 -2.45 -0.69 -1.1 -0.84 -1.35 -1.53 -2.44 -13.68 -21.98 -1.52 -2.44 -1.51 -2.44z"/>
     <path class="fil3" d="M5520.7 3188.27l233.86 10.7 -289.04 -148.4 -0.74 1.31 -0.81 1.42 -0.81 1.42 -0.81 1.4 -0.8 1.39 -0.81 1.4 -0.8 1.39 -0.8 1.38 -0.54 0.94 -0.26 0.44 -0.8 1.38 -0.8 1.37 -0.79 1.37 -0.8 1.37 -0.79 1.36 -1.57 2.72 -0.29 0.49 -0.5 0.87 -0.79 1.35 -0.79 1.34 -0.77 1.34 -0.77 1.34 -0.79 1.33 -0.77 1.33 -0.76 1.32 -0.03 0.05 -0.74 1.27 -0.77 1.32 -0.76 1.31 -0.77 1.31 -0.76 1.3 -0.76 1.3 -0.76 1.3 -0.55 0.93 -0.22 0.36 -0.75 1.29 -0.76 1.29 -0.75 1.28 -0.75 1.28 -0.75 1.28 -0.75 1.27 -0.75 1.27 -0.3 0.51 -0.45 0.76 -0.74 1.26 -0.75 1.26 -0.74 1.25 -0.74 1.25 -0.74 1.25 -0.74 1.24 -0.74 1.24 -0.05 0.1 -0.68 1.14 -0.74 1.24 -0.73 1.23 -0.73 1.22 -0.73 1.23 -0.73 1.22 -0.73 1.21 -0.55 0.93 -0.18 0.29 -0.73 1.21 -0.72 1.2 -0.72 1.21 -0.72 1.2 -0.72 1.19 -0.72 1.2 -0.72 1.19 -0.31 0.52 -0.4 0.67 -0.72 1.18 -0.71 1.18 104.58 53.7zm-2306.99 -1293.85l-0.01 0 -1096.84 -563.16c-24.65,23.05 -50.4,46.35 -77.09,69.87l1284.74 659.6 -3.46 -5.12 -1.74 -2.56 -1.73 -2.56 -8.66 -12.84 -1.74 -2.57 -3.46 -5.14 -1.74 -2.58 -1.36 -2.02 -0.37 -0.55 -1.74 -2.58 -1.73 -2.58 -1.74 -2.58 -5.2 -7.76 -1.74 -2.58 -1.74 -2.59 -3.47 -5.18 -1.73 -2.59 -1.74 -2.59 -0.72 -1.07 -1.01 -1.52 -1.74 -2.6 -1.74 -2.59 -1.73 -2.6 -1.74 -2.59 -1.74 -2.6 -1.74 -2.6 -3.46 -5.21 -1.74 -2.6 -1.74 -2.6 -1.73 -2.61 -1.74 -2.6 -0.08 -0.11 -1.65 -2.5 -1.73 -2.6 -1.74 -2.61 -1.74 -2.61 -1.73 -2.61 -1.74 -2.61 -1.73 -2.61 -1.74 -2.61 -1.73 -2.62 -1.74 -2.61 -1.73 -2.61 -1.74 -2.62 -1.17 -1.76 -0.56 -0.86 -1.73 -2.62 -1.74 -2.62 -1.73 -2.62 -1.73 -2.62 -5.19 -7.87 -1.73 -2.62 -1.73 -2.62 -1.73 -2.62 -1.73 -2.63 -1.73 -2.62z"/>
     <path class="fil3" d="M3396.39 2166.05l-0.01 0 -1406.16 -721.91c-27.07,23.13 -54.93,46.39 -83.4,69.74l1612.54 827.88 -1.87 -2.62 -1.86 -2.62 -3.68 -5.17 -0.07 -0.1 -1.87 -2.63 -1.88 -2.64 -1.87 -2.65 -1.88 -2.65 -1.88 -2.65 -1.89 -2.65 -1.88 -2.67 -1.89 -2.68 -5.67 -8.02 -0.01 -0.01 -1.89 -2.69 -1.9 -2.7 -1.9 -2.69 -1.9 -2.71 -1.9 -2.7 -1.9 -2.71 -1.91 -2.71 -1.91 -2.72 -1.91 -2.72 -0.97 -1.37 -0.94 -1.34 -1.91 -2.73 -1.91 -2.73 -1.92 -2.74 -1.92 -2.74 -1.92 -2.74 -1.92 -2.75 -1.92 -2.75 -1.92 -2.75 -1.93 -2.76 -5.78 -8.28 -1.93 -2.77 -1.94 -2.77 -1.93 -2.78 -1.94 -2.78 -1.93 -2.78 -1.94 -2.79 -1.94 -2.79 -1.94 -2.8 -5.84 -8.4 -1.95 -2.81 -1.95 -2.81 -1.94 -2.81 -1.95 -2.82 -1.95 -2.82 -1.96 -2.82 -1.95 -2.82 -1.95 -2.83 -1.96 -2.83 -0.82 -1.17 -1.15 -1.67 -3.92 -5.68 -1.96 -2.84 -1.96 -2.85 -1.97 -2.85 -1.96 -2.85z"/>
     <path class="fil3" d="M3593.72 2445.13l-0.01 0 -1736.13 -891.32c-29.11,23.38 -58.75,46.79 -88.76,70.15l1965.18 1008.88 -1.96 -2.54 -1.97 -2.56 -1.97 -2.56 -3.99 -5.19 -2 -2.6 -2.01 -2.62 -0.67 -0.88 -1.34 -1.76 -2.02 -2.65 -12.32 -16.17 -0.83 -1.08 -1.26 -1.65 -2.09 -2.76 -12.69 -16.78 -0.98 -1.3 -1.16 -1.54 -2.15 -2.85 -13.04 -17.37 -1.14 -1.53 -1.05 -1.42 -2.2 -2.94 -2.21 -2.96 -8.9 -11.95 -2.24 -3.02 -1.31 -1.77 -0.94 -1.27 -9.06 -12.23 -2.28 -3.09 -4.59 -6.2 -1.48 -2.01 -0.82 -1.11 -11.59 -15.76 -2.33 -3.18 -2.34 -3.19 -1.65 -2.26 -0.69 -0.94 -14.2 -19.45 -2.39 -3.27 -1.84 -2.51 -0.56 -0.77z"/>
     <path class="fil3" d="M519.16 2960.27l295.16 13.45 -310.35 -159.33c5.31,46.98 10.38,95.68 15.2,145.88z"/>
     <path class="fil3" d="M500.21 2781.79l379.65 194.91 314.43 14.32 -714.58 -366.87c7.15,49.52 14,102.23 20.51,157.64z"/>
     <path class="fil3" d="M474.28 2587.59l792.23 406.75 307.81 14.03 -1038.86 -533.35 -57.26 38.39 -14.53 8.15c3.61,21.18 7.15,43.26 10.62,66.03z"/>
     <polygon class="fil3" points="566.67,2454.09 1653.29,3012 1954.37,3025.71 683.85,2373.41 583.27,2442.97 "/>
     <polygon class="fil3" points="717.15,2350.4 2040.08,3029.58 2334.36,3043.03 838.37,2274.98 760.74,2320.26 "/>
     <polygon class="fil3" points="877.83,2251.95 2426.8,3047.2 2714.4,3060.31 1000.47,2180.41 "/>
     <path class="fil3" d="M1039.82 2154.24l1773.71 910.62 280.88 12.82 -1946.87 -999.54c-37.47,26.46 -73.5,51.87 -107.72,76.1z"/>
     <path class="fil3" d="M1188.15 2049.46l2012.16 1033.02 274.13 12.46 -2181.37 -1119.87c-35.78,25.45 -70.84,50.3 -104.92,74.39z"/>
     <path class="fil3" d="M1335.98 1944.48l2250.98 1155.65 267.47 12.18 -2416.85 -1240.85c-34.22,24.76 -68.15,49.12 -101.6,73.01z"/>
     <path class="fil3" d="M1482.61 1838.79l2491.15 1278.95 173.64 7.92 -3.3 -3.79 -6.95 -8.02 -7.01 -8.08 -7.07 -8.14 -7.13 -8.2 -7.18 -8.26 -7.23 -8.34 -14.63 -16.85 -3.29 -3.79 -2503.33 -1285.22c-32.59,24.18 -65.2,48.15 -97.68,71.82z"/>
     <path class="fil3" d="M1627.1 1732.09l2365.23 1214.29 -2.6 -3.04 -2.61 -3.05 -0.07 -0.08 -2.54 -2.98 -2.61 -3.06 -2.62 -3.07 -0.22 -0.26 -2.41 -2.82 -2.63 -3.08 -2.63 -3.1 -0.36 -0.42 -2.27 -2.67 -2.64 -3.11 -2.65 -3.11 -0.52 -0.6 -2.14 -2.51 -2.65 -3.13 -2.65 -3.13 -0.67 -0.79 -1.99 -2.36 -2.68 -3.14 -2.68 -3.15 -0.82 -0.96 -1.86 -2.2 -2.69 -3.16 -2.69 -3.18 -0.96 -1.14 -1.73 -2.04 -2.7 -3.19 -2.7 -3.19 -1.13 -1.32 -1.58 -1.88 -2.71 -3.2 -2.71 -3.21 -1.28 -1.52 -1.44 -1.7 -2.72 -3.23 -2.73 -3.23 -1.44 -1.69 -1.29 -1.55 -2.73 -3.24 -2.73 -3.25 -1.6 -1.89 -1.15 -1.37 -2.74 -3.27 -2.75 -3.27 -1.75 -2.09 -1 -1.2 -2.75 -3.29 -2.76 -3.31 -5.53 -6.61 -2.76 -3.32 -2.08 -2.48 -0.7 -0.85 -2.77 -3.34 -2.78 -3.34 -2.23 -2.68 -0.55 -0.67 -2.79 -3.36 -2.79 -3.36 -2.4 -2.88 -0.39 -0.49 -5.59 -6.76 -2.56 -3.09 -0.24 -0.3 -2.81 -3.4 -2.81 -3.4 -2.73 -3.3 -0.08 -0.11 -5.63 -6.84 -2.82 -3.43 -0.07 -0.07 -2.76 -3.37 -2.82 -3.44 -2.83 -3.45 -0.23 -0.27 -2.6 -3.19 -2.84 -3.46 -2.84 -3.47 -0.38 -0.46 -2.46 -3.02 -0.01 0 -2096.92 -1076.56c-30.93,23.74 -62.16,47.38 -93.5,70.88z"/>
     <path class="fil3" d="M9053.44 2048.14l-73.79 -37.89 -119.99 -2.47 192.32 98.74c0.4,-19.38 0.9,-38.83 1.46,-58.38z"/>
     <path class="fil3" d="M9050.47 2224.4l-431.53 -221.54 -126.25 -2.6 557.74 286.36c-0.09,-20.67 -0.06,-41.41 0.03,-62.22z"/>
     <path class="fil3" d="M9051.88 2402.9l-793.58 -407.44 -132.66 -2.71 927.87 476.37c-0.64,-22.04 -1.19,-44.12 -1.63,-66.23z"/>
     <path class="fil3" d="M9057.67 2583.69l-1160.04 -595.58 -138.96 -2.9 1302.42 668.71c-1.23,-23.43 -2.38,-46.84 -3.41,-70.22z"/>
     <path class="fil3" d="M9067.8 2766.58l-1530.75 -785.84 -145.49 -3.03 1681.44 863.3c-1.85,-24.9 -3.57,-49.69 -5.21,-74.43z"/>
    </g>
    <g>
     <polygon class="fil3" points="1588.84,7085.52 1487.72,7095.89 1530.83,7117.97 1661.96,7123.13 "/>
     <polygon class="fil3" points="1882.66,7055.46 1776.5,7066.31 1905.44,7132.6 2043.26,7137.93 "/>
     <polygon class="fil3" points="2176.45,7025.38 2065.13,7036.74 2280.06,7147.14 2424.58,7152.75 "/>
     <polygon class="fil3" points="2470.2,6995.3 2353.82,7007.23 2654.79,7161.72 2805.86,7167.56 "/>
     <polygon class="fil3" points="2763.98,6965.2 3187.14,7182.43 3029.36,7176.29 2642.52,6977.65 "/>
     <polygon class="fil3" points="3057.81,6935.09 2931.22,6948.07 3404.1,7190.89 3568.45,7197.28 "/>
     <polygon class="fil3" points="3351.64,6905.01 3949.68,7212.12 3778.7,7205.45 3219.92,6918.51 "/>
     <polygon class="fil3" points="3645.42,6874.95 4331.04,7226.92 4153.45,7220.02 3508.58,6888.97 "/>
     <polygon class="fil3" points="3939.19,6844.87 4712.28,7241.79 4528.08,7234.61 3797.3,6859.39 "/>
     <polygon class="fil3" points="4232.97,6814.76 5093.57,7256.6 4902.78,7249.15 4085.96,6829.82 "/>
     <polygon class="fil3" points="4526.79,6784.67 5474.96,7271.4 5277.47,7263.74 4374.68,6800.26 "/>
     <path class="fil3" d="M611.39 5934.83l1423 730.59 151.75 3.13 -1593.2 -817.98c5.69,28.12 11.84,56.21 18.45,84.26z"/>
     <path class="fil3" d="M572.39 5737.04l1822.69 935.75 158.07 3.19 -1992.97 -1023.21c3.66,28.11 7.73,56.2 12.21,84.26z"/>
     <path class="fil3" d="M548.31 5546.93l2207.35 1133.29 164.58 3.33 -2378.81 -1221.27c1.92,28.24 4.21,56.45 6.88,84.66z"/>
     <path class="fil3" d="M596.15 5309.46l2691.08 1381.6 -170.9 -3.5 -2580.17 -1324.66c-0.72,-18.75 -1.29,-37.49 -1.71,-56.25l61.71 2.81z"/>
     <polygon class="fil3" points="982.86,5327.05 3654.26,6698.54 3476.87,6694.95 796.08,5318.53 "/>
     <polygon class="fil3" points="1369.64,5344.69 4021.26,6706.15 3837.65,6702.32 1176.11,5335.85 "/>
     <polygon class="fil3" points="1756.39,5362.29 4388.34,6713.61 4198.27,6709.68 1556.07,5353.19 "/>
     <polygon class="fil3" points="2143.15,5379.93 4755.35,6721.09 4558.92,6717.1 1936.13,5370.51 "/>
     <polygon class="fil3" points="2529.9,5397.57 6237.48,7301.1 6026.86,7292.85 4952.1,6741.13 5082.32,6727.74 4919.63,6724.44 2316.12,5387.87 "/>
     <polygon class="fil3" points="2916.54,5415.16 2696.21,5405.14 6401.48,7307.51 6618.78,7315.89 "/>
     <polygon class="fil3" points="3303.32,5432.82 3076.16,5422.51 6776.18,7322.05 7000.01,7330.82 "/>
     <polygon class="fil3" points="3690.05,5450.47 3456.19,5439.78 7150.72,7336.66 7381.39,7345.64 "/>
     <polygon class="fil3" points="4076.8,5468.07 3836.25,5457.17 7525.51,7351.19 7762.68,7360.4 "/>
     <polygon class="fil3" points="4463.51,5485.73 4216.22,5474.45 7900.16,7365.77 8144.02,7375.25 "/>
     <path class="fil3" d="M9267.93 5704.75l-111.43 -5.07 104.11 53.45c2.54,-16.24 4.98,-32.35 7.32,-48.38z"/>
     <path class="fil3" d="M9257.05 5775.68l-152.65 -78.38 -327.92 -14.92 465.83 239.16c2.41,-50 7.22,-98.84 14.74,-145.86z"/>
     <path class="fil3" d="M9241.25 5948.49l-523.61 -268.81 -321.21 -14.65 846.98 434.82c-2.91,-51.1 -3.68,-101.75 -2.16,-151.36z"/>
     <path class="fil3" d="M9245.51 6131.61l-914.62 -469.56 -314.42 -14.32 1246.65 640.04c-7.84,-51.99 -13.78,-104.25 -17.61,-156.16zm325.69 222.53l0.3 0.85 0.36 1.03 -1.6 -4.67 0.94 2.79z"/>
     <path class="fil3" d="M9268.99 6324.56l-1324.75 -680.14 -307.81 -14.04 1665.79 855.23c-12.93,-52.78 -24.09,-106.7 -33.23,-161.05z"/>
     <path class="fil3" d="M9313.14 6528.18l-1755.69 -901.43 -301.07 -13.71 2108.77 1082.66c-19.19,-53.58 -36.63,-109.75 -52.01,-167.53z"/>
     <path class="fil3" d="M9383.73 6745.35l-2213.07 -1136.18 -294.28 -13.44 2502.82 1284.97c8.18,-28.57 16.59,-56.84 25.22,-84.76 -7.07,-16.53 -13.98,-33.39 -20.69,-50.59z"/>
     <path class="fil3" d="M9312.45 7024.19l31.74 -13.88c7.88,-30.95 16.02,-61.54 24.39,-91.79l-2584.64 -1326.96 -287.59 -13.12 2816.1 1445.76z"/>
     <path class="fil3" d="M9123.15 7104.81c47.47,-19.79 94.19,-39.61 140.24,-59.43l-2866.18 -1471.48 -280.89 -12.82 3006.82 1543.73z"/>
     <path class="fil3" d="M8930.38 7183.6c47.07,-18.86 93.56,-37.77 139.43,-56.66l-3059.37 -1570.67 -274.13 -12.46 3194.08 1639.79z"/>
     <path class="fil3" d="M8734.26 7260.71c46.66,-18.02 92.83,-36.05 138.43,-54.12l-3248.9 -1667.98 -267.47 -12.18 3377.95 1734.28z"/>
     <path class="fil3" d="M8535.16 7336.25c46.1,-17.17 91.75,-34.41 136.95,-51.65l-3435.11 -1763.59 -260.7 -11.9 3558.86 1827.14z"/>
     <path class="fil3" d="M8402.86 7385.33c22.19,-8.11 43.84,-16.25 65.69,-24.37l-3618.3 -1857.59 -254 -11.56 3678.51 1888.54 128.11 4.98z"/>
     <path class="fil3" d="M771.65 6550.46l180.8 92.83 132.66 2.71 -335.04 -172.01c6.75,25.19 13.91,50.71 21.58,76.47z"/>
     <path class="fil3" d="M717.66 6344.92l595.46 305.72 138.96 2.91 -752.82 -386.52c5.93,25.14 12.02,51.16 18.4,77.88z"/>
     <path class="fil3" d="M668.05 6141.74l1005.64 516.26 145.49 3.03 -1175.81 -603.69c4.18,14.58 8.49,29.15 12.95,43.71 3.99,13.02 7.87,26.62 11.72,40.69z"/>
    </g>
   </g>
  </g>
  <g id="_2542430342448">
   <path class="fil1" d="M9126.36 1159.98c-255.8,-75.31 -500.33,-143.58 -751.12,-206.59 -343.32,-86.27 -705.67,-139.63 -1046.09,-221.97 -281.61,-68.09 -531.26,-184.62 -802.52,-275.49l0.01 -4.16 -0.04 -9.27 -0.01 -1.47 -0.01 -0.2 -0.02 -1.27 -0.2 -10.35 -0.03 -1.35 -0.06 -1.9 -0.35 -9.79 -0.05 -1.31 -0.08 -1.5 -0.54 -10.09 -0.06 -1.24 -0.03 -0.37 -0.06 -0.9 -0.72 -10.4 -0.14 -1.78 -0.91 -10.24 -0.32 -3.26 -0.94 -8.77 -0.35 -2.96 -1.19 -9.29 -0.36 -2.67c-0.46,-3.34 -0.96,-6.63 -1.48,-9.93l-0.13 -0.86 -0.11 -0.64c-0.58,-3.57 -1.18,-7.12 -1.82,-10.63l-0.07 -0.44 -0.12 -0.67c-0.61,-3.34 -1.25,-6.65 -1.93,-9.94l-0.38 -1.86c-0.68,-3.26 -1.38,-6.5 -2.12,-9.71l-0.14 -0.65 -0.15 -0.64c-0.77,-3.35 -1.59,-6.68 -2.44,-9.99l-0.11 -0.48 -0.21 -0.8c-0.82,-3.2 -1.68,-6.36 -2.57,-9.5l-0.36 -1.25c-0.93,-3.22 -1.87,-6.4 -2.85,-9.57l-0.14 -0.46 -0.08 -0.25c-0.96,-3.05 -1.95,-6.07 -2.98,-9.08l-0.63 -1.86c-1.05,-3.04 -2.13,-6.05 -3.25,-9.04l-0.37 -0.96c-1.18,-3.11 -2.39,-6.2 -3.63,-9.25l-0.11 -0.29 -0.26 -0.59c-1.2,-2.9 -2.42,-5.76 -3.69,-8.62l-0.43 -0.99c-1.35,-3.01 -2.75,-5.99 -4.16,-8.94l-0.25 -0.51c-1.38,-2.84 -2.81,-5.67 -4.27,-8.45l-0.24 -0.45 -0.06 -0.13 -0.34 -0.62c-1.45,-2.72 -2.92,-5.4 -4.42,-8.06l-0.38 -0.69c-1.62,-2.85 -3.3,-5.65 -5,-8.42l-0.2 -0.32c-1.76,-2.84 -3.56,-5.65 -5.4,-8.41l186.38 3.8 182.58 49.44 163.55 53.25 140.74 60.87 235.82 72.26 283.88 66.72 348.68 75.65 558.08 106.38 390.52 78.1 224.12 44.24c-19.35,126.66 -36.21,246.82 -50.82,361.81z"/>
   <path class="fil1" d="M506.4 2836.13c215.41,-174.03 420.98,-335.99 633.62,-495.38 277.89,-208.29 578.82,-394.2 855.02,-597.84 268.22,-197.74 485.07,-438.82 749.28,-648.3l-6.11 -13.02 -0.02 -0.04 -1.5 -3.23 -1.49 -3.22 -1.48 -3.2 -1.47 -3.2 -4.34 -9.52 -1.42 -3.15 -5.69 -12.77 -3.75 -8.56 -0.11 -0.26 -0.11 -0.27 -0.11 -0.26 -0.11 -0.26 -0.11 -0.26 -0.11 -0.26 -0.11 -0.27 -0.11 -0.26 -0.44 -1.03 -0.11 -0.27 -4.97 -11.58 -0.11 -0.26 -0.1 -0.25 -0.11 -0.26 -0.1 -0.26 -0.11 -0.25 -0.1 -0.26 -0.03 -0.06 -2.13 -5.07 -0.11 -0.27 -0.11 -0.27 -0.1 -0.26 -0.11 -0.27 -0.11 -0.27 -0.11 -0.27 -6.17 -14.99 -0.1 -0.26 -0.24 -0.6 -2.01 -5.01 -0.11 -0.29 -0.11 -0.29 -0.12 -0.29 -0.11 -0.29 -0.11 -0.29 -0.11 -0.3 -0.11 -0.29c-1.96,-4.91 -3.83,-9.77 -5.69,-14.58l-0.11 -0.29 -0.1 -0.28 -0.11 -0.28 -0.1 -0.29 -0.11 -0.28 -0.1 -0.28 -0.89 -2.31 -0.02 -0.06 -0.11 -0.3c-2.28,-6.02 -4.45,-11.93 -6.54,-17.75l-0.1 -0.28 -0.1 -0.29 -0.48 -1.31 -0.08 -0.23c-2.33,-6.55 -4.55,-12.96 -6.61,-19.25l-0.21 -0.63c-2.06,-6.24 -3.99,-12.35 -5.78,-18.31l-0.09 -0.29 -0.08 -0.3 -0.09 -0.29 0.06 -0.05 -226.34 124.52 -138.77 96.54c-252.96,320.75 -903.52,765.68 -1291.1,1040.73l-253.4 147.82 -177.47 122.71 -105.07 70.44 -14.53 8.15 4.34 26.04 0.1 0.63 0.61 3.78 2.84 17.88 0.71 4.52 0.21 1.3 0.5 3.24 3.5 23.05 0.3 1.99 0.39 2.68 2.76 18.87 0.68 4.77 0.68 4.79 0.68 4.8 2.71 19.44 0.49 3.49 0.19 1.4 0.67 4.93 0.66 4.95 1.33 9.94 0.66 5 0.66 5.02 0.66 5.04 0.65 5.05 0.65 5.07 0.65 5.09 0.65 5.1 1.14 9 0.17 1.28 0.64 5.15 0.64 5.18 0.64 5.2 0.64 5.22 0.17 1.34 1.1 9.13 0.64 5.27 0.63 5.28 0.62 5.29 0.63 5.32 1.86 16.03 0.62 5.38 0.61 5.39 0.62 5.4 1.82 16.32 0.61 5.48 0.02 0.01z"/>
  </g>
  <g id="_2542430355360">
   <path class="fil0" d="M9093.88 1443.19c-67.25,-19.11 -146.37,-40.41 -219.59,-59.71 -569.4,-150.06 -1225.31,-211.57 -1738.67,-449.63 -182.71,-84.73 -417.89,-129.52 -645.7,-185.35l0.04 -0.18 2.07 -9.65 0.87 -4.09 0.17 -0.81 1.01 -4.89 1 -4.88 0.99 -4.88 0.08 -0.36 0.38 -1.95 2.43 -12.24 0.29 -1.52 2.34 -12.37 0.11 -0.59 0.51 -2.65 0.39 -2.15 0.87 -4.79 1.52 -8.43 0.02 -0.13 0.18 -0.99 2.18 -12.74 0.26 -1.52 0.03 -0.14 0.21 -1.26 2.08 -12.76 0.21 -1.27 0.18 -1.12 1.79 -11.67 0.36 -2.38 0.34 -2.29 1.33 -9.3 0.5 -3.46 0.15 -1.17 0.62 -4.62 0.62 -4.61 0.15 -1.2 0.85 -6.62 0.18 -1.36 0.56 -4.57 0.55 -4.57 0.37 -3.18 0.17 -1.36 0.51 -4.53 0.51 -4.51 0.23 -2.1 0.25 -2.42 0.9 -8.88 0.44 -4.57 0.41 -4.45 0.39 -4.45 0.06 -0.68 0.32 -3.75 0.36 -4.41 0.34 -4.41 0.13 -1.9 0.44 -6.14 0.05 -0.72 0.29 -4.37 0.27 -4.35 0.24 -3.99 0.51 -9.56 0.22 -4.87 0.31 -8.12 0.19 -5.37 0.21 -8.09 0.11 -6.5 0.01 -0.39 0.05 -4.17 0.03 -4.16c271.25,90.86 520.9,207.4 802.52,275.49 340.42,82.33 702.78,135.7 1046.09,221.97 250.79,63.01 495.32,131.29 751.12,206.59 -12.45,97.98 -23.25,192.19 -32.48,283.2z"/>
   <path class="fil0" d="M533.69 3125.97c58.44,-49.52 167.45,-134.22 263.99,-208.13 459.49,-351.73 1011.3,-656.67 1404.78,-1066.32 177.47,-184.77 440.41,-343.87 663.08,-524.32l-2.19 -3.92 -2.18 -3.9 -2.17 -3.89 -8.59 -15.52 -2.13 -3.86 -2.12 -3.85 -12.53 -22.93 -2.06 -3.79 -12.16 -22.58 -1.99 -3.73 -1.98 -3.73 -1.97 -3.71 -9.73 -18.44 -1.91 -3.66 -1.91 -3.66 -1.9 -3.64 -7.49 -14.46 -1.85 -3.59 -1.84 -3.58 -1.83 -3.56 -1.82 -3.56 -8.93 -17.65 -1.76 -3.5 -1.75 -3.49 -8.56 -17.29 -1.67 -3.42 -1.67 -3.42 -1.66 -3.4 -6.52 -13.5 -1.6 -3.36 -1.59 -3.33 -1.58 -3.33 -1.57 -3.32c-264.22,209.48 -481.06,450.55 -749.28,648.3 -276.2,203.64 -577.13,389.55 -855.02,597.84 -212.64,159.39 -418.21,321.34 -633.62,495.38l-0.02 -0.01 0.46 4.28 0.48 4.28 0.46 4.3 1.39 12.92 0.46 4.33 0.45 4.34 0.46 4.35 0.45 4.35 2.72 26.31 0.44 4.41 0.45 4.42 0.44 4.43 1.77 17.81 0.44 4.47 0.43 4.47 0.43 4.49 1.74 18.03 0.42 4.52 0.43 4.53 0.42 4.53 0.42 4.56 0.42 4.56 0.85 9.13 0.41 4.58 0.42 4.59 0.41 4.6 0.41 4.6 2.47 27.76 0.4 4.65 0.4 4.65 2 23.38 0.39 4.7 0.39 4.7 0.39 4.71 0.39 4.71 0.39 4.72 0.77 9.46 0.38 4.74 0.38 4.74 0.38 4.75z"/>
  </g>
 </g>
</svg>
