<?xml version="1.0" encoding="UTF-8"?>
<!DOCTYPE svg PUBLIC "-//W3C//DTD SVG 1.1//EN" "http://www.w3.org/Graphics/SVG/1.1/DTD/svg11.dtd">
<!-- Creator: CorelDRAW -->
<svg xmlns="http://www.w3.org/2000/svg" xml:space="preserve" width="118.945mm" height="189.849mm" version="1.1" style="shape-rendering:geometricPrecision; text-rendering:geometricPrecision; image-rendering:optimizeQuality; fill-rule:evenodd; clip-rule:evenodd"
viewBox="0 0 12287.32 19611.82"
 xmlns:xlink="http://www.w3.org/1999/xlink"
 xmlns:xodm="http://www.corel.com/coreldraw/odm/2003">
 <defs>
  <style type="text/css">
   <![CDATA[
    .fil1 {fill:#FEFEFE}
    .fil3 {fill:#1C1B17}
    .fil0 {fill:#1C1B17}
    .fil4 {fill:#C9C9C4}
    .fil2 {fill:#1C1B17;fill-rule:nonzero}
   ]]>
  </style>
 </defs>
 <g id="Plan_x0020_1">
  <metadata id="CorelCorpID_0Corel-Layer"/>
  <path class="fil0" d="M1507.76 19611.82l5.41 -166.5 -1.88 -232.06 -4.15 -160.56 7.81 0.23 28.49 -43.58 41.91 -17.6 68.74 12.57 59.5 1.68 54.48 -0.85 189.03 -3.21 332.33 -8.05 337.71 -28.48 360.14 -46.91 274.71 -36.85 174.21 -30.15 254.61 -45.23 179.23 -21.78 154.11 -25.12 185.93 -25.13 112.24 -30.14 202.68 -55.28 169.19 -25.13 169.06 -32.05 291.29 -22.65 178.01 -38.83 171.53 -58.26 242.73 -61.5 106.8 -38.83 126.23 -29.13 116.51 -6.48 74.44 -42.08 106.8 -48.54 194.19 -19.42 362.49 -97.09 275.1 -100.34 320.41 -174.77 265.39 -139.17 281.94 -115.92 192.61 -132.46 173.34 -115.19 116.31 -70.46 85 -71.57 128.61 -81.64 127.49 -67.11 99.53 -34.67 72.69 -52.56 136 -52.77 45.18 -22.11 23.08 -5.76 24.03 -16.34 67.29 -22.12 38.46 -14.42 44.21 -15.38 43.26 -14.42 68.25 -20.19 46.15 -16.34 51.91 -11.54 54.8 -15.37 74.02 -11.54 48.07 -8.66 63.45 -10.57 104.79 -16.34 52.87 0 94.21 -17.3 108.63 -11.54 124.96 -6.74 79.54 -4.13 37.05 -0.87 49.13 -6.03 64.64 2.59 58.6 0 78.43 4.31 93.93 9.47 74.12 8.63 76.7 6.89c0,0 79.29,13.79 85.33,17.24 6.03,3.45 91.35,12.07 91.35,12.07l37.05 1.73 74.12 17.23 56.02 1.73 67.53 17.54 65.34 22.66 66.67 26.67 108 30.67 65.33 24 56 45.33 58.68 29.34 60 10.67 25.33 14.66 40 33.34 33.34 52c0,0 21.34,74.67 25.34,93.33 4,18.67 17.33,24.01 17.33,24.01l38.67 74.67 54.44 45.76 4.81 17.06 -10.85 134.53 32.55 154.04 52.06 132.36 52.07 119.33 41.23 141.03 30.38 201.78 21.72 159.72 -1.69 177.89 18.64 186.36 6.78 174.5 -1.69 157.56 0 138.92 -1.69 133.84 8.47 135.53 -1.69 79.63 11.86 88.74 -10779.56 0z"/>
  <g id="_2544869791312">
   <path class="fil1" d="M1412.06 18611.26c5.18,-39.63 10.36,-79.24 15.54,-118.87 4.88,-38.71 9.76,-77.43 14.64,-116.13 3.05,-43.58 6.09,-87.18 9.14,-130.76 1.06,-45.7 2.13,-91.4 3.19,-137.1 2.1,-57.28 4.2,-114.57 6.3,-171.85 3.75,-90.64 7.51,-181.29 11.26,-271.92 0,-75.76 0,-151.51 0,-227.28 1.18,-62.79 2.36,-125.58 3.53,-188.37 2.63,-80.03 5.26,-160.07 7.89,-240.1 2.18,-41.34 4.35,-82.69 6.53,-124.04 0,-56.34 0,-112.68 0,-169.02 -0.49,-36.03 -0.97,-72.05 -1.46,-108.09 0.24,-35.55 0.49,-71.08 0.72,-106.63 -2.1,-62.28 -4.19,-124.55 -6.29,-186.83 0.46,-77.58 0.94,-155.15 1.4,-232.73 1.63,-57.72 3.27,-115.43 4.91,-173.15 5.11,-75.64 10.22,-151.28 15.33,-226.91 7.22,-75.62 14.44,-151.23 21.66,-226.85 7.97,-69.93 15.96,-139.84 23.94,-209.77 5.74,-64.36 11.48,-128.71 17.22,-193.07 6.61,-81.95 13.21,-163.91 19.82,-245.86 3.94,-55.67 7.86,-111.34 11.8,-167.01 2.65,-50.93 5.32,-101.85 7.97,-152.77 3.73,-44.45 7.47,-88.9 11.2,-133.35 8.12,-63.19 16.24,-126.38 24.36,-189.57 2.57,-33.27 5.15,-66.56 7.73,-99.83 6.62,-39.44 13.25,-78.89 19.88,-118.33 14.12,24.15 28.24,48.29 42.36,72.45 68.36,93.71 119.48,161.38 201.62,241.93 8.43,5.69 16.86,11.38 25.29,17.08 8.43,13.89 16.85,27.8 25.28,41.69 0,0 49.9,49.9 53.31,56.04 35.52,63.85 128.87,139.39 185.89,181.79 15.72,10.47 31.43,20.96 47.16,31.43 19.1,22.04 38.2,44.1 57.3,66.14 64.41,73.02 102.75,110.22 201.69,122.61 21.02,10.07 42.05,20.14 63.08,30.22 33.17,27.54 66.34,55.08 99.51,82.62 28.73,24.59 57.46,49.16 86.19,73.75 29.92,27.25 59.82,54.49 89.74,81.74 22.21,17.47 44.42,34.95 66.63,52.42 78.27,30.23 85.96,31.17 160.82,-5.33 0,0 81.74,65.75 95.07,75.52 296.43,217.38 558.02,342.75 861.23,440.75 683.28,220.88 1501.56,185.97 2203.54,-42.59 446.96,-145.53 585.55,-292.64 941.99,-585.72 7.54,36.18 15.07,72.35 22.61,108.53 16.58,14.58 33.16,29.14 49.74,43.72 14.07,5.02 28.14,10.05 42.21,15.07 18.09,5.02 36.18,10.05 54.26,15.07 17.09,-5.02 34.16,-10.05 51.25,-15.07 42.21,-34.16 84.41,-68.33 126.62,-102.5 19.6,-11.56 39.19,-23.11 58.79,-34.67 42.21,-11.56 84.41,-23.11 126.62,-34.67 28.14,-21.1 56.27,-42.21 84.41,-63.31 45.23,-28.64 90.44,-57.28 135.67,-85.92 37.18,-28.14 74.36,-56.27 111.54,-84.41 30.65,-18.09 61.3,-36.18 91.95,-54.26 30.14,-20.1 60.3,-40.19 90.44,-60.3 27.63,-19.6 55.28,-39.19 82.91,-58.79 33.16,-20.6 66.32,-41.2 99.48,-61.8 17.42,-14.87 34.84,-29.73 52.26,-44.6 12.37,-18.55 24.74,-37.11 37.11,-55.66 20.88,-34.4 41.74,-68.8 62.62,-103.2 27.05,-36.33 54.11,-72.66 81.16,-108.99 36.71,-53.35 73.44,-106.68 110.15,-160.03 26.77,-41.32 53.53,-82.63 80.3,-123.95 31.45,-38.95 62.88,-77.89 94.33,-116.84 8.57,-12.86 17.16,-25.73 25.73,-38.59 21.08,-19.3 42.16,-38.58 63.24,-57.88 16.44,-16.8 32.87,-33.58 49.31,-50.38 16.44,-18.94 32.87,-37.87 49.31,-56.81 18.22,-28.23 36.45,-56.45 54.67,-84.69 22.51,-20.36 45.02,-40.73 67.53,-61.09 18.22,-9.65 36.45,-19.3 54.67,-28.95 29.66,-16.07 59.32,-32.16 88.97,-48.23 34.3,-22.16 68.6,-44.31 102.9,-66.46 25.07,-16.72 50.14,-33.44 75.21,-50.16 24.89,-23.56 49.78,-47.14 74.67,-70.7 25.95,-30.45 51.9,-60.9 77.85,-91.35 24.36,-32.04 48.73,-64.08 73.09,-96.12 22.91,-29.24 45.82,-58.5 68.74,-87.75 27.62,-28.92 55.24,-57.84 82.86,-86.76 28.59,-29.9 57.19,-59.78 85.78,-89.68 28.27,-35.09 56.54,-70.19 84.81,-105.29 25.67,-32.49 51.34,-64.99 77.01,-97.48 26.32,-32.82 52.64,-65.64 78.96,-98.46 23.72,-25.67 47.44,-51.34 71.15,-77.01 28.92,-20.79 57.84,-41.6 86.76,-62.39 25.99,-20.79 51.99,-41.59 77.98,-62.38 24.64,-15.52 49.29,-31.03 73.92,-46.55 32.51,-16.82 65.03,-33.64 97.54,-50.45 20.55,-11.96 41.1,-23.91 61.65,-35.88 16.82,-14.58 33.64,-29.14 50.45,-43.72 6.72,34.38 13.45,68.76 20.17,103.14 11.21,50.82 22.43,101.64 33.64,152.46 3.74,33.64 7.47,67.26 11.21,100.9 4.48,25.04 8.98,50.08 13.46,75.12 4.86,28.4 9.71,56.8 14.57,85.19 4.48,32.14 8.98,64.27 13.46,96.41 5.98,39.62 11.95,79.22 17.93,118.84 3.74,41.1 7.47,82.22 11.21,123.32 9.34,48.2 18.69,96.41 28.03,144.61 9.72,58.68 19.43,117.34 29.15,176.02 7.1,44.47 14.2,88.93 21.3,133.4 5.65,28.18 11.3,56.36 16.95,84.54 7.8,29.9 15.6,59.79 23.4,89.69 14.95,38.03 29.9,76.04 44.84,114.07 16.9,37.7 33.8,75.39 50.7,113.09 21.13,44.84 42.24,89.69 63.37,134.53 16.25,34.12 32.5,68.25 48.75,102.37 18.84,33.79 37.7,67.59 56.54,101.38 13,30.55 26,61.1 39,91.65 7.15,29.24 14.31,58.49 21.46,87.73 9.07,39.35 18.15,78.71 27.22,118.05 0,0 26.91,117.35 26.91,121.36 0,4.01 25.75,104.17 25.75,108.76 0,4.59 38.36,139.11 38.36,139.11 10.68,50.75 21.37,101.5 32.05,152.26 6.11,36.83 12.21,73.65 18.32,110.48 3.66,29.77 7.31,59.54 10.97,89.32 3.19,31.61 6.39,63.22 9.59,94.83 3.73,34.81 7.47,69.62 11.2,104.43 10.3,48.3 20.6,96.62 30.9,144.92 9.41,34.1 18.82,68.19 28.23,102.29 21.52,48.84 43.05,97.67 64.56,146.51 21.47,42.28 42.94,84.56 64.41,126.85 18.17,36.66 36.33,73.33 54.5,110 15.53,46.25 31.05,92.5 46.58,138.75 2.64,28.41 5.29,56.82 7.93,85.22 4.96,37.32 9.91,74.66 14.87,111.98 3.97,34.36 7.92,68.71 11.89,103.06 8.58,24.77 17.18,49.55 25.76,74.33 0,0 37.9,101.9 37.9,115.76 0,13.86 29.47,102.26 29.47,102.26 0,0 41.6,69.34 41.6,88.41 0,19.07 32.93,157.73 32.93,157.73 0,0 17.33,133.47 17.33,149.07 0,15.6 6.93,107.48 6.93,119.6 0,12.13 -8.67,83.2 -8.67,83.2 -13.81,1.39 -27.63,2.79 -41.44,4.18 -18.15,-15.26 -36.29,-30.51 -54.44,-45.76 -12.89,-24.89 -25.77,-49.78 -38.67,-74.67 0,0 -13.34,-5.34 -17.33,-24.01 -4,-18.67 -25.34,-93.33 -25.34,-93.33 -11.12,-17.33 -22.22,-34.67 -33.34,-52 -13.34,-11.12 -26.66,-22.22 -40,-33.34 -8.44,-4.89 -16.89,-9.77 -25.33,-14.66 -20,-3.55 -40,-7.12 -60,-10.67 -19.56,-9.78 -39.12,-19.56 -58.68,-29.34 -18.67,-15.11 -37.33,-30.22 -56,-45.33 -21.78,-8 -43.55,-16 -65.33,-24 -36,-10.23 -72,-20.44 -108,-30.67 -22.22,-8.89 -44.45,-17.78 -66.67,-26.67 -21.78,-7.55 -43.56,-15.11 -65.34,-22.66 -22.51,-5.85 -45.02,-11.69 -67.53,-17.54 -18.68,-0.58 -37.34,-1.15 -56.02,-1.73 -24.71,-5.74 -49.41,-11.49 -74.12,-17.23 -12.35,-0.58 -24.7,-1.15 -37.05,-1.73 0,0 -85.32,-8.62 -91.35,-12.07 -6.03,-3.45 -85.33,-17.24 -85.33,-17.24 -25.57,-2.29 -51.13,-4.6 -76.7,-6.89 -24.71,-2.87 -49.41,-5.75 -74.12,-8.63 -31.31,-3.16 -62.62,-6.31 -93.93,-9.47 -26.15,-1.44 -52.28,-2.87 -78.43,-4.31 -19.53,0 -39.07,0 -58.6,0 -21.55,-0.87 -43.09,-1.73 -64.64,-2.59 -16.37,2.01 -32.76,4.02 -49.13,6.03 -12.35,0.29 -24.7,0.58 -37.05,0.87 -26.52,1.37 -53.03,2.76 -79.54,4.13 -41.65,2.24 -83.31,4.49 -124.96,6.74 -36.21,3.84 -72.43,7.7 -108.63,11.54 -31.4,5.76 -62.81,11.54 -94.21,17.3 -17.62,0 -35.25,0 -52.87,0 -34.93,5.44 -69.86,10.9 -104.79,16.34 -21.15,3.52 -42.3,7.05 -63.45,10.57 -16.02,2.88 -32.04,5.77 -48.07,8.66 -24.67,3.84 -49.35,7.7 -74.02,11.54 -18.26,5.12 -36.54,10.25 -54.8,15.37 -17.3,3.84 -34.61,7.7 -51.91,11.54 -15.38,5.44 -30.76,10.9 -46.15,16.34 -22.75,6.72 -45.5,13.46 -68.25,20.19 -14.42,4.8 -28.84,9.62 -43.26,14.42 -14.74,5.12 -29.47,10.26 -44.21,15.38 -12.82,4.8 -25.64,9.62 -38.46,14.42 -22.43,7.38 -44.86,14.74 -67.29,22.12 -8.01,5.44 -16.02,10.9 -24.03,16.34 -7.7,1.92 -15.38,3.84 -23.08,5.76 -15.06,7.37 -30.12,14.74 -45.18,22.11 -45.33,17.59 -90.67,35.17 -136,52.77 -24.23,17.52 -48.46,35.04 -72.69,52.56 -33.18,11.56 -66.35,23.11 -99.53,34.67 -42.5,22.36 -84.99,44.74 -127.49,67.11 -42.87,27.21 -85.74,54.43 -128.61,81.64 -28.34,23.85 -56.66,47.72 -85,71.57 -38.77,23.49 -77.54,46.97 -116.31,70.46 -57.78,38.4 -115.56,76.8 -173.34,115.19 -64.2,44.15 -128.4,88.31 -192.61,132.46 -93.98,38.64 -187.96,77.28 -281.94,115.92 -88.47,46.39 -176.93,92.78 -265.39,139.17 -106.8,58.25 -213.61,116.51 -320.41,174.77 -91.7,33.45 -183.4,66.89 -275.1,100.34 -120.83,32.36 -241.66,64.73 -362.49,97.09 -64.73,6.48 -129.46,12.94 -194.19,19.42 -35.6,16.18 -71.21,32.36 -106.8,48.54 -24.81,14.03 -49.63,28.05 -74.44,42.08 -38.84,2.16 -77.67,4.32 -116.51,6.48 -42.08,9.71 -84.15,19.42 -126.23,29.13 -35.6,12.94 -71.21,25.89 -106.8,38.83 -80.91,20.5 -161.82,41 -242.73,61.5 -57.18,19.42 -114.36,38.84 -171.53,58.26 -59.34,12.94 -118.67,25.89 -178.01,38.83 -97.09,7.55 -194.2,15.1 -291.29,22.65 -56.35,10.68 -112.71,21.37 -169.06,32.05 -56.39,8.38 -112.8,16.76 -169.19,25.13 -67.56,18.43 -135.12,36.85 -202.68,55.28 -37.42,10.05 -74.82,20.09 -112.24,30.14 -61.98,8.38 -123.95,16.76 -185.93,25.13 -51.37,8.38 -102.73,16.75 -154.11,25.12 -59.74,7.26 -119.49,14.51 -179.23,21.78 -84.87,15.07 -169.74,30.15 -254.61,45.23 -58.07,10.05 -116.14,20.1 -174.21,30.15 -91.57,12.28 -183.14,24.57 -274.71,36.85 -120.05,15.64 -240.1,31.27 -360.14,46.91 -112.57,9.49 -225.14,18.99 -337.71,28.48 -110.78,2.69 -221.55,5.36 -332.33,8.05 -63.01,1.07 -126.02,2.14 -189.03,3.21 -18.16,0.28 -36.32,0.57 -54.48,0.85 -19.83,-0.56 -39.67,-1.13 -59.5,-1.68 -22.91,-4.19 -45.82,-8.38 -68.74,-12.57 -13.97,5.87 -27.94,11.74 -41.91,17.6 -9.49,14.52 -19,29.06 -28.49,43.58 -9.78,-0.28 -19.56,-0.56 -29.34,-0.84 -17.6,-6.43 -35.21,-12.85 -52.81,-19.28 0,0 -41.9,-40.23 -45.26,-51.12 -3.36,-10.9 -13.42,-102.26 -13.42,-102.26 3.64,-44.99 7.26,-89.97 10.9,-134.95 3.36,-31.01 6.7,-62.02 10.06,-93.03 5.66,-13.39 11.31,-26.79 16.97,-40.17z"/>
   <path class="fil1" d="M1763.66 10863.35l19.98 -124.86 31.63 -184.81 24.97 -216.43 36.63 -278.04 24.97 -288.03 13.21 -230.68 -3.35 -146.44 -4.47 -196.74 -6.71 -77.14 -68.18 -186.68 -85.07 -235.02 -80.63 -225.93 -54.02 -156.7 -67.85 -181.19 -79.83 -175.03 -118.73 -184.23 -116.68 -136.12 -121.75 -118.55 -146.28 -146.28 -37.92 -1.35 -55.53 -28.44 -52.82 -35.22 -21.37 -24.31 -33.33 -30.63 -40.09 -45.04 -29.73 -45.95 -82.26 -146.13 -84.06 -183.28 -73.03 -201.18 -88.19 -219.1 -106.13 -252.52 -80.46 -299.5 -40.24 -226.19c0,0 -22.34,-226.12 -22.34,-232.72 0,-6.6 -7.71,-257.49 -7.71,-257.49l-3.3 -303.71 1.1 -293.81 -10.77 -383.79 -1.98 -333.49 -23.35 -274.59 -19.29 -172.06 -20.6 -178.69 -19.95 -164.34 -8.16 -108.11 14.83 -20.77 5.94 -44.51 36.21 -61.14 28.49 -40.36 79.91 -63.95 66.86 -47.76 118.2 -69.25 127.75 -71.63 105.07 -70.44 177.47 -122.71 253.4 -147.82c387.58,-275.05 1038.15,-719.98 1291.1,-1040.73l138.77 -96.54 226.34 -124.52 -0.06 0.05c119.79,399.33 837.76,1445.07 1123.53,1797.93 186.91,230.79 356.25,416.83 476.33,560.24 124.04,148.16 251.17,338.56 267.52,338.67l661.73 4c0.93,-27.96 22.52,-98.68 26.7,-116.81 33.73,-145.83 106.52,-210.79 238.67,-442.84 228.88,-401.88 409.39,-753.09 586.75,-1121.96 125.44,-260.87 239.54,-533.84 344.41,-847.49 121.31,-362.83 187.49,-714.26 66.91,-894.97l186.38 3.8 182.58 49.44 163.55 53.25 140.74 60.87 235.82 72.26 283.88 66.72 348.68 75.65 558.08 106.38 390.52 78.1 349.17 68.92 213.64 39.05 119.46 34.46 42.02 21.15 45.52 55.1 17.97 64.69 10.78 91.05 -58.71 -32.34 -79.07 1.2c0,0 -8.38,75.46 -9.58,87.45 -1.2,11.98 -38.34,182.09 -37.14,191.68 1.2,9.59 -19.17,250.37 -19.17,250.37l-28.75 268.34 -4.02 338.48 9.35 373.78 28.03 280.33 18.69 258.52 37.82 391.94 39.54 425.12 -16.48 247.16 29.66 204.32 13.19 250.46 3.3 293.3 -1.17 266.4 0 225.3 0 153.08c0,0 -40.44,89.54 -51.99,112.65 -11.55,23.11 -40.44,112.65 -46.22,141.53 -5.77,28.88 -46.21,138.64 -46.21,164.64 0,26 -8.67,155.98 -8.67,155.98l25.99 98.21c0,0 14.45,57.77 20.23,75.1 5.77,17.33 25.99,69.33 25.99,92.44 0,23.11 2.89,95.32 2.89,95.32l2.88 138.64c0,0 34.67,75.1 40.44,92.44 5.77,17.33 5.77,54.87 14.44,72.21 8.67,17.33 23.11,121.32 23.11,121.32l14.44 115.54 28.88 202.19c0,0 43.78,280.96 43.78,310.83 0,29.86 26.89,173.25 26.89,173.25l5.97 244.94c0,0 14.94,227.01 14.94,268.83 0,41.83 11.95,212.09 11.95,212.09l29.86 218.05 5.98 173.26 14.93 256.88 -8.96 95.59 66.42 177.76 121.57 330.92 114.8 280.27 77.67 202.61 -30.61 69.59 -41.03 50.11 -51.96 64.19 -41.27 55.02 -25.22 40.5 -29.8 42.79 -12.99 21.4 -13 17.57 -33.62 13.75 -31.33 16.05 -52.73 27.51 -45.09 27.51 -45.08 23.69 -32.1 13 -22.17 5.35 -98.57 45.08 -29.8 13.76 -18.35 19.1 -59.16 8.98 -104.84 18.84 -137.83 18.85 -127.22 3.53 -147.25 3.53 -109.55 1.18 -143.71 2.36 -155.5 0 -175.51 -16.5 -107.2 -15.31 -108.37 -27.1 -74.21 -21.2 -69.5 -12.96 -95.42 -34.16 -62.44 -34.16 -89.52 -71.86 -88.35 -75.39 -94.23 -103.66 -80.1 -96.59 -71.45 -75.91 -45.8 -60.62 -43.11 -59.27 -26.27 -41.08 -56.58 -51.86 -59.95 -28.97 -46.48 -16.84 -82.17 -20.88 -61.3 -25.6 -78.8 -50.51 -82.18 -59.95 -59.95 -45.8 -32.33 -28.28 -33.01 -36.37 -51.86 -45.8 -53.88 -49.84 -31.66 -18.85 -41.08 -16.17 -28.97 -12.13 -49.17 -4.04 -41.08 6.06 -33.68 16.84 -22.23 20.88 -26.27 27.62 -20.88 29.63 -14.14 48.5 2.7 66.01c0,0 10.09,55.22 12.12,59.26 2.02,4.05 18.86,56.58 18.86,56.58l-66.01 -39.74 -90.93 -51.19 -244.83 -99.84 -434.17 -137.04 -322.33 -71.27 -236.82 -21.92 -202.82 -1.11 -185.29 4.39 -177.61 13.16 -152.4 18.64 -164.46 42.76 -121.17 34.01 -155.7 54.82 -32.89 -17.54 -44.96 -5.49 -53.72 0 -30.7 3.3 -59.2 26.31 -30.7 27.42 -28.51 19.73 -62.5 58.11 -127.18 88.81 -80.04 37.28 -166.34 107.06 -173.9 128.28 -154.03 143.45 -182.1 186.44 -58.54 78.04c0,0 -45.53,52.03 -75.88,75.88 -30.35,23.84 -125.73,78.04 -125.73,78.04l-136.58 54.19 -130.08 30.35 -88.88 10.84 -88.88 21.68 -154.39 41.8z"/>
  </g>
  <g id="_2544869790784">
   <path class="fil1" d="M9126.36 1159.98c-255.8,-75.31 -500.33,-143.58 -751.12,-206.59 -343.32,-86.27 -705.67,-139.63 -1046.09,-221.97 -281.61,-68.09 -531.26,-184.62 -802.52,-275.49l0.01 -4.16 -0.04 -9.27 -0.01 -1.47 -0.01 -0.2 -0.02 -1.27 -0.2 -10.35 -0.03 -1.35 -0.06 -1.9 -0.35 -9.79 -0.05 -1.31 -0.08 -1.5 -0.54 -10.09 -0.06 -1.24 -0.03 -0.37 -0.06 -0.9 -0.72 -10.4 -0.14 -1.78 -0.91 -10.24 -0.32 -3.26 -0.94 -8.77 -0.35 -2.96 -1.19 -9.29 -0.36 -2.67c-0.46,-3.34 -0.96,-6.63 -1.48,-9.93l-0.13 -0.86 -0.11 -0.64c-0.58,-3.57 -1.18,-7.12 -1.82,-10.63l-0.07 -0.44 -0.12 -0.67c-0.61,-3.34 -1.25,-6.65 -1.93,-9.94l-0.38 -1.86c-0.68,-3.26 -1.38,-6.5 -2.12,-9.71l-0.14 -0.65 -0.15 -0.64c-0.77,-3.35 -1.59,-6.68 -2.44,-9.99l-0.11 -0.48 -0.21 -0.8c-0.82,-3.2 -1.68,-6.36 -2.57,-9.5l-0.36 -1.25c-0.93,-3.22 -1.87,-6.4 -2.85,-9.57l-0.14 -0.46 -0.08 -0.25c-0.96,-3.05 -1.95,-6.07 -2.98,-9.08l-0.63 -1.86c-1.05,-3.04 -2.13,-6.05 -3.25,-9.04l-0.37 -0.96c-1.18,-3.11 -2.39,-6.2 -3.63,-9.25l-0.11 -0.29 -0.26 -0.59c-1.2,-2.9 -2.42,-5.76 -3.69,-8.62l-0.43 -0.99c-1.35,-3.01 -2.75,-5.99 -4.16,-8.94l-0.25 -0.51c-1.38,-2.84 -2.81,-5.67 -4.27,-8.45l-0.24 -0.45 -0.06 -0.13 -0.34 -0.62c-1.45,-2.72 -2.92,-5.4 -4.42,-8.06l-0.38 -0.69c-1.62,-2.85 -3.3,-5.65 -5,-8.42l-0.2 -0.32c-1.76,-2.84 -3.56,-5.65 -5.4,-8.41l186.38 3.8 182.58 49.44 163.55 53.25 140.74 60.87 235.82 72.26 283.88 66.72 348.68 75.65 558.08 106.38 390.52 78.1 224.12 44.24c-19.35,126.66 -36.21,246.82 -50.82,361.81z"/>
   <path class="fil1" d="M506.4 2836.13c215.41,-174.03 420.98,-335.99 633.62,-495.38 277.89,-208.29 578.82,-394.2 855.02,-597.84 268.22,-197.74 485.07,-438.82 749.28,-648.3l-6.11 -13.02 -0.02 -0.04 -1.5 -3.23 -1.49 -3.22 -1.48 -3.2 -1.47 -3.2 -4.34 -9.52 -1.42 -3.15 -5.69 -12.77 -3.75 -8.56 -0.11 -0.26 -0.11 -0.27 -0.11 -0.26 -0.11 -0.26 -0.11 -0.26 -0.11 -0.26 -0.11 -0.27 -0.11 -0.26 -0.44 -1.03 -0.11 -0.27 -4.97 -11.58 -0.11 -0.26 -0.1 -0.25 -0.11 -0.26 -0.1 -0.26 -0.11 -0.25 -0.1 -0.26 -0.03 -0.06 -2.13 -5.07 -0.11 -0.27 -0.11 -0.27 -0.1 -0.26 -0.11 -0.27 -0.11 -0.27 -0.11 -0.27 -6.17 -14.99 -0.1 -0.26 -0.24 -0.6 -2.01 -5.01 -0.11 -0.29 -0.11 -0.29 -0.12 -0.29 -0.11 -0.29 -0.11 -0.29 -0.11 -0.3 -0.11 -0.29c-1.96,-4.91 -3.83,-9.77 -5.69,-14.58l-0.11 -0.29 -0.1 -0.28 -0.11 -0.28 -0.1 -0.29 -0.11 -0.28 -0.1 -0.28 -0.89 -2.31 -0.02 -0.06 -0.11 -0.3c-2.28,-6.02 -4.45,-11.93 -6.54,-17.75l-0.1 -0.28 -0.1 -0.29 -0.48 -1.31 -0.08 -0.23c-2.33,-6.55 -4.55,-12.96 -6.61,-19.25l-0.21 -0.63c-2.06,-6.24 -3.99,-12.35 -5.78,-18.31l-0.09 -0.29 -0.08 -0.3 -0.09 -0.29 0.06 -0.05 -226.34 124.52 -138.77 96.54c-252.96,320.75 -903.52,765.68 -1291.1,1040.73l-253.4 147.82 -177.47 122.71 -105.07 70.44 -14.53 8.15 4.34 26.04 0.1 0.63 0.61 3.78 2.84 17.88 0.71 4.52 0.21 1.3 0.5 3.24 3.5 23.05 0.3 1.99 0.39 2.68 2.76 18.87 0.68 4.77 0.68 4.79 0.68 4.8 2.71 19.44 0.49 3.49 0.19 1.4 0.67 4.93 0.66 4.95 1.33 9.94 0.66 5 0.66 5.02 0.66 5.04 0.65 5.05 0.65 5.07 0.65 5.09 0.65 5.1 1.14 9 0.17 1.28 0.64 5.15 0.64 5.18 0.64 5.2 0.64 5.22 0.17 1.34 1.1 9.13 0.64 5.27 0.63 5.28 0.62 5.29 0.63 5.32 1.86 16.03 0.62 5.38 0.61 5.39 0.62 5.4 1.82 16.32 0.61 5.48 0.02 0.01z"/>
  </g>
  <g id="_2544869788960">
   <path class="fil0" d="M9177.18 798.18l125.05 24.68 213.64 39.05 119.46 34.46 42.02 21.15 45.52 55.1 17.97 64.69 10.78 91.05 -58.71 -32.34 -79.07 1.2c0,0 -8.38,75.46 -9.58,87.45 -1.2,11.98 -38.34,182.09 -37.14,191.68 1.2,9.59 -19.17,250.37 -19.17,250.37l-28.75 268.34 -4.02 338.48 9.35 373.78 28.03 280.33 18.69 258.52 37.82 391.94 39.54 425.12 -16.48 247.16 29.66 204.32 13.19 250.46 3.3 293.3 -1.17 266.4 0 225.3 0 153.08c0,0 -40.44,89.54 -51.99,112.65 -11.55,23.11 -40.44,112.65 -46.22,141.53 -5.77,28.88 -46.21,138.64 -46.21,164.64 0,26 -8.67,155.98 -8.67,155.98l25.99 98.21c0,0 14.45,57.77 20.23,75.1 5.77,17.33 25.99,69.33 25.99,92.44 0,23.11 2.89,95.32 2.89,95.32l2.88 138.64c0,0 34.67,75.1 40.44,92.44 5.77,17.33 5.77,54.87 14.44,72.21 8.67,17.33 23.11,121.32 23.11,121.32l14.44 115.54 14.44 101.1c-274.22,-92.4 -538.15,-866.56 -451.79,-1405.06 72.18,-450.06 72.48,-807.86 20.25,-1213.37 -210.34,-1632.95 -334.58,-2229.55 -100.17,-3763.75z"/>
   <path class="fil0" d="M1540.57 8125.43l-75.63 -165.8 -118.73 -184.23 -116.68 -136.12 -121.75 -118.55 -146.28 -146.28 -37.92 -1.35 -55.53 -28.44 -52.82 -35.22 -21.37 -24.31 -33.33 -30.63 -40.09 -45.04 -29.73 -45.95 -82.26 -146.13 -84.06 -183.28 -73.03 -201.18 -88.19 -219.1 -106.13 -252.52 -80.46 -299.5 -40.24 -226.19c0,0 -22.34,-226.12 -22.34,-232.72 0,-6.6 -7.71,-257.49 -7.71,-257.49l-3.3 -303.71 1.1 -293.81 -10.77 -383.79 -1.98 -333.49 -23.35 -274.59 -19.29 -172.06 -20.6 -178.69 -19.95 -164.34 -8.16 -108.11 14.83 -20.77 5.94 -44.51 36.21 -61.14 28.49 -40.36 79.91 -63.95 66.86 -47.76 118.2 -69.25 113.22 -63.48c95.39,560.06 145.63,1697.57 90.57,2283.28 -40.88,434.88 -28.41,870.08 102.09,1296.21 72.56,236.93 115.22,655.53 375.7,973.32 300.71,366.88 581.9,786.59 545.94,916.24l-37.4 134.82z"/>
   <path class="fil2" d="M6111.87 846.44c14.36,-116.95 170.8,-357.84 155.58,-536.94 -7.95,-93.62 -132.9,-209.44 -225.96,-238.07 -13.06,-23.27 -60.51,-48.18 -73.58,-71.43 170.37,62.91 177.71,71.9 348.08,134.81 46.99,29.46 118.12,9.6 146.85,52.65 120.58,180.71 54.4,532.14 -66.91,894.97 -104.87,313.66 -218.97,586.62 -344.41,847.49 -177.36,368.87 -357.87,720.08 -586.75,1121.96 -132.15,232.05 -204.94,297 -238.67,442.84 -4.18,18.13 -25.77,88.85 -26.7,116.81l-661.73 -4c-16.35,-0.1 -143.49,-190.51 -267.52,-338.67 -120.08,-143.41 -289.42,-329.45 -476.33,-560.24 -285.77,-352.86 -1003.74,-1398.6 -1123.53,-1797.93 116.24,-88.55 269.73,-209.59 351.28,-332.84 4.35,10.42 8.52,20.62 12.51,30.64 2.63,44.79 5.27,89.57 7.9,134.37 25.4,299.09 252.06,534.53 397.59,813.27 153.41,293.82 1394.78,1893.18 1400.36,1915.7l109.22 -199.75c150.25,-274.78 207.91,-320.19 361.95,-593.35 172.01,-305.04 323.44,-610.23 444.13,-948.15 5.6,-10.02 11.21,-20.04 16.82,-30.06 49.39,-111.12 98.78,-222.26 148.17,-333.38 24.7,-63.99 49.39,-127.96 74.08,-191.95 48.5,-151.57 86.93,-180.67 117.58,-328.77z"/>
  </g>
  <g id="_2544869792608">
   <g>
    <path class="fil0" d="M1412.06 18611.26c5.18,-39.63 10.36,-79.24 15.54,-118.87 4.88,-38.71 9.76,-77.43 14.64,-116.13 3.05,-43.58 6.09,-87.18 9.14,-130.76 1.06,-45.7 2.13,-91.4 3.19,-137.1 2.1,-57.28 4.2,-114.57 6.3,-171.85 3.75,-90.64 7.51,-181.29 11.26,-271.92 0,-75.76 0,-151.51 0,-227.28 1.18,-62.79 2.36,-125.58 3.53,-188.37 2.63,-80.03 5.26,-160.07 7.89,-240.1 2.18,-41.34 4.35,-82.69 6.53,-124.04 0,-56.34 0,-112.68 0,-169.02 -0.49,-36.03 -0.97,-72.05 -1.46,-108.09 0.24,-35.55 0.49,-71.08 0.72,-106.63 -2.1,-62.28 -4.19,-124.55 -6.29,-186.83 0.46,-77.58 0.94,-155.15 1.4,-232.73 1.63,-57.72 3.27,-115.43 4.91,-173.15 5.11,-75.64 10.22,-151.28 15.33,-226.91 7.22,-75.62 14.44,-151.23 21.66,-226.85 7.97,-69.93 15.96,-139.84 23.94,-209.77 5.74,-64.36 11.48,-128.71 17.22,-193.07 6.61,-81.95 13.21,-163.91 19.82,-245.86 3.94,-55.67 7.86,-111.34 11.8,-167.01 2.65,-50.93 5.32,-101.85 7.97,-152.77 3.73,-44.45 7.47,-88.9 11.2,-133.35 8.12,-63.19 16.24,-126.38 24.36,-189.57 2.57,-33.27 5.15,-66.56 7.73,-99.83 6.62,-39.44 13.25,-78.89 19.88,-118.33 14.12,24.15 28.24,48.29 42.36,72.45 68.36,93.71 119.48,161.38 201.62,241.93 8.43,5.69 16.86,11.38 25.29,17.08 8.43,13.89 16.85,27.8 25.28,41.69 0,0 49.9,49.9 53.31,56.04 35.52,63.85 128.87,139.39 185.89,181.79 15.72,10.47 31.43,20.96 47.16,31.43 19.1,22.04 38.2,44.1 57.3,66.14 27.04,30.66 49.49,55.01 73.76,73.85 -58.27,819.38 -107.64,1636.18 -107.64,2400.52 0,466.8 181.31,1137.63 211.08,1849.34l-196.24 16.55c-110.78,2.69 -221.55,5.36 -332.33,8.05 -63.01,1.07 -126.02,2.14 -189.03,3.21 -18.16,0.28 -36.32,0.57 -54.48,0.85 -19.83,-0.56 -39.67,-1.13 -59.5,-1.68 -22.91,-4.19 -45.82,-8.38 -68.74,-12.57 -13.97,5.87 -27.94,11.74 -41.91,17.6 -9.49,14.52 -19,29.06 -28.49,43.58 -9.78,-0.28 -19.56,-0.56 -29.34,-0.84 -17.6,-6.43 -35.21,-12.85 -52.81,-19.28 0,0 -41.9,-40.23 -45.26,-51.12 -3.36,-10.9 -13.42,-102.26 -13.42,-102.26 3.64,-44.99 7.26,-89.97 10.9,-134.95 3.36,-31.01 6.7,-62.02 10.06,-93.03 5.66,-13.39 11.31,-26.79 16.97,-40.17z"/>
    <path class="fil0" d="M1763.66 10863.35l19.98 -124.86 31.63 -184.81 24.97 -216.43 36.63 -278.04 24.97 -288.03 13.21 -230.68 -3.35 -146.44 -4.47 -196.74 -6.71 -77.14 -68.18 -186.68 -85.07 -235.02 -80.63 -225.93 -54.02 -156.7 -67.85 -181.19 -79.83 -175.03 -118.73 -184.23 -7.19 -8.39c445.22,163.97 817.9,629.69 1075.1,1782.4 68.61,307.49 110.64,650.32 133.2,1019.68 -16.03,17.33 -40.45,42.67 -59.13,57.35 -30.35,23.84 -125.73,78.04 -125.73,78.04l-136.58 54.19 -130.08 30.35 -88.88 10.84 -88.88 21.68 -154.39 41.8z"/>
   </g>
   <g>
    <path class="fil0" d="M9571.2 6354.14c6.76,19.57 25.05,67.66 25.05,89.65 0,23.11 2.89,95.32 2.89,95.32l2.88 138.64c0,0 34.67,75.1 40.44,92.44 5.77,17.33 5.77,54.87 14.44,72.21 8.67,17.33 23.11,121.32 23.11,121.32l14.44 115.54 28.88 202.19c0,0 43.78,280.96 43.78,310.83 0,29.86 26.89,173.25 26.89,173.25l5.97 244.94c0,0 14.94,227.01 14.94,268.83 0,41.83 11.95,212.09 11.95,212.09l29.86 218.05 5.98 173.26 14.93 256.88 -8.96 95.59 66.42 177.76 121.57 330.92 114.8 280.27 77.67 202.61 -30.61 69.59 -41.03 50.11 -51.96 64.19 -41.27 55.02 -25.22 40.5 -29.8 42.79 -12.99 21.4 -13 17.57 -33.62 13.75 -31.33 16.05 -52.73 27.51 -45.09 27.51 -45.08 23.69 -32.1 13 -22.17 5.35 -98.57 45.08 -29.8 13.76 -18.35 19.1 -59.16 8.98 -45.11 8.11c-195.16,-759.85 -322.64,-1450.16 -328.05,-2059.85 -8.77,-990.65 134.05,-1792.94 409.08,-2395.8z"/>
    <path class="fil0" d="M11173.57 16729.66c-106.37,-241.76 -210.42,-488.03 -311.62,-738.76 -286.03,-708.65 -238.46,-1407.01 -474.01,-2174.86 -117.31,-382.43 -234.13,-754.87 -346.49,-1116.58l62.28 -77.32c25.67,-32.49 51.34,-64.99 77.01,-97.48 26.32,-32.82 52.64,-65.64 78.96,-98.46 23.72,-25.67 47.44,-51.34 71.15,-77.01 28.92,-20.79 57.84,-41.6 86.76,-62.39 25.99,-20.79 51.99,-41.59 77.98,-62.38 24.64,-15.52 49.29,-31.03 73.92,-46.55 32.51,-16.82 65.03,-33.64 97.54,-50.45 20.55,-11.96 41.1,-23.91 61.65,-35.88 16.82,-14.58 33.64,-29.14 50.45,-43.72 6.72,34.38 13.45,68.76 20.17,103.14 11.21,50.82 22.43,101.64 33.64,152.46 3.74,33.64 7.47,67.26 11.21,100.9 4.48,25.04 8.98,50.08 13.46,75.12 4.86,28.4 9.71,56.8 14.57,85.19 4.48,32.14 8.98,64.27 13.46,96.41 5.98,39.62 11.95,79.22 17.93,118.84 3.74,41.1 7.47,82.22 11.21,123.32 9.34,48.2 18.69,96.41 28.03,144.61 9.72,58.68 19.43,117.34 29.15,176.02 7.1,44.47 14.2,88.93 21.3,133.4 5.65,28.18 11.3,56.36 16.95,84.54 7.8,29.9 15.6,59.79 23.4,89.69 14.95,38.03 29.9,76.04 44.84,114.07 16.9,37.7 33.8,75.39 50.7,113.09 21.13,44.84 42.24,89.69 63.37,134.53 16.25,34.12 32.5,68.25 48.75,102.37 18.84,33.79 37.7,67.59 56.54,101.38 13,30.55 26,61.1 39,91.65 7.15,29.24 14.31,58.49 21.46,87.73 9.07,39.35 18.15,78.71 27.22,118.05 0,0 26.91,117.35 26.91,121.36 0,4.01 25.75,104.17 25.75,108.76 0,4.59 38.36,139.11 38.36,139.11 10.68,50.75 21.37,101.5 32.05,152.26 6.11,36.83 12.21,73.65 18.32,110.48 3.66,29.77 7.31,59.54 10.97,89.32 3.19,31.61 6.39,63.22 9.59,94.83 3.73,34.81 7.47,69.62 11.2,104.43 10.3,48.3 20.6,96.62 30.9,144.92 9.41,34.1 18.82,68.19 28.23,102.29 21.52,48.84 43.05,97.67 64.56,146.51 21.47,42.28 42.94,84.56 64.41,126.85 18.17,36.66 36.33,73.33 54.5,110 15.53,46.25 31.05,92.5 46.58,138.75 2.64,28.41 5.29,56.82 7.93,85.22 4.96,37.32 9.91,74.66 14.87,111.98 3.97,34.36 7.92,68.71 11.89,103.06 8.58,24.77 17.18,49.55 25.76,74.33 0,0 37.9,101.9 37.9,115.76 0,13.86 29.47,102.26 29.47,102.26 0,0 41.6,69.34 41.6,88.41 0,19.07 32.93,157.73 32.93,157.73 0,0 17.33,133.47 17.33,149.07 0,15.6 6.93,107.48 6.93,119.6 0,12.13 -8.67,83.2 -8.67,83.2 -13.81,1.39 -27.63,2.79 -41.44,4.18 -18.15,-15.26 -36.29,-30.51 -54.44,-45.76 -12.89,-24.89 -25.77,-49.78 -38.67,-74.67 0,0 -13.34,-5.34 -17.33,-24.01 -4,-18.67 -25.34,-93.33 -25.34,-93.33 -11.12,-17.33 -22.22,-34.67 -33.34,-52 -13.34,-11.12 -26.66,-22.22 -40,-33.34 -8.44,-4.89 -16.89,-9.77 -25.33,-14.66 -20,-3.55 -40,-7.12 -60,-10.67 -19.56,-9.78 -39.12,-19.56 -58.68,-29.34 -18.67,-15.11 -37.33,-30.22 -56,-45.33 -21.78,-8 -43.55,-16 -65.33,-24 -36,-10.23 -72,-20.44 -108,-30.67 -22.22,-8.89 -44.45,-17.78 -66.67,-26.67 -21.78,-7.55 -43.56,-15.11 -65.34,-22.66 -22.51,-5.85 -45.02,-11.69 -67.53,-17.54 -18.68,-0.58 -37.34,-1.15 -56.02,-1.73l-12.78 -2.98z"/>
   </g>
  </g>
  <g id="_2544869792032">
   <path class="fil0" d="M9093.88 1443.19c-67.25,-19.11 -146.37,-40.41 -219.59,-59.71 -569.4,-150.06 -1225.31,-211.57 -1738.67,-449.63 -182.71,-84.73 -417.89,-129.52 -645.7,-185.35l0.04 -0.18 2.07 -9.65 0.87 -4.09 0.17 -0.81 1.01 -4.89 1 -4.88 0.99 -4.88 0.08 -0.36 0.38 -1.95 2.43 -12.24 0.29 -1.52 2.34 -12.37 0.11 -0.59 0.51 -2.65 0.39 -2.15 0.87 -4.79 1.52 -8.43 0.02 -0.13 0.18 -0.99 2.18 -12.74 0.26 -1.52 0.03 -0.14 0.21 -1.26 2.08 -12.76 0.21 -1.27 0.18 -1.12 1.79 -11.67 0.36 -2.38 0.34 -2.29 1.33 -9.3 0.5 -3.46 0.15 -1.17 0.62 -4.62 0.62 -4.61 0.15 -1.2 0.85 -6.62 0.18 -1.36 0.56 -4.57 0.55 -4.57 0.37 -3.18 0.17 -1.36 0.51 -4.53 0.51 -4.51 0.23 -2.1 0.25 -2.42 0.9 -8.88 0.44 -4.57 0.41 -4.45 0.39 -4.45 0.06 -0.68 0.32 -3.75 0.36 -4.41 0.34 -4.41 0.13 -1.9 0.44 -6.14 0.05 -0.72 0.29 -4.37 0.27 -4.35 0.24 -3.99 0.51 -9.56 0.22 -4.87 0.31 -8.12 0.19 -5.37 0.21 -8.09 0.11 -6.5 0.01 -0.39 0.05 -4.17 0.03 -4.16c271.25,90.86 520.9,207.4 802.52,275.49 340.42,82.33 702.78,135.7 1046.09,221.97 250.79,63.01 495.32,131.29 751.12,206.59 -12.45,97.98 -23.25,192.19 -32.48,283.2z"/>
   <path class="fil0" d="M533.69 3125.97c58.44,-49.52 167.45,-134.22 263.99,-208.13 459.49,-351.73 1011.3,-656.67 1404.78,-1066.32 177.47,-184.77 440.41,-343.87 663.08,-524.32l-2.19 -3.92 -2.18 -3.9 -2.17 -3.89 -8.59 -15.52 -2.13 -3.86 -2.12 -3.85 -12.53 -22.93 -2.06 -3.79 -12.16 -22.58 -1.99 -3.73 -1.98 -3.73 -1.97 -3.71 -9.73 -18.44 -1.91 -3.66 -1.91 -3.66 -1.9 -3.64 -7.49 -14.46 -1.85 -3.59 -1.84 -3.58 -1.83 -3.56 -1.82 -3.56 -8.93 -17.65 -1.76 -3.5 -1.75 -3.49 -8.56 -17.29 -1.67 -3.42 -1.67 -3.42 -1.66 -3.4 -6.52 -13.5 -1.6 -3.36 -1.59 -3.33 -1.58 -3.33 -1.57 -3.32c-264.22,209.48 -481.06,450.55 -749.28,648.3 -276.2,203.64 -577.13,389.55 -855.02,597.84 -212.64,159.39 -418.21,321.34 -633.62,495.38l-0.02 -0.01 0.46 4.28 0.48 4.28 0.46 4.3 1.39 12.92 0.46 4.33 0.45 4.34 0.46 4.35 0.45 4.35 2.72 26.31 0.44 4.41 0.45 4.42 0.44 4.43 1.77 17.81 0.44 4.47 0.43 4.47 0.43 4.49 1.74 18.03 0.42 4.52 0.43 4.53 0.42 4.53 0.42 4.56 0.42 4.56 0.85 9.13 0.41 4.58 0.42 4.59 0.41 4.6 0.41 4.6 2.47 27.76 0.4 4.65 0.4 4.65 2 23.38 0.39 4.7 0.39 4.7 0.39 4.71 0.39 4.71 0.39 4.72 0.77 9.46 0.38 4.74 0.38 4.74 0.38 4.75z"/>
  </g>
  <g id="_2544869793424">
   <path class="fil3" d="M4792.57 15748.72l12 0.77 3056.32 1896.92 -35.1 14.43 -3042.03 -1888.14 8.81 -23.99zm710.45 -21.54c16.09,-1.97 32.17,-4.01 48.23,-6.18l2711.9 1683.09 -28.18 18.72 -2731.95 -1695.63zm462.84 -84.88c13.84,-3.4 27.63,-6.89 41.4,-10.43l2539.06 1575.86 -1.92 1.21c-28.34,23.85 -56.66,47.72 -85,71.57l-6.18 3.74 -1328.51 -824.58 10.73 -29.45 1134.05 703.91 18.5 -50.67 -2322.15 -1441.15zm135.35 -35.89c13.25,-3.77 26.46,-7.61 39.64,-11.52l2500.91 1552.24 -28.81 18.29 -2511.74 -1559.02zm615.15 -262.23c9.39,-6.16 18.72,-12.4 27.99,-18.72l2180.86 1353.55 19.01 -51.65 -2151.94 -1335.62c8.87,-6.44 17.74,-12.96 26.61,-19.59l2137.85 1326.85 24.94 -68.1 -2102.65 -1304.96c8.49,-6.69 17.03,-13.49 25.63,-20.38l2553.84 1585.06 -64.25 19.01c-14.42,4.8 -28.84,9.62 -43.26,14.42 -14.74,5.12 -29.47,10.26 -44.21,15.38 -12.82,4.8 -25.64,9.62 -38.46,14.42 -22.43,7.38 -44.86,14.74 -67.29,22.12 -8.01,5.44 -16.02,10.9 -24.03,16.34 -7.7,1.92 -15.38,3.84 -23.08,5.76 -15.06,7.37 -30.12,14.74 -45.18,22.11l-12.9 5.01 -2355 -1461.64 10.8 -29.47 752.39 467.01 20.35 -55.45 -808.01 -501.47zm304.79 -234.25l24.94 -20.79 2469.72 1532.95 4.83 -13.56 195.47 121.33 -26.74 4.81 -46.58 7.26 -139.29 -86.5 1.52 -3.9 -2483.87 -1541.59zm69.22 -57.73l24.88 -20.71 84.47 52.43 0.88 4.21c16.58,14.58 33.16,29.14 49.74,43.72 14.07,5.02 28.14,10.05 42.21,15.07l15.69 4.36 2143.52 1330.45 15.01 -40.65 -2079.8 -1290.9 11.09 -3.26 78.33 -63.41 2575.38 1598.45 -93.23 17.13c-17.62,0 -35.25,0 -52.87,0 -34.93,5.44 -69.86,10.9 -104.79,16.34l-47.4 7.89 -204.56 -126.96 5.35 -14.82 -2463.91 -1529.34zm59.34 -49.29l24.95 -20.58 4.48 2.78 8.63 41.42 -38.06 -23.63zm361.57 52.34l13.4 -10.84 14.05 -8.28 2632.14 1633.59 -9.47 0.52 -41.06 4.36 -2609.05 -1619.35zm50.97 -32.99l21.22 -12.51 11.83 -3.24 2671.34 1658.07 -53.64 2.89 -2650.74 -1645.2zm106.15 -35.77l40.39 -11.05 2708.84 1681.28 -14.68 1.8c-12.35,0.29 -24.7,0.58 -37.05,0.87l-1.87 0.09 -2695.63 -1672.98zm63.31 -27.62l26.32 -19.75 1012.39 628.39 22.79 -61.62 -978.17 -607.13 28.75 -18.21 332.51 206.41 22.54 -61.71 -294.7 -182.92 26.01 -16.47 2.61 -1.97 3010.72 1868.68c-22.12,-4.21 -44.99,-8.19 -44.99,-8.19 -25.57,-2.29 -51.13,-4.6 -76.7,-6.89 -24.71,-2.87 -49.41,-5.75 -74.12,-8.63 -31.31,-3.16 -62.62,-6.31 -93.93,-9.47 -26.15,-1.44 -52.28,-2.87 -78.43,-4.31 -19.53,0 -39.07,0 -58.6,0l-55.78 -2.24 -2729.22 -1693.96zm229.73 -156.69l26.26 -19.88 3026.72 1878.55 11.94 -32.34 -3009.85 -1868.01 25.17 -19.06 1.25 -0.73 262.85 163.1 17.88 -48.83 4.8 -13.23 5.97 -16.18 1746.72 1084.27 17.91 -48.8 -1799.63 -1117.05 10.69 -29.43 1221.16 758.07 14.44 -39.3 -1311.22 -813.86 27.27 -19.35 2723.31 1690.39c59.99,143.4 120.87,285.29 182.54,425.66l-114.93 -71.35 -11.83 32.33 60.81 37.74 -26.52 -1.23c0,0 -19.71,-1.99 -40.87,-4.44l-3072.86 -1907.06zm356.4 -240.83l27.3 -16.96 2324.5 1442.7 17.09 -46.6 -2295.52 -1424.71 15.26 -9.48 11.69 -9.97 2455.74 1524.1c23.56,58.16 47.27,116.08 71.12,173.75l-2627.85 -1630.99 0.67 -1.85zm2522.14 1373.33l-1750.58 -1086.43 15.22 -41.53 -619.54 -384.54 10.75 -16.14 5.91 -9.75 2298.25 1426.48c12.5,37.29 25.83,74.58 39.99,111.91zm-2295.35 -1609.07l13.82 -22.77 2.4 -3.22 1053.87 654.14 17.92 -48.83 -1041.28 -646.28 18.38 -24.68 2110.1 1309.62c12.9,52.83 26.94,105.62 42.36,158.41l-2217.57 -1376.39zm3343.53 2075.12l0.06 0.17 -0.01 0 -0.05 -0.17zm-3234.65 -2227.07l17.44 -25.33 625.93 388.45 16.3 -44.85 -615.66 -382.2 22.69 -32.94 607.22 376.9 227.86 141.33 10.49 -28.5 -100.85 -62.59 10.8 -29.45 1174.32 728.89c16,92.31 33.8,184.29 54.69,276.13l-1428.43 -886.61 9.78 -26.6 -632.56 -392.61zm113.78 -166.9l16.69 -25.76 327.66 203.35 16.95 -46.54 -281.64 -174.76 10.77 -29.48 281.64 174.79 1392.18 864.2 17.02 -46.54 -1691.37 -1049.77 19.45 -24.09 1729.32 1073.37c12.24,82.48 24.82,164.55 38.68,246.38l-1543.82 -958.15 -333.54 -207zm1829.42 855.86l-1689.35 -1048.5 17.02 -21.09 2.08 -3.11 268.53 166.68 24.92 -68.11 -48.45 -29.98 10.77 -29.47 1389.24 862.19c8.56,57.35 16.87,114.47 25.23,171.39zm-1570.75 -1178.94l22 -22.48 871.8 541.1 14.38 -39.28 -857.89 -532.51 20.39 -23.49 1074.37 666.81 14.42 -39.3 -526.33 -326.74 -537.38 -333.53 16.65 -25.8 531.51 329.89 14.37 -39.27 -523.67 -325.02 6.05 -9.38 15.14 -13.71 186.06 115.49 30.16 -82.38 -145.41 -90.24 31.45 -16.65 124.76 77.44 1068.16 662.94c35.69,162.55 62.43,322.4 86.47,480.35l-654.45 -406.15 -883.03 -548.07zm305.35 -292.07l31.03 -16.82 1090.05 676.57c3.44,14.13 6.82,28.25 10.11,42.34l-1131.19 -702.09zm107.83 -64.81l28.64 -18.5 943.05 585.3c4.16,14.64 8.23,29.24 12.2,43.83l-983.88 -610.63zm103.08 -67.87l13.72 -9.15 11.84 -11.21 794.18 492.9 13.78 44.81 -833.52 -517.35zm787.75 368.77l-708.65 -439.83 9.29 -8.79 46.77 -54.87 614.93 381.66 37.67 121.83zm-621.67 -539.8l0.15 -0.18 18.49 -24.33 28.19 17.5 18.51 -50.65 -14.6 -9.06 18.65 -24.53 441.6 274.09 51.68 166.37 -562.68 -349.21zm478.76 79.26l-365.38 -226.79 19.12 -24.41 332.25 206.2 14.01 45zm-56.7 -182.03l-149.78 -92.94 -74.81 -46.43 21.67 -22.7 63.95 39.7 26.28 -71.66 -37.44 -23.23 21.67 -22.67 66.62 41.34 61.83 198.6zm-91.87 -282.01l2.96 -3.68 2.13 6.84 -5.09 -3.16zm845.93 -51.13l0.09 0.64 -0.01 0 -0.08 -0.64zm-1333.98 4111.8l-41.81 9.3 -0.91 0.32 -1939.22 -1203.52 10.72 -29.41 1971.22 1223.32zm-502.19 179.85l-35.86 13.89 -1190.33 -738.85 10.74 -29.43 1215.45 754.39zm-81.27 33.44l-26.98 19.51 -2352.68 -1460.32 10.68 -29.45 2368.98 1470.26zm-78.33 52.38l-88.15 30.7 -65.08 34.27 -240.27 -149.16 -2097.29 -1301.5 10.76 -29.45 2097.26 1301.52 26.15 -71.52 -765.31 -475.01 10.78 -29.45 1111.14 689.6zm-480.67 282.17l-64.88 39.31 -14.57 9.68 -2101.05 -1303.92 10.91 -29.53 1074.09 666.81 18.59 -50.69 1076.91 668.36zm-247.3 160.74l-27.62 19 -1739.67 -1079.8 10.81 -29.43 1756.49 1090.23zm-100.86 69.37l-27.58 18.97 -2420.14 -1502.14 10.73 -29.41 2436.99 1512.59zm-69.48 47.79l-13.19 9.07 -85.45 35.13 20.69 -56.48 -2655.12 -1647.89 10.77 -29.44 2655.13 1647.91 67.17 41.69zm-211.28 90.51l-35.04 14.4 -2985.57 -1852.9 10.8 -29.46 3009.82 1867.97zm-81.83 33.64l-2.02 0.84 -29.65 15.55 -1156.3 -717.59 10.81 -29.44 1177.16 730.65zm-73.96 38.56l-31.55 16.55 -1697.87 -1053.77 10.73 -29.46 1718.68 1066.68zm-178.19 93.44l-15.27 8.01 -15.98 8.72 -2005.58 -1244.76 10.77 -29.47 2026.05 1257.51zm-80.21 43.43l-31 16.91 -259 -160.74 10.8 -29.46 279.21 173.29zm-159.8 87.17l-30.98 16.9 -1434.26 -890.16 10.72 -29.46 1454.52 902.72zm-119.85 61l-47.78 17.43 -908.92 -564.2 3.26 -8.84 -928.72 -576.44 10.7 -29.43 1871.45 1161.48zm-103.6 37.79l-36.69 13.38 -899.55 -558.28 10.81 -29.46 925.43 574.36zm-231.16 76.19l-40.55 10.86 -917.75 -569.61 10.89 -29.28 947.41 588.03zm-150 40.17l-40.64 10.89 -1867.66 -1159.13 10.8 -29.48 1897.5 1177.72zm-180.78 39.67l-50.34 5.04 -624.13 -387.36 10.88 -29.53 663.59 411.86zm-233.81 55.92l-15.05 6.84 -16.84 9.52 -594.47 -368.99 10.81 -29.43 615.56 382.05zm-475.8 132.67l-41.26 10.44 -1261.5 -783.01 10.85 -29.27 1291.91 801.83zm-127.92 32.41l-41.33 10.47 -333.53 -207 10.81 -29.44 364.06 225.96zm-123.39 35.17l-37.68 12.8 -1028.79 -638.5 10.81 -29.43 1055.67 655.13zm-373.97 87.11l-51.82 4.03 -144.74 -89.82 10.78 -29.51 185.77 115.31zm-243.12 21.33l-44.43 8.42 -399.1 -247.7 10.87 -29.27 432.66 268.54zm-124.11 23.52l-23.36 4.43 -22.25 3.31 -510.85 -317.08 10.87 -29.27 545.59 338.6zm-254.18 46.37l-40.52 11.04 -583.94 -362.45 10.8 -29.47 613.66 380.88zm-245.87 66.62l-7.42 1.99 -39.32 5.31 -324.04 -201.1 10.92 -29.57 359.85 223.36z"/>
   <path class="fil3" d="M9230.42 7598.14l-799.8 -496.42 10.72 -29.44 793.81 492.66c-1.6,11.03 -3.18,22.1 -4.73,33.2zm-14.42 110.76l-821.09 -509.6 10.72 -29.44 814.51 505.55 -4.14 33.49zm-33.6 351.38l-1053.08 -653.59 10.7 -29.45 1044.9 648.48c-0.88,11.49 -1.7,23.02 -2.53,34.56zm-13.97 255l-585.2 -363.2 10.78 -29.45 575.86 357.43 -1.45 35.23zm-3.01 89.12l-936.97 -581.57 10.77 -29.45 927.28 575.57 -1.08 35.45zm-2.84 135.57l-1407.81 -873.71 10.8 -29.44 1397.57 867.39 -0.56 35.76zm-0.74 83.88l-1432.22 -888.87 10.77 -29.45 1421.67 882.33 -0.23 35.99zm0.89 169.45l-297.76 -184.81 10.8 -29.46 286.44 177.78c0.13,12.14 0.3,24.29 0.53,36.49zm785.57 655.54l17.17 46.71 -0.01 0 -17.16 -46.71zm-777.37 -446.46l-791.49 -491.29 10.72 -29.43 778.68 483.35c0.65,12.43 1.34,24.88 2.09,37.36zm914.19 810.89l19.88 48.51 -0.01 0 -19.87 -48.51zm-889.11 -515.71l-485.05 -301.07 10.8 -29.44 470.15 291.82c1.33,12.87 2.7,25.76 4.1,38.7zm19.03 158l-115.33 -71.59 3.19 -8.88 -928.74 -576.37 10.8 -29.48 1023.53 635.31c2.11,16.95 4.31,33.97 6.55,51.01zm13.82 99.84l-212.31 -131.78 10.73 -29.44 195.93 121.61c1.84,13.18 3.72,26.38 5.64,39.62zm39.01 243.79l-504.43 -313.07 10.77 -29.45 486.69 302.08c2.28,13.45 4.61,26.94 6.96,40.44zm27.42 150.46l-1631.86 -1012.84 10.8 -29.47 1613.37 1001.35 7.7 40.96zm34.4 173.22l-613.31 -380.65 10.8 -29.45 594.03 368.69 8.48 41.41zm50.33 232.27l-849.48 -527.2 10.81 -29.4 829.26 514.66 9.41 41.94zm77.16 324.13l-620.25 -384.95 10.86 -29.22 598.81 371.47 10.58 42.71zm22.63 89.95l-34.65 -21.51 10.81 -29.46 12.99 8.06 10.86 42.91zm3.54 41.8l-45.17 8.12 -2059.57 -1278.38 10.75 -29.43 2093.99 1299.69zm-144.54 22.03l-46.19 6.32 -1.85 0.05 -1112.3 -690.42 10.77 -29.43 1149.56 713.48zm-164.84 9.62l-8.56 0.24 -47.42 1.14 -1754.53 -1088.98 10.78 -29.48 1799.72 1117.09zm-103.68 2.52l-52.13 1.25 -4.01 0.04 -559.83 -347.44 10.8 -29.45 605.17 375.6zm-159.98 2.41l-1.69 0.02 -55 0.9 -261.97 -162.6 10.77 -29.41 307.89 191.09zm-238.92 2.38l-58.17 0 -753.99 -467.9 10.93 -29.52 801.23 497.42zm-152.29 -8.49l-68.82 -6.47 -426.27 -264.55 10.91 -29.53 484.18 300.55zm-171.4 -20.31l-21.01 -3.01 -70.75 -17.69 -639.67 -397.02 -51.73 -62.37 -13.64 -14.48 796.8 494.57zm-262.63 -62.31l-10.47 -1.95 -95.42 -34.16 -62.44 -34.16 -89.52 -71.86 -76.89 -65.61 334.74 207.74zm1264 -3767.4l-1034.76 -642.22 -10.81 29.47 1037.58 644.02c2.63,-10.46 5.3,-20.89 7.99,-31.27zm22.94 -85.32l-63.35 -39.32 -10.78 29.43 65.63 40.73c2.8,-10.32 5.64,-20.61 8.5,-30.85zm29.66 -101.25l-1095.31 -679.8 -10.8 29.46 1096.91 680.78c3.04,-10.19 6.11,-20.34 9.19,-30.44zm18.98 -156.35l-14.76 -45.3 -777.38 -482.46 -10.77 29.44 802.92 498.32zm-41.14 -126.11l-14.77 -45.27 -499.16 -309.81 -10.75 29.44 524.68 325.64zm-202.28 -616.93l-15 -45.43 -302.36 -187.65 -10.76 29.44 328.12 203.64zm-93.08 -281.35l-15.19 -45.62 -193.97 -120.4 -11.05 29.36 220.21 136.66z"/>
  </g>
  <path class="fil4" d="M1332.42 2539.31l885.85 993.42 703.52 789.07 18.06 -24.42 -703.48 -789.03 25.12 -33.71 558.8 626.8 18.12 -24.43 -1422.34 -1595.1c-27.85,19.18 -55.75,38.31 -83.65,57.42zm117.76 -80.97l1890.9 2120.58 18.11 -24.42 -1884.33 -2113.26 -24.68 17.1zm-23.87 5441.34l-9.94 -15.42 0.01 0.01 9.93 15.41zm-809.41 -867.31l-0.01 -0.01 -8.43 -14.98 8.44 14.99zm141.52 -4084.41l475.86 533.67 -18.03 24.42 -481.38 -539.94 23.54 -18.15zm-294.76 -426.4l4.34 26.04 0.1 0.63 -4.44 -26.67zm421.37 330.7l1121.89 1258.04 -18.06 24.45 -716.6 -803.43 -30.04 40.47 -8.09 10.99 -10 13.4 -426.47 -478.32 0.02 -0.02c28.78,-22.02 57.91,-43.88 87.35,-65.58zm50.69 -37l630.12 706.58 -18.13 24.43 -636.18 -713.43 24.18 -17.58zm202.82 -142.98l2090.25 2344.09 -18.1 24.42 -2096.76 -2351.47 24.61 -17.03zm-76.18 52.95l1516.9 1701.16 -18.12 24.4 -1118.25 -1254.21 -37.89 51.18 1750.96 1963.69 -18.12 24.43 -2175.55 -2439.78c33.09,-23.75 66.46,-47.36 100.07,-70.88zm121.9 -84.46l1234.61 1384.46 -18.11 24.42 -1241.18 -1391.9 24.68 -16.98zm69.65 -47.75l1088.6 1220.78 -18.22 24.46 -1095.21 -1228.23 24.83 -17zm44.29 -30.3l873.09 979.09 -18.13 24.42 -879.75 -986.56 24.79 -16.95zm245.07 -169.29l2023.67 2269.36 -18.25 24.49 -2030.01 -2276.6 24.59 -17.25zm81.22 -57.74l516.08 578.72 -18.04 24.41 -522.36 -585.71 24.32 -17.42zm56.26 -40.79l2186.91 2452.35 -18.27 24.46 -2192.88 -2459.13 24.25 -17.68zm79.44 -59.04l1379.18 1546.65 -18.04 24.45 -1385.02 -1553.17 23.87 -17.93zm132.61 -103.44l988.08 1108.06 -18.12 24.44 -571.31 -640.72 -34.14 45.97 1664.47 1866.46 -18.08 24.44 -2101.83 -2356.99c30.69,-23.61 61.02,-47.5 90.94,-71.66zm53.57 -43.98l136.57 153.17 -18.07 24.41 -141.41 -158.58c7.68,-6.31 15.31,-12.64 22.91,-19zm52.7 -44.83l1044.49 1171.4 -18.03 24.45 -1049.08 -1176.42c7.56,-6.46 15.11,-12.93 22.61,-19.43zm62.22 -55.18l114.43 128.32 -18.1 24.43 -118.45 -132.82c7.42,-6.62 14.78,-13.26 22.12,-19.94zm74.43 -69.89l1113.49 1248.52 -18.09 24.43 -1116.84 -1252.31c7.19,-6.84 14.34,-13.74 21.45,-20.64zm85.4 -86.05l1780.79 1997.11 -18.04 24.44 -1783.64 -2000.24 2.22 -2.28c6.13,-6.37 12.34,-12.72 18.67,-19.03zm72.04 -67.4l1768.95 1983.58 -18.12 24.43 -1772.95 -1988.18c7.28,-6.64 14.65,-13.24 22.12,-19.83zm61.69 -52.35l442.55 496.3 -18.07 24.44 -447.39 -501.75c7.56,-6.34 15.21,-12.66 22.91,-18.99zm99.85 -78.42l1066.25 1195.62 -18.22 24.46 -815.56 -914.77 -31.2 42.02 -265.44 -297.66c21,-16.65 42.43,-33.2 64.17,-49.68zm79.71 -59.37l1831.57 2053.98 -18.06 24.44 -1837.61 -2060.66 24.09 -17.77zm88.14 -64.27l841.57 943.79 -18.12 24.4 -847.64 -950.6 24.18 -17.59zm88.11 -64.47l849.96 953.18 0.01 0.02 3.72 5.17 3.71 5.14 3.7 5.12 3.05 4.23 0.64 0.87 3.68 5.08 3.67 5.06 3.66 5.03 3.64 5.01 7.24 9.96 3.61 4.95 3.59 4.92 3.57 4.9 3.56 4.88 1.73 2.37 1.83 2.48 3.54 4.83 3.52 4.79 3.51 4.78 3.5 4.75 2.83 3.86 0.65 0.87 3.47 4.7 3.45 4.68 3.45 4.65 3.42 4.63 3.42 4.61 3.4 4.58 3.38 4.55 3.37 4.52 3.36 4.49 3.34 4.47 3.33 4.44 3.31 4.41 3.29 4.39 3.27 4.36 3.25 4.33 2.6 3.47 0.64 0.84 3.22 4.28 3.21 4.25 3.19 4.23 3.17 4.18 3.16 4.16 0.41 0.56 2.73 3.57 3.12 4.1 3.11 4.07 3.09 4.05 3.07 4.01 3.05 3.99 3.04 3.95 3.02 3.93 3 3.89 2.98 3.85 5.9 7.62 2.92 3.77 2.9 3.73 2.88 3.71 5.7 7.3 2.82 3.61 2.81 3.56 2.78 3.54 2.76 3.5 5.46 6.91 -0.01 -0.02 -1083.39 -1214.95 24.05 -17.72zm60.23 -45.03l451.17 505.96 1.86 2.83 1.86 2.82 1.86 2.83 1.86 2.82 0.17 0.25 7.28 11.04 1.87 2.82 1.86 2.82 1.86 2.81 1.87 2.82 1.86 2.82 1.87 2.81 1.86 2.81 1.87 2.82 1.86 2.81 3.73 5.62 1.87 2.81 3.73 5.61 1.87 2.81 1.86 2.8 1.87 2.8 1.87 2.8 1.87 2.8 1.86 2.8 1.87 2.8 3.73 5.59 1.87 2.8 1.87 2.79 1.86 2.79 1.87 2.79 1.87 2.79 1.86 2.78 1.87 2.79 1.87 2.78 1.87 2.79 1.86 2.78 1.87 2.78 0.24 0.36 1.62 2.42 1.87 2.77 1.87 2.78 1.86 2.77 1.87 2.77 1.86 2.77 1.87 2.77 3.73 5.53 1.86 2.77 1.87 2.76 1.59 2.37 0.27 0.39 1.86 2.76 1.87 2.75 1.86 2.76 1.86 2.75 3.73 5.5 1.86 2.75 1.86 2.74 1.86 2.75 1.86 2.74 -594.34 -666.5 23.85 -17.97zm89.36 -69.71l20.85 23.39 1.12 1.96 1.11 1.96 1.12 1.96 1.13 1.97 1.12 1.96 1.12 1.97 5.64 9.88 1.13 1.97 1.14 1.98 1.14 1.98 1.14 1.98 1.15 1.98 1.14 1.99 1.15 1.98 1.15 1.99 1.15 1.99 8.07 13.99 1.17 2 1.16 2 1.17 2 1.17 2.01 1.17 2 1.17 2.01 1.17 2.01 1.18 2.01 1.18 2.01 1.17 2.01 4.72 8.08 1.19 2.02 1.19 2.02 1.19 2.02 1.19 2.04 1.19 2.02 1.2 2.04 1.19 2.02 1.2 2.04 1.2 2.04 1.2 2.04 1.2 2.04 1.21 2.05 1.2 2.04 3.63 6.13 1.21 2.05 1.21 2.05 1.22 2.05 1.21 2.05 1.22 2.06 1.22 2.05 1.22 2.06 -118.9 -133.34c7.82,-6.19 15.61,-12.4 23.34,-18.64zm-180.89 -392.56l0.23 0.44 0.01 0.01 0.22 0.65 0.23 0.64 0.23 0.65 0.22 0.65 0.23 0.65 0.23 0.65 2.3 6.74 -0.08 -0.23 -3.8 -10.86zm6.52 18.22l0.25 0.67 0.25 0.67 0.24 0.67 0.25 0.67 0.25 0.67 0.25 0.68 0.26 0.67 0.25 0.68 0.25 0.67 2.25 6.15c-2.25,-5.93 -4.38,-11.75 -6.44,-17.47l1.95 5.26zm8.24 21.9l0.27 0.7 0.27 0.69 0.28 0.7 0.27 0.7 0.27 0.69 -0.05 -0.06 -3.29 -8.47 1.98 5.04zm-2014.34 2029.82l1465.72 1643.82 18.24 -24.46 -1460.35 -1637.73 -23.61 18.37zm-69.73 54.87l540.02 605.59 18.11 -24.45 -534.75 -599.67 -23.39 18.53zm-59.86 48.45l1399.15 1568.98 18.13 -24.44 -1394.2 -1563.45c-8.16,6.62 -15.89,12.95 -23.08,18.91zm-4.04 183.45l2161.09 2423.55 18.11 -24.45 -2182.53 -2447.69c1.14,16.13 2.25,32.32 3.34,48.59zm10.61 176.9l1278.64 1433.98 18.05 -24.41 -1299.32 -1457.11 2.63 47.54zm6.21 125.82l319.25 357.97 18.07 -24.39 -339.51 -380.73c0.76,15.7 1.5,31.41 2.2,47.15zm6.32 160.07l1013.55 1136.5 18.07 -24.38 -1033.28 -1158.74 1.66 46.62zm3.83 130.64l1621.33 1818.31 18.12 -24.42 -705.3 -791.06 5.48 -7.1 -941.25 -1055.73c0.59,20.04 1.14,40.05 1.62,60zm3.1 171.03l1173.47 1315.89 18.1 -24.44 -1192.17 -1336.83 0.6 45.38zm0.38 231.06l108.12 121.24 18.11 -24.43 -125.92 -141.2c-0.07,14.9 -0.18,29.69 -0.31,44.4zm-1.68 113.4l1349.76 1513.7 18.1 -24.4 -1367.03 -1533c-0.24,14.69 -0.52,29.23 -0.83,43.7zm-9.07 242.43l934.15 1047.62 18.12 -24.39 -950.05 -1065.43c-0.69,14.27 -1.44,28.32 -2.22,42.2zm-6.46 97.23l450.09 504.71 18.03 -24.43 -465.13 -521.65c-0.95,14.02 -1.93,27.82 -2.99,41.36zm-8.3 95.23l1764.69 1978.92 18.11 -24.41 -1779.13 -1995.13 -0.55 6.04c-1.08,11.53 -2.12,23.05 -3.13,34.58zm-3.17 56.05c-0.03,14.95 0.03,29.96 -0.04,44.85l1725.44 1935.09 18.32 -24.48 -1743.71 -1955.46zm-1.18 168.62l-0.64 44.03 1330 1491.47 18.11 -24.45 -1347.47 -1511.05zm-1.97 110.51c-0.31,14.56 -0.53,29.21 -0.88,43.7l1037.85 1163.9 18.12 -24.39 -1055.09 -1183.21zm-4.29 158.2l-1.56 43.16 413.25 463.43 18.24 -24.47 -429.93 -482.11zm8.1 217.09l1305.54 1464 18.07 -24.44 -1327.96 -1489.25c1.32,16.57 2.78,33.13 4.36,49.69zm21.55 172.87l438.9 492.11 18.1 -24.45 -464.76 -521.19c2.42,17.85 5,35.7 7.76,53.53zm98.99 422.93l881.08 988.09 18.12 -24.44 -918.58 -1030.09c2.15,7.27 4.35,14.53 6.57,21.81 4.36,14.24 8.62,29.14 12.81,44.64zm49.66 203.95l771.26 864.88 18.27 -24.28 -803.96 -901.6c4.68,19.87 9.46,40.22 14.43,61z"/>
 </g>
</svg>
