<?xml version="1.0" encoding="UTF-8"?>
<!DOCTYPE svg PUBLIC "-//W3C//DTD SVG 1.1//EN" "http://www.w3.org/Graphics/SVG/1.1/DTD/svg11.dtd">
<!-- Creator: CorelDRAW -->
<svg xmlns="http://www.w3.org/2000/svg" xml:space="preserve" width="119.032mm" height="189.849mm" version="1.1" style="shape-rendering:geometricPrecision; text-rendering:geometricPrecision; image-rendering:optimizeQuality; fill-rule:evenodd; clip-rule:evenodd"
viewBox="0 0 12286.73 19596.6"
 xmlns:xlink="http://www.w3.org/1999/xlink"
 xmlns:xodm="http://www.corel.com/coreldraw/odm/2003">
 <defs>
  <style type="text/css">
   <![CDATA[
    .str0 {stroke:#F4F4F4;stroke-width:17.48;stroke-miterlimit:22.9256}
    .fil2 {fill:none}
    .fil1 {fill:#FEFEFE}
    .fil0 {fill:#1C1B17}
    .fil3 {fill:#C9C9C4}
    .fil4 {fill:#1C1B17;fill-rule:nonzero}
   ]]>
  </style>
 </defs>
 <g id="Plan_x0020_1">
  <metadata id="CorelCorpID_0Corel-Layer"/>
  <path class="fil0" d="M1515.54 19596.6l5.41 -166.37 -1.88 -231.88 -4.15 -160.44 7.8 0.23 28.47 -43.55 41.88 -17.59 68.68 12.56 59.46 1.68 54.44 -0.85 188.89 -3.21 332.08 -8.04 337.44 -28.46 359.86 -46.87 274.5 -36.82 174.07 -30.13 254.41 -45.19 179.09 -21.76 153.99 -25.1 185.79 -25.11 112.15 -30.12 202.52 -55.23 169.06 -25.11 168.93 -32.03 291.07 -22.64 177.87 -38.8 171.4 -58.22 242.54 -61.45 106.72 -38.8 126.13 -29.11 116.42 -6.47 74.38 -42.04 106.72 -48.5 194.04 -19.41 362.21 -97.02 274.89 -100.26 320.16 -174.63 265.19 -139.06 281.72 -115.83 192.46 -132.36 173.21 -115.1 116.22 -70.41 84.93 -71.51 128.51 -81.58 127.39 -67.05 99.45 -34.64 72.64 -52.52 135.89 -52.73 45.15 -22.09 23.06 -5.76 24.01 -16.33 67.24 -22.1 38.43 -14.41 44.18 -15.37 43.23 -14.41 68.2 -20.17 46.11 -16.33 51.87 -11.53 54.76 -15.36 73.96 -11.53 48.03 -8.65 63.4 -10.56 104.71 -16.33 52.83 0 94.14 -17.29 108.55 -11.53 124.87 -6.73 79.48 -4.13 37.03 -0.87 49.09 -6.03 64.59 2.59 58.56 0 78.37 4.3 93.86 9.47 74.06 8.62 76.64 6.88c0,0 79.23,13.78 85.26,17.23 6.03,3.45 91.28,12.06 91.28,12.06l37.03 1.72 74.06 17.22 55.98 1.72 67.48 17.53 65.29 22.65 66.62 26.65 107.92 30.65 65.28 23.98 55.96 45.29 58.63 29.32 59.95 10.66 25.31 14.65 39.97 33.31 33.31 51.96c0,0 21.33,74.61 25.32,93.26 3.99,18.65 17.32,23.99 17.32,23.99l38.64 74.61 54.4 45.73 4.81 17.04 -10.84 134.43 32.53 153.93 52.02 132.26 52.03 119.24 41.2 140.92 30.36 201.62 21.71 159.59 -1.69 177.75 18.62 186.21 6.77 174.36 -1.69 157.43 0 138.81 -1.69 133.73 8.46 135.43 -1.69 79.56 11.85 88.67 -10771.19 0z"/>
  <g id="_2543960476048">
   <path class="fil1 str0" d="M1419.92 18596.82c5.17,-39.6 10.35,-79.18 15.52,-118.78 4.87,-38.68 9.75,-77.37 14.63,-116.04 3.05,-43.55 6.09,-87.11 9.14,-130.66 1.06,-45.67 2.13,-91.33 3.19,-137 2.1,-57.24 4.2,-114.48 6.3,-171.72 3.75,-90.57 7.5,-181.14 11.25,-271.71 0,-75.7 0,-151.4 0,-227.1 1.18,-62.74 2.35,-125.49 3.53,-188.23 2.63,-79.97 5.25,-159.94 7.89,-239.91 2.18,-41.31 4.35,-82.63 6.52,-123.94 0,-56.3 0,-112.59 0,-168.89 -0.49,-36 -0.97,-72 -1.46,-108 0.24,-35.52 0.49,-71.03 0.72,-106.55 -2.1,-62.23 -4.19,-124.46 -6.29,-186.69 0.46,-77.52 0.94,-155.03 1.4,-232.55 1.63,-57.67 3.27,-115.34 4.9,-173.01 5.11,-75.58 10.21,-151.16 15.32,-226.74 7.22,-75.56 14.43,-151.12 21.65,-226.68 7.97,-69.87 15.95,-139.73 23.92,-209.6 5.74,-64.31 11.47,-128.61 17.21,-192.92 6.61,-81.89 13.2,-163.78 19.81,-245.67 3.93,-55.63 7.86,-111.25 11.79,-166.88 2.65,-50.89 5.32,-101.77 7.97,-152.66 3.73,-44.42 7.46,-88.83 11.19,-133.25 8.11,-63.14 16.23,-126.28 24.34,-189.42 2.57,-33.25 5.15,-66.51 7.72,-99.75 6.62,-39.41 13.24,-78.83 19.86,-118.24 14.11,24.13 28.22,48.26 42.33,72.39 68.3,93.63 119.39,161.25 201.46,241.75 8.42,5.69 16.85,11.38 25.27,17.06 8.42,13.88 16.84,27.78 25.26,41.66 0,0 49.86,49.86 53.27,56 35.49,63.8 128.77,139.28 185.75,181.65 15.71,10.47 31.41,20.94 47.12,31.41 19.09,22.03 38.17,44.07 57.26,66.09 64.36,72.97 102.68,110.14 201.53,122.51 21.01,10.06 42.02,20.13 63.03,30.19 33.14,27.52 66.29,55.04 99.43,82.56 28.71,24.57 57.41,49.12 86.12,73.69 29.89,27.23 59.78,54.45 89.67,81.68 22.19,17.45 44.39,34.92 66.58,52.37 78.21,30.2 85.89,31.14 160.7,-5.33 0,0 81.68,65.7 95,75.47 296.2,217.21 557.59,342.48 860.56,440.41 682.75,220.71 1500.4,185.82 2201.83,-42.56 446.61,-145.42 585.09,-292.41 941.26,-585.27 7.54,36.15 15.06,72.3 22.6,108.45 16.57,14.56 33.13,29.12 49.7,43.68 14.06,5.02 28.12,10.04 42.18,15.06 18.07,5.02 36.15,10.04 54.22,15.06 17.07,-5.02 34.14,-10.04 51.21,-15.06 42.18,-34.14 84.34,-68.28 126.52,-102.42 19.58,-11.55 39.16,-23.09 58.74,-34.64 42.18,-11.55 84.34,-23.09 126.52,-34.64 28.12,-21.09 56.23,-42.18 84.34,-63.26 45.19,-28.61 90.37,-57.24 135.56,-85.85 37.15,-28.12 74.3,-56.23 111.45,-84.34 30.63,-18.07 61.25,-36.15 91.88,-54.22 30.12,-20.09 60.25,-40.16 90.37,-60.25 27.61,-19.58 55.23,-39.16 82.85,-58.74 33.13,-20.58 66.27,-41.17 99.4,-61.75 17.4,-14.85 34.82,-29.71 52.22,-44.56 12.36,-18.54 24.72,-37.08 37.08,-55.62 20.86,-34.37 41.71,-68.75 62.57,-103.12 27.03,-36.3 54.07,-72.61 81.1,-108.91 36.69,-53.3 73.38,-106.6 110.07,-159.9 26.74,-41.29 53.49,-82.57 80.23,-123.86 31.42,-38.91 62.83,-77.83 94.25,-116.74 8.57,-12.85 17.15,-25.71 25.71,-38.56 21.07,-19.28 42.13,-38.55 63.19,-57.84 16.42,-16.78 32.85,-33.56 49.27,-50.34 16.42,-18.92 32.85,-37.84 49.27,-56.76 18.21,-28.21 36.42,-56.41 54.63,-84.62 22.49,-20.35 44.98,-40.7 67.48,-61.05 18.21,-9.64 36.42,-19.28 54.63,-28.92 29.64,-16.06 59.27,-32.13 88.91,-48.19 34.27,-22.14 68.55,-44.27 102.82,-66.41 25.05,-16.71 50.1,-33.41 75.16,-50.12 24.87,-23.55 49.74,-47.1 74.61,-70.65 25.93,-30.43 51.86,-60.85 77.79,-91.28 24.34,-32.02 48.69,-64.03 73.03,-96.05 22.89,-29.22 45.79,-58.45 68.68,-87.68 27.6,-28.9 55.19,-57.79 82.79,-86.7 28.57,-29.87 57.14,-59.73 85.72,-89.61 28.25,-35.06 56.49,-70.14 84.75,-105.2 25.65,-32.46 51.3,-64.94 76.95,-97.4 26.3,-32.79 52.6,-65.59 78.9,-98.38 23.7,-25.65 47.4,-51.3 71.1,-76.95 28.9,-20.78 57.79,-41.57 86.7,-62.35 25.97,-20.78 51.95,-41.56 77.92,-62.34 24.62,-15.5 49.25,-31.01 73.87,-46.51 32.48,-16.8 64.98,-33.61 97.46,-50.41 20.53,-11.95 41.07,-23.9 61.6,-35.85 16.8,-14.56 33.61,-29.12 50.41,-43.68 6.72,34.35 13.44,68.7 20.16,103.06 11.2,50.79 22.41,101.56 33.61,152.35 3.74,33.61 7.46,67.21 11.2,100.82 4.48,25.02 8.97,50.04 13.45,75.06 4.85,28.38 9.7,56.75 14.55,85.13 4.48,32.11 8.97,64.22 13.45,96.34 5.98,39.59 11.94,79.16 17.92,118.75 3.74,41.07 7.46,82.15 11.2,123.23 9.33,48.16 18.67,96.34 28,144.5 9.71,58.63 19.42,117.25 29.13,175.88 7.09,44.44 14.19,88.86 21.28,133.3 5.65,28.16 11.29,56.32 16.94,84.48 7.79,29.87 15.59,59.75 23.38,89.62 14.94,38 29.87,75.98 44.81,113.98 16.89,37.67 33.77,75.33 50.66,113 21.11,44.81 42.21,89.62 63.32,134.43 16.24,34.09 32.47,68.2 48.71,102.29 18.83,33.76 37.67,67.54 56.49,101.3 12.99,30.52 25.98,61.06 38.97,91.58 7.14,29.22 14.3,58.44 21.44,87.67 9.06,39.32 18.14,78.65 27.2,117.96 0,0 26.89,117.26 26.89,121.27 0,4.01 25.73,104.09 25.73,108.67 0,4.58 38.33,139 38.33,139 10.67,50.71 21.36,101.43 32.03,152.14 6.1,36.8 12.2,73.6 18.3,110.4 3.65,29.75 7.31,59.5 10.96,89.25 3.19,31.59 6.39,63.17 9.58,94.76 3.73,34.79 7.46,69.56 11.19,104.35 10.29,48.27 20.58,96.54 30.87,144.81 9.4,34.07 18.81,68.14 28.21,102.21 21.5,48.8 43.01,97.6 64.51,146.4 21.45,42.25 42.91,84.5 64.36,126.75 18.16,36.63 36.3,73.28 54.46,109.91 15.51,46.21 31.03,92.43 46.54,138.64 2.64,28.39 5.28,56.77 7.93,85.16 4.95,37.29 9.9,74.6 14.85,111.89 3.96,34.33 7.92,68.65 11.88,102.98 8.58,24.75 17.17,49.52 25.74,74.27 0,0 37.87,101.82 37.87,115.67 0,13.85 29.45,102.18 29.45,102.18 0,0 41.57,69.28 41.57,88.34 0,19.05 32.91,157.61 32.91,157.61 0,0 17.32,133.36 17.32,148.95 0,15.59 6.93,107.39 6.93,119.51 0,12.12 -8.66,83.14 -8.66,83.14 -13.8,1.39 -27.61,2.79 -41.41,4.18 -18.14,-15.25 -36.26,-30.48 -54.4,-45.73 -12.88,-24.87 -25.75,-49.74 -38.64,-74.61 0,0 -13.33,-5.34 -17.32,-23.99 -3.99,-18.65 -25.32,-93.26 -25.32,-93.26 -11.11,-17.32 -22.2,-34.64 -33.31,-51.96 -13.33,-11.11 -26.64,-22.2 -39.97,-33.31 -8.43,-4.88 -16.88,-9.76 -25.31,-14.65 -19.98,-3.55 -39.97,-7.11 -59.95,-10.66 -19.54,-9.78 -39.09,-19.54 -58.63,-29.32 -18.65,-15.1 -37.3,-30.19 -55.96,-45.29 -21.76,-7.99 -43.52,-15.99 -65.28,-23.98 -35.97,-10.22 -71.95,-20.43 -107.92,-30.65 -22.2,-8.89 -44.42,-17.76 -66.62,-26.65 -21.76,-7.55 -43.53,-15.1 -65.29,-22.65 -22.49,-5.84 -44.98,-11.68 -67.48,-17.53 -18.66,-0.58 -37.31,-1.15 -55.98,-1.72 -24.69,-5.74 -49.37,-11.48 -74.06,-17.22 -12.35,-0.58 -24.68,-1.15 -37.03,-1.72 0,0 -85.25,-8.61 -91.28,-12.06 -6.03,-3.45 -85.26,-17.23 -85.26,-17.23 -25.55,-2.29 -51.1,-4.59 -76.64,-6.88 -24.69,-2.87 -49.37,-5.75 -74.06,-8.62 -31.29,-3.16 -62.57,-6.31 -93.86,-9.47 -26.13,-1.43 -52.24,-2.87 -78.37,-4.3 -19.52,0 -39.04,0 -58.56,0 -21.53,-0.87 -43.05,-1.72 -64.59,-2.59 -16.36,2.01 -32.73,4.02 -49.09,6.03 -12.35,0.29 -24.68,0.58 -37.03,0.87 -26.5,1.37 -52.98,2.76 -79.48,4.13 -41.62,2.24 -83.25,4.49 -124.87,6.73 -36.18,3.84 -72.37,7.69 -108.55,11.53 -31.38,5.76 -62.76,11.53 -94.14,17.29 -17.61,0 -35.22,0 -52.83,0 -34.9,5.44 -69.81,10.89 -104.71,16.33 -21.13,3.52 -42.27,7.04 -63.4,10.56 -16.01,2.88 -32.02,5.77 -48.03,8.65 -24.65,3.84 -49.31,7.69 -73.96,11.53 -18.25,5.12 -36.51,10.24 -54.76,15.36 -17.29,3.84 -34.58,7.69 -51.87,11.53 -15.37,5.44 -30.74,10.89 -46.11,16.33 -22.73,6.72 -45.47,13.45 -68.2,20.17 -14.41,4.8 -28.82,9.61 -43.23,14.41 -14.73,5.12 -29.45,10.25 -44.18,15.37 -12.81,4.8 -25.62,9.61 -38.43,14.41 -22.41,7.37 -44.83,14.73 -67.24,22.1 -8,5.44 -16.01,10.89 -24.01,16.33 -7.69,1.92 -15.37,3.84 -23.06,5.76 -15.05,7.36 -30.1,14.73 -45.15,22.09 -45.29,17.58 -90.6,35.15 -135.89,52.73 -24.22,17.51 -48.42,35.01 -72.64,52.52 -33.15,11.55 -66.3,23.09 -99.45,34.64 -42.47,22.35 -84.92,44.71 -127.39,67.05 -42.84,27.19 -85.67,54.39 -128.51,81.58 -28.31,23.83 -56.62,47.68 -84.93,71.51 -38.74,23.47 -77.48,46.94 -116.22,70.41 -57.73,38.37 -115.47,76.74 -173.21,115.1 -64.15,44.12 -128.31,88.24 -192.46,132.36 -93.91,38.61 -187.81,77.22 -281.72,115.83 -88.4,46.36 -176.79,92.7 -265.19,139.06 -106.72,58.21 -213.44,116.42 -320.16,174.63 -91.63,33.42 -183.26,66.84 -274.89,100.26 -120.74,32.34 -241.47,64.68 -362.21,97.02 -64.68,6.47 -129.36,12.93 -194.04,19.41 -35.57,16.16 -71.15,32.34 -106.72,48.5 -24.79,14.02 -49.59,28.02 -74.38,42.04 -38.81,2.16 -77.61,4.31 -116.42,6.47 -42.04,9.7 -84.08,19.41 -126.13,29.11 -35.57,12.93 -71.15,25.87 -106.72,38.8 -80.84,20.48 -161.7,40.97 -242.54,61.45 -57.13,19.41 -114.27,38.81 -171.4,58.22 -59.29,12.93 -118.58,25.87 -177.87,38.8 -97.02,7.55 -194.05,15.09 -291.07,22.64 -56.31,10.67 -112.63,21.36 -168.93,32.03 -56.35,8.37 -112.71,16.74 -169.06,25.11 -67.51,18.41 -135.01,36.82 -202.52,55.23 -37.39,10.04 -74.76,20.08 -112.15,30.12 -61.93,8.37 -123.86,16.74 -185.79,25.11 -51.33,8.37 -102.65,16.73 -153.99,25.1 -59.69,7.26 -119.4,14.5 -179.09,21.76 -84.81,15.06 -169.6,30.13 -254.41,45.19 -58.02,10.04 -116.05,20.09 -174.07,30.13 -91.5,12.27 -183,24.55 -274.5,36.82 -119.95,15.63 -239.91,31.25 -359.86,46.87 -112.48,9.49 -224.96,18.97 -337.44,28.46 -110.7,2.68 -221.38,5.36 -332.08,8.04 -62.97,1.07 -125.92,2.14 -188.89,3.21 -18.15,0.28 -36.29,0.57 -54.44,0.85 -19.82,-0.56 -39.64,-1.13 -59.46,-1.68 -22.89,-4.19 -45.79,-8.37 -68.68,-12.56 -13.96,5.86 -27.92,11.73 -41.88,17.59 -9.49,14.51 -18.98,29.04 -28.47,43.55 -9.78,-0.28 -19.54,-0.56 -29.32,-0.84 -17.59,-6.42 -35.18,-12.84 -52.77,-19.26 0,0 -41.87,-40.19 -45.22,-51.08 -3.35,-10.89 -13.41,-102.18 -13.41,-102.18 3.63,-44.95 7.26,-89.9 10.89,-134.85 3.35,-30.99 6.7,-61.97 10.05,-92.96 5.66,-13.38 11.3,-26.77 16.96,-40.14z"/>
   <path class="fil1 str0" d="M1771.24 10854.92l19.96 -124.76 31.61 -184.66 24.95 -216.26 36.6 -277.82 24.95 -287.8 13.2 -230.51 -3.34 -146.33 -4.47 -196.59 -6.71 -77.08 -68.13 -186.53 -85 -234.84 -80.56 -225.76 -53.97 -156.58 -67.8 -181.05 -79.77 -174.89 -118.63 -184.09 -116.59 -136.02 -121.66 -118.46 -146.16 -146.16 -37.89 -1.35 -55.48 -28.42 -52.78 -35.19 -21.36 -24.29 -33.3 -30.61 -40.06 -45 -29.71 -45.91 -82.2 -146.02 -83.99 -183.14 -72.98 -201.03 -88.12 -218.93 -106.05 -252.33 -80.4 -299.27 -40.21 -226.02c0,0 -22.33,-225.94 -22.33,-232.54 0,-6.6 -7.7,-257.29 -7.7,-257.29l-3.29 -303.47 1.09 -293.58 -10.77 -383.49 -1.98 -333.23 -23.33 -274.38 -19.27 -171.93 -20.58 -178.55 -19.93 -164.22 -8.15 -108.02 14.82 -20.76 5.94 -44.48 36.18 -61.1 28.47 -40.33 79.85 -63.9 66.81 -47.72 118.11 -69.2 127.65 -71.57 104.99 -70.39 177.34 -122.62 253.2 -147.7c387.28,-274.84 1037.34,-719.42 1290.1,-1039.92l138.66 -96.46 226.16 -124.42 -0.06 0.05c119.7,399.02 837.11,1443.95 1122.66,1796.53 186.76,230.61 355.97,416.5 475.96,559.81 123.94,148.04 250.97,338.3 267.31,338.4l661.22 3.99c0.93,-27.94 22.5,-98.61 26.68,-116.72 33.7,-145.72 106.43,-210.63 238.48,-442.49 228.7,-401.57 409.07,-752.5 586.29,-1121.09 125.34,-260.67 239.35,-533.42 344.14,-846.84 121.21,-362.55 187.35,-713.71 66.86,-894.28l186.23 3.8 182.44 49.4 163.42 53.21 140.63 60.82 235.64 72.2 283.65 66.67 348.41 75.59 557.65 106.3 390.22 78.04 348.9 68.87 213.47 39.02 119.37 34.43 41.99 21.13 45.48 55.06 17.96 64.64 10.78 90.98 -58.66 -32.32 -79.01 1.2c0,0 -8.37,75.4 -9.57,87.38 -1.2,11.97 -38.31,181.95 -37.11,191.53 1.2,9.58 -19.16,250.18 -19.16,250.18l-28.73 268.13 -4.02 338.22 9.34 373.49 28 280.11 18.67 258.32 37.79 391.64 39.51 424.79 -16.46 246.97 29.64 204.16 13.18 250.26 3.29 293.07 -1.17 266.19 0 225.13 0 152.97c0,0 -40.41,89.47 -51.95,112.56 -11.54,23.09 -40.41,112.56 -46.18,141.42 -5.77,28.86 -46.17,138.53 -46.17,164.52 0,25.98 -8.66,155.86 -8.66,155.86l25.97 98.13c0,0 14.44,57.72 20.21,75.04 5.77,17.32 25.97,69.27 25.97,92.36 0,23.09 2.89,95.24 2.89,95.24l2.88 138.53c0,0 34.64,75.04 40.41,92.36 5.77,17.32 5.77,54.83 14.43,72.15 8.66,17.32 23.09,121.22 23.09,121.22l14.43 115.45 28.86 202.04c0,0 43.75,280.74 43.75,310.59 0,29.84 26.87,173.11 26.87,173.11l5.97 244.75c0,0 14.93,226.83 14.93,268.63 0,41.79 11.94,211.93 11.94,211.93l29.84 217.88 5.98 173.12 14.92 256.68 -8.95 95.51 66.37 177.62 121.47 330.66 114.71 280.05 77.61 202.45 -30.58 69.54 -41 50.07 -51.92 64.14 -41.24 54.98 -25.2 40.47 -29.78 42.75 -12.98 21.39 -12.99 17.56 -33.6 13.74 -31.31 16.04 -52.68 27.49 -45.06 27.49 -45.05 23.67 -32.07 12.99 -22.15 5.35 -98.49 45.05 -29.78 13.75 -18.33 19.09 -59.12 8.97 -104.76 18.83 -137.72 18.84 -127.12 3.53 -147.13 3.53 -109.47 1.18 -143.6 2.35 -155.38 0 -175.37 -16.48 -107.11 -15.3 -108.29 -27.08 -74.15 -21.18 -69.45 -12.95 -95.35 -34.14 -62.39 -34.14 -89.45 -71.8 -88.29 -75.33 -94.16 -103.58 -80.04 -96.51 -71.4 -75.85 -45.77 -60.57 -43.07 -59.23 -26.25 -41.05 -56.53 -51.82 -59.9 -28.94 -46.44 -16.83 -82.1 -20.86 -61.25 -25.58 -78.74 -50.48 -82.11 -59.9 -59.9 -45.77 -32.31 -28.26 -32.98 -36.34 -51.82 -45.77 -53.84 -49.8 -31.64 -18.84 -41.05 -16.15 -28.94 -12.12 -49.13 -4.04 -41.05 6.06 -33.65 16.83 -22.21 20.86 -26.25 27.6 -20.86 29.6 -14.13 48.46 2.69 65.96c0,0 10.08,55.17 12.11,59.22 2.02,4.05 18.85,56.53 18.85,56.53l-65.96 -39.71 -90.86 -51.15 -244.64 -99.76 -433.83 -136.93 -322.08 -71.21 -236.64 -21.9 -202.67 -1.1 -185.15 4.39 -177.47 13.15 -152.28 18.62 -164.33 42.72 -121.08 33.98 -155.58 54.78 -32.87 -17.53 -44.92 -5.48 -53.68 0 -30.68 3.29 -59.16 26.29 -30.68 27.4 -28.49 19.72 -62.45 58.06 -127.08 88.74 -79.98 37.25 -166.21 106.98 -173.76 128.18 -153.91 143.33 -181.96 186.3 -58.5 77.98c0,0 -45.49,51.99 -75.82,75.82 -30.33,23.82 -125.63,77.98 -125.63,77.98l-136.47 54.15 -129.98 30.33 -88.81 10.83 -88.81 21.67 -154.27 41.76z"/>
  </g>
  <g id="_2543960476480">
   <g>
    <g>
     <path class="fil1" d="M9394.38 4675.4c-1.66,-0.99 -7.12,-9.89 -8.69,-12.53 -2.61,-4.43 -4.89,-9.27 -6.86,-14.35 -26.78,-68.89 22.05,-148.2 99.5,-152.39 60.76,-3.28 110.76,43.14 112.31,103.77 0.33,12.78 -1.58,25.43 -5.14,36.59 -3.27,10.25 -8.26,20.69 -13.56,28.38 -6.74,9.78 -11.17,14.44 -19.27,23.07 -27.1,28.85 -54.5,59.02 -81.51,88.22 -2.5,2.69 -19.17,21.24 -20.45,21.82 -0.81,-1.22 -2.62,-3.09 -4.33,-5.59 -1.48,-2.18 -2.41,-3.96 -3.51,-6.28 -7.24,-15.06 -4.57,-33.46 4.05,-46.32l76.29 -83.21c6.24,-6.72 12.14,-12.51 17.05,-22.54 21.96,-44.91 -9.95,-97.1 -60.82,-94.45 -38.09,1.99 -64.7,33.95 -64.53,68.47 0.03,6.73 1.1,13.52 2.97,19.42 2.26,7.11 6.7,14.73 6.88,15.16l-30.37 32.75z"/>
     <path class="fil1" d="M9571.45 4695.19c1.67,0.99 7.12,9.89 8.69,12.53 2.62,4.43 4.9,9.28 6.87,14.35 26.78,68.9 -22.06,148.2 -99.51,152.39 -60.76,3.28 -110.76,-43.14 -112.31,-103.77 -0.32,-12.78 1.58,-25.43 5.14,-36.59 3.27,-10.25 8.27,-20.69 13.56,-28.37 6.74,-9.79 11.17,-14.45 19.27,-23.08 27.1,-28.85 54.5,-59.02 81.52,-88.21 2.49,-2.69 19.16,-21.25 20.44,-21.83 0.82,1.22 2.62,3.09 4.33,5.59 1.48,2.18 2.41,3.96 3.52,6.28 7.23,15.06 4.56,33.47 -4.06,46.32l-76.29 83.22c-6.24,6.71 -12.14,12.5 -17.05,22.53 -21.96,44.91 9.95,97.1 60.82,94.45 38.09,-1.99 64.71,-33.94 64.54,-68.47 -0.04,-6.73 -1.11,-13.52 -2.98,-19.41 -2.26,-7.12 -6.69,-14.74 -6.87,-15.17l30.36 -32.75z"/>
    </g>
    <g>
     <path class="fil1" d="M9362.02 6281.43c-1.61,-1.58 -8.27,-12.61 -10.21,-15.89 -3.24,-5.46 -6.3,-11.25 -9.17,-17.18 -38.94,-80.42 -18.48,-146.84 43.96,-125.8 48.98,16.53 101.41,81.19 117.62,144.75 3.42,13.4 4.98,25.92 4.81,36.35 -0.15,9.59 -1.67,18.81 -4.12,25.05 -3.12,7.96 -5.59,11.35 -10.11,17.67 -15.09,21.11 -30.11,43.49 -45.05,64.98 -1.38,1.98 -10.47,15.81 -11.38,15.99 -0.96,-1.53 -2.91,-4.07 -4.92,-7.24 -1.74,-2.75 -2.95,-4.91 -4.43,-7.68 -9.64,-18.03 -11.99,-36.29 -8.09,-46.82l41.99 -61.5c3.47,-4.93 6.87,-9.01 8.41,-17.84 6.93,-39.49 -32.09,-104.23 -73.12,-118.16 -30.72,-10.43 -44.65,14.06 -36,50.01 1.68,7.01 4.24,14.42 7.23,21.16 3.6,8.14 9.11,17.52 9.37,18.02l-16.8 24.1z"/>
     <path class="fil1" d="M9512.02 6360.09c1.61,1.58 8.27,12.62 10.21,15.89 3.23,5.46 6.3,11.25 9.17,17.18 38.94,80.42 18.48,146.85 -43.96,125.8 -48.98,-16.52 -101.41,-81.19 -117.62,-144.75 -3.42,-13.39 -4.98,-25.92 -4.81,-36.35 0.15,-9.59 1.67,-18.8 4.12,-25.05 3.12,-7.95 5.58,-11.35 10.11,-17.67 15.08,-21.11 30.11,-43.49 45.05,-64.98 1.38,-1.98 10.47,-15.81 11.38,-15.99 0.96,1.54 2.91,4.08 4.92,7.24 1.74,2.75 2.95,4.91 4.43,7.68 9.64,18.03 11.99,36.3 8.09,46.82l-41.99 61.5c-3.47,4.93 -6.87,9.01 -8.42,17.85 -6.92,39.48 32.1,104.22 73.13,118.15 30.72,10.44 44.65,-14.06 36,-50.01 -1.68,-7 -4.24,-14.42 -7.23,-21.16 -3.6,-8.14 -9.12,-17.52 -9.37,-18.02l16.8 -24.1z"/>
    </g>
    <g>
     <path class="fil1" d="M9358.16 5736.85c-1.15,-1.8 -3.09,-13.12 -3.61,-16.46 -0.88,-5.57 -1.33,-11.4 -1.45,-17.27 -1.51,-79.76 66.31,-130.83 135.29,-95.24 54.11,27.93 83.04,98.02 65.14,156.96 -3.78,12.42 -9.46,23.58 -16.1,32.45 -6.11,8.16 -13.79,15.62 -20.85,20.27 -9,5.92 -14.35,8.13 -24.16,12.27 -32.82,13.8 -66.34,28.73 -99.22,42.9 -3.02,1.31 -23.48,10.58 -24.77,10.48 -0.33,-1.58 -1.32,-4.3 -2.01,-7.58 -0.6,-2.84 -0.84,-5.03 -1.07,-7.81 -1.54,-18.15 6.64,-34.43 18.24,-42.34l93.05 -40.78c7.6,-3.24 14.57,-5.78 22.05,-12.89 33.44,-31.83 22.14,-98.21 -23.13,-121.68 -33.9,-17.57 -67.29,-0.54 -78.11,32.65 -2.11,6.47 -3.32,13.53 -3.56,20.14 -0.29,7.98 1.17,17.56 1.2,18.06l-36.92 15.88z"/>
     <path class="fil1" d="M9506.54 5846.39c1.14,1.81 3.08,13.13 3.6,16.46 0.89,5.58 1.34,11.4 1.45,17.28 1.52,79.76 -66.31,130.83 -135.28,95.23 -54.11,-27.92 -83.05,-98.01 -65.14,-156.95 3.77,-12.42 9.44,-23.58 16.1,-32.45 6.11,-8.16 13.78,-15.62 20.85,-20.27 8.99,-5.92 14.34,-8.14 24.16,-12.27 32.82,-13.81 66.34,-28.73 99.21,-42.91 3.03,-1.3 23.48,-10.58 24.78,-10.47 0.33,1.58 1.31,4.3 2,7.58 0.6,2.84 0.85,5.03 1.08,7.81 1.53,18.15 -6.64,34.43 -18.25,42.34l-93.05 40.78c-7.59,3.24 -14.57,5.77 -22.05,12.89 -33.43,31.83 -22.14,98.21 23.13,121.67 33.9,17.58 67.3,0.55 78.11,-32.64 2.12,-6.47 3.32,-13.53 3.56,-20.14 0.29,-7.98 -1.17,-17.56 -1.19,-18.06l36.92 -15.89z"/>
    </g>
    <g>
     <path class="fil1" d="M9417.83 5229.93c-1.6,-1.13 -6.34,-10.39 -7.7,-13.15 -2.26,-4.6 -4.16,-9.6 -5.73,-14.79 -21.27,-70.54 33.98,-145.24 111.86,-143.07 61.1,1.7 107.43,51.85 104.11,112.13 -0.7,12.71 -3.62,25.1 -8.08,35.88 -4.1,9.91 -9.93,19.86 -15.85,27.04 -7.54,9.16 -12.35,13.42 -21.15,21.33 -29.44,26.4 -59.31,54.11 -88.7,80.87 -2.71,2.47 -20.89,19.52 -22.22,19.98 -0.71,-1.28 -2.37,-3.28 -3.88,-5.9 -1.3,-2.28 -2.1,-4.13 -3.01,-6.51 -6.03,-15.53 -1.89,-33.59 7.77,-45.62l83.06 -76.33c6.8,-6.15 13.16,-11.42 18.88,-20.97 25.59,-42.76 -2.17,-97.15 -53.3,-98.67 -38.3,-1.15 -67.51,28.39 -70.12,62.66 -0.51,6.68 0.03,13.5 1.42,19.5 1.69,7.25 5.52,15.17 5.68,15.61l-33.03 30.03z"/>
     <path class="fil1" d="M9593.52 5264.03c1.59,1.13 6.34,10.39 7.69,13.15 2.27,4.6 4.16,9.6 5.73,14.79 21.28,70.54 -33.97,145.24 -111.85,143.07 -61.1,-1.7 -107.43,-51.85 -104.11,-112.13 0.69,-12.71 3.61,-25.1 8.08,-35.89 4.1,-9.9 9.93,-19.85 15.85,-27.03 7.54,-9.16 12.34,-13.42 21.15,-21.33 29.44,-26.4 59.3,-54.11 88.7,-80.87 2.71,-2.47 20.89,-19.52 22.21,-19.98 0.72,1.28 2.38,3.28 3.88,5.9 1.31,2.28 2.1,4.13 3.02,6.51 6.03,15.53 1.88,33.59 -7.78,45.62l-83.05 76.33c-6.8,6.15 -13.17,11.42 -18.89,20.97 -25.59,42.76 2.17,97.15 53.31,98.67 38.3,1.15 67.51,-28.39 70.11,-62.66 0.52,-6.68 -0.02,-13.5 -1.42,-19.5 -1.68,-7.25 -5.51,-15.17 -5.67,-15.61l33.03 -30.03z"/>
    </g>
    <g>
     <path class="fil1" d="M9354.86 4110.75c-1.6,-1.08 -6.51,-10.3 -7.92,-13.04 -2.35,-4.57 -4.34,-9.56 -6.01,-14.75 -22.62,-70.43 30.78,-146.76 108.26,-146.35 60.79,0.33 107.9,49.68 105.84,110.37 -0.43,12.79 -3.08,25.31 -7.29,36.25 -3.87,10.04 -9.48,20.18 -15.21,27.54 -7.3,9.37 -11.99,13.77 -20.58,21.91 -28.73,27.22 -57.86,55.74 -86.53,83.31 -2.64,2.54 -20.37,20.1 -21.68,20.59 -0.73,-1.26 -2.44,-3.24 -3.98,-5.84 -1.34,-2.26 -2.17,-4.11 -3.13,-6.48 -6.32,-15.48 -2.57,-33.71 6.78,-46.04l81.02 -78.62c6.63,-6.34 12.85,-11.77 18.34,-21.5 24.56,-43.57 -4.17,-97.62 -55.05,-97.99 -38.11,-0.28 -66.55,30.07 -68.43,64.58 -0.36,6.73 0.31,13.57 1.82,19.57 1.84,7.25 5.8,15.13 5.97,15.57l-32.23 30.93z"/>
     <path class="fil1" d="M9530.27 4141.05c1.61,1.08 6.51,10.3 7.93,13.04 2.34,4.57 4.34,9.56 6,14.75 22.62,70.43 -30.78,146.76 -108.26,146.35 -60.79,-0.33 -107.9,-49.68 -105.84,-110.37 0.43,-12.79 3.09,-25.31 7.3,-36.25 3.87,-10.04 9.47,-20.18 15.2,-27.54 7.31,-9.37 11.99,-13.77 20.59,-21.91 28.73,-27.22 57.85,-55.74 86.52,-83.31 2.64,-2.54 20.37,-20.1 21.68,-20.59 0.74,1.26 2.44,3.24 3.98,5.84 1.34,2.26 2.17,4.11 3.14,6.48 6.32,15.48 2.57,33.71 -6.79,46.04l-81.01 78.62c-6.64,6.34 -12.85,11.77 -18.34,21.5 -24.56,43.57 4.16,97.62 55.05,97.99 38.1,0.28 66.54,-30.07 68.42,-64.58 0.37,-6.73 -0.3,-13.57 -1.82,-19.57 -1.83,-7.25 -5.8,-15.13 -5.96,-15.57l32.22 -30.93z"/>
    </g>
    <g>
     <path class="fil1" d="M9286.65 3546.24c-1.67,-1 -7.11,-9.91 -8.67,-12.56 -2.61,-4.43 -4.89,-9.28 -6.85,-14.37 -26.69,-68.98 22.15,-148.31 99.52,-152.43 60.71,-3.23 110.62,43.29 112.12,103.99 0.31,12.79 -1.6,25.45 -5.16,36.62 -3.28,10.25 -8.28,20.7 -13.57,28.39 -6.75,9.78 -11.17,14.44 -19.27,23.07 -27.1,28.85 -54.5,59.03 -81.51,88.22 -2.49,2.69 -19.16,21.25 -20.44,21.83 -0.81,-1.22 -2.61,-3.1 -4.31,-5.6 -1.48,-2.18 -2.41,-3.97 -3.51,-6.29 -7.2,-15.09 -4.53,-33.51 4.09,-46.36l76.28 -83.22c6.24,-6.72 12.14,-12.5 17.05,-22.54 21.97,-44.93 -9.87,-97.2 -60.68,-94.6 -38.05,1.95 -64.67,33.91 -64.52,68.47 0.02,6.73 1.09,13.53 2.96,19.44 2.24,7.12 6.67,14.76 6.85,15.18l-30.36 32.76z"/>
     <path class="fil1" d="M9463.52 3566.23c1.67,0.99 7.11,9.9 8.67,12.55 2.61,4.43 4.89,9.29 6.85,14.37 26.69,68.99 -22.14,148.32 -99.52,152.43 -60.71,3.23 -110.62,-43.29 -112.11,-103.99 -0.32,-12.79 1.59,-25.44 5.16,-36.61 3.27,-10.26 8.27,-20.7 13.56,-28.39 6.75,-9.79 11.18,-14.45 19.28,-23.08 27.09,-28.85 54.49,-59.02 81.5,-88.22 2.49,-2.69 19.16,-21.25 20.44,-21.82 0.82,1.22 2.62,3.1 4.31,5.6 1.48,2.18 2.41,3.96 3.51,6.28 7.22,15.09 4.53,33.52 -4.09,46.36l-76.27 83.22c-6.26,6.72 -12.15,12.51 -17.06,22.55 -21.97,44.92 9.87,97.2 60.68,94.59 38.06,-1.95 64.67,-33.91 64.53,-68.46 -0.03,-6.74 -1.1,-13.54 -2.96,-19.44 -2.25,-7.13 -6.68,-14.76 -6.86,-15.19l30.36 -32.75z"/>
    </g>
    <g>
     <path class="fil1" d="M9230.87 2954.99c-1.62,-1.06 -6.69,-10.2 -8.13,-12.91 -2.43,-4.54 -4.49,-9.5 -6.24,-14.66 -23.79,-70.12 28.23,-147.43 105.63,-148.32 60.72,-0.7 108.61,47.92 107.6,108.68 -0.22,12.81 -2.65,25.39 -6.67,36.42 -3.7,10.12 -9.11,20.36 -14.72,27.82 -7.13,9.51 -11.75,13.99 -20.19,22.29 -28.23,27.73 -56.83,56.77 -85,84.85 -2.59,2.59 -19.99,20.46 -21.29,20.97 -0.76,-1.25 -2.49,-3.2 -4.08,-5.78 -1.38,-2.24 -2.23,-4.08 -3.24,-6.43 -6.58,-15.4 -3.14,-33.71 6,-46.2l79.56 -80.06c6.51,-6.46 12.63,-11.99 17.96,-21.84 23.78,-44.02 -5.83,-97.64 -56.66,-97.15 -38.06,0.37 -65.94,31.22 -67.23,65.79 -0.26,6.74 0.54,13.58 2.15,19.56 1.95,7.23 6.05,15.04 6.22,15.48l-31.66 31.49z"/>
     <path class="fil1" d="M9406.57 2982.35c1.62,1.07 6.68,10.21 8.13,12.92 2.43,4.54 4.49,9.5 6.24,14.66 23.79,70.12 -28.24,147.43 -105.63,148.32 -60.72,0.69 -108.61,-47.92 -107.6,-108.68 0.22,-12.81 2.65,-25.39 6.67,-36.42 3.7,-10.13 9.11,-20.36 14.72,-27.83 7.13,-9.5 11.75,-13.98 20.19,-22.28 28.23,-27.73 56.82,-56.77 84.99,-84.85 2.6,-2.59 20,-20.46 21.31,-20.97 0.76,1.25 2.49,3.2 4.08,5.78 1.38,2.24 2.23,4.08 3.24,6.43 6.58,15.39 3.14,33.71 -6,46.2l-79.56 80.06c-6.52,6.45 -12.64,11.99 -17.96,21.83 -23.78,44.02 5.83,97.65 56.65,97.15 38.07,-0.36 65.95,-31.21 67.24,-65.78 0.26,-6.74 -0.54,-13.58 -2.15,-19.57 -1.95,-7.22 -6.06,-15.04 -6.22,-15.47l31.66 -31.5z"/>
    </g>
    <g>
     <path class="fil1" d="M9201.91 2338.42c-1.63,-1.04 -6.82,-10.14 -8.32,-12.83 -2.49,-4.52 -4.63,-9.46 -6.46,-14.61 -24.87,-69.95 25.75,-148.24 102.9,-150.27 60.53,-1.6 109.09,46.43 109.05,107.37 0,12.85 -2.22,25.5 -6.05,36.61 -3.52,10.2 -8.75,20.54 -14.22,28.12 -6.96,9.63 -11.48,14.19 -19.77,22.64 -27.69,28.22 -55.74,57.76 -83.37,86.32 -2.55,2.63 -19.6,20.81 -20.89,21.35 -0.78,-1.24 -2.53,-3.17 -4.16,-5.73 -1.41,-2.23 -2.29,-4.06 -3.33,-6.41 -6.81,-15.33 -3.69,-33.74 5.22,-46.41l78.04 -81.44c6.39,-6.58 12.4,-12.22 17.54,-22.16 23,-44.5 -7.4,-97.81 -58.06,-96.57 -37.94,0.93 -65.25,32.29 -65.97,66.96 -0.14,6.76 0.75,13.62 2.46,19.58 2.06,7.22 6.29,15 6.45,15.43l-31.05 32.05z"/>
     <path class="fil1" d="M9377.56 2363.25c1.64,1.04 6.83,10.13 8.33,12.83 2.49,4.52 4.63,9.46 6.46,14.61 24.87,69.95 -25.75,148.24 -102.9,150.27 -60.53,1.6 -109.09,-46.43 -109.05,-107.37 0,-12.85 2.22,-25.51 6.05,-36.61 3.52,-10.21 8.75,-20.55 14.22,-28.12 6.96,-9.63 11.48,-14.19 19.77,-22.64 27.69,-28.22 55.74,-57.76 83.37,-86.32 2.55,-2.64 19.6,-20.81 20.89,-21.36 0.77,1.25 2.53,3.18 4.16,5.74 1.41,2.23 2.29,4.06 3.33,6.4 6.81,15.34 3.69,33.75 -5.22,46.41l-78.04 81.45c-6.39,6.58 -12.4,12.21 -17.54,22.16 -23,44.49 7.39,97.81 58.06,96.57 37.94,-0.94 65.25,-32.29 65.97,-66.96 0.14,-6.76 -0.75,-13.62 -2.46,-19.58 -2.06,-7.22 -6.29,-15 -6.45,-15.43l31.04 -32.05z"/>
    </g>
    <g>
     <path class="fil1" d="M9191.95 1701.36c-1.58,-1.13 -6.3,-10.47 -7.65,-13.24 -2.26,-4.65 -4.14,-9.68 -5.71,-14.92 -21.23,-71.14 33.35,-146.72 110.51,-144.78 60.53,1.52 106.55,51.99 103.38,112.85 -0.66,12.83 -3.53,25.35 -7.93,36.25 -4.04,10 -9.8,20.07 -15.65,27.34 -7.45,9.26 -12.2,13.58 -20.91,21.58 -29.11,26.77 -58.64,54.82 -87.7,81.93 -2.68,2.5 -20.65,19.77 -21.97,20.24 -0.72,-1.28 -2.37,-3.3 -3.86,-5.95 -1.3,-2.29 -2.09,-4.16 -3,-6.56 -6.01,-15.66 -1.94,-33.89 7.61,-46.07l82.12 -77.32c6.72,-6.23 13.02,-11.57 18.66,-21.23 25.26,-43.25 -2.35,-98.06 -53.03,-99.43 -37.93,-1.02 -66.82,28.88 -69.32,63.47 -0.49,6.75 0.05,13.64 1.46,19.68 1.68,7.31 5.49,15.3 5.65,15.74l-32.66 30.41z"/>
     <path class="fil1" d="M9366.09 1735.21c1.58,1.13 6.3,10.47 7.65,13.24 2.25,4.65 4.14,9.68 5.71,14.92 21.22,71.14 -33.35,146.72 -110.51,144.78 -60.53,-1.52 -106.55,-51.99 -103.39,-112.85 0.67,-12.83 3.54,-25.35 7.94,-36.25 4.04,-10 9.8,-20.07 15.65,-27.34 7.44,-9.26 12.2,-13.58 20.9,-21.58 29.11,-26.76 58.64,-54.82 87.71,-81.93 2.68,-2.5 20.65,-19.77 21.97,-20.24 0.71,1.28 2.36,3.3 3.86,5.95 1.3,2.29 2.09,4.16 3,6.56 6.01,15.66 1.94,33.89 -7.61,46.08l-82.12 77.31c-6.72,6.23 -13.02,11.57 -18.66,21.23 -25.26,43.25 2.35,98.07 53.01,99.43 37.94,1.02 66.83,-28.88 69.33,-63.47 0.49,-6.75 -0.06,-13.64 -1.46,-19.68 -1.68,-7.31 -5.5,-15.3 -5.65,-15.74l32.66 -30.41z"/>
    </g>
    <g>
     <path class="fil1" d="M9268.36 1110.34c-1.45,-1.3 -5.09,-11.14 -6.12,-14.06 -1.72,-4.87 -3.05,-10.1 -4.02,-15.49 -13.18,-73.25 49.29,-142.43 125.57,-131.87 59.84,8.28 99.88,63.7 90.01,123.98 -2.07,12.71 -6.3,24.86 -11.87,35.22 -5.11,9.53 -11.93,18.9 -18.54,25.5 -8.4,8.39 -13.59,12.17 -23.11,19.17 -31.82,23.4 -64.19,48.05 -96.01,71.81 -2.93,2.19 -22.66,17.38 -24.02,17.7 -0.57,-1.35 -1.98,-3.55 -3.17,-6.35 -1.03,-2.44 -1.6,-4.39 -2.25,-6.87 -4.22,-16.28 1.83,-33.98 12.63,-45.06l89.97 -67.85c7.36,-5.45 14.18,-10.05 20.85,-19.05 29.82,-40.27 8.52,-97.96 -41.57,-104.99 -37.5,-5.26 -69.44,21.29 -75.75,55.48 -1.23,6.66 -1.45,13.58 -0.73,19.77 0.87,7.47 3.76,15.85 3.86,16.31l-35.74 26.65z"/>
     <path class="fil1" d="M9437.24 1163.52c1.45,1.3 5.09,11.14 6.12,14.06 1.72,4.87 3.05,10.1 4.02,15.49 13.18,73.25 -49.29,142.43 -125.57,131.87 -59.84,-8.28 -99.88,-63.7 -90.01,-123.98 2.07,-12.71 6.3,-24.86 11.87,-35.22 5.11,-9.53 11.93,-18.9 18.54,-25.5 8.4,-8.39 13.59,-12.17 23.11,-19.17 31.82,-23.4 64.19,-48.05 96.01,-71.81 2.93,-2.19 22.66,-17.38 24.02,-17.7 0.57,1.35 1.98,3.55 3.17,6.35 1.03,2.44 1.6,4.38 2.25,6.87 4.22,16.28 -1.83,33.98 -12.63,45.06l-89.97 67.85c-7.36,5.45 -14.18,10.05 -20.85,19.05 -29.82,40.27 -8.52,97.96 41.57,104.99 37.5,5.26 69.44,-21.29 75.75,-55.48 1.23,-6.66 1.45,-13.58 0.73,-19.77 -0.87,-7.47 -3.76,-15.85 -3.86,-16.31l35.74 -26.65z"/>
    </g>
   </g>
   <g>
    <g>
     <path class="fil1" d="M632.56 6331.61c1.26,-1.28 3.66,-11.06 4.33,-13.96 1.11,-4.84 1.79,-10.05 2.1,-15.43 4.26,-73.09 -64.84,-143.71 -138.08,-134.73 -57.44,7.04 -90.03,61.72 -73.32,122.31 3.52,12.77 9.08,25.03 15.73,35.53 6.11,9.64 13.87,19.18 21.09,25.93 9.2,8.58 14.71,12.47 24.82,19.68 33.81,24.1 68.31,49.47 102.16,73.94 3.13,2.25 24.17,17.89 25.53,18.24 0.39,-1.34 1.52,-3.52 2.35,-6.3 0.72,-2.42 1.05,-4.36 1.39,-6.84 2.21,-16.22 -5.78,-34.07 -17.63,-45.39l-95.81 -69.85c-7.81,-5.62 -15.03,-10.37 -22.59,-19.53 -33.85,-40.95 -19.82,-98.3 28.25,-104.29 35.99,-4.49 70.29,22.78 80.47,57.15 1.98,6.7 3.01,13.65 3.03,19.83 0.04,7.46 -1.81,15.79 -1.85,16.25l38.02 27.45z"/>
     <path class="fil1" d="M473.91 6381.35c-1.25,1.27 -3.65,11.04 -4.33,13.95 -1.1,4.85 -1.78,10.06 -2.09,15.44 -4.27,73.09 64.84,143.71 138.07,134.73 57.45,-7.04 90.03,-61.72 73.32,-122.31 -3.52,-12.77 -9.07,-25.03 -15.72,-35.53 -6.11,-9.64 -13.87,-19.18 -21.1,-25.93 -9.19,-8.58 -14.7,-12.47 -24.81,-19.68 -33.82,-24.1 -68.31,-49.47 -102.17,-73.94 -3.12,-2.25 -24.16,-17.89 -25.53,-18.24 -0.39,1.34 -1.51,3.51 -2.34,6.3 -0.72,2.42 -1.05,4.36 -1.39,6.83 -2.21,16.23 5.78,34.08 17.63,45.4l95.8 69.85c7.82,5.62 15.03,10.37 22.6,19.53 33.85,40.95 19.82,98.3 -28.25,104.29 -35.99,4.49 -70.29,-22.78 -80.47,-57.16 -1.98,-6.7 -3.01,-13.64 -3.05,-19.82 -0.03,-7.46 1.82,-15.79 1.86,-16.26l-38.03 -27.44z"/>
    </g>
    <g>
     <path class="fil1" d="M991.03 7157.16c0.44,-1.48 -1.69,-10.62 -2.36,-13.32 -1.13,-4.51 -2.74,-9.2 -4.7,-13.92 -26.53,-64.19 -108.28,-103.86 -160.75,-73.79 -41.17,23.6 -43.85,80.58 -6.34,127.61 7.91,9.91 17.17,18.77 26.54,25.77 8.62,6.43 18.46,12.27 26.73,15.87 10.55,4.58 16.36,6.26 27.05,9.37 35.74,10.43 72.53,21.72 108.45,32.44 3.31,0.99 25.82,8.02 27,7.91 -0.25,-1.28 -0.27,-3.49 -0.76,-6.13 -0.43,-2.3 -0.97,-4.07 -1.72,-6.32 -4.92,-14.63 -18.32,-27.55 -32.02,-33.67l-101.9 -30.86c-8.29,-2.46 -15.75,-4.35 -25.28,-9.92 -42.64,-24.91 -55.27,-78.53 -20.86,-98.35 25.75,-14.84 63.16,-1.84 84.98,24.63 4.24,5.16 7.87,10.82 10.4,16.12 3.07,6.42 5.06,14.15 5.2,14.55l40.33 12z"/>
     <path class="fil1" d="M889.71 7248.37c-0.44,1.48 1.7,10.62 2.37,13.32 1.13,4.51 2.74,9.2 4.69,13.92 26.53,64.19 108.29,103.86 160.76,73.79 41.17,-23.6 43.84,-80.58 6.34,-127.61 -7.91,-9.91 -17.17,-18.77 -26.54,-25.77 -8.62,-6.43 -18.46,-12.26 -26.74,-15.87 -10.54,-4.58 -16.35,-6.24 -27.04,-9.36 -35.75,-10.43 -72.53,-21.73 -108.45,-32.45 -3.31,-0.98 -25.82,-8.02 -27,-7.91 0.25,1.28 0.27,3.49 0.76,6.13 0.43,2.3 0.97,4.07 1.72,6.32 4.91,14.63 18.32,27.56 32.02,33.67l101.9 30.87c8.29,2.45 15.75,4.34 25.28,9.91 42.64,24.91 55.27,78.53 20.86,98.35 -25.75,14.84 -63.17,1.85 -84.98,-24.63 -4.25,-5.16 -7.87,-10.82 -10.4,-16.12 -3.08,-6.41 -5.06,-14.14 -5.21,-14.55l-40.33 -12z"/>
    </g>
    <g>
     <path class="fil1" d="M797.23 6808.91c1.25,-1.28 3.48,-10.95 4.1,-13.82 1.02,-4.8 1.59,-9.94 1.8,-15.26 2.81,-72.07 -68.8,-140.23 -142.93,-129.91 -58.16,8.09 -90.08,62.59 -71.86,121.94 3.84,12.51 9.73,24.47 16.7,34.68 6.4,9.37 14.48,18.61 21.95,25.1 9.52,8.28 15.18,11.99 25.6,18.89 34.82,23.07 70.37,47.36 105.22,70.77 3.22,2.17 24.9,17.13 26.29,17.45 0.37,-1.33 1.47,-3.49 2.25,-6.24 0.68,-2.39 0.98,-4.31 1.27,-6.76 1.91,-16.02 -6.58,-33.45 -18.84,-44.35l-98.68 -66.87c-8.05,-5.38 -15.47,-9.92 -23.34,-18.79 -35.2,-39.66 -22.16,-96.42 26.5,-103.28 36.44,-5.15 71.82,21.03 82.87,54.68 2.15,6.56 3.33,13.38 3.5,19.46 0.19,7.36 -1.51,15.6 -1.55,16.05l39.16 26.26z"/>
     <path class="fil1" d="M637.26 6861.1c-1.25,1.28 -3.49,10.95 -4.1,13.82 -1.02,4.79 -1.6,9.94 -1.81,15.25 -2.8,72.08 68.81,140.24 142.94,129.92 58.16,-8.09 90.08,-62.6 71.86,-121.94 -3.85,-12.51 -9.73,-24.47 -16.7,-34.68 -6.4,-9.37 -14.48,-18.61 -21.96,-25.11 -9.51,-8.27 -15.18,-11.98 -25.6,-18.89 -34.82,-23.06 -70.36,-47.35 -105.22,-70.76 -3.21,-2.17 -24.9,-17.15 -26.28,-17.45 -0.37,1.33 -1.47,3.49 -2.25,6.24 -0.69,2.39 -0.98,4.3 -1.27,6.76 -1.91,16.02 6.56,33.45 18.84,44.35l98.68 66.87c8.05,5.38 15.46,9.92 23.34,18.79 35.2,39.65 22.15,96.42 -26.51,103.28 -36.43,5.14 -71.81,-21.03 -82.86,-54.68 -2.15,-6.56 -3.34,-13.38 -3.5,-19.46 -0.19,-7.36 1.51,-15.61 1.55,-16.05l-39.16 -26.26z"/>
    </g>
    <g>
     <path class="fil1" d="M382.55 3000.28c1.45,-1.23 5.15,-10.77 6.19,-13.59 1.75,-4.73 3.11,-9.83 4.12,-15.09 13.71,-71.51 -47.68,-141.7 -123.47,-134.02 -59.46,6.03 -99.66,59.07 -90.4,118.65 1.96,12.56 6.05,24.65 11.48,35.03 4.99,9.54 11.68,18.99 18.18,25.7 8.27,8.55 13.39,12.45 22.77,19.65 31.38,24.12 63.3,49.5 94.65,73.96 2.89,2.26 22.34,17.89 23.68,18.25 0.58,-1.31 1.99,-3.42 3.2,-6.12 1.05,-2.36 1.63,-4.25 2.29,-6.68 4.34,-15.85 -1.52,-33.46 -12.15,-44.72l-88.69 -69.86c-7.25,-5.62 -13.99,-10.38 -20.53,-19.47 -29.24,-40.62 -7.6,-96.55 42.17,-101.69 37.26,-3.84 68.73,23.39 74.69,57.21 1.17,6.59 1.32,13.4 0.56,19.45 -0.92,7.31 -3.87,15.44 -3.97,15.9l35.24 27.45z"/>
     <path class="fil1" d="M214.49 3046.57c-1.43,1.22 -5.14,10.76 -6.19,13.58 -1.75,4.73 -3.1,9.83 -4.11,15.09 -13.72,71.51 47.68,141.7 123.46,134.02 59.46,-6.03 99.67,-59.07 90.4,-118.65 -1.95,-12.55 -6.04,-24.65 -11.48,-35.03 -4.99,-9.54 -11.67,-18.99 -18.18,-25.7 -8.27,-8.55 -13.39,-12.44 -22.77,-19.65 -31.37,-24.12 -63.29,-49.5 -94.65,-73.96 -2.89,-2.26 -22.34,-17.89 -23.68,-18.25 -0.57,1.31 -1.99,3.42 -3.2,6.13 -1.04,2.35 -1.63,4.24 -2.29,6.67 -4.34,15.85 1.52,33.46 12.15,44.73l88.7 69.85c7.25,5.63 13.99,10.38 20.52,19.47 29.24,40.62 7.6,96.55 -42.17,101.69 -37.26,3.85 -68.73,-23.38 -74.69,-57.2 -1.16,-6.6 -1.32,-13.41 -0.56,-19.46 0.92,-7.31 3.87,-15.44 3.97,-15.89l-35.24 -27.45z"/>
    </g>
    <g>
     <path class="fil1" d="M413.88 3558.15c1.45,-1.23 5.15,-10.77 6.19,-13.59 1.75,-4.73 3.11,-9.83 4.12,-15.09 13.71,-71.51 -47.68,-141.7 -123.47,-134.02 -59.46,6.03 -99.66,59.07 -90.4,118.65 1.96,12.56 6.05,24.65 11.48,35.03 4.99,9.54 11.68,18.99 18.18,25.7 8.27,8.55 13.39,12.45 22.77,19.65 31.38,24.12 63.3,49.5 94.65,73.96 2.89,2.26 22.34,17.89 23.68,18.25 0.58,-1.31 1.99,-3.42 3.2,-6.12 1.05,-2.36 1.63,-4.25 2.29,-6.68 4.34,-15.85 -1.52,-33.46 -12.15,-44.72l-88.69 -69.86c-7.25,-5.62 -13.99,-10.38 -20.53,-19.47 -29.24,-40.62 -7.6,-96.55 42.17,-101.69 37.26,-3.84 68.73,23.39 74.69,57.21 1.17,6.59 1.32,13.4 0.56,19.45 -0.92,7.31 -3.87,15.44 -3.97,15.9l35.24 27.45z"/>
     <path class="fil1" d="M245.81 3604.45c-1.43,1.22 -5.14,10.76 -6.19,13.58 -1.75,4.73 -3.1,9.83 -4.11,15.09 -13.72,71.51 47.68,141.7 123.46,134.02 59.46,-6.03 99.67,-59.07 90.4,-118.65 -1.95,-12.55 -6.04,-24.65 -11.48,-35.03 -4.99,-9.54 -11.67,-18.99 -18.18,-25.7 -8.27,-8.55 -13.39,-12.44 -22.77,-19.65 -31.37,-24.12 -63.29,-49.5 -94.65,-73.96 -2.89,-2.26 -22.34,-17.89 -23.68,-18.25 -0.57,1.31 -1.99,3.42 -3.2,6.13 -1.04,2.35 -1.63,4.24 -2.29,6.67 -4.34,15.85 1.52,33.46 12.15,44.73l88.7 69.85c7.25,5.63 13.99,10.38 20.52,19.47 29.24,40.62 7.6,96.55 -42.17,101.69 -37.26,3.85 -68.73,-23.38 -74.69,-57.2 -1.16,-6.6 -1.32,-13.41 -0.56,-19.46 0.92,-7.31 3.87,-15.44 3.97,-15.89l-35.24 -27.45z"/>
    </g>
    <g>
     <path class="fil1" d="M448.16 4106.22c1.45,-1.23 5.15,-10.77 6.19,-13.59 1.75,-4.73 3.11,-9.83 4.12,-15.09 13.71,-71.51 -47.68,-141.7 -123.47,-134.02 -59.46,6.03 -99.66,59.07 -90.4,118.65 1.96,12.56 6.05,24.65 11.48,35.03 4.99,9.54 11.68,18.99 18.18,25.7 8.27,8.55 13.39,12.45 22.77,19.65 31.38,24.12 63.3,49.5 94.65,73.96 2.89,2.26 22.34,17.89 23.68,18.25 0.58,-1.31 1.99,-3.42 3.2,-6.12 1.05,-2.36 1.63,-4.25 2.29,-6.68 4.34,-15.85 -1.52,-33.46 -12.15,-44.72l-88.69 -69.86c-7.25,-5.62 -13.99,-10.38 -20.53,-19.47 -29.24,-40.62 -7.6,-96.55 42.17,-101.69 37.26,-3.84 68.73,23.39 74.69,57.21 1.17,6.59 1.32,13.4 0.56,19.45 -0.92,7.31 -3.87,15.44 -3.97,15.9l35.24 27.45z"/>
     <path class="fil1" d="M280.09 4152.52c-1.43,1.22 -5.14,10.76 -6.19,13.58 -1.75,4.73 -3.1,9.83 -4.11,15.09 -13.72,71.51 47.68,141.7 123.46,134.02 59.46,-6.03 99.67,-59.07 90.4,-118.65 -1.95,-12.55 -6.04,-24.65 -11.48,-35.03 -4.99,-9.54 -11.67,-18.99 -18.18,-25.7 -8.27,-8.55 -13.39,-12.44 -22.77,-19.65 -31.37,-24.12 -63.29,-49.5 -94.65,-73.96 -2.89,-2.26 -22.34,-17.89 -23.68,-18.25 -0.57,1.31 -1.99,3.42 -3.2,6.13 -1.04,2.35 -1.63,4.24 -2.29,6.67 -4.34,15.85 1.52,33.46 12.15,44.73l88.7 69.85c7.25,5.63 13.99,10.38 20.52,19.47 29.24,40.62 7.6,96.55 -42.17,101.69 -37.26,3.85 -68.73,-23.38 -74.69,-57.2 -1.16,-6.6 -1.32,-13.41 -0.56,-19.46 0.92,-7.31 3.87,-15.44 3.97,-15.89l-35.24 -27.45z"/>
    </g>
    <g>
     <path class="fil1" d="M424.14 4674.19c1.45,-1.23 5.15,-10.77 6.19,-13.59 1.75,-4.73 3.11,-9.83 4.12,-15.09 13.71,-71.51 -47.68,-141.7 -123.47,-134.02 -59.46,6.03 -99.66,59.07 -90.4,118.65 1.96,12.56 6.05,24.65 11.48,35.03 4.99,9.54 11.68,18.99 18.18,25.7 8.27,8.55 13.39,12.45 22.77,19.65 31.38,24.12 63.3,49.5 94.65,73.96 2.89,2.26 22.34,17.89 23.68,18.25 0.58,-1.31 1.99,-3.42 3.2,-6.12 1.05,-2.36 1.63,-4.25 2.29,-6.68 4.34,-15.85 -1.52,-33.46 -12.15,-44.72l-88.69 -69.86c-7.25,-5.62 -13.99,-10.38 -20.53,-19.47 -29.24,-40.62 -7.6,-96.55 42.17,-101.69 37.26,-3.84 68.73,23.39 74.69,57.21 1.17,6.59 1.32,13.4 0.56,19.45 -0.92,7.31 -3.87,15.44 -3.97,15.9l35.24 27.45z"/>
     <path class="fil1" d="M256.07 4720.49c-1.43,1.22 -5.14,10.76 -6.19,13.58 -1.75,4.73 -3.1,9.83 -4.11,15.09 -13.72,71.51 47.68,141.7 123.46,134.02 59.46,-6.03 99.67,-59.07 90.4,-118.65 -1.95,-12.55 -6.04,-24.65 -11.48,-35.03 -4.99,-9.54 -11.67,-18.99 -18.18,-25.7 -8.27,-8.55 -13.39,-12.44 -22.77,-19.65 -31.37,-24.12 -63.29,-49.5 -94.65,-73.96 -2.89,-2.26 -22.34,-17.89 -23.68,-18.25 -0.57,1.31 -1.99,3.42 -3.2,6.13 -1.04,2.35 -1.63,4.24 -2.29,6.67 -4.34,15.85 1.52,33.46 12.15,44.73l88.7 69.85c7.25,5.63 13.99,10.38 20.52,19.47 29.24,40.62 7.6,96.55 -42.17,101.69 -37.26,3.85 -68.73,-23.38 -74.69,-57.2 -1.16,-6.6 -1.32,-13.41 -0.56,-19.46 0.92,-7.31 3.87,-15.44 3.97,-15.89l-35.24 -27.45z"/>
    </g>
    <g>
     <path class="fil1" d="M413.53 5227.69c1.53,-1.08 5.94,-10.23 7.19,-12.94 2.1,-4.53 3.82,-9.48 5.22,-14.63 19,-69.87 -37.01,-145.61 -113.17,-145.2 -59.76,0.32 -103.81,49.28 -99.01,109.47 1.02,12.7 4.2,25.12 8.85,35.97 4.26,9.97 10.23,20.03 16.22,27.32 7.61,9.3 12.43,13.67 21.25,21.74 29.49,27.01 59.45,55.32 88.91,82.67 2.71,2.52 20.94,19.93 22.25,20.43 0.67,-1.25 2.25,-3.21 3.65,-5.8 1.22,-2.24 1.94,-4.07 2.79,-6.42 5.49,-15.36 0.97,-33.45 -8.79,-45.68l-83.27 -78.01c-6.81,-6.3 -13.18,-11.68 -19.02,-21.35 -26.15,-43.22 -0.39,-96.84 49.63,-97.19 37.45,-0.27 66.81,29.84 70.24,64.07 0.67,6.67 0.32,13.47 -0.89,19.42 -1.47,7.19 -5.02,15.01 -5.15,15.44l33.1 30.69z"/>
     <path class="fil1" d="M242.45 5257.72c-1.53,1.07 -5.94,10.22 -7.19,12.93 -2.1,4.54 -3.82,9.48 -5.22,14.63 -19,69.87 37.02,145.61 113.18,145.2 59.75,-0.31 103.81,-49.27 99,-109.47 -1.01,-12.69 -4.19,-25.11 -8.84,-35.97 -4.27,-9.97 -10.24,-20.01 -16.22,-27.32 -7.62,-9.3 -12.43,-13.67 -21.25,-21.74 -29.5,-27.01 -59.45,-55.31 -88.92,-82.66 -2.71,-2.53 -20.94,-19.94 -22.25,-20.44 -0.67,1.26 -2.25,3.22 -3.65,5.8 -1.22,2.24 -1.94,4.07 -2.78,6.42 -5.5,15.37 -0.98,33.45 8.78,45.68l83.27 78.01c6.81,6.3 13.18,11.68 19.02,21.35 26.16,43.23 0.39,96.84 -49.62,97.2 -37.46,0.27 -66.82,-29.84 -70.25,-64.08 -0.66,-6.67 -0.32,-13.46 0.9,-19.42 1.47,-7.18 5.01,-15 5.14,-15.43l-33.1 -30.69z"/>
    </g>
    <g>
     <path class="fil1" d="M481.32 5783.04c1.35,-1.33 4.36,-11.11 5.2,-14.01 1.4,-4.84 2.37,-10.01 3,-15.35 8.51,-72.31 -57.81,-137.87 -132.85,-124.72 -58.87,10.31 -95.13,66.13 -81.58,124.89 2.86,12.38 7.81,24.14 13.99,34.1 5.67,9.16 13.03,18.09 19.99,24.33 8.87,7.92 14.24,11.44 24.13,17.95 33.03,21.78 66.7,44.78 99.76,66.91 3.05,2.03 23.57,16.22 24.94,16.48 0.47,-1.35 1.73,-3.55 2.75,-6.35 0.87,-2.42 1.31,-4.35 1.81,-6.82 3.17,-16.11 -3.94,-33.26 -15.36,-43.71l-93.52 -63.24c-7.64,-5.09 -14.71,-9.35 -21.88,-17.94 -32.11,-38.39 -14.56,-95.75 34.68,-104.48 36.89,-6.53 70.24,18.35 78.65,51.64 1.64,6.49 2.29,13.27 1.96,19.36 -0.38,7.36 -2.74,15.68 -2.81,16.13l37.13 24.82z"/>
     <path class="fil1" d="M317.05 5841.38c-1.35,1.33 -4.36,11.11 -5.19,14.01 -1.4,4.84 -2.38,10.02 -3.01,15.35 -8.5,72.31 57.81,137.87 132.85,124.72 58.87,-10.31 95.13,-66.12 81.58,-124.89 -2.86,-12.38 -7.81,-24.14 -13.99,-34.1 -5.67,-9.15 -13.02,-18.09 -19.98,-24.32 -8.87,-7.93 -14.25,-11.44 -24.13,-17.96 -33.04,-21.78 -66.71,-44.77 -99.76,-66.91 -3.05,-2.03 -23.58,-16.22 -24.94,-16.48 -0.47,1.35 -1.74,3.55 -2.75,6.35 -0.88,2.43 -1.32,4.36 -1.81,6.82 -3.18,16.12 3.93,33.26 15.36,43.72l93.52 63.24c7.63,5.08 14.7,9.34 21.87,17.93 32.11,38.39 14.57,95.76 -34.68,104.48 -36.89,6.53 -70.24,-18.34 -78.65,-51.64 -1.63,-6.48 -2.29,-13.27 -1.96,-19.36 0.39,-7.36 2.74,-15.68 2.81,-16.13l-37.13 -24.82z"/>
    </g>
   </g>
  </g>
  <g id="_2543960489824">
   <path class="fil2" d="M9128.22 1159.08c-255.6,-75.25 -499.95,-143.47 -750.54,-206.43 -343.05,-86.2 -705.12,-139.53 -1045.28,-221.79 -281.39,-68.03 -530.85,-184.48 -801.89,-275.27l0.01 -4.16 -0.04 -9.26 -0.01 -1.47 -0.01 -0.2 -0.02 -1.27 -0.2 -10.34 -0.03 -1.35 -0.06 -1.9 -0.35 -9.79 -0.05 -1.31 -0.08 -1.5 -0.54 -10.08 -0.06 -1.24 -0.03 -0.37 -0.06 -0.9 -0.72 -10.39 -0.14 -1.78 -0.91 -10.23 -0.32 -3.26 -0.94 -8.76 -0.35 -2.96 -1.19 -9.28 -0.36 -2.66c-0.46,-3.33 -0.96,-6.63 -1.48,-9.92l-0.13 -0.86 -0.11 -0.64c-0.58,-3.57 -1.18,-7.11 -1.82,-10.62l-0.07 -0.44 -0.12 -0.67c-0.61,-3.33 -1.25,-6.65 -1.93,-9.93l-0.38 -1.86c-0.68,-3.26 -1.38,-6.49 -2.12,-9.7l-0.14 -0.65 -0.15 -0.64c-0.77,-3.34 -1.59,-6.68 -2.44,-9.98l-0.11 -0.47 -0.21 -0.79c-0.82,-3.2 -1.68,-6.36 -2.57,-9.5l-0.36 -1.25c-0.93,-3.22 -1.87,-6.4 -2.85,-9.56l-0.14 -0.46 -0.08 -0.25c-0.96,-3.05 -1.95,-6.07 -2.97,-9.07l-0.63 -1.86c-1.05,-3.03 -2.13,-6.05 -3.25,-9.03l-0.37 -0.96c-1.18,-3.11 -2.38,-6.19 -3.62,-9.24l-0.11 -0.29 -0.26 -0.59c-1.2,-2.9 -2.42,-5.76 -3.69,-8.61l-0.43 -0.99c-1.35,-3 -2.75,-5.99 -4.16,-8.93l-0.25 -0.51c-1.38,-2.84 -2.81,-5.67 -4.26,-8.44l-0.24 -0.45 -0.06 -0.13 -0.34 -0.62c-1.45,-2.71 -2.92,-5.4 -4.42,-8.05l-0.38 -0.69c-1.62,-2.85 -3.29,-5.65 -5,-8.41l-0.2 -0.32c-1.75,-2.84 -3.56,-5.65 -5.4,-8.4l186.23 3.8 182.44 49.4 163.42 53.21 140.63 60.82 235.64 72.2 283.65 66.67 348.41 75.59 557.65 106.3 390.22 78.04 223.95 44.21c-19.33,126.56 -36.18,246.63 -50.79,361.53z"/>
   <path class="fil1" d="M514.96 2833.93c215.24,-173.9 420.65,-335.73 633.12,-494.99 277.68,-208.13 578.38,-393.9 854.36,-597.38 268.02,-197.59 484.69,-438.48 748.7,-647.79l-6.1 -13.01 -0.02 -0.04 -1.5 -3.23 -1.49 -3.22 -1.48 -3.2 -1.47 -3.2 -4.34 -9.52 -1.41 -3.15 -5.69 -12.76 -3.75 -8.56 -0.11 -0.26 -0.11 -0.27 -0.11 -0.26 -0.11 -0.26 -0.11 -0.26 -0.11 -0.26 -0.11 -0.27 -0.11 -0.26 -0.44 -1.03 -0.11 -0.27 -4.96 -11.57 -0.11 -0.26 -0.1 -0.25 -0.11 -0.26 -0.1 -0.26 -0.11 -0.25 -0.1 -0.26 -0.03 -0.06 -2.13 -5.07 -0.11 -0.27 -0.11 -0.27 -0.1 -0.26 -0.11 -0.27 -0.11 -0.27 -0.11 -0.27 -6.16 -14.98 -0.1 -0.26 -0.24 -0.6 -2.01 -5.01 -0.11 -0.29 -0.11 -0.29 -0.12 -0.29 -0.11 -0.29 -0.11 -0.29 -0.11 -0.3 -0.11 -0.29c-1.96,-4.9 -3.83,-9.76 -5.69,-14.56l-0.11 -0.29 -0.1 -0.28 -0.11 -0.28 -0.1 -0.29 -0.11 -0.28 -0.1 -0.28 -0.89 -2.31 -0.02 -0.06 -0.11 -0.3c-2.28,-6.02 -4.45,-11.92 -6.53,-17.73l-0.1 -0.28 -0.1 -0.29 -0.47 -1.31 -0.08 -0.23c-2.33,-6.54 -4.54,-12.95 -6.61,-19.23l-0.21 -0.63c-2.05,-6.23 -3.98,-12.35 -5.78,-18.29l-0.09 -0.29 -0.08 -0.3 -0.09 -0.29 0.06 -0.05 -226.16 124.42 -138.66 96.46c-252.76,320.51 -902.82,765.08 -1290.1,1039.92l-253.2 147.7 -177.34 122.62 -104.99 70.39 -14.52 8.14 4.34 26.02 0.1 0.63 0.61 3.78 2.84 17.87 0.71 4.52 0.21 1.3 0.5 3.24 3.5 23.03 0.3 1.99 0.39 2.67 2.76 18.86 0.68 4.77 0.68 4.79 0.68 4.8 2.7 19.43 0.49 3.49 0.19 1.4 0.67 4.92 0.66 4.94 1.33 9.93 0.66 5 0.66 5.02 0.66 5.04 0.65 5.05 0.65 5.07 0.65 5.09 0.65 5.1 1.14 8.99 0.17 1.28 0.64 5.15 0.64 5.17 0.64 5.19 0.64 5.21 0.17 1.34 1.09 9.12 0.64 5.26 0.63 5.27 0.62 5.28 0.63 5.32 1.86 16.02 0.62 5.38 0.61 5.39 0.62 5.4 1.82 16.31 0.61 5.47 0.02 0.01z"/>
  </g>
  <g id="_2543960469184">
   <path class="fil3" d="M2785.47 14969.17c-49.44,714.15 -90.79,1429.55 -90.79,2145.54 0,253.24 50.46,518.62 89.39,768.67 53.36,342.66 103.37,685.47 119.83,1032.17l-205.43 26.76c-15.25,-345.59 -65.24,-685.8 -118.39,-1027.16 -39.89,-256.15 -91.85,-541.61 -91.85,-800.43 0,-770.22 47.65,-1543.13 101.9,-2311.5l89.5 74.31c28.71,24.57 57.41,49.12 86.12,73.69l19.72 17.96zm6939.31 -1911.19l58.11 -76.44c22.89,-29.22 45.79,-58.45 68.68,-87.68l28.91 -30.28c103.92,334.02 208.37,667.86 310.96,1002.28 222.35,724.81 191.83,1477 479.58,2189.9 84.06,208.27 170.86,415.45 260.29,621.48 -17.39,-3.22 -32.33,-5.82 -32.33,-5.82 -25.55,-2.29 -51.1,-4.59 -76.64,-6.88 -24.69,-2.87 -49.37,-5.75 -74.06,-8.62l-53.3 -5.38c-73.63,-171.73 -145.45,-344.24 -215.38,-517.5 -148.15,-367.04 -217.56,-747.46 -276.97,-1136.61 -54.79,-359 -101.73,-721.79 -208.55,-1070.02 -88.87,-289.74 -179.18,-579.06 -269.3,-868.43z"/>
   <path class="fil3" d="M1022.46 7421.48l-52.75 -52.75 -37.89 -1.35 -55.48 -28.42 -52.78 -35.19 -21.36 -24.29 -33.3 -30.61 -40.06 -45 -29.71 -45.91 -53.65 -95.32 844.15 310.88c836.72,308.16 1158.02,1287.4 1334.55,2078.55 52.17,233.8 87.6,471.3 112.08,709.83l-124.78 116.2 -65.64 67.2c-23.5,-284.8 -61.13,-570.3 -123.15,-848.26 -158.12,-708.62 -448.06,-1651.23 -1204.41,-1929.78l-395.83 -145.78zm8656.11 -2030.75l0 55.2 0 152.97c0,0 -40.41,89.47 -51.95,112.56 -7.73,15.46 -23.23,60.68 -34.35,97.55l-207.36 454.53c-343.66,753.29 -434.63,1662.15 -427.37,2481.45 6.14,693.39 157.22,1415.57 328.75,2086.22l-119.05 3.3 -92.58 2.22c-172.11,-678.72 -317.36,-1389.07 -323.56,-2089.91 -7.56,-853.61 88.49,-1785.37 445.98,-2568.97l428.76 -939.82 52.73 152.7z"/>
  </g>
  <g id="_2543960470624">
   <g>
    <path class="fil0" d="M1419.92 18596.82c5.17,-39.6 10.35,-79.18 15.52,-118.78 4.87,-38.68 9.75,-77.37 14.63,-116.04 3.05,-43.55 6.09,-87.11 9.14,-130.66 1.06,-45.67 2.13,-91.33 3.19,-137 2.1,-57.24 4.2,-114.48 6.3,-171.72 3.75,-90.57 7.5,-181.14 11.25,-271.71 0,-75.7 0,-151.4 0,-227.1 1.18,-62.74 2.35,-125.49 3.53,-188.23 2.63,-79.97 5.25,-159.94 7.89,-239.91 2.18,-41.31 4.35,-82.63 6.52,-123.94 0,-56.3 0,-112.59 0,-168.89 -0.49,-36 -0.97,-72 -1.46,-108 0.24,-35.52 0.49,-71.03 0.72,-106.55 -2.1,-62.23 -4.19,-124.46 -6.29,-186.69 0.46,-77.52 0.94,-155.03 1.4,-232.55 1.63,-57.67 3.27,-115.34 4.9,-173.01 5.11,-75.58 10.21,-151.16 15.32,-226.74 7.22,-75.56 14.43,-151.12 21.65,-226.68 7.97,-69.87 15.95,-139.73 23.92,-209.6 5.74,-64.31 11.47,-128.61 17.21,-192.92 6.61,-81.89 13.2,-163.78 19.81,-245.67 3.93,-55.63 7.86,-111.25 11.79,-166.88 2.65,-50.89 5.32,-101.77 7.97,-152.66 3.73,-44.42 7.46,-88.83 11.19,-133.25 8.11,-63.14 16.23,-126.28 24.34,-189.42 2.57,-33.25 5.15,-66.51 7.72,-99.75 6.62,-39.41 13.24,-78.83 19.86,-118.24 14.11,24.13 28.22,48.26 42.33,72.39 68.3,93.63 119.39,161.25 201.46,241.75 8.42,5.69 16.85,11.38 25.27,17.06 8.42,13.88 16.84,27.78 25.26,41.66 0,0 49.86,49.86 53.27,56 35.49,63.8 128.77,139.28 185.75,181.65 15.71,10.47 31.41,20.94 47.12,31.41 19.09,22.03 38.17,44.07 57.26,66.09 27.02,30.64 49.45,54.97 73.7,73.79 -58.23,818.75 -107.56,1634.91 -107.56,2398.66 0,466.44 181.17,1136.75 210.91,1847.91l-196.09 16.54c-110.7,2.68 -221.38,5.36 -332.08,8.04 -62.97,1.07 -125.92,2.14 -188.89,3.21 -18.15,0.28 -36.29,0.57 -54.44,0.85 -19.82,-0.56 -39.64,-1.13 -59.46,-1.68 -22.89,-4.19 -45.79,-8.37 -68.68,-12.56 -13.96,5.86 -27.92,11.73 -41.88,17.59 -9.49,14.51 -18.98,29.04 -28.47,43.55 -9.78,-0.28 -19.54,-0.56 -29.32,-0.84 -17.59,-6.42 -35.18,-12.84 -52.77,-19.26 0,0 -41.87,-40.19 -45.22,-51.08 -3.35,-10.89 -13.41,-102.18 -13.41,-102.18 3.63,-44.95 7.26,-89.9 10.89,-134.85 3.35,-30.99 6.7,-61.97 10.05,-92.96 5.66,-13.38 11.3,-26.77 16.96,-40.14z"/>
    <path class="fil0" d="M1771.24 10854.92l19.96 -124.76 31.61 -184.66 24.95 -216.26 36.6 -277.82 24.95 -287.8 13.2 -230.51 -3.34 -146.33 -4.47 -196.59 -6.71 -77.08 -68.13 -186.53 -85 -234.84 -80.56 -225.76 -53.97 -156.58 -67.8 -181.05 -79.77 -174.89 -118.63 -184.09 -7.18 -8.38c444.88,163.84 817.26,629.2 1074.27,1781.02 68.56,307.25 110.55,649.82 133.09,1018.89 -16.02,17.32 -40.42,42.64 -59.08,57.31 -30.33,23.82 -125.63,77.98 -125.63,77.98l-136.47 54.15 -129.98 30.33 -88.81 10.83 -88.81 21.67 -154.27 41.76z"/>
   </g>
   <g>
    <path class="fil0" d="M9572.72 6349.21c6.75,19.55 25.03,67.61 25.03,89.58 0,23.09 2.89,95.24 2.89,95.24l2.88 138.53c0,0 34.64,75.04 40.41,92.36 5.77,17.32 5.77,54.83 14.43,72.15 8.66,17.32 23.09,121.22 23.09,121.22l14.43 115.45 28.86 202.04c0,0 43.75,280.74 43.75,310.59 0,29.84 26.87,173.11 26.87,173.11l5.97 244.75c0,0 14.93,226.83 14.93,268.63 0,41.79 11.94,211.93 11.94,211.93l29.84 217.88 5.98 173.12 14.92 256.68 -8.95 95.51 66.37 177.62 121.47 330.66 114.71 280.05 77.61 202.45 -30.58 69.54 -41 50.07 -51.92 64.14 -41.24 54.98 -25.2 40.47 -29.78 42.75 -12.98 21.39 -12.99 17.56 -33.6 13.74 -31.31 16.04 -52.68 27.49 -45.06 27.49 -45.05 23.67 -32.07 12.99 -22.15 5.35 -98.49 45.05 -29.78 13.75 -18.33 19.09 -59.12 8.97 -45.08 8.1c-195.01,-759.26 -322.39,-1449.03 -327.79,-2058.25 -8.76,-989.88 133.94,-1791.55 408.76,-2393.94z"/>
    <path class="fil0" d="M11173.85 16716.68c-106.29,-241.57 -210.25,-487.65 -311.38,-738.18 -285.81,-708.1 -238.28,-1405.92 -473.65,-2173.17 -117.22,-382.13 -233.95,-754.29 -346.22,-1115.71l62.23 -77.26c25.65,-32.46 51.3,-64.94 76.95,-97.4 26.3,-32.79 52.6,-65.59 78.9,-98.38 23.7,-25.65 47.4,-51.3 71.1,-76.95 28.9,-20.78 57.79,-41.57 86.7,-62.35 25.97,-20.78 51.95,-41.56 77.92,-62.34 24.62,-15.5 49.25,-31.01 73.87,-46.51 32.48,-16.8 64.98,-33.61 97.46,-50.41 20.53,-11.95 41.07,-23.9 61.6,-35.85 16.8,-14.56 33.61,-29.12 50.41,-43.68 6.72,34.35 13.44,68.7 20.16,103.06 11.2,50.79 22.41,101.56 33.61,152.35 3.74,33.61 7.46,67.21 11.2,100.82 4.48,25.02 8.97,50.04 13.45,75.06 4.85,28.38 9.7,56.75 14.55,85.13 4.48,32.11 8.97,64.22 13.45,96.34 5.98,39.59 11.94,79.16 17.92,118.75 3.74,41.07 7.46,82.15 11.2,123.23 9.33,48.16 18.67,96.34 28,144.5 9.71,58.63 19.42,117.25 29.13,175.88 7.09,44.44 14.19,88.86 21.28,133.3 5.65,28.16 11.29,56.32 16.94,84.48 7.79,29.87 15.59,59.75 23.38,89.62 14.94,38 29.87,75.98 44.81,113.98 16.89,37.67 33.77,75.33 50.66,113 21.11,44.81 42.21,89.62 63.32,134.43 16.24,34.09 32.47,68.2 48.71,102.29 18.83,33.76 37.67,67.54 56.49,101.3 12.99,30.52 25.98,61.06 38.97,91.58 7.14,29.22 14.3,58.44 21.44,87.67 9.06,39.32 18.14,78.65 27.2,117.96 0,0 26.89,117.26 26.89,121.27 0,4.01 25.73,104.09 25.73,108.67 0,4.58 38.33,139 38.33,139 10.67,50.71 21.36,101.43 32.03,152.14 6.1,36.8 12.2,73.6 18.3,110.4 3.65,29.75 7.31,59.5 10.96,89.25 3.19,31.59 6.39,63.17 9.58,94.76 3.73,34.79 7.46,69.56 11.19,104.35 10.29,48.27 20.58,96.54 30.87,144.81 9.4,34.07 18.81,68.14 28.21,102.21 21.5,48.8 43.01,97.6 64.51,146.4 21.45,42.25 42.91,84.5 64.36,126.75 18.16,36.63 36.3,73.28 54.46,109.91 15.51,46.21 31.03,92.43 46.54,138.64 2.64,28.39 5.28,56.77 7.93,85.16 4.95,37.29 9.9,74.6 14.85,111.89 3.96,34.33 7.92,68.65 11.88,102.98 8.58,24.75 17.17,49.52 25.74,74.27 0,0 37.87,101.82 37.87,115.67 0,13.85 29.45,102.18 29.45,102.18 0,0 41.57,69.28 41.57,88.34 0,19.05 32.91,157.61 32.91,157.61 0,0 17.32,133.36 17.32,148.95 0,15.59 6.93,107.39 6.93,119.51 0,12.12 -8.66,83.14 -8.66,83.14 -13.8,1.39 -27.61,2.79 -41.41,4.18 -18.14,-15.25 -36.26,-30.48 -54.4,-45.73 -12.88,-24.87 -25.75,-49.74 -38.64,-74.61 0,0 -13.33,-5.34 -17.32,-23.99 -3.99,-18.65 -25.32,-93.26 -25.32,-93.26 -11.11,-17.32 -22.2,-34.64 -33.31,-51.96 -13.33,-11.11 -26.64,-22.2 -39.97,-33.31 -8.43,-4.88 -16.88,-9.76 -25.31,-14.65 -19.98,-3.55 -39.97,-7.11 -59.95,-10.66 -19.54,-9.78 -39.09,-19.54 -58.63,-29.32 -18.65,-15.1 -37.3,-30.19 -55.96,-45.29 -21.76,-7.99 -43.52,-15.99 -65.28,-23.98 -35.97,-10.22 -71.95,-20.43 -107.92,-30.65 -22.2,-8.89 -44.42,-17.76 -66.62,-26.65 -21.76,-7.55 -43.53,-15.1 -65.29,-22.65 -22.49,-5.84 -44.98,-11.68 -67.48,-17.53 -18.66,-0.58 -37.31,-1.15 -55.98,-1.72l-12.77 -2.97z"/>
   </g>
  </g>
  <g id="_2543960473696">
   <g>
    <path class="fil0" d="M9179.01 797.56l124.95 24.66 213.47 39.02 119.37 34.43 41.99 21.13 45.48 55.06 17.96 64.64 10.78 90.98 -58.66 -32.32 -79.01 1.2c0,0 -8.37,75.4 -9.57,87.38 -1.2,11.97 -38.31,181.95 -37.11,191.53 1.2,9.58 -19.16,250.18 -19.16,250.18l-28.73 268.13 -4.02 338.22 9.34 373.49 28 280.11 18.67 258.32 37.79 391.64 39.51 424.79 -16.46 246.97 29.64 204.16 13.18 250.26 3.29 293.07 -1.17 266.19 0 225.13 0 152.97c0,0 -40.41,89.47 -51.95,112.56 -11.54,23.09 -40.41,112.56 -46.18,141.42 -5.77,28.86 -46.17,138.53 -46.17,164.52 0,25.98 -8.66,155.86 -8.66,155.86l25.97 98.13c0,0 14.44,57.72 20.21,75.04 5.77,17.32 25.97,69.27 25.97,92.36 0,23.09 2.89,95.24 2.89,95.24l2.88 138.53c0,0 34.64,75.04 40.41,92.36 5.77,17.32 5.77,54.83 14.43,72.15 8.66,17.32 23.09,121.22 23.09,121.22l14.43 115.45 14.43 101.02c-274,-92.33 -537.74,-865.89 -451.44,-1403.97 72.12,-449.71 72.42,-807.23 20.23,-1212.43 -210.18,-1631.69 -334.32,-2227.82 -100.09,-3760.83z"/>
    <path class="fil0" d="M1548.32 8119.12l-75.57 -165.67 -118.63 -184.09 -116.59 -136.02 -121.66 -118.46 -146.16 -146.16 -37.89 -1.35 -55.48 -28.42 -52.78 -35.19 -21.36 -24.29 -33.3 -30.61 -40.06 -45 -29.71 -45.91 -82.2 -146.02 -83.99 -183.14 -72.98 -201.03 -88.12 -218.93 -106.05 -252.33 -80.4 -299.27 -40.21 -226.02c0,0 -22.33,-225.94 -22.33,-232.54 0,-6.6 -7.7,-257.29 -7.7,-257.29l-3.29 -303.47 1.09 -293.58 -10.77 -383.49 -1.98 -333.23 -23.33 -274.38 -19.27 -171.93 -20.58 -178.55 -19.93 -164.22 -8.15 -108.02 14.82 -20.76 5.94 -44.48 36.18 -61.1 28.47 -40.33 79.85 -63.9 66.81 -47.72 118.11 -69.2 113.13 -63.43c95.32,559.63 145.51,1696.25 90.49,2281.51 -40.85,434.55 -28.39,869.4 102.01,1295.2 72.5,236.75 115.13,655.02 375.41,972.56 300.48,366.59 581.45,785.98 545.52,915.53l-37.37 134.72z"/>
    <path class="fil4" d="M6116.07 845.78c14.35,-116.86 170.67,-357.56 155.46,-536.52 -7.95,-93.55 -132.8,-209.27 -225.79,-237.89 -13.05,-23.26 -60.47,-48.14 -73.53,-71.38 170.23,62.86 177.57,71.84 347.81,134.71 46.96,29.44 118.02,9.59 146.74,52.61 120.49,180.57 54.36,531.73 -66.86,894.28 -104.79,313.41 -218.8,586.17 -344.14,846.84 -177.22,368.59 -357.59,719.52 -586.29,1121.09 -132.05,231.87 -204.78,296.77 -238.48,442.49 -4.18,18.12 -25.75,88.78 -26.68,116.72l-661.22 -3.99c-16.34,-0.1 -143.38,-190.36 -267.31,-338.4 -119.99,-143.3 -289.2,-329.2 -475.96,-559.81 -285.54,-352.59 -1002.96,-1397.52 -1122.66,-1796.53 116.15,-88.48 269.52,-209.43 351.01,-332.58 4.35,10.42 8.52,20.6 12.5,30.62 2.63,44.76 5.26,89.5 7.9,134.26 25.38,298.86 251.86,534.11 397.28,812.64 153.3,293.6 1393.7,1891.71 1399.27,1914.22l109.14 -199.59c150.14,-274.57 207.75,-319.94 361.67,-592.89 171.88,-304.81 323.19,-609.75 443.78,-947.42 5.59,-10.01 11.2,-20.03 16.8,-30.04 49.35,-111.04 98.7,-222.08 148.05,-333.12 24.68,-63.94 49.35,-127.86 74.02,-191.8 48.46,-151.45 86.86,-180.53 117.49,-328.52z"/>
   </g>
   <g>
    <path class="fil0" d="M9095.77 1442.07c-67.2,-19.1 -146.26,-40.38 -219.42,-59.66 -568.96,-149.94 -1224.36,-211.41 -1737.32,-449.29 -182.57,-84.66 -417.57,-129.42 -645.2,-185.2l0.04 -0.18 2.06 -9.64 0.87 -4.09 0.17 -0.81 1.01 -4.88 1 -4.87 0.99 -4.87 0.08 -0.36 0.38 -1.95 2.43 -12.23 0.29 -1.52 2.34 -12.36 0.11 -0.59 0.51 -2.65 0.39 -2.15 0.87 -4.79 1.52 -8.42 0.02 -0.13 0.18 -0.99 2.18 -12.73 0.26 -1.52 0.03 -0.14 0.21 -1.26 2.07 -12.75 0.21 -1.27 0.18 -1.11 1.79 -11.66 0.36 -2.37 0.34 -2.29 1.33 -9.29 0.5 -3.46 0.15 -1.17 0.62 -4.61 0.62 -4.6 0.15 -1.2 0.85 -6.62 0.18 -1.36 0.56 -4.56 0.55 -4.56 0.37 -3.18 0.17 -1.36 0.51 -4.53 0.51 -4.51 0.23 -2.1 0.25 -2.42 0.9 -8.88 0.44 -4.56 0.41 -4.45 0.39 -4.45 0.06 -0.68 0.32 -3.75 0.36 -4.41 0.34 -4.41 0.13 -1.9 0.44 -6.13 0.05 -0.72 0.29 -4.37 0.27 -4.35 0.24 -3.98 0.51 -9.55 0.22 -4.86 0.31 -8.11 0.19 -5.37 0.21 -8.08 0.11 -6.49 0.01 -0.39 0.05 -4.17 0.03 -4.16c271.04,90.79 520.5,207.24 801.89,275.27 340.16,82.27 702.23,135.59 1045.28,221.79 250.59,62.97 494.94,131.19 750.54,206.43 -12.44,97.91 -23.24,192.05 -32.45,282.98z"/>
    <path class="fil0" d="M542.23 3123.55c58.39,-49.48 167.32,-134.12 263.78,-207.97 459.13,-351.46 1010.52,-656.16 1403.69,-1065.49 177.34,-184.62 440.07,-343.61 662.56,-523.91l-2.19 -3.91 -2.18 -3.9 -2.17 -3.89 -8.59 -15.5 -2.13 -3.86 -2.12 -3.85 -12.52 -22.92 -2.05 -3.79 -12.15 -22.56 -1.99 -3.73 -1.98 -3.73 -1.97 -3.71 -9.72 -18.43 -1.91 -3.65 -1.91 -3.65 -1.9 -3.63 -7.48 -14.45 -1.85 -3.59 -1.84 -3.58 -1.83 -3.56 -1.82 -3.56 -8.92 -17.64 -1.75 -3.5 -1.74 -3.49 -8.56 -17.28 -1.67 -3.42 -1.67 -3.42 -1.66 -3.4 -6.51 -13.49 -1.6 -3.35 -1.59 -3.32 -1.58 -3.32 -1.57 -3.31c-264.01,209.31 -480.69,450.2 -748.7,647.79 -275.99,203.48 -576.68,389.25 -854.36,597.38 -212.47,159.26 -417.89,321.09 -633.12,494.99l-0.02 -0.01 0.46 4.27 0.47 4.27 0.46 4.29 1.39 12.91 0.46 4.33 0.45 4.34 0.46 4.35 0.45 4.35 2.71 26.29 0.44 4.41 0.45 4.42 0.44 4.43 1.77 17.8 0.44 4.47 0.43 4.47 0.43 4.49 1.73 18.01 0.42 4.52 0.43 4.53 0.42 4.53 0.42 4.55 0.42 4.55 0.85 9.12 0.41 4.57 0.42 4.58 0.41 4.59 0.41 4.59 2.47 27.74 0.4 4.65 0.4 4.65 2 23.36 0.39 4.7 0.39 4.7 0.39 4.71 0.39 4.71 0.39 4.72 0.77 9.46 0.38 4.74 0.38 4.74 0.38 4.75z"/>
   </g>
  </g>
  <g id="_2543117614224">
   <g>
    <g>
     <path class="fil1" d="M9394.38 4675.4c-1.66,-0.99 -7.12,-9.89 -8.69,-12.53 -2.61,-4.43 -4.89,-9.27 -6.86,-14.35 -26.78,-68.89 22.05,-148.2 99.5,-152.39 60.76,-3.28 110.76,43.14 112.31,103.77 0.33,12.78 -1.58,25.43 -5.14,36.59 -3.27,10.25 -8.26,20.69 -13.56,28.38 -6.74,9.78 -11.17,14.44 -19.27,23.07 -27.1,28.85 -54.5,59.02 -81.51,88.22 -2.5,2.69 -19.17,21.24 -20.45,21.82 -0.81,-1.22 -2.62,-3.09 -4.33,-5.59 -1.48,-2.18 -2.41,-3.96 -3.51,-6.28 -7.24,-15.06 -4.57,-33.46 4.05,-46.32l76.29 -83.21c6.24,-6.72 12.14,-12.51 17.05,-22.54 21.96,-44.91 -9.95,-97.1 -60.82,-94.45 -38.09,1.99 -64.7,33.95 -64.53,68.47 0.03,6.73 1.1,13.52 2.97,19.42 2.26,7.11 6.7,14.73 6.88,15.16l-30.37 32.75z"/>
     <path class="fil1" d="M9571.45 4695.19c1.67,0.99 7.12,9.89 8.69,12.53 2.62,4.43 4.9,9.28 6.87,14.35 26.78,68.9 -22.06,148.2 -99.51,152.39 -60.76,3.28 -110.76,-43.14 -112.31,-103.77 -0.32,-12.78 1.58,-25.43 5.14,-36.59 3.27,-10.25 8.27,-20.69 13.56,-28.37 6.74,-9.79 11.17,-14.45 19.27,-23.08 27.1,-28.85 54.5,-59.02 81.52,-88.21 2.49,-2.69 19.16,-21.25 20.44,-21.83 0.82,1.22 2.62,3.09 4.33,5.59 1.48,2.18 2.41,3.96 3.52,6.28 7.23,15.06 4.56,33.47 -4.06,46.32l-76.29 83.22c-6.24,6.71 -12.14,12.5 -17.05,22.53 -21.96,44.91 9.95,97.1 60.82,94.45 38.09,-1.99 64.71,-33.94 64.54,-68.47 -0.04,-6.73 -1.11,-13.52 -2.98,-19.41 -2.26,-7.12 -6.69,-14.74 -6.87,-15.17l30.36 -32.75z"/>
    </g>
    <g>
     <path class="fil1" d="M9362.02 6281.43c-1.61,-1.58 -8.27,-12.61 -10.21,-15.89 -3.24,-5.46 -6.3,-11.25 -9.17,-17.18 -38.94,-80.42 -18.48,-146.84 43.96,-125.8 48.98,16.53 101.41,81.19 117.62,144.75 3.42,13.4 4.98,25.92 4.81,36.35 -0.15,9.59 -1.67,18.81 -4.12,25.05 -3.12,7.96 -5.59,11.35 -10.11,17.67 -15.09,21.11 -30.11,43.49 -45.05,64.98 -1.38,1.98 -10.47,15.81 -11.38,15.99 -0.96,-1.53 -2.91,-4.07 -4.92,-7.24 -1.74,-2.75 -2.95,-4.91 -4.43,-7.68 -9.64,-18.03 -11.99,-36.29 -8.09,-46.82l41.99 -61.5c3.47,-4.93 6.87,-9.01 8.41,-17.84 6.93,-39.49 -32.09,-104.23 -73.12,-118.16 -30.72,-10.43 -44.65,14.06 -36,50.01 1.68,7.01 4.24,14.42 7.23,21.16 3.6,8.14 9.11,17.52 9.37,18.02l-16.8 24.1z"/>
     <path class="fil1" d="M9512.02 6360.09c1.61,1.58 8.27,12.62 10.21,15.89 3.23,5.46 6.3,11.25 9.17,17.18 38.94,80.42 18.48,146.85 -43.96,125.8 -48.98,-16.52 -101.41,-81.19 -117.62,-144.75 -3.42,-13.39 -4.98,-25.92 -4.81,-36.35 0.15,-9.59 1.67,-18.8 4.12,-25.05 3.12,-7.95 5.58,-11.35 10.11,-17.67 15.08,-21.11 30.11,-43.49 45.05,-64.98 1.38,-1.98 10.47,-15.81 11.38,-15.99 0.96,1.54 2.91,4.08 4.92,7.24 1.74,2.75 2.95,4.91 4.43,7.68 9.64,18.03 11.99,36.3 8.09,46.82l-41.99 61.5c-3.47,4.93 -6.87,9.01 -8.42,17.85 -6.92,39.48 32.1,104.22 73.13,118.15 30.72,10.44 44.65,-14.06 36,-50.01 -1.68,-7 -4.24,-14.42 -7.23,-21.16 -3.6,-8.14 -9.12,-17.52 -9.37,-18.02l16.8 -24.1z"/>
    </g>
    <g>
     <path class="fil1" d="M9358.16 5736.85c-1.15,-1.8 -3.09,-13.12 -3.61,-16.46 -0.88,-5.57 -1.33,-11.4 -1.45,-17.27 -1.51,-79.76 66.31,-130.83 135.29,-95.24 54.11,27.93 83.04,98.02 65.14,156.96 -3.78,12.42 -9.46,23.58 -16.1,32.45 -6.11,8.16 -13.79,15.62 -20.85,20.27 -9,5.92 -14.35,8.13 -24.16,12.27 -32.82,13.8 -66.34,28.73 -99.22,42.9 -3.02,1.31 -23.48,10.58 -24.77,10.48 -0.33,-1.58 -1.32,-4.3 -2.01,-7.58 -0.6,-2.84 -0.84,-5.03 -1.07,-7.81 -1.54,-18.15 6.64,-34.43 18.24,-42.34l93.05 -40.78c7.6,-3.24 14.57,-5.78 22.05,-12.89 33.44,-31.83 22.14,-98.21 -23.13,-121.68 -33.9,-17.57 -67.29,-0.54 -78.11,32.65 -2.11,6.47 -3.32,13.53 -3.56,20.14 -0.29,7.98 1.17,17.56 1.2,18.06l-36.92 15.88z"/>
     <path class="fil1" d="M9506.54 5846.39c1.14,1.81 3.08,13.13 3.6,16.46 0.89,5.58 1.34,11.4 1.45,17.28 1.52,79.76 -66.31,130.83 -135.28,95.23 -54.11,-27.92 -83.05,-98.01 -65.14,-156.95 3.77,-12.42 9.44,-23.58 16.1,-32.45 6.11,-8.16 13.78,-15.62 20.85,-20.27 8.99,-5.92 14.34,-8.14 24.16,-12.27 32.82,-13.81 66.34,-28.73 99.21,-42.91 3.03,-1.3 23.48,-10.58 24.78,-10.47 0.33,1.58 1.31,4.3 2,7.58 0.6,2.84 0.85,5.03 1.08,7.81 1.53,18.15 -6.64,34.43 -18.25,42.34l-93.05 40.78c-7.59,3.24 -14.57,5.77 -22.05,12.89 -33.43,31.83 -22.14,98.21 23.13,121.67 33.9,17.58 67.3,0.55 78.11,-32.64 2.12,-6.47 3.32,-13.53 3.56,-20.14 0.29,-7.98 -1.17,-17.56 -1.19,-18.06l36.92 -15.89z"/>
    </g>
    <g>
     <path class="fil1" d="M9417.83 5229.93c-1.6,-1.13 -6.34,-10.39 -7.7,-13.15 -2.26,-4.6 -4.16,-9.6 -5.73,-14.79 -21.27,-70.54 33.98,-145.24 111.86,-143.07 61.1,1.7 107.43,51.85 104.11,112.13 -0.7,12.71 -3.62,25.1 -8.08,35.88 -4.1,9.91 -9.93,19.86 -15.85,27.04 -7.54,9.16 -12.35,13.42 -21.15,21.33 -29.44,26.4 -59.31,54.11 -88.7,80.87 -2.71,2.47 -20.89,19.52 -22.22,19.98 -0.71,-1.28 -2.37,-3.28 -3.88,-5.9 -1.3,-2.28 -2.1,-4.13 -3.01,-6.51 -6.03,-15.53 -1.89,-33.59 7.77,-45.62l83.06 -76.33c6.8,-6.15 13.16,-11.42 18.88,-20.97 25.59,-42.76 -2.17,-97.15 -53.3,-98.67 -38.3,-1.15 -67.51,28.39 -70.12,62.66 -0.51,6.68 0.03,13.5 1.42,19.5 1.69,7.25 5.52,15.17 5.68,15.61l-33.03 30.03z"/>
     <path class="fil1" d="M9593.52 5264.03c1.59,1.13 6.34,10.39 7.69,13.15 2.27,4.6 4.16,9.6 5.73,14.79 21.28,70.54 -33.97,145.24 -111.85,143.07 -61.1,-1.7 -107.43,-51.85 -104.11,-112.13 0.69,-12.71 3.61,-25.1 8.08,-35.89 4.1,-9.9 9.93,-19.85 15.85,-27.03 7.54,-9.16 12.34,-13.42 21.15,-21.33 29.44,-26.4 59.3,-54.11 88.7,-80.87 2.71,-2.47 20.89,-19.52 22.21,-19.98 0.72,1.28 2.38,3.28 3.88,5.9 1.31,2.28 2.1,4.13 3.02,6.51 6.03,15.53 1.88,33.59 -7.78,45.62l-83.05 76.33c-6.8,6.15 -13.17,11.42 -18.89,20.97 -25.59,42.76 2.17,97.15 53.31,98.67 38.3,1.15 67.51,-28.39 70.11,-62.66 0.52,-6.68 -0.02,-13.5 -1.42,-19.5 -1.68,-7.25 -5.51,-15.17 -5.67,-15.61l33.03 -30.03z"/>
    </g>
    <g>
     <path class="fil1" d="M9354.86 4110.75c-1.6,-1.08 -6.51,-10.3 -7.92,-13.04 -2.35,-4.57 -4.34,-9.56 -6.01,-14.75 -22.62,-70.43 30.78,-146.76 108.26,-146.35 60.79,0.33 107.9,49.68 105.84,110.37 -0.43,12.79 -3.08,25.31 -7.29,36.25 -3.87,10.04 -9.48,20.18 -15.21,27.54 -7.3,9.37 -11.99,13.77 -20.58,21.91 -28.73,27.22 -57.86,55.74 -86.53,83.31 -2.64,2.54 -20.37,20.1 -21.68,20.59 -0.73,-1.26 -2.44,-3.24 -3.98,-5.84 -1.34,-2.26 -2.17,-4.11 -3.13,-6.48 -6.32,-15.48 -2.57,-33.71 6.78,-46.04l81.02 -78.62c6.63,-6.34 12.85,-11.77 18.34,-21.5 24.56,-43.57 -4.17,-97.62 -55.05,-97.99 -38.11,-0.28 -66.55,30.07 -68.43,64.58 -0.36,6.73 0.31,13.57 1.82,19.57 1.84,7.25 5.8,15.13 5.97,15.57l-32.23 30.93z"/>
     <path class="fil1" d="M9530.27 4141.05c1.61,1.08 6.51,10.3 7.93,13.04 2.34,4.57 4.34,9.56 6,14.75 22.62,70.43 -30.78,146.76 -108.26,146.35 -60.79,-0.33 -107.9,-49.68 -105.84,-110.37 0.43,-12.79 3.09,-25.31 7.3,-36.25 3.87,-10.04 9.47,-20.18 15.2,-27.54 7.31,-9.37 11.99,-13.77 20.59,-21.91 28.73,-27.22 57.85,-55.74 86.52,-83.31 2.64,-2.54 20.37,-20.1 21.68,-20.59 0.74,1.26 2.44,3.24 3.98,5.84 1.34,2.26 2.17,4.11 3.14,6.48 6.32,15.48 2.57,33.71 -6.79,46.04l-81.01 78.62c-6.64,6.34 -12.85,11.77 -18.34,21.5 -24.56,43.57 4.16,97.62 55.05,97.99 38.1,0.28 66.54,-30.07 68.42,-64.58 0.37,-6.73 -0.3,-13.57 -1.82,-19.57 -1.83,-7.25 -5.8,-15.13 -5.96,-15.57l32.22 -30.93z"/>
    </g>
    <g>
     <path class="fil1" d="M9286.65 3546.24c-1.67,-1 -7.11,-9.91 -8.67,-12.56 -2.61,-4.43 -4.89,-9.28 -6.85,-14.37 -26.69,-68.98 22.15,-148.31 99.52,-152.43 60.71,-3.23 110.62,43.29 112.12,103.99 0.31,12.79 -1.6,25.45 -5.16,36.62 -3.28,10.25 -8.28,20.7 -13.57,28.39 -6.75,9.78 -11.17,14.44 -19.27,23.07 -27.1,28.85 -54.5,59.03 -81.51,88.22 -2.49,2.69 -19.16,21.25 -20.44,21.83 -0.81,-1.22 -2.61,-3.1 -4.31,-5.6 -1.48,-2.18 -2.41,-3.97 -3.51,-6.29 -7.2,-15.09 -4.53,-33.51 4.09,-46.36l76.28 -83.22c6.24,-6.72 12.14,-12.5 17.05,-22.54 21.97,-44.93 -9.87,-97.2 -60.68,-94.6 -38.05,1.95 -64.67,33.91 -64.52,68.47 0.02,6.73 1.09,13.53 2.96,19.44 2.24,7.12 6.67,14.76 6.85,15.18l-30.36 32.76z"/>
     <path class="fil1" d="M9463.52 3566.23c1.67,0.99 7.11,9.9 8.67,12.55 2.61,4.43 4.89,9.29 6.85,14.37 26.69,68.99 -22.14,148.32 -99.52,152.43 -60.71,3.23 -110.62,-43.29 -112.11,-103.99 -0.32,-12.79 1.59,-25.44 5.16,-36.61 3.27,-10.26 8.27,-20.7 13.56,-28.39 6.75,-9.79 11.18,-14.45 19.28,-23.08 27.09,-28.85 54.49,-59.02 81.5,-88.22 2.49,-2.69 19.16,-21.25 20.44,-21.82 0.82,1.22 2.62,3.1 4.31,5.6 1.48,2.18 2.41,3.96 3.51,6.28 7.22,15.09 4.53,33.52 -4.09,46.36l-76.27 83.22c-6.26,6.72 -12.15,12.51 -17.06,22.55 -21.97,44.92 9.87,97.2 60.68,94.59 38.06,-1.95 64.67,-33.91 64.53,-68.46 -0.03,-6.74 -1.1,-13.54 -2.96,-19.44 -2.25,-7.13 -6.68,-14.76 -6.86,-15.19l30.36 -32.75z"/>
    </g>
    <g>
     <path class="fil1" d="M9230.87 2954.99c-1.62,-1.06 -6.69,-10.2 -8.13,-12.91 -2.43,-4.54 -4.49,-9.5 -6.24,-14.66 -23.79,-70.12 28.23,-147.43 105.63,-148.32 60.72,-0.7 108.61,47.92 107.6,108.68 -0.22,12.81 -2.65,25.39 -6.67,36.42 -3.7,10.12 -9.11,20.36 -14.72,27.82 -7.13,9.51 -11.75,13.99 -20.19,22.29 -28.23,27.73 -56.83,56.77 -85,84.85 -2.59,2.59 -19.99,20.46 -21.29,20.97 -0.76,-1.25 -2.49,-3.2 -4.08,-5.78 -1.38,-2.24 -2.23,-4.08 -3.24,-6.43 -6.58,-15.4 -3.14,-33.71 6,-46.2l79.56 -80.06c6.51,-6.46 12.63,-11.99 17.96,-21.84 23.78,-44.02 -5.83,-97.64 -56.66,-97.15 -38.06,0.37 -65.94,31.22 -67.23,65.79 -0.26,6.74 0.54,13.58 2.15,19.56 1.95,7.23 6.05,15.04 6.22,15.48l-31.66 31.49z"/>
     <path class="fil1" d="M9406.57 2982.35c1.62,1.07 6.68,10.21 8.13,12.92 2.43,4.54 4.49,9.5 6.24,14.66 23.79,70.12 -28.24,147.43 -105.63,148.32 -60.72,0.69 -108.61,-47.92 -107.6,-108.68 0.22,-12.81 2.65,-25.39 6.67,-36.42 3.7,-10.13 9.11,-20.36 14.72,-27.83 7.13,-9.5 11.75,-13.98 20.19,-22.28 28.23,-27.73 56.82,-56.77 84.99,-84.85 2.6,-2.59 20,-20.46 21.31,-20.97 0.76,1.25 2.49,3.2 4.08,5.78 1.38,2.24 2.23,4.08 3.24,6.43 6.58,15.39 3.14,33.71 -6,46.2l-79.56 80.06c-6.52,6.45 -12.64,11.99 -17.96,21.83 -23.78,44.02 5.83,97.65 56.65,97.15 38.07,-0.36 65.95,-31.21 67.24,-65.78 0.26,-6.74 -0.54,-13.58 -2.15,-19.57 -1.95,-7.22 -6.06,-15.04 -6.22,-15.47l31.66 -31.5z"/>
    </g>
    <g>
     <path class="fil1" d="M9201.91 2338.42c-1.63,-1.04 -6.82,-10.14 -8.32,-12.83 -2.49,-4.52 -4.63,-9.46 -6.46,-14.61 -24.87,-69.95 25.75,-148.24 102.9,-150.27 60.53,-1.6 109.09,46.43 109.05,107.37 0,12.85 -2.22,25.5 -6.05,36.61 -3.52,10.2 -8.75,20.54 -14.22,28.12 -6.96,9.63 -11.48,14.19 -19.77,22.64 -27.69,28.22 -55.74,57.76 -83.37,86.32 -2.55,2.63 -19.6,20.81 -20.89,21.35 -0.78,-1.24 -2.53,-3.17 -4.16,-5.73 -1.41,-2.23 -2.29,-4.06 -3.33,-6.41 -6.81,-15.33 -3.69,-33.74 5.22,-46.41l78.04 -81.44c6.39,-6.58 12.4,-12.22 17.54,-22.16 23,-44.5 -7.4,-97.81 -58.06,-96.57 -37.94,0.93 -65.25,32.29 -65.97,66.96 -0.14,6.76 0.75,13.62 2.46,19.58 2.06,7.22 6.29,15 6.45,15.43l-31.05 32.05z"/>
     <path class="fil1" d="M9377.56 2363.25c1.64,1.04 6.83,10.13 8.33,12.83 2.49,4.52 4.63,9.46 6.46,14.61 24.87,69.95 -25.75,148.24 -102.9,150.27 -60.53,1.6 -109.09,-46.43 -109.05,-107.37 0,-12.85 2.22,-25.51 6.05,-36.61 3.52,-10.21 8.75,-20.55 14.22,-28.12 6.96,-9.63 11.48,-14.19 19.77,-22.64 27.69,-28.22 55.74,-57.76 83.37,-86.32 2.55,-2.64 19.6,-20.81 20.89,-21.36 0.77,1.25 2.53,3.18 4.16,5.74 1.41,2.23 2.29,4.06 3.33,6.4 6.81,15.34 3.69,33.75 -5.22,46.41l-78.04 81.45c-6.39,6.58 -12.4,12.21 -17.54,22.16 -23,44.49 7.39,97.81 58.06,96.57 37.94,-0.94 65.25,-32.29 65.97,-66.96 0.14,-6.76 -0.75,-13.62 -2.46,-19.58 -2.06,-7.22 -6.29,-15 -6.45,-15.43l31.04 -32.05z"/>
    </g>
    <g>
     <path class="fil1" d="M9191.95 1701.36c-1.58,-1.13 -6.3,-10.47 -7.65,-13.24 -2.26,-4.65 -4.14,-9.68 -5.71,-14.92 -21.23,-71.14 33.35,-146.72 110.51,-144.78 60.53,1.52 106.55,51.99 103.38,112.85 -0.66,12.83 -3.53,25.35 -7.93,36.25 -4.04,10 -9.8,20.07 -15.65,27.34 -7.45,9.26 -12.2,13.58 -20.91,21.58 -29.11,26.77 -58.64,54.82 -87.7,81.93 -2.68,2.5 -20.65,19.77 -21.97,20.24 -0.72,-1.28 -2.37,-3.3 -3.86,-5.95 -1.3,-2.29 -2.09,-4.16 -3,-6.56 -6.01,-15.66 -1.94,-33.89 7.61,-46.07l82.12 -77.32c6.72,-6.23 13.02,-11.57 18.66,-21.23 25.26,-43.25 -2.35,-98.06 -53.03,-99.43 -37.93,-1.02 -66.82,28.88 -69.32,63.47 -0.49,6.75 0.05,13.64 1.46,19.68 1.68,7.31 5.49,15.3 5.65,15.74l-32.66 30.41z"/>
     <path class="fil1" d="M9366.09 1735.21c1.58,1.13 6.3,10.47 7.65,13.24 2.25,4.65 4.14,9.68 5.71,14.92 21.22,71.14 -33.35,146.72 -110.51,144.78 -60.53,-1.52 -106.55,-51.99 -103.39,-112.85 0.67,-12.83 3.54,-25.35 7.94,-36.25 4.04,-10 9.8,-20.07 15.65,-27.34 7.44,-9.26 12.2,-13.58 20.9,-21.58 29.11,-26.76 58.64,-54.82 87.71,-81.93 2.68,-2.5 20.65,-19.77 21.97,-20.24 0.71,1.28 2.36,3.3 3.86,5.95 1.3,2.29 2.09,4.16 3,6.56 6.01,15.66 1.94,33.89 -7.61,46.08l-82.12 77.31c-6.72,6.23 -13.02,11.57 -18.66,21.23 -25.26,43.25 2.35,98.07 53.01,99.43 37.94,1.02 66.83,-28.88 69.33,-63.47 0.49,-6.75 -0.06,-13.64 -1.46,-19.68 -1.68,-7.31 -5.5,-15.3 -5.65,-15.74l32.66 -30.41z"/>
    </g>
    <g>
     <path class="fil1" d="M9268.36 1110.34c-1.45,-1.3 -5.09,-11.14 -6.12,-14.06 -1.72,-4.87 -3.05,-10.1 -4.02,-15.49 -13.18,-73.25 49.29,-142.43 125.57,-131.87 59.84,8.28 99.88,63.7 90.01,123.98 -2.07,12.71 -6.3,24.86 -11.87,35.22 -5.11,9.53 -11.93,18.9 -18.54,25.5 -8.4,8.39 -13.59,12.17 -23.11,19.17 -31.82,23.4 -64.19,48.05 -96.01,71.81 -2.93,2.19 -22.66,17.38 -24.02,17.7 -0.57,-1.35 -1.98,-3.55 -3.17,-6.35 -1.03,-2.44 -1.6,-4.39 -2.25,-6.87 -4.22,-16.28 1.83,-33.98 12.63,-45.06l89.97 -67.85c7.36,-5.45 14.18,-10.05 20.85,-19.05 29.82,-40.27 8.52,-97.96 -41.57,-104.99 -37.5,-5.26 -69.44,21.29 -75.75,55.48 -1.23,6.66 -1.45,13.58 -0.73,19.77 0.87,7.47 3.76,15.85 3.86,16.31l-35.74 26.65z"/>
     <path class="fil1" d="M9437.24 1163.52c1.45,1.3 5.09,11.14 6.12,14.06 1.72,4.87 3.05,10.1 4.02,15.49 13.18,73.25 -49.29,142.43 -125.57,131.87 -59.84,-8.28 -99.88,-63.7 -90.01,-123.98 2.07,-12.71 6.3,-24.86 11.87,-35.22 5.11,-9.53 11.93,-18.9 18.54,-25.5 8.4,-8.39 13.59,-12.17 23.11,-19.17 31.82,-23.4 64.19,-48.05 96.01,-71.81 2.93,-2.19 22.66,-17.38 24.02,-17.7 0.57,1.35 1.98,3.55 3.17,6.35 1.03,2.44 1.6,4.38 2.25,6.87 4.22,16.28 -1.83,33.98 -12.63,45.06l-89.97 67.85c-7.36,5.45 -14.18,10.05 -20.85,19.05 -29.82,40.27 -8.52,97.96 41.57,104.99 37.5,5.26 69.44,-21.29 75.75,-55.48 1.23,-6.66 1.45,-13.58 0.73,-19.77 -0.87,-7.47 -3.76,-15.85 -3.86,-16.31l35.74 -26.65z"/>
    </g>
   </g>
   <g>
    <g>
     <path class="fil1" d="M632.56 6331.61c1.26,-1.28 3.66,-11.06 4.33,-13.96 1.11,-4.84 1.79,-10.05 2.1,-15.43 4.26,-73.09 -64.84,-143.71 -138.08,-134.73 -57.44,7.04 -90.03,61.72 -73.32,122.31 3.52,12.77 9.08,25.03 15.73,35.53 6.11,9.64 13.87,19.18 21.09,25.93 9.2,8.58 14.71,12.47 24.82,19.68 33.81,24.1 68.31,49.47 102.16,73.94 3.13,2.25 24.17,17.89 25.53,18.24 0.39,-1.34 1.52,-3.52 2.35,-6.3 0.72,-2.42 1.05,-4.36 1.39,-6.84 2.21,-16.22 -5.78,-34.07 -17.63,-45.39l-95.81 -69.85c-7.81,-5.62 -15.03,-10.37 -22.59,-19.53 -33.85,-40.95 -19.82,-98.3 28.25,-104.29 35.99,-4.49 70.29,22.78 80.47,57.15 1.98,6.7 3.01,13.65 3.03,19.83 0.04,7.46 -1.81,15.79 -1.85,16.25l38.02 27.45z"/>
     <path class="fil1" d="M473.91 6381.35c-1.25,1.27 -3.65,11.04 -4.33,13.95 -1.1,4.85 -1.78,10.06 -2.09,15.44 -4.27,73.09 64.84,143.71 138.07,134.73 57.45,-7.04 90.03,-61.72 73.32,-122.31 -3.52,-12.77 -9.07,-25.03 -15.72,-35.53 -6.11,-9.64 -13.87,-19.18 -21.1,-25.93 -9.19,-8.58 -14.7,-12.47 -24.81,-19.68 -33.82,-24.1 -68.31,-49.47 -102.17,-73.94 -3.12,-2.25 -24.16,-17.89 -25.53,-18.24 -0.39,1.34 -1.51,3.51 -2.34,6.3 -0.72,2.42 -1.05,4.36 -1.39,6.83 -2.21,16.23 5.78,34.08 17.63,45.4l95.8 69.85c7.82,5.62 15.03,10.37 22.6,19.53 33.85,40.95 19.82,98.3 -28.25,104.29 -35.99,4.49 -70.29,-22.78 -80.47,-57.16 -1.98,-6.7 -3.01,-13.64 -3.05,-19.82 -0.03,-7.46 1.82,-15.79 1.86,-16.26l-38.03 -27.44z"/>
    </g>
    <g>
     <path class="fil1" d="M991.03 7157.16c0.44,-1.48 -1.69,-10.62 -2.36,-13.32 -1.13,-4.51 -2.74,-9.2 -4.7,-13.92 -26.53,-64.19 -108.28,-103.86 -160.75,-73.79 -41.17,23.6 -43.85,80.58 -6.34,127.61 7.91,9.91 17.17,18.77 26.54,25.77 8.62,6.43 18.46,12.27 26.73,15.87 10.55,4.58 16.36,6.26 27.05,9.37 35.74,10.43 72.53,21.72 108.45,32.44 3.31,0.99 25.82,8.02 27,7.91 -0.25,-1.28 -0.27,-3.49 -0.76,-6.13 -0.43,-2.3 -0.97,-4.07 -1.72,-6.32 -4.92,-14.63 -18.32,-27.55 -32.02,-33.67l-101.9 -30.86c-8.29,-2.46 -15.75,-4.35 -25.28,-9.92 -42.64,-24.91 -55.27,-78.53 -20.86,-98.35 25.75,-14.84 63.16,-1.84 84.98,24.63 4.24,5.16 7.87,10.82 10.4,16.12 3.07,6.42 5.06,14.15 5.2,14.55l40.33 12z"/>
     <path class="fil1" d="M889.71 7248.37c-0.44,1.48 1.7,10.62 2.37,13.32 1.13,4.51 2.74,9.2 4.69,13.92 26.53,64.19 108.29,103.86 160.76,73.79 41.17,-23.6 43.84,-80.58 6.34,-127.61 -7.91,-9.91 -17.17,-18.77 -26.54,-25.77 -8.62,-6.43 -18.46,-12.26 -26.74,-15.87 -10.54,-4.58 -16.35,-6.24 -27.04,-9.36 -35.75,-10.43 -72.53,-21.73 -108.45,-32.45 -3.31,-0.98 -25.82,-8.02 -27,-7.91 0.25,1.28 0.27,3.49 0.76,6.13 0.43,2.3 0.97,4.07 1.72,6.32 4.91,14.63 18.32,27.56 32.02,33.67l101.9 30.87c8.29,2.45 15.75,4.34 25.28,9.91 42.64,24.91 55.27,78.53 20.86,98.35 -25.75,14.84 -63.17,1.85 -84.98,-24.63 -4.25,-5.16 -7.87,-10.82 -10.4,-16.12 -3.08,-6.41 -5.06,-14.14 -5.21,-14.55l-40.33 -12z"/>
    </g>
    <g>
     <path class="fil1" d="M797.23 6808.91c1.25,-1.28 3.48,-10.95 4.1,-13.82 1.02,-4.8 1.59,-9.94 1.8,-15.26 2.81,-72.07 -68.8,-140.23 -142.93,-129.91 -58.16,8.09 -90.08,62.59 -71.86,121.94 3.84,12.51 9.73,24.47 16.7,34.68 6.4,9.37 14.48,18.61 21.95,25.1 9.52,8.28 15.18,11.99 25.6,18.89 34.82,23.07 70.37,47.36 105.22,70.77 3.22,2.17 24.9,17.13 26.29,17.45 0.37,-1.33 1.47,-3.49 2.25,-6.24 0.68,-2.39 0.98,-4.31 1.27,-6.76 1.91,-16.02 -6.58,-33.45 -18.84,-44.35l-98.68 -66.87c-8.05,-5.38 -15.47,-9.92 -23.34,-18.79 -35.2,-39.66 -22.16,-96.42 26.5,-103.28 36.44,-5.15 71.82,21.03 82.87,54.68 2.15,6.56 3.33,13.38 3.5,19.46 0.19,7.36 -1.51,15.6 -1.55,16.05l39.16 26.26z"/>
     <path class="fil1" d="M637.26 6861.1c-1.25,1.28 -3.49,10.95 -4.1,13.82 -1.02,4.79 -1.6,9.94 -1.81,15.25 -2.8,72.08 68.81,140.24 142.94,129.92 58.16,-8.09 90.08,-62.6 71.86,-121.94 -3.85,-12.51 -9.73,-24.47 -16.7,-34.68 -6.4,-9.37 -14.48,-18.61 -21.96,-25.11 -9.51,-8.27 -15.18,-11.98 -25.6,-18.89 -34.82,-23.06 -70.36,-47.35 -105.22,-70.76 -3.21,-2.17 -24.9,-17.15 -26.28,-17.45 -0.37,1.33 -1.47,3.49 -2.25,6.24 -0.69,2.39 -0.98,4.3 -1.27,6.76 -1.91,16.02 6.56,33.45 18.84,44.35l98.68 66.87c8.05,5.38 15.46,9.92 23.34,18.79 35.2,39.65 22.15,96.42 -26.51,103.28 -36.43,5.14 -71.81,-21.03 -82.86,-54.68 -2.15,-6.56 -3.34,-13.38 -3.5,-19.46 -0.19,-7.36 1.51,-15.61 1.55,-16.05l-39.16 -26.26z"/>
    </g>
    <g>
     <path class="fil1" d="M382.55 3000.28c1.45,-1.23 5.15,-10.77 6.19,-13.59 1.75,-4.73 3.11,-9.83 4.12,-15.09 13.71,-71.51 -47.68,-141.7 -123.47,-134.02 -59.46,6.03 -99.66,59.07 -90.4,118.65 1.96,12.56 6.05,24.65 11.48,35.03 4.99,9.54 11.68,18.99 18.18,25.7 8.27,8.55 13.39,12.45 22.77,19.65 31.38,24.12 63.3,49.5 94.65,73.96 2.89,2.26 22.34,17.89 23.68,18.25 0.58,-1.31 1.99,-3.42 3.2,-6.12 1.05,-2.36 1.63,-4.25 2.29,-6.68 4.34,-15.85 -1.52,-33.46 -12.15,-44.72l-88.69 -69.86c-7.25,-5.62 -13.99,-10.38 -20.53,-19.47 -29.24,-40.62 -7.6,-96.55 42.17,-101.69 37.26,-3.84 68.73,23.39 74.69,57.21 1.17,6.59 1.32,13.4 0.56,19.45 -0.92,7.31 -3.87,15.44 -3.97,15.9l35.24 27.45z"/>
     <path class="fil1" d="M214.49 3046.57c-1.43,1.22 -5.14,10.76 -6.19,13.58 -1.75,4.73 -3.1,9.83 -4.11,15.09 -13.72,71.51 47.68,141.7 123.46,134.02 59.46,-6.03 99.67,-59.07 90.4,-118.65 -1.95,-12.55 -6.04,-24.65 -11.48,-35.03 -4.99,-9.54 -11.67,-18.99 -18.18,-25.7 -8.27,-8.55 -13.39,-12.44 -22.77,-19.65 -31.37,-24.12 -63.29,-49.5 -94.65,-73.96 -2.89,-2.26 -22.34,-17.89 -23.68,-18.25 -0.57,1.31 -1.99,3.42 -3.2,6.13 -1.04,2.35 -1.63,4.24 -2.29,6.67 -4.34,15.85 1.52,33.46 12.15,44.73l88.7 69.85c7.25,5.63 13.99,10.38 20.52,19.47 29.24,40.62 7.6,96.55 -42.17,101.69 -37.26,3.85 -68.73,-23.38 -74.69,-57.2 -1.16,-6.6 -1.32,-13.41 -0.56,-19.46 0.92,-7.31 3.87,-15.44 3.97,-15.89l-35.24 -27.45z"/>
    </g>
    <g>
     <path class="fil1" d="M413.88 3558.15c1.45,-1.23 5.15,-10.77 6.19,-13.59 1.75,-4.73 3.11,-9.83 4.12,-15.09 13.71,-71.51 -47.68,-141.7 -123.47,-134.02 -59.46,6.03 -99.66,59.07 -90.4,118.65 1.96,12.56 6.05,24.65 11.48,35.03 4.99,9.54 11.68,18.99 18.18,25.7 8.27,8.55 13.39,12.45 22.77,19.65 31.38,24.12 63.3,49.5 94.65,73.96 2.89,2.26 22.34,17.89 23.68,18.25 0.58,-1.31 1.99,-3.42 3.2,-6.12 1.05,-2.36 1.63,-4.25 2.29,-6.68 4.34,-15.85 -1.52,-33.46 -12.15,-44.72l-88.69 -69.86c-7.25,-5.62 -13.99,-10.38 -20.53,-19.47 -29.24,-40.62 -7.6,-96.55 42.17,-101.69 37.26,-3.84 68.73,23.39 74.69,57.21 1.17,6.59 1.32,13.4 0.56,19.45 -0.92,7.31 -3.87,15.44 -3.97,15.9l35.24 27.45z"/>
     <path class="fil1" d="M245.81 3604.45c-1.43,1.22 -5.14,10.76 -6.19,13.58 -1.75,4.73 -3.1,9.83 -4.11,15.09 -13.72,71.51 47.68,141.7 123.46,134.02 59.46,-6.03 99.67,-59.07 90.4,-118.65 -1.95,-12.55 -6.04,-24.65 -11.48,-35.03 -4.99,-9.54 -11.67,-18.99 -18.18,-25.7 -8.27,-8.55 -13.39,-12.44 -22.77,-19.65 -31.37,-24.12 -63.29,-49.5 -94.65,-73.96 -2.89,-2.26 -22.34,-17.89 -23.68,-18.25 -0.57,1.31 -1.99,3.42 -3.2,6.13 -1.04,2.35 -1.63,4.24 -2.29,6.67 -4.34,15.85 1.52,33.46 12.15,44.73l88.7 69.85c7.25,5.63 13.99,10.38 20.52,19.47 29.24,40.62 7.6,96.55 -42.17,101.69 -37.26,3.85 -68.73,-23.38 -74.69,-57.2 -1.16,-6.6 -1.32,-13.41 -0.56,-19.46 0.92,-7.31 3.87,-15.44 3.97,-15.89l-35.24 -27.45z"/>
    </g>
    <g>
     <path class="fil1" d="M448.16 4106.22c1.45,-1.23 5.15,-10.77 6.19,-13.59 1.75,-4.73 3.11,-9.83 4.12,-15.09 13.71,-71.51 -47.68,-141.7 -123.47,-134.02 -59.46,6.03 -99.66,59.07 -90.4,118.65 1.96,12.56 6.05,24.65 11.48,35.03 4.99,9.54 11.68,18.99 18.18,25.7 8.27,8.55 13.39,12.45 22.77,19.65 31.38,24.12 63.3,49.5 94.65,73.96 2.89,2.26 22.34,17.89 23.68,18.25 0.58,-1.31 1.99,-3.42 3.2,-6.12 1.05,-2.36 1.63,-4.25 2.29,-6.68 4.34,-15.85 -1.52,-33.46 -12.15,-44.72l-88.69 -69.86c-7.25,-5.62 -13.99,-10.38 -20.53,-19.47 -29.24,-40.62 -7.6,-96.55 42.17,-101.69 37.26,-3.84 68.73,23.39 74.69,57.21 1.17,6.59 1.32,13.4 0.56,19.45 -0.92,7.31 -3.87,15.44 -3.97,15.9l35.24 27.45z"/>
     <path class="fil1" d="M280.09 4152.52c-1.43,1.22 -5.14,10.76 -6.19,13.58 -1.75,4.73 -3.1,9.83 -4.11,15.09 -13.72,71.51 47.68,141.7 123.46,134.02 59.46,-6.03 99.67,-59.07 90.4,-118.65 -1.95,-12.55 -6.04,-24.65 -11.48,-35.03 -4.99,-9.54 -11.67,-18.99 -18.18,-25.7 -8.27,-8.55 -13.39,-12.44 -22.77,-19.65 -31.37,-24.12 -63.29,-49.5 -94.65,-73.96 -2.89,-2.26 -22.34,-17.89 -23.68,-18.25 -0.57,1.31 -1.99,3.42 -3.2,6.13 -1.04,2.35 -1.63,4.24 -2.29,6.67 -4.34,15.85 1.52,33.46 12.15,44.73l88.7 69.85c7.25,5.63 13.99,10.38 20.52,19.47 29.24,40.62 7.6,96.55 -42.17,101.69 -37.26,3.85 -68.73,-23.38 -74.69,-57.2 -1.16,-6.6 -1.32,-13.41 -0.56,-19.46 0.92,-7.31 3.87,-15.44 3.97,-15.89l-35.24 -27.45z"/>
    </g>
    <g>
     <path class="fil1" d="M424.14 4674.19c1.45,-1.23 5.15,-10.77 6.19,-13.59 1.75,-4.73 3.11,-9.83 4.12,-15.09 13.71,-71.51 -47.68,-141.7 -123.47,-134.02 -59.46,6.03 -99.66,59.07 -90.4,118.65 1.96,12.56 6.05,24.65 11.48,35.03 4.99,9.54 11.68,18.99 18.18,25.7 8.27,8.55 13.39,12.45 22.77,19.65 31.38,24.12 63.3,49.5 94.65,73.96 2.89,2.26 22.34,17.89 23.68,18.25 0.58,-1.31 1.99,-3.42 3.2,-6.12 1.05,-2.36 1.63,-4.25 2.29,-6.68 4.34,-15.85 -1.52,-33.46 -12.15,-44.72l-88.69 -69.86c-7.25,-5.62 -13.99,-10.38 -20.53,-19.47 -29.24,-40.62 -7.6,-96.55 42.17,-101.69 37.26,-3.84 68.73,23.39 74.69,57.21 1.17,6.59 1.32,13.4 0.56,19.45 -0.92,7.31 -3.87,15.44 -3.97,15.9l35.24 27.45z"/>
     <path class="fil1" d="M256.07 4720.49c-1.43,1.22 -5.14,10.76 -6.19,13.58 -1.75,4.73 -3.1,9.83 -4.11,15.09 -13.72,71.51 47.68,141.7 123.46,134.02 59.46,-6.03 99.67,-59.07 90.4,-118.65 -1.95,-12.55 -6.04,-24.65 -11.48,-35.03 -4.99,-9.54 -11.67,-18.99 -18.18,-25.7 -8.27,-8.55 -13.39,-12.44 -22.77,-19.65 -31.37,-24.12 -63.29,-49.5 -94.65,-73.96 -2.89,-2.26 -22.34,-17.89 -23.68,-18.25 -0.57,1.31 -1.99,3.42 -3.2,6.13 -1.04,2.35 -1.63,4.24 -2.29,6.67 -4.34,15.85 1.52,33.46 12.15,44.73l88.7 69.85c7.25,5.63 13.99,10.38 20.52,19.47 29.24,40.62 7.6,96.55 -42.17,101.69 -37.26,3.85 -68.73,-23.38 -74.69,-57.2 -1.16,-6.6 -1.32,-13.41 -0.56,-19.46 0.92,-7.31 3.87,-15.44 3.97,-15.89l-35.24 -27.45z"/>
    </g>
    <g>
     <path class="fil1" d="M413.53 5227.69c1.53,-1.08 5.94,-10.23 7.19,-12.94 2.1,-4.53 3.82,-9.48 5.22,-14.63 19,-69.87 -37.01,-145.61 -113.17,-145.2 -59.76,0.32 -103.81,49.28 -99.01,109.47 1.02,12.7 4.2,25.12 8.85,35.97 4.26,9.97 10.23,20.03 16.22,27.32 7.61,9.3 12.43,13.67 21.25,21.74 29.49,27.01 59.45,55.32 88.91,82.67 2.71,2.52 20.94,19.93 22.25,20.43 0.67,-1.25 2.25,-3.21 3.65,-5.8 1.22,-2.24 1.94,-4.07 2.79,-6.42 5.49,-15.36 0.97,-33.45 -8.79,-45.68l-83.27 -78.01c-6.81,-6.3 -13.18,-11.68 -19.02,-21.35 -26.15,-43.22 -0.39,-96.84 49.63,-97.19 37.45,-0.27 66.81,29.84 70.24,64.07 0.67,6.67 0.32,13.47 -0.89,19.42 -1.47,7.19 -5.02,15.01 -5.15,15.44l33.1 30.69z"/>
     <path class="fil1" d="M242.45 5257.72c-1.53,1.07 -5.94,10.22 -7.19,12.93 -2.1,4.54 -3.82,9.48 -5.22,14.63 -19,69.87 37.02,145.61 113.18,145.2 59.75,-0.31 103.81,-49.27 99,-109.47 -1.01,-12.69 -4.19,-25.11 -8.84,-35.97 -4.27,-9.97 -10.24,-20.01 -16.22,-27.32 -7.62,-9.3 -12.43,-13.67 -21.25,-21.74 -29.5,-27.01 -59.45,-55.31 -88.92,-82.66 -2.71,-2.53 -20.94,-19.94 -22.25,-20.44 -0.67,1.26 -2.25,3.22 -3.65,5.8 -1.22,2.24 -1.94,4.07 -2.78,6.42 -5.5,15.37 -0.98,33.45 8.78,45.68l83.27 78.01c6.81,6.3 13.18,11.68 19.02,21.35 26.16,43.23 0.39,96.84 -49.62,97.2 -37.46,0.27 -66.82,-29.84 -70.25,-64.08 -0.66,-6.67 -0.32,-13.46 0.9,-19.42 1.47,-7.18 5.01,-15 5.14,-15.43l-33.1 -30.69z"/>
    </g>
    <g>
     <path class="fil1" d="M481.32 5783.04c1.35,-1.33 4.36,-11.11 5.2,-14.01 1.4,-4.84 2.37,-10.01 3,-15.35 8.51,-72.31 -57.81,-137.87 -132.85,-124.72 -58.87,10.31 -95.13,66.13 -81.58,124.89 2.86,12.38 7.81,24.14 13.99,34.1 5.67,9.16 13.03,18.09 19.99,24.33 8.87,7.92 14.24,11.44 24.13,17.95 33.03,21.78 66.7,44.78 99.76,66.91 3.05,2.03 23.57,16.22 24.94,16.48 0.47,-1.35 1.73,-3.55 2.75,-6.35 0.87,-2.42 1.31,-4.35 1.81,-6.82 3.17,-16.11 -3.94,-33.26 -15.36,-43.71l-93.52 -63.24c-7.64,-5.09 -14.71,-9.35 -21.88,-17.94 -32.11,-38.39 -14.56,-95.75 34.68,-104.48 36.89,-6.53 70.24,18.35 78.65,51.64 1.64,6.49 2.29,13.27 1.96,19.36 -0.38,7.36 -2.74,15.68 -2.81,16.13l37.13 24.82z"/>
     <path class="fil1" d="M317.05 5841.38c-1.35,1.33 -4.36,11.11 -5.19,14.01 -1.4,4.84 -2.38,10.02 -3.01,15.35 -8.5,72.31 57.81,137.87 132.85,124.72 58.87,-10.31 95.13,-66.12 81.58,-124.89 -2.86,-12.38 -7.81,-24.14 -13.99,-34.1 -5.67,-9.15 -13.02,-18.09 -19.98,-24.32 -8.87,-7.93 -14.25,-11.44 -24.13,-17.96 -33.04,-21.78 -66.71,-44.77 -99.76,-66.91 -3.05,-2.03 -23.58,-16.22 -24.94,-16.48 -0.47,1.35 -1.74,3.55 -2.75,6.35 -0.88,2.43 -1.32,4.36 -1.81,6.82 -3.18,16.12 3.93,33.26 15.36,43.72l93.52 63.24c7.63,5.08 14.7,9.34 21.87,17.93 32.11,38.39 14.57,95.76 -34.68,104.48 -36.89,6.53 -70.24,-18.34 -78.65,-51.64 -1.63,-6.48 -2.29,-13.27 -1.96,-19.36 0.39,-7.36 2.74,-15.68 2.81,-16.13l-37.13 -24.82z"/>
    </g>
   </g>
  </g>
 </g>
</svg>
