<?xml version="1.0" encoding="UTF-8"?>
<!DOCTYPE svg PUBLIC "-//W3C//DTD SVG 1.1//EN" "http://www.w3.org/Graphics/SVG/1.1/DTD/svg11.dtd">
<!-- Creator: CorelDRAW -->
<svg xmlns="http://www.w3.org/2000/svg" xml:space="preserve" width="118.945mm" height="189.849mm" version="1.1" style="shape-rendering:geometricPrecision; text-rendering:geometricPrecision; image-rendering:optimizeQuality; fill-rule:evenodd; clip-rule:evenodd"
viewBox="0 0 12287.32 19611.82"
 xmlns:xlink="http://www.w3.org/1999/xlink"
 xmlns:xodm="http://www.corel.com/coreldraw/odm/2003">
 <defs>
  <style type="text/css">
   <![CDATA[
    .fil1 {fill:#FEFEFE}
    .fil0 {fill:#1C1B17}
    .fil3 {fill:#1C1B17;fill-rule:nonzero}
    .fil2 {fill:#C9C9C4;fill-rule:nonzero}
   ]]>
  </style>
 </defs>
 <g id="Plan_x0020_1">
  <metadata id="CorelCorpID_0Corel-Layer"/>
  <path class="fil0" d="M1507.76 19611.82l5.41 -166.5 -1.88 -232.06 -4.15 -160.56 7.81 0.23 28.49 -43.58 41.91 -17.6 68.74 12.57 59.5 1.68 54.48 -0.85 189.03 -3.21 332.33 -8.05 337.71 -28.48 360.14 -46.91 274.71 -36.85 174.21 -30.15 254.61 -45.23 179.23 -21.78 154.11 -25.12 185.93 -25.13 112.24 -30.14 202.68 -55.28 169.19 -25.13 169.06 -32.05 291.29 -22.65 178.01 -38.83 171.53 -58.26 242.73 -61.5 106.8 -38.83 126.23 -29.13 116.51 -6.48 74.44 -42.08 106.8 -48.54 194.19 -19.42 362.49 -97.09 275.1 -100.34 320.41 -174.77 265.39 -139.17 281.94 -115.92 192.61 -132.46 173.34 -115.19 116.31 -70.46 85 -71.57 128.61 -81.64 127.49 -67.11 99.53 -34.67 72.69 -52.56 136 -52.77 45.18 -22.11 23.08 -5.76 24.03 -16.34 67.29 -22.12 38.46 -14.42 44.21 -15.38 43.26 -14.42 68.25 -20.19 46.15 -16.34 51.91 -11.54 54.8 -15.37 74.02 -11.54 48.07 -8.66 63.45 -10.57 104.79 -16.34 52.87 0 94.21 -17.3 108.63 -11.54 124.96 -6.74 79.54 -4.13 37.05 -0.87 49.13 -6.03 64.64 2.59 58.6 0 78.43 4.31 93.93 9.47 74.12 8.63 76.7 6.89c0,0 79.29,13.79 85.33,17.24 6.03,3.45 91.35,12.07 91.35,12.07l37.05 1.73 74.12 17.23 56.02 1.73 67.53 17.54 65.34 22.66 66.67 26.67 108 30.67 65.33 24 56 45.33 58.68 29.34 60 10.67 25.33 14.66 40 33.34 33.34 52c0,0 21.34,74.67 25.34,93.33 4,18.67 17.33,24.01 17.33,24.01l38.67 74.67 54.44 45.76 4.81 17.06 -10.85 134.53 32.55 154.04 52.06 132.36 52.07 119.33 41.23 141.03 30.38 201.78 21.72 159.72 -1.69 177.89 18.64 186.36 6.78 174.5 -1.69 157.56 0 138.92 -1.69 133.84 8.47 135.53 -1.69 79.63 11.86 88.74 -10779.56 0z"/>
  <g id="_2544881054064">
   <path class="fil1" d="M1412.06 18611.26c5.18,-39.63 10.36,-79.24 15.54,-118.87 4.88,-38.71 9.76,-77.43 14.64,-116.13 3.05,-43.58 6.09,-87.18 9.14,-130.76 1.06,-45.7 2.13,-91.4 3.19,-137.1 2.1,-57.28 4.2,-114.57 6.3,-171.85 3.75,-90.64 7.51,-181.29 11.26,-271.92 0,-75.76 0,-151.51 0,-227.28 1.18,-62.79 2.36,-125.58 3.53,-188.37 2.63,-80.03 5.26,-160.07 7.89,-240.1 2.18,-41.34 4.35,-82.69 6.53,-124.04 0,-56.34 0,-112.68 0,-169.02 -0.49,-36.03 -0.97,-72.05 -1.46,-108.09 0.24,-35.55 0.49,-71.08 0.72,-106.63 -2.1,-62.28 -4.19,-124.55 -6.29,-186.83 0.46,-77.58 0.94,-155.15 1.4,-232.73 1.63,-57.72 3.27,-115.43 4.91,-173.15 5.11,-75.64 10.22,-151.28 15.33,-226.91 7.22,-75.62 14.44,-151.23 21.66,-226.85 7.97,-69.93 15.96,-139.84 23.94,-209.77 5.74,-64.36 11.48,-128.71 17.22,-193.07 6.61,-81.95 13.21,-163.91 19.82,-245.86 3.94,-55.67 7.86,-111.34 11.8,-167.01 2.65,-50.93 5.32,-101.85 7.97,-152.77 3.73,-44.45 7.47,-88.9 11.2,-133.35 8.12,-63.19 16.24,-126.38 24.36,-189.57 2.57,-33.27 5.15,-66.56 7.73,-99.83 6.62,-39.44 13.25,-78.89 19.88,-118.33 14.12,24.15 28.24,48.29 42.36,72.45 68.36,93.71 119.48,161.38 201.62,241.93 8.43,5.69 16.86,11.38 25.29,17.08 8.43,13.89 16.85,27.8 25.28,41.69 0,0 49.9,49.9 53.31,56.04 35.52,63.85 128.87,139.39 185.89,181.79 15.72,10.47 31.43,20.96 47.16,31.43 19.1,22.04 38.2,44.1 57.3,66.14 64.41,73.02 102.75,110.22 201.69,122.61 21.02,10.07 42.05,20.14 63.08,30.22 33.17,27.54 66.34,55.08 99.51,82.62 28.73,24.59 57.46,49.16 86.19,73.75 29.92,27.25 59.82,54.49 89.74,81.74 22.21,17.47 44.42,34.95 66.63,52.42 78.27,30.23 85.96,31.17 160.82,-5.33 0,0 81.74,65.75 95.07,75.52 296.43,217.38 558.02,342.75 861.23,440.75 683.28,220.88 1501.56,185.97 2203.54,-42.59 446.96,-145.53 585.55,-292.64 941.99,-585.72 7.54,36.18 15.07,72.35 22.61,108.53 16.58,14.58 33.16,29.14 49.74,43.72 14.07,5.02 28.14,10.05 42.21,15.07 18.09,5.02 36.18,10.05 54.26,15.07 17.09,-5.02 34.16,-10.05 51.25,-15.07 42.21,-34.16 84.41,-68.33 126.62,-102.5 19.6,-11.56 39.19,-23.11 58.79,-34.67 42.21,-11.56 84.41,-23.11 126.62,-34.67 28.14,-21.1 56.27,-42.21 84.41,-63.31 45.23,-28.64 90.44,-57.28 135.67,-85.92 37.18,-28.14 74.36,-56.27 111.54,-84.41 30.65,-18.09 61.3,-36.18 91.95,-54.26 30.14,-20.1 60.3,-40.19 90.44,-60.3 27.63,-19.6 55.28,-39.19 82.91,-58.79 33.16,-20.6 66.32,-41.2 99.48,-61.8 17.42,-14.87 34.84,-29.73 52.26,-44.6 12.37,-18.55 24.74,-37.11 37.11,-55.66 20.88,-34.4 41.74,-68.8 62.62,-103.2 27.05,-36.33 54.11,-72.66 81.16,-108.99 36.71,-53.35 73.44,-106.68 110.15,-160.03 26.77,-41.32 53.53,-82.63 80.3,-123.95 31.45,-38.95 62.88,-77.89 94.33,-116.84 8.57,-12.86 17.16,-25.73 25.73,-38.59 21.08,-19.3 42.16,-38.58 63.24,-57.88 16.44,-16.8 32.87,-33.58 49.31,-50.38 16.44,-18.94 32.87,-37.87 49.31,-56.81 18.22,-28.23 36.45,-56.45 54.67,-84.69 22.51,-20.36 45.02,-40.73 67.53,-61.09 18.22,-9.65 36.45,-19.3 54.67,-28.95 29.66,-16.07 59.32,-32.16 88.97,-48.23 34.3,-22.16 68.6,-44.31 102.9,-66.46 25.07,-16.72 50.14,-33.44 75.21,-50.16 24.89,-23.56 49.78,-47.14 74.67,-70.7 25.95,-30.45 51.9,-60.9 77.85,-91.35 24.36,-32.04 48.73,-64.08 73.09,-96.12 22.91,-29.24 45.82,-58.5 68.74,-87.75 27.62,-28.92 55.24,-57.84 82.86,-86.76 28.59,-29.9 57.19,-59.78 85.78,-89.68 28.27,-35.09 56.54,-70.19 84.81,-105.29 25.67,-32.49 51.34,-64.99 77.01,-97.48 26.32,-32.82 52.64,-65.64 78.96,-98.46 23.72,-25.67 47.44,-51.34 71.15,-77.01 28.92,-20.79 57.84,-41.6 86.76,-62.39 25.99,-20.79 51.99,-41.59 77.98,-62.38 24.64,-15.52 49.29,-31.03 73.92,-46.55 32.51,-16.82 65.03,-33.64 97.54,-50.45 20.55,-11.96 41.1,-23.91 61.65,-35.88 16.82,-14.58 33.64,-29.14 50.45,-43.72 6.72,34.38 13.45,68.76 20.17,103.14 11.21,50.82 22.43,101.64 33.64,152.46 3.74,33.64 7.47,67.26 11.21,100.9 4.48,25.04 8.98,50.08 13.46,75.12 4.86,28.4 9.71,56.8 14.57,85.19 4.48,32.14 8.98,64.27 13.46,96.41 5.98,39.62 11.95,79.22 17.93,118.84 3.74,41.1 7.47,82.22 11.21,123.32 9.34,48.2 18.69,96.41 28.03,144.61 9.72,58.68 19.43,117.34 29.15,176.02 7.1,44.47 14.2,88.93 21.3,133.4 5.65,28.18 11.3,56.36 16.95,84.54 7.8,29.9 15.6,59.79 23.4,89.69 14.95,38.03 29.9,76.04 44.84,114.07 16.9,37.7 33.8,75.39 50.7,113.09 21.13,44.84 42.24,89.69 63.37,134.53 16.25,34.12 32.5,68.25 48.75,102.37 18.84,33.79 37.7,67.59 56.54,101.38 13,30.55 26,61.1 39,91.65 7.15,29.24 14.31,58.49 21.46,87.73 9.07,39.35 18.15,78.71 27.22,118.05 0,0 26.91,117.35 26.91,121.36 0,4.01 25.75,104.17 25.75,108.76 0,4.59 38.36,139.11 38.36,139.11 10.68,50.75 21.37,101.5 32.05,152.26 6.11,36.83 12.21,73.65 18.32,110.48 3.66,29.77 7.31,59.54 10.97,89.32 3.19,31.61 6.39,63.22 9.59,94.83 3.73,34.81 7.47,69.62 11.2,104.43 10.3,48.3 20.6,96.62 30.9,144.92 9.41,34.1 18.82,68.19 28.23,102.29 21.52,48.84 43.05,97.67 64.56,146.51 21.47,42.28 42.94,84.56 64.41,126.85 18.17,36.66 36.33,73.33 54.5,110 15.53,46.25 31.05,92.5 46.58,138.75 2.64,28.41 5.29,56.82 7.93,85.22 4.96,37.32 9.91,74.66 14.87,111.98 3.97,34.36 7.92,68.71 11.89,103.06 8.58,24.77 17.18,49.55 25.76,74.33 0,0 37.9,101.9 37.9,115.76 0,13.86 29.47,102.26 29.47,102.26 0,0 41.6,69.34 41.6,88.41 0,19.07 32.93,157.73 32.93,157.73 0,0 17.33,133.47 17.33,149.07 0,15.6 6.93,107.48 6.93,119.6 0,12.13 -8.67,83.2 -8.67,83.2 -13.81,1.39 -27.63,2.79 -41.44,4.18 -18.15,-15.26 -36.29,-30.51 -54.44,-45.76 -12.89,-24.89 -25.77,-49.78 -38.67,-74.67 0,0 -13.34,-5.34 -17.33,-24.01 -4,-18.67 -25.34,-93.33 -25.34,-93.33 -11.12,-17.33 -22.22,-34.67 -33.34,-52 -13.34,-11.12 -26.66,-22.22 -40,-33.34 -8.44,-4.89 -16.89,-9.77 -25.33,-14.66 -20,-3.55 -40,-7.12 -60,-10.67 -19.56,-9.78 -39.12,-19.56 -58.68,-29.34 -18.67,-15.11 -37.33,-30.22 -56,-45.33 -21.78,-8 -43.55,-16 -65.33,-24 -36,-10.23 -72,-20.44 -108,-30.67 -22.22,-8.89 -44.45,-17.78 -66.67,-26.67 -21.78,-7.55 -43.56,-15.11 -65.34,-22.66 -22.51,-5.85 -45.02,-11.69 -67.53,-17.54 -18.68,-0.58 -37.34,-1.15 -56.02,-1.73 -24.71,-5.74 -49.41,-11.49 -74.12,-17.23 -12.35,-0.58 -24.7,-1.15 -37.05,-1.73 0,0 -85.32,-8.62 -91.35,-12.07 -6.03,-3.45 -85.33,-17.24 -85.33,-17.24 -25.57,-2.29 -51.13,-4.6 -76.7,-6.89 -24.71,-2.87 -49.41,-5.75 -74.12,-8.63 -31.31,-3.16 -62.62,-6.31 -93.93,-9.47 -26.15,-1.44 -52.28,-2.87 -78.43,-4.31 -19.53,0 -39.07,0 -58.6,0 -21.55,-0.87 -43.09,-1.73 -64.64,-2.59 -16.37,2.01 -32.76,4.02 -49.13,6.03 -12.35,0.29 -24.7,0.58 -37.05,0.87 -26.52,1.37 -53.03,2.76 -79.54,4.13 -41.65,2.24 -83.31,4.49 -124.96,6.74 -36.21,3.84 -72.43,7.7 -108.63,11.54 -31.4,5.76 -62.81,11.54 -94.21,17.3 -17.62,0 -35.25,0 -52.87,0 -34.93,5.44 -69.86,10.9 -104.79,16.34 -21.15,3.52 -42.3,7.05 -63.45,10.57 -16.02,2.88 -32.04,5.77 -48.07,8.66 -24.67,3.84 -49.35,7.7 -74.02,11.54 -18.26,5.12 -36.54,10.25 -54.8,15.37 -17.3,3.84 -34.61,7.7 -51.91,11.54 -15.38,5.44 -30.76,10.9 -46.15,16.34 -22.75,6.72 -45.5,13.46 -68.25,20.19 -14.42,4.8 -28.84,9.62 -43.26,14.42 -14.74,5.12 -29.47,10.26 -44.21,15.38 -12.82,4.8 -25.64,9.62 -38.46,14.42 -22.43,7.38 -44.86,14.74 -67.29,22.12 -8.01,5.44 -16.02,10.9 -24.03,16.34 -7.7,1.92 -15.38,3.84 -23.08,5.76 -15.06,7.37 -30.12,14.74 -45.18,22.11 -45.33,17.59 -90.67,35.17 -136,52.77 -24.23,17.52 -48.46,35.04 -72.69,52.56 -33.18,11.56 -66.35,23.11 -99.53,34.67 -42.5,22.36 -84.99,44.74 -127.49,67.11 -42.87,27.21 -85.74,54.43 -128.61,81.64 -28.34,23.85 -56.66,47.72 -85,71.57 -38.77,23.49 -77.54,46.97 -116.31,70.46 -57.78,38.4 -115.56,76.8 -173.34,115.19 -64.2,44.15 -128.4,88.31 -192.61,132.46 -93.98,38.64 -187.96,77.28 -281.94,115.92 -88.47,46.39 -176.93,92.78 -265.39,139.17 -106.8,58.25 -213.61,116.51 -320.41,174.77 -91.7,33.45 -183.4,66.89 -275.1,100.34 -120.83,32.36 -241.66,64.73 -362.49,97.09 -64.73,6.48 -129.46,12.94 -194.19,19.42 -35.6,16.18 -71.21,32.36 -106.8,48.54 -24.81,14.03 -49.63,28.05 -74.44,42.08 -38.84,2.16 -77.67,4.32 -116.51,6.48 -42.08,9.71 -84.15,19.42 -126.23,29.13 -35.6,12.94 -71.21,25.89 -106.8,38.83 -80.91,20.5 -161.82,41 -242.73,61.5 -57.18,19.42 -114.36,38.84 -171.53,58.26 -59.34,12.94 -118.67,25.89 -178.01,38.83 -97.09,7.55 -194.2,15.1 -291.29,22.65 -56.35,10.68 -112.71,21.37 -169.06,32.05 -56.39,8.38 -112.8,16.76 -169.19,25.13 -67.56,18.43 -135.12,36.85 -202.68,55.28 -37.42,10.05 -74.82,20.09 -112.24,30.14 -61.98,8.38 -123.95,16.76 -185.93,25.13 -51.37,8.38 -102.73,16.75 -154.11,25.12 -59.74,7.26 -119.49,14.51 -179.23,21.78 -84.87,15.07 -169.74,30.15 -254.61,45.23 -58.07,10.05 -116.14,20.1 -174.21,30.15 -91.57,12.28 -183.14,24.57 -274.71,36.85 -120.05,15.64 -240.1,31.27 -360.14,46.91 -112.57,9.49 -225.14,18.99 -337.71,28.48 -110.78,2.69 -221.55,5.36 -332.33,8.05 -63.01,1.07 -126.02,2.14 -189.03,3.21 -18.16,0.28 -36.32,0.57 -54.48,0.85 -19.83,-0.56 -39.67,-1.13 -59.5,-1.68 -22.91,-4.19 -45.82,-8.38 -68.74,-12.57 -13.97,5.87 -27.94,11.74 -41.91,17.6 -9.49,14.52 -19,29.06 -28.49,43.58 -9.78,-0.28 -19.56,-0.56 -29.34,-0.84 -17.6,-6.43 -35.21,-12.85 -52.81,-19.28 0,0 -41.9,-40.23 -45.26,-51.12 -3.36,-10.9 -13.42,-102.26 -13.42,-102.26 3.64,-44.99 7.26,-89.97 10.9,-134.95 3.36,-31.01 6.7,-62.02 10.06,-93.03 5.66,-13.39 11.31,-26.79 16.97,-40.17z"/>
   <path class="fil1" d="M1763.66 10863.35l19.98 -124.86 31.63 -184.81 24.97 -216.43 36.63 -278.04 24.97 -288.03 13.21 -230.68 -3.35 -146.44 -4.47 -196.74 -6.71 -77.14 -68.18 -186.68 -85.07 -235.02 -80.63 -225.93 -54.02 -156.7 -67.85 -181.19 -79.83 -175.03 -118.73 -184.23 -116.68 -136.12 -121.75 -118.55 -146.28 -146.28 -37.92 -1.35 -55.53 -28.44 -52.82 -35.22 -21.37 -24.31 -33.33 -30.63 -40.09 -45.04 -29.73 -45.95 -82.26 -146.13 -84.06 -183.28 -73.03 -201.18 -88.19 -219.1 -106.13 -252.52 -80.46 -299.5 -40.24 -226.19c0,0 -22.34,-226.12 -22.34,-232.72 0,-6.6 -7.71,-257.49 -7.71,-257.49l-3.3 -303.71 1.1 -293.81 -10.77 -383.79 -1.98 -333.49 -23.35 -274.59 -19.29 -172.06 -20.6 -178.69 -19.95 -164.34 -8.16 -108.11 14.83 -20.77 5.94 -44.51 36.21 -61.14 28.49 -40.36 79.91 -63.95 66.86 -47.76 118.2 -69.25 127.75 -71.63 105.07 -70.44 177.47 -122.71 253.4 -147.82c387.58,-275.05 1038.15,-719.98 1291.1,-1040.73l138.77 -96.54 226.34 -124.52 -0.06 0.05c119.79,399.33 837.76,1445.07 1123.53,1797.93 186.91,230.79 356.25,416.83 476.33,560.24 124.04,148.16 251.17,338.56 267.52,338.67l661.73 4c0.93,-27.96 22.52,-98.68 26.7,-116.81 33.73,-145.83 106.52,-210.79 238.67,-442.84 228.88,-401.88 409.39,-753.09 586.75,-1121.96 125.44,-260.87 239.54,-533.84 344.41,-847.49 121.31,-362.83 187.49,-714.26 66.91,-894.97l186.38 3.8 182.58 49.44 163.55 53.25 140.74 60.87 235.82 72.26 283.88 66.72 348.68 75.65 558.08 106.38 390.52 78.1 349.17 68.92 213.64 39.05 119.46 34.46 42.02 21.15 45.52 55.1 17.97 64.69 10.78 91.05 -58.71 -32.34 -79.07 1.2c0,0 -8.38,75.46 -9.58,87.45 -1.2,11.98 -38.34,182.09 -37.14,191.68 1.2,9.59 -19.17,250.37 -19.17,250.37l-28.75 268.34 -4.02 338.48 9.35 373.78 28.03 280.33 18.69 258.52 37.82 391.94 39.54 425.12 -16.48 247.16 29.66 204.32 13.19 250.46 3.3 293.3 -1.17 266.4 0 225.3 0 153.08c0,0 -40.44,89.54 -51.99,112.65 -11.55,23.11 -40.44,112.65 -46.22,141.53 -5.77,28.88 -46.21,138.64 -46.21,164.64 0,26 -8.67,155.98 -8.67,155.98l25.99 98.21c0,0 14.45,57.77 20.23,75.1 5.77,17.33 25.99,69.33 25.99,92.44 0,23.11 2.89,95.32 2.89,95.32l2.88 138.64c0,0 34.67,75.1 40.44,92.44 5.77,17.33 5.77,54.87 14.44,72.21 8.67,17.33 23.11,121.32 23.11,121.32l14.44 115.54 28.88 202.19c0,0 43.78,280.96 43.78,310.83 0,29.86 26.89,173.25 26.89,173.25l5.97 244.94c0,0 14.94,227.01 14.94,268.83 0,41.83 11.95,212.09 11.95,212.09l29.86 218.05 5.98 173.26 14.93 256.88 -8.96 95.59 66.42 177.76 121.57 330.92 114.8 280.27 77.67 202.61 -30.61 69.59 -41.03 50.11 -51.96 64.19 -41.27 55.02 -25.22 40.5 -29.8 42.79 -12.99 21.4 -13 17.57 -33.62 13.75 -31.33 16.05 -52.73 27.51 -45.09 27.51 -45.08 23.69 -32.1 13 -22.17 5.35 -98.57 45.08 -29.8 13.76 -18.35 19.1 -59.16 8.98 -104.84 18.84 -137.83 18.85 -127.22 3.53 -147.25 3.53 -109.55 1.18 -143.71 2.36 -155.5 0 -175.51 -16.5 -107.2 -15.31 -108.37 -27.1 -74.21 -21.2 -69.5 -12.96 -95.42 -34.16 -62.44 -34.16 -89.52 -71.86 -88.35 -75.39 -94.23 -103.66 -80.1 -96.59 -71.45 -75.91 -45.8 -60.62 -43.11 -59.27 -26.27 -41.08 -56.58 -51.86 -59.95 -28.97 -46.48 -16.84 -82.17 -20.88 -61.3 -25.6 -78.8 -50.51 -82.18 -59.95 -59.95 -45.8 -32.33 -28.28 -33.01 -36.37 -51.86 -45.8 -53.88 -49.84 -31.66 -18.85 -41.08 -16.17 -28.97 -12.13 -49.17 -4.04 -41.08 6.06 -33.68 16.84 -22.23 20.88 -26.27 27.62 -20.88 29.63 -14.14 48.5 2.7 66.01c0,0 10.09,55.22 12.12,59.26 2.02,4.05 18.86,56.58 18.86,56.58l-66.01 -39.74 -90.93 -51.19 -244.83 -99.84 -434.17 -137.04 -322.33 -71.27 -236.82 -21.92 -202.82 -1.11 -185.29 4.39 -177.61 13.16 -152.4 18.64 -164.46 42.76 -121.17 34.01 -155.7 54.82 -32.89 -17.54 -44.96 -5.49 -53.72 0 -30.7 3.3 -59.2 26.31 -30.7 27.42 -28.51 19.73 -62.5 58.11 -127.18 88.81 -80.04 37.28 -166.34 107.06 -173.9 128.28 -154.03 143.45 -182.1 186.44 -58.54 78.04c0,0 -45.53,52.03 -75.88,75.88 -30.35,23.84 -125.73,78.04 -125.73,78.04l-136.58 54.19 -130.08 30.35 -88.88 10.84 -88.88 21.68 -154.39 41.8z"/>
  </g>
  <g id="_2544881053344">
   <g>
    <g>
     <path class="fil1" d="M9392.72 4679.03c-1.66,-0.99 -7.13,-9.9 -8.7,-12.54 -2.61,-4.43 -4.9,-9.28 -6.87,-14.36 -26.8,-68.94 22.07,-148.31 99.57,-152.51 60.8,-3.29 110.84,43.17 112.39,103.85 0.33,12.79 -1.58,25.45 -5.14,36.62 -3.27,10.26 -8.26,20.7 -13.57,28.4 -6.75,9.78 -11.18,14.45 -19.29,23.09 -27.12,28.87 -54.54,59.07 -81.58,88.29 -2.5,2.7 -19.18,21.26 -20.46,21.84 -0.81,-1.22 -2.62,-3.09 -4.33,-5.6 -1.48,-2.18 -2.41,-3.97 -3.51,-6.28 -7.24,-15.07 -4.58,-33.49 4.05,-46.35l76.35 -83.27c6.25,-6.72 12.15,-12.52 17.07,-22.56 21.97,-44.95 -9.96,-97.18 -60.87,-94.52 -38.12,1.99 -64.75,33.98 -64.58,68.52 0.03,6.74 1.11,13.53 2.98,19.43 2.26,7.12 6.7,14.74 6.89,15.18l-30.39 32.78z"/>
     <path class="fil1" d="M9569.93 4698.83c1.67,0.99 7.13,9.9 8.7,12.54 2.62,4.43 4.91,9.29 6.88,14.36 26.8,68.95 -22.08,148.31 -99.58,152.51 -60.8,3.29 -110.84,-43.17 -112.39,-103.85 -0.32,-12.79 1.58,-25.45 5.14,-36.62 3.27,-10.26 8.27,-20.7 13.57,-28.39 6.75,-9.79 11.18,-14.46 19.29,-23.1 27.12,-28.87 54.54,-59.07 81.59,-88.28 2.49,-2.7 19.17,-21.27 20.45,-21.85 0.82,1.22 2.62,3.09 4.33,5.6 1.48,2.18 2.41,3.97 3.52,6.28 7.23,15.07 4.57,33.5 -4.06,46.35l-76.35 83.28c-6.25,6.71 -12.15,12.51 -17.07,22.55 -21.97,44.95 9.96,97.18 60.87,94.52 38.12,-1.99 64.76,-33.97 64.6,-68.52 -0.04,-6.74 -1.12,-13.53 -2.99,-19.42 -2.26,-7.13 -6.69,-14.75 -6.88,-15.19l30.38 -32.78z"/>
    </g>
    <g>
     <path class="fil1" d="M9360.34 6286.3c-1.61,-1.58 -8.27,-12.62 -10.22,-15.9 -3.24,-5.46 -6.3,-11.26 -9.17,-17.19 -38.97,-80.48 -18.49,-146.96 44,-125.89 49.02,16.54 101.48,81.26 117.71,144.86 3.42,13.41 4.98,25.94 4.81,36.38 -0.15,9.6 -1.67,18.82 -4.12,25.07 -3.12,7.96 -5.6,11.36 -10.11,17.69 -15.1,21.13 -30.13,43.52 -45.08,65.03 -1.38,1.98 -10.47,15.83 -11.38,16 -0.96,-1.53 -2.91,-4.07 -4.93,-7.24 -1.75,-2.75 -2.95,-4.92 -4.43,-7.69 -9.65,-18.05 -12,-36.32 -8.1,-46.86l42.02 -61.55c3.47,-4.94 6.88,-9.02 8.42,-17.85 6.93,-39.52 -32.12,-104.31 -73.18,-118.25 -30.74,-10.43 -44.69,14.07 -36.03,50.05 1.68,7.01 4.25,14.43 7.23,21.18 3.61,8.15 9.12,17.53 9.38,18.04l-16.82 24.12z"/>
     <path class="fil1" d="M9510.44 6365.03c1.61,1.58 8.27,12.63 10.22,15.9 3.23,5.46 6.3,11.26 9.17,17.19 38.97,80.48 18.49,146.97 -44,125.89 -49.02,-16.53 -101.48,-81.26 -117.71,-144.86 -3.42,-13.4 -4.98,-25.94 -4.81,-36.38 0.15,-9.6 1.67,-18.81 4.12,-25.07 3.12,-7.95 5.59,-11.36 10.11,-17.69 15.09,-21.13 30.13,-43.52 45.08,-65.03 1.38,-1.98 10.47,-15.83 11.38,-16 0.96,1.54 2.91,4.08 4.93,7.24 1.75,2.75 2.95,4.92 4.43,7.69 9.65,18.05 12,36.33 8.1,46.86l-42.02 61.55c-3.47,4.94 -6.88,9.02 -8.43,17.86 -6.92,39.51 32.13,104.3 73.19,118.24 30.74,10.44 44.69,-14.07 36.03,-50.05 -1.68,-7 -4.25,-14.43 -7.23,-21.18 -3.61,-8.15 -9.13,-17.53 -9.38,-18.04l16.82 -24.12z"/>
    </g>
    <g>
     <path class="fil1" d="M9356.47 5741.3c-1.15,-1.8 -3.09,-13.13 -3.62,-16.48 -0.88,-5.58 -1.33,-11.4 -1.45,-17.28 -1.51,-79.82 66.36,-130.94 135.4,-95.32 54.15,27.95 83.11,98.1 65.19,157.08 -3.78,12.43 -9.46,23.59 -16.12,32.48 -6.12,8.17 -13.8,15.63 -20.87,20.29 -9.01,5.93 -14.36,8.14 -24.18,12.28 -32.85,13.81 -66.39,28.75 -99.29,42.93 -3.03,1.31 -23.5,10.59 -24.79,10.49 -0.33,-1.58 -1.32,-4.31 -2.01,-7.58 -0.6,-2.84 -0.84,-5.03 -1.07,-7.82 -1.54,-18.16 6.64,-34.46 18.25,-42.37l93.13 -40.81c7.6,-3.24 14.59,-5.78 22.07,-12.9 33.47,-31.86 22.16,-98.28 -23.15,-121.77 -33.92,-17.58 -67.34,-0.54 -78.17,32.67 -2.11,6.48 -3.33,13.54 -3.56,20.15 -0.29,7.99 1.17,17.57 1.2,18.08l-36.95 15.89z"/>
     <path class="fil1" d="M9504.97 5850.93c1.14,1.81 3.08,13.14 3.61,16.48 0.89,5.59 1.34,11.4 1.45,17.29 1.52,79.82 -66.36,130.94 -135.39,95.31 -54.15,-27.94 -83.12,-98.09 -65.19,-157.07 3.77,-12.43 9.45,-23.59 16.12,-32.48 6.12,-8.17 13.79,-15.63 20.87,-20.29 9,-5.93 14.35,-8.15 24.18,-12.28 32.85,-13.82 66.39,-28.75 99.28,-42.94 3.04,-1.3 23.5,-10.59 24.8,-10.47 0.33,1.58 1.31,4.31 2,7.58 0.6,2.84 0.85,5.03 1.08,7.82 1.53,18.16 -6.64,34.46 -18.26,42.37l-93.13 40.81c-7.59,3.24 -14.59,5.77 -22.07,12.9 -33.46,31.86 -22.16,98.28 23.15,121.76 33.92,17.59 67.35,0.55 78.17,-32.66 2.12,-6.48 3.33,-13.54 3.56,-20.15 0.29,-7.99 -1.17,-17.57 -1.19,-18.08l36.95 -15.9z"/>
    </g>
    <g>
     <path class="fil1" d="M9416.18 5233.99c-1.6,-1.13 -6.34,-10.4 -7.71,-13.16 -2.26,-4.61 -4.16,-9.61 -5.73,-14.8 -21.29,-70.6 34.01,-145.36 111.95,-143.18 61.14,1.7 107.52,51.89 104.19,112.22 -0.7,12.72 -3.63,25.12 -8.09,35.91 -4.1,9.92 -9.94,19.88 -15.87,27.07 -7.54,9.16 -12.35,13.43 -21.17,21.34 -29.46,26.42 -59.36,54.15 -88.77,80.94 -2.72,2.47 -20.91,19.53 -22.24,20 -0.71,-1.28 -2.38,-3.29 -3.88,-5.91 -1.3,-2.28 -2.1,-4.13 -3.02,-6.52 -6.03,-15.55 -1.89,-33.61 7.78,-45.66l83.13 -76.39c6.81,-6.16 13.17,-11.43 18.89,-20.99 25.61,-42.8 -2.17,-97.23 -53.35,-98.75 -38.33,-1.15 -67.56,28.41 -70.17,62.7 -0.51,6.68 0.03,13.51 1.43,19.51 1.69,7.25 5.53,15.19 5.68,15.62l-33.06 30.05z"/>
     <path class="fil1" d="M9592.01 5268.11c1.59,1.13 6.34,10.4 7.7,13.16 2.27,4.61 4.16,9.61 5.73,14.8 21.3,70.6 -34,145.36 -111.94,143.18 -61.14,-1.7 -107.52,-51.89 -104.19,-112.22 0.69,-12.72 3.62,-25.12 8.09,-35.92 4.1,-9.91 9.94,-19.87 15.87,-27.05 7.54,-9.16 12.34,-13.43 21.17,-21.34 29.46,-26.42 59.35,-54.15 88.77,-80.94 2.72,-2.47 20.91,-19.53 22.23,-20 0.72,1.28 2.39,3.29 3.88,5.91 1.31,2.28 2.1,4.13 3.03,6.52 6.03,15.55 1.88,33.61 -7.79,45.66l-83.12 76.39c-6.81,6.16 -13.18,11.43 -18.9,20.99 -25.61,42.8 2.17,97.23 53.36,98.75 38.33,1.15 67.56,-28.41 70.16,-62.7 0.52,-6.68 -0.02,-13.51 -1.43,-19.51 -1.68,-7.25 -5.52,-15.19 -5.67,-15.62l33.06 -30.05z"/>
    </g>
    <g>
     <path class="fil1" d="M9353.17 4113.95c-1.6,-1.08 -6.52,-10.31 -7.92,-13.05 -2.36,-4.58 -4.34,-9.57 -6.01,-14.76 -22.63,-70.48 30.8,-146.88 108.34,-146.46 60.83,0.33 107.98,49.72 105.93,110.45 -0.43,12.8 -3.08,25.33 -7.29,36.28 -3.87,10.05 -9.48,20.2 -15.23,27.56 -7.3,9.38 -12,13.78 -20.6,21.93 -28.75,27.24 -57.9,55.78 -86.6,83.38 -2.64,2.54 -20.38,20.11 -21.69,20.61 -0.73,-1.26 -2.44,-3.24 -3.99,-5.85 -1.34,-2.26 -2.17,-4.11 -3.13,-6.49 -6.32,-15.5 -2.57,-33.74 6.79,-46.07l81.08 -78.69c6.63,-6.34 12.86,-11.78 18.36,-21.52 24.58,-43.6 -4.17,-97.69 -55.09,-98.06 -38.14,-0.28 -66.6,30.09 -68.48,64.63 -0.36,6.74 0.31,13.58 1.82,19.59 1.84,7.25 5.81,15.14 5.97,15.58l-32.25 30.95z"/>
     <path class="fil1" d="M9528.71 4144.27c1.61,1.08 6.52,10.31 7.93,13.05 2.34,4.58 4.34,9.57 6,14.76 22.63,70.48 -30.8,146.88 -108.34,146.46 -60.83,-0.33 -107.98,-49.72 -105.93,-110.45 0.43,-12.8 3.09,-25.33 7.3,-36.28 3.87,-10.05 9.47,-20.2 15.22,-27.56 7.31,-9.38 12,-13.78 20.61,-21.93 28.75,-27.24 57.89,-55.78 86.59,-83.38 2.64,-2.54 20.38,-20.11 21.69,-20.61 0.74,1.26 2.44,3.24 3.99,5.85 1.34,2.26 2.17,4.11 3.14,6.49 6.32,15.5 2.57,33.74 -6.8,46.07l-81.07 78.69c-6.64,6.34 -12.86,11.78 -18.36,21.52 -24.58,43.6 4.16,97.69 55.09,98.06 38.13,0.28 66.59,-30.09 68.47,-64.63 0.37,-6.74 -0.3,-13.58 -1.82,-19.59 -1.83,-7.25 -5.81,-15.14 -5.96,-15.58l32.24 -30.95z"/>
    </g>
    <g>
     <path class="fil1" d="M9284.9 3549c-1.67,-1 -7.12,-9.92 -8.68,-12.57 -2.61,-4.43 -4.9,-9.29 -6.86,-14.38 -26.71,-69.04 22.17,-148.42 99.59,-152.55 60.75,-3.23 110.71,43.33 112.21,104.07 0.31,12.8 -1.6,25.47 -5.17,36.65 -3.29,10.26 -8.28,20.71 -13.58,28.41 -6.76,9.78 -11.18,14.45 -19.29,23.09 -27.12,28.87 -54.54,59.08 -81.58,88.29 -2.49,2.7 -19.17,21.27 -20.45,21.85 -0.81,-1.22 -2.61,-3.1 -4.32,-5.61 -1.48,-2.18 -2.41,-3.98 -3.51,-6.29 -7.21,-15.1 -4.53,-33.53 4.09,-46.39l76.34 -83.28c6.25,-6.72 12.15,-12.51 17.07,-22.56 21.98,-44.97 -9.88,-97.28 -60.73,-94.68 -38.08,1.95 -64.72,33.93 -64.57,68.52 0.02,6.74 1.1,13.54 2.96,19.45 2.24,7.13 6.67,14.77 6.86,15.2l-30.38 32.79z"/>
     <path class="fil1" d="M9461.91 3569c1.67,0.99 7.12,9.91 8.68,12.56 2.61,4.43 4.9,9.3 6.86,14.38 26.71,69.05 -22.16,148.44 -99.59,152.55 -60.75,3.23 -110.71,-43.33 -112.2,-104.07 -0.32,-12.8 1.59,-25.46 5.17,-36.64 3.27,-10.27 8.27,-20.71 13.57,-28.41 6.76,-9.79 11.19,-14.46 19.3,-23.1 27.11,-28.87 54.53,-59.07 81.57,-88.29 2.49,-2.7 19.17,-21.27 20.45,-21.84 0.82,1.22 2.62,3.1 4.32,5.61 1.48,2.18 2.41,3.97 3.51,6.28 7.22,15.1 4.53,33.54 -4.09,46.39l-76.33 83.28c-6.26,6.72 -12.16,12.52 -17.08,22.57 -21.98,44.96 9.88,97.28 60.73,94.67 38.09,-1.95 64.72,-33.93 64.58,-68.51 -0.03,-6.75 -1.11,-13.55 -2.96,-19.45 -2.25,-7.14 -6.68,-14.77 -6.87,-15.21l30.38 -32.78z"/>
    </g>
    <g>
     <path class="fil1" d="M9229.08 2957.28c-1.62,-1.06 -6.69,-10.21 -8.14,-12.92 -2.43,-4.55 -4.49,-9.5 -6.25,-14.67 -23.81,-70.17 28.25,-147.55 105.71,-148.44 60.76,-0.7 108.69,47.95 107.68,108.77 -0.22,12.82 -2.65,25.41 -6.67,36.45 -3.7,10.12 -9.12,20.37 -14.73,27.84 -7.14,9.51 -11.76,14 -20.21,22.3 -28.25,27.75 -56.88,56.82 -85.07,84.91 -2.59,2.59 -20.01,20.47 -21.31,20.99 -0.76,-1.25 -2.49,-3.2 -4.08,-5.78 -1.38,-2.24 -2.23,-4.08 -3.24,-6.44 -6.58,-15.41 -3.14,-33.74 6,-46.24l79.63 -80.12c6.52,-6.47 12.64,-12 17.97,-21.86 23.8,-44.06 -5.84,-97.71 -56.7,-97.23 -38.09,0.37 -65.99,31.25 -67.28,65.84 -0.26,6.75 0.54,13.59 2.15,19.58 1.95,7.23 6.05,15.05 6.23,15.5l-31.68 31.52z"/>
     <path class="fil1" d="M9404.92 2984.67c1.62,1.07 6.68,10.22 8.14,12.93 2.43,4.55 4.49,9.5 6.25,14.67 23.81,70.17 -28.26,147.55 -105.71,148.44 -60.76,0.69 -108.69,-47.95 -107.68,-108.77 0.22,-12.82 2.65,-25.41 6.67,-36.45 3.7,-10.13 9.12,-20.37 14.73,-27.85 7.14,-9.5 11.76,-13.99 20.21,-22.29 28.25,-27.75 56.87,-56.82 85.06,-84.91 2.6,-2.59 20.02,-20.47 21.32,-20.99 0.76,1.25 2.49,3.2 4.08,5.78 1.38,2.24 2.23,4.08 3.24,6.44 6.58,15.4 3.14,33.74 -6,46.24l-79.63 80.12c-6.53,6.46 -12.65,12 -17.97,21.85 -23.8,44.06 5.84,97.72 56.69,97.23 38.1,-0.36 66,-31.24 67.29,-65.83 0.26,-6.75 -0.54,-13.59 -2.15,-19.59 -1.95,-7.22 -6.06,-15.05 -6.23,-15.49l31.68 -31.53z"/>
    </g>
    <g>
     <path class="fil1" d="M9200.1 2340.23c-1.63,-1.04 -6.83,-10.14 -8.33,-12.84 -2.49,-4.52 -4.64,-9.46 -6.47,-14.62 -24.89,-70.01 25.77,-148.35 102.98,-150.39 60.58,-1.6 109.17,46.47 109.14,107.46 0,12.86 -2.22,25.52 -6.05,36.64 -3.52,10.21 -8.76,20.56 -14.24,28.14 -6.96,9.64 -11.49,14.2 -19.78,22.65 -27.72,28.24 -55.78,57.81 -83.44,86.39 -2.55,2.63 -19.62,20.83 -20.91,21.36 -0.79,-1.24 -2.53,-3.17 -4.16,-5.73 -1.42,-2.23 -2.29,-4.06 -3.34,-6.42 -6.82,-15.34 -3.69,-33.77 5.23,-46.44l78.1 -81.51c6.39,-6.58 12.41,-12.23 17.55,-22.18 23.02,-44.53 -7.41,-97.89 -58.11,-96.65 -37.97,0.93 -65.3,32.31 -66.02,67.01 -0.14,6.77 0.75,13.63 2.46,19.6 2.07,7.22 6.29,15.01 6.46,15.44l-31.07 32.08z"/>
     <path class="fil1" d="M9375.88 2365.09c1.64,1.04 6.84,10.13 8.34,12.84 2.49,4.52 4.64,9.46 6.47,14.62 24.89,70.01 -25.77,148.35 -102.98,150.39 -60.58,1.6 -109.17,-46.47 -109.14,-107.46 0,-12.86 2.22,-25.53 6.05,-36.64 3.52,-10.22 8.76,-20.57 14.24,-28.14 6.96,-9.64 11.49,-14.2 19.78,-22.65 27.72,-28.24 55.78,-57.81 83.44,-86.39 2.55,-2.64 19.62,-20.83 20.91,-21.37 0.77,1.25 2.53,3.18 4.16,5.74 1.42,2.23 2.29,4.06 3.34,6.4 6.82,15.35 3.69,33.78 -5.23,46.44l-78.1 81.52c-6.39,6.58 -12.41,12.22 -17.55,22.18 -23.02,44.52 7.4,97.89 58.11,96.65 37.97,-0.94 65.3,-32.31 66.02,-67.01 0.14,-6.77 -0.75,-13.63 -2.46,-19.6 -2.07,-7.22 -6.29,-15.01 -6.46,-15.44l31.06 -32.08z"/>
    </g>
    <g>
     <path class="fil1" d="M9190.14 1702.68c-1.58,-1.13 -6.3,-10.47 -7.65,-13.25 -2.26,-4.65 -4.14,-9.69 -5.71,-14.93 -21.25,-71.2 33.38,-146.83 110.6,-144.89 60.58,1.52 106.63,52.03 103.46,112.94 -0.66,12.84 -3.53,25.37 -7.93,36.28 -4.04,10.01 -9.8,20.08 -15.66,27.36 -7.46,9.27 -12.21,13.59 -20.93,21.6 -29.13,26.79 -58.69,54.86 -87.77,81.99 -2.69,2.5 -20.67,19.78 -21.98,20.26 -0.72,-1.28 -2.38,-3.31 -3.86,-5.95 -1.3,-2.29 -2.09,-4.16 -3.01,-6.57 -6.01,-15.67 -1.94,-33.91 7.61,-46.1l82.19 -77.38c6.72,-6.24 13.03,-11.58 18.68,-21.25 25.28,-43.28 -2.36,-98.14 -53.07,-99.51 -37.96,-1.02 -66.87,28.9 -69.38,63.52 -0.49,6.76 0.05,13.65 1.46,19.7 1.68,7.31 5.5,15.31 5.65,15.75l-32.68 30.43z"/>
     <path class="fil1" d="M9364.41 1736.56c1.58,1.13 6.3,10.47 7.65,13.25 2.25,4.65 4.14,9.69 5.71,14.93 21.24,71.2 -33.38,146.83 -110.6,144.89 -60.58,-1.52 -106.63,-52.03 -103.47,-112.94 0.67,-12.84 3.54,-25.37 7.94,-36.28 4.04,-10.01 9.8,-20.08 15.66,-27.36 7.45,-9.27 12.21,-13.59 20.92,-21.6 29.13,-26.78 58.69,-54.86 87.78,-81.99 2.69,-2.5 20.67,-19.78 21.98,-20.26 0.71,1.28 2.37,3.31 3.86,5.95 1.3,2.29 2.09,4.16 3.01,6.57 6.01,15.67 1.94,33.91 -7.61,46.11l-82.19 77.37c-6.72,6.24 -13.03,11.58 -18.68,21.25 -25.28,43.28 2.36,98.15 53.06,99.51 37.97,1.02 66.88,-28.9 69.39,-63.52 0.49,-6.76 -0.06,-13.65 -1.46,-19.7 -1.68,-7.31 -5.51,-15.31 -5.65,-15.75l32.68 -30.43z"/>
    </g>
    <g>
     <path class="fil1" d="M9266.6 1111.2c-1.45,-1.3 -5.09,-11.15 -6.13,-14.07 -1.73,-4.88 -3.05,-10.1 -4.02,-15.51 -13.19,-73.3 49.33,-142.54 125.67,-131.97 59.88,8.28 99.96,63.75 90.08,124.08 -2.08,12.72 -6.3,24.88 -11.88,35.25 -5.11,9.53 -11.94,18.91 -18.55,25.52 -8.41,8.4 -13.6,12.18 -23.13,19.18 -31.85,23.42 -64.24,48.09 -96.08,71.87 -2.93,2.19 -22.67,17.4 -24.04,17.72 -0.57,-1.35 -1.98,-3.55 -3.17,-6.35 -1.03,-2.44 -1.6,-4.39 -2.25,-6.88 -4.23,-16.29 1.83,-34.01 12.64,-45.09l90.04 -67.9c7.37,-5.45 14.19,-10.06 20.87,-19.07 29.84,-40.3 8.52,-98.03 -41.6,-105.07 -37.53,-5.27 -69.49,21.31 -75.81,55.53 -1.23,6.66 -1.45,13.59 -0.73,19.78 0.87,7.48 3.76,15.87 3.86,16.32l-35.76 26.67z"/>
     <path class="fil1" d="M9435.61 1164.42c1.45,1.3 5.09,11.15 6.13,14.07 1.73,4.88 3.05,10.1 4.02,15.51 13.19,73.3 -49.33,142.54 -125.67,131.97 -59.88,-8.28 -99.96,-63.75 -90.08,-124.08 2.08,-12.72 6.3,-24.88 11.88,-35.25 5.11,-9.53 11.94,-18.91 18.55,-25.52 8.41,-8.4 13.6,-12.18 23.13,-19.18 31.85,-23.42 64.24,-48.09 96.08,-71.87 2.93,-2.19 22.67,-17.4 24.04,-17.72 0.57,1.35 1.98,3.55 3.17,6.35 1.03,2.44 1.6,4.38 2.25,6.88 4.23,16.29 -1.83,34.01 -12.64,45.09l-90.04 67.9c-7.37,5.45 -14.19,10.06 -20.87,19.07 -29.84,40.3 -8.52,98.03 41.6,105.07 37.53,5.27 69.49,-21.31 75.81,-55.53 1.23,-6.66 1.45,-13.59 0.73,-19.78 -0.87,-7.48 -3.76,-15.87 -3.86,-16.32l35.76 -26.67z"/>
    </g>
   </g>
   <g>
    <g>
     <path class="fil1" d="M624.09 6336.53c1.26,-1.28 3.67,-11.06 4.33,-13.97 1.12,-4.84 1.79,-10.06 2.1,-15.44 4.27,-73.15 -64.89,-143.82 -138.19,-134.83 -57.49,7.05 -90.1,61.76 -73.38,122.4 3.52,12.78 9.09,25.05 15.74,35.56 6.12,9.65 13.88,19.19 21.1,25.95 9.2,8.58 14.72,12.48 24.84,19.7 33.83,24.12 68.37,49.51 102.24,74 3.13,2.25 24.19,17.9 25.55,18.25 0.39,-1.34 1.52,-3.52 2.36,-6.3 0.72,-2.42 1.05,-4.36 1.39,-6.85 2.21,-16.23 -5.78,-34.1 -17.64,-45.42l-95.89 -69.9c-7.82,-5.62 -15.04,-10.38 -22.6,-19.54 -33.87,-40.98 -19.83,-98.37 28.27,-104.37 36.02,-4.49 70.35,22.8 80.53,57.2 1.98,6.7 3.02,13.66 3.04,19.84 0.04,7.47 -1.81,15.81 -1.85,16.26l38.05 27.47z"/>
     <path class="fil1" d="M465.33 6386.3c-1.25,1.27 -3.66,11.05 -4.33,13.96 -1.11,4.86 -1.78,10.07 -2.09,15.45 -4.28,73.15 64.89,143.82 138.18,134.83 57.5,-7.05 90.1,-61.76 73.38,-122.4 -3.52,-12.78 -9.08,-25.05 -15.73,-35.56 -6.12,-9.65 -13.88,-19.19 -21.12,-25.95 -9.19,-8.58 -14.71,-12.48 -24.83,-19.7 -33.84,-24.12 -68.37,-49.51 -102.25,-74 -3.12,-2.25 -24.18,-17.9 -25.55,-18.25 -0.39,1.34 -1.51,3.51 -2.34,6.3 -0.72,2.42 -1.05,4.36 -1.39,6.84 -2.21,16.24 5.78,34.11 17.64,45.43l95.87 69.9c7.83,5.62 15.04,10.38 22.61,19.54 33.87,40.98 19.83,98.37 -28.27,104.37 -36.02,4.49 -70.35,-22.8 -80.53,-57.21 -1.98,-6.7 -3.02,-13.65 -3.05,-19.83 -0.03,-7.47 1.82,-15.81 1.86,-16.27l-38.06 -27.46z"/>
    </g>
    <g>
     <path class="fil1" d="M982.84 7162.72c0.44,-1.48 -1.69,-10.63 -2.37,-13.33 -1.13,-4.51 -2.74,-9.2 -4.7,-13.94 -26.55,-64.24 -108.36,-103.94 -160.87,-73.85 -41.2,23.61 -43.88,80.64 -6.34,127.71 7.91,9.92 17.18,18.78 26.56,25.79 8.63,6.44 18.47,12.28 26.76,15.88 10.56,4.59 16.37,6.26 27.08,9.38 35.76,10.43 72.59,21.73 108.53,32.47 3.32,0.99 25.84,8.03 27.02,7.91 -0.25,-1.28 -0.27,-3.49 -0.76,-6.14 -0.43,-2.3 -0.97,-4.07 -1.73,-6.32 -4.93,-14.64 -18.34,-27.57 -32.04,-33.7l-101.98 -30.89c-8.3,-2.46 -15.76,-4.35 -25.3,-9.93 -42.67,-24.93 -55.31,-78.59 -20.88,-98.43 25.77,-14.85 63.21,-1.84 85.05,24.65 4.25,5.17 7.87,10.83 10.41,16.14 3.07,6.43 5.06,14.16 5.21,14.57l40.36 12.01z"/>
     <path class="fil1" d="M881.45 7254c-0.44,1.48 1.7,10.63 2.38,13.33 1.13,4.51 2.74,9.2 4.69,13.94 26.55,64.24 108.37,103.94 160.88,73.85 41.2,-23.61 43.87,-80.64 6.34,-127.71 -7.91,-9.92 -17.18,-18.78 -26.56,-25.79 -8.63,-6.44 -18.47,-12.27 -26.77,-15.88 -10.55,-4.59 -16.36,-6.25 -27.07,-9.37 -35.77,-10.43 -72.59,-21.75 -108.53,-32.48 -3.32,-0.98 -25.84,-8.03 -27.02,-7.91 0.25,1.28 0.27,3.49 0.76,6.14 0.43,2.3 0.97,4.07 1.73,6.32 4.92,14.64 18.34,27.58 32.04,33.7l101.98 30.9c8.3,2.45 15.76,4.34 25.3,9.92 42.67,24.93 55.31,78.59 20.88,98.43 -25.77,14.85 -63.22,1.85 -85.05,-24.65 -4.26,-5.17 -7.87,-10.83 -10.41,-16.14 -3.08,-6.42 -5.06,-14.15 -5.22,-14.57l-40.36 -12.01z"/>
    </g>
    <g>
     <path class="fil1" d="M788.89 6814.2c1.25,-1.28 3.48,-10.96 4.1,-13.83 1.02,-4.8 1.59,-9.95 1.8,-15.27 2.81,-72.13 -68.85,-140.34 -143.04,-130.01 -58.2,8.1 -90.15,62.64 -71.92,122.03 3.84,12.52 9.74,24.49 16.71,34.71 6.4,9.38 14.49,18.63 21.96,25.12 9.52,8.28 15.2,12 25.62,18.9 34.84,23.09 70.42,47.4 105.31,70.82 3.22,2.17 24.92,17.15 26.31,17.47 0.37,-1.33 1.47,-3.49 2.25,-6.25 0.68,-2.4 0.98,-4.32 1.27,-6.77 1.91,-16.03 -6.58,-33.48 -18.85,-44.39l-98.76 -66.92c-8.06,-5.38 -15.49,-9.93 -23.36,-18.8 -35.23,-39.69 -22.18,-96.49 26.52,-103.36 36.47,-5.15 71.88,21.04 82.93,54.72 2.15,6.57 3.34,13.39 3.5,19.47 0.19,7.37 -1.51,15.61 -1.55,16.06l39.19 26.28z"/>
     <path class="fil1" d="M628.8 6866.43c-1.25,1.28 -3.49,10.96 -4.1,13.83 -1.02,4.79 -1.6,9.95 -1.81,15.26 -2.8,72.14 68.86,140.35 143.05,130.02 58.2,-8.1 90.15,-62.65 71.92,-122.03 -3.85,-12.52 -9.74,-24.49 -16.71,-34.71 -6.4,-9.38 -14.49,-18.63 -21.97,-25.13 -9.51,-8.27 -15.2,-11.99 -25.62,-18.9 -34.84,-23.08 -70.41,-47.38 -105.31,-70.81 -3.21,-2.17 -24.92,-17.16 -26.3,-17.47 -0.37,1.33 -1.47,3.49 -2.25,6.25 -0.69,2.4 -0.98,4.31 -1.27,6.77 -1.91,16.03 6.57,33.48 18.85,44.39l98.76 66.92c8.06,5.38 15.47,9.93 23.36,18.8 35.23,39.68 22.17,96.49 -26.53,103.36 -36.46,5.14 -71.87,-21.04 -82.92,-54.72 -2.15,-6.57 -3.35,-13.39 -3.5,-19.47 -0.19,-7.37 1.51,-15.62 1.55,-16.06l-39.19 -26.28z"/>
    </g>
    <g>
     <path class="fil1" d="M373.89 3002.61c1.45,-1.23 5.15,-10.77 6.2,-13.6 1.76,-4.73 3.11,-9.83 4.12,-15.1 13.72,-71.57 -47.72,-141.81 -123.57,-134.13 -59.5,6.03 -99.74,59.12 -90.47,118.75 1.96,12.57 6.05,24.67 11.49,35.06 4.99,9.55 11.69,19.01 18.19,25.72 8.27,8.55 13.4,12.46 22.79,19.67 31.4,24.14 63.35,49.53 94.73,74.02 2.89,2.26 22.35,17.9 23.7,18.26 0.58,-1.31 1.99,-3.42 3.2,-6.13 1.05,-2.37 1.63,-4.26 2.29,-6.68 4.34,-15.87 -1.52,-33.49 -12.16,-44.75l-88.76 -69.92c-7.25,-5.62 -14,-10.39 -20.55,-19.48 -29.27,-40.65 -7.6,-96.63 42.2,-101.77 37.29,-3.84 68.78,23.41 74.75,57.25 1.17,6.59 1.32,13.41 0.56,19.46 -0.92,7.31 -3.87,15.45 -3.98,15.91l35.27 27.47z"/>
     <path class="fil1" d="M205.7 3048.94c-1.44,1.22 -5.14,10.76 -6.2,13.59 -1.76,4.73 -3.1,9.83 -4.11,15.1 -13.73,71.57 47.72,141.81 123.56,134.13 59.5,-6.03 99.75,-59.12 90.47,-118.75 -1.95,-12.56 -6.04,-24.67 -11.49,-35.06 -4.99,-9.55 -11.68,-19.01 -18.19,-25.72 -8.27,-8.55 -13.4,-12.45 -22.79,-19.67 -31.39,-24.14 -63.33,-49.53 -94.73,-74.02 -2.89,-2.26 -22.35,-17.9 -23.7,-18.26 -0.57,1.31 -1.99,3.42 -3.2,6.14 -1.04,2.36 -1.63,4.25 -2.29,6.67 -4.34,15.87 1.52,33.49 12.16,44.76l88.77 69.9c7.25,5.63 14,10.39 20.54,19.48 29.27,40.65 7.6,96.63 -42.2,101.77 -37.29,3.85 -68.78,-23.4 -74.75,-57.24 -1.16,-6.6 -1.32,-13.42 -0.56,-19.47 0.92,-7.31 3.87,-15.45 3.98,-15.9l-35.27 -27.47z"/>
    </g>
    <g>
     <path class="fil1" d="M405.25 3560.92c1.45,-1.23 5.15,-10.77 6.2,-13.6 1.76,-4.73 3.11,-9.83 4.12,-15.1 13.72,-71.57 -47.72,-141.81 -123.57,-134.13 -59.5,6.03 -99.74,59.12 -90.47,118.75 1.96,12.57 6.05,24.67 11.49,35.06 4.99,9.55 11.69,19.01 18.19,25.72 8.27,8.55 13.4,12.46 22.79,19.67 31.4,24.14 63.35,49.53 94.73,74.02 2.89,2.26 22.35,17.9 23.7,18.26 0.58,-1.31 1.99,-3.42 3.2,-6.13 1.05,-2.37 1.63,-4.26 2.29,-6.68 4.34,-15.87 -1.52,-33.49 -12.16,-44.75l-88.76 -69.92c-7.25,-5.62 -14,-10.39 -20.55,-19.48 -29.27,-40.65 -7.6,-96.63 42.2,-101.77 37.29,-3.84 68.78,23.41 74.75,57.25 1.17,6.59 1.32,13.41 0.56,19.46 -0.92,7.31 -3.87,15.45 -3.98,15.91l35.27 27.47z"/>
     <path class="fil1" d="M237.05 3607.25c-1.44,1.22 -5.14,10.76 -6.2,13.59 -1.76,4.73 -3.1,9.83 -4.11,15.1 -13.73,71.57 47.72,141.81 123.56,134.13 59.5,-6.03 99.75,-59.12 90.47,-118.75 -1.95,-12.56 -6.04,-24.67 -11.49,-35.06 -4.99,-9.55 -11.68,-19.01 -18.19,-25.72 -8.27,-8.55 -13.4,-12.45 -22.79,-19.67 -31.39,-24.14 -63.33,-49.53 -94.73,-74.02 -2.89,-2.26 -22.35,-17.9 -23.7,-18.26 -0.57,1.31 -1.99,3.42 -3.2,6.14 -1.04,2.36 -1.63,4.25 -2.29,6.67 -4.34,15.87 1.52,33.49 12.16,44.76l88.77 69.9c7.25,5.63 14,10.39 20.54,19.48 29.27,40.65 7.6,96.63 -42.2,101.77 -37.29,3.85 -68.78,-23.4 -74.75,-57.24 -1.16,-6.6 -1.32,-13.42 -0.56,-19.47 0.92,-7.31 3.87,-15.45 3.98,-15.9l-35.27 -27.47z"/>
    </g>
    <g>
     <path class="fil1" d="M439.55 4109.41c1.45,-1.23 5.15,-10.77 6.2,-13.6 1.76,-4.73 3.11,-9.83 4.12,-15.1 13.72,-71.57 -47.72,-141.81 -123.57,-134.13 -59.5,6.03 -99.74,59.12 -90.47,118.75 1.96,12.57 6.05,24.67 11.49,35.06 4.99,9.55 11.69,19.01 18.19,25.72 8.27,8.55 13.4,12.46 22.79,19.67 31.4,24.14 63.35,49.53 94.73,74.02 2.89,2.26 22.35,17.9 23.7,18.26 0.58,-1.31 1.99,-3.42 3.2,-6.13 1.05,-2.37 1.63,-4.26 2.29,-6.68 4.34,-15.87 -1.52,-33.49 -12.16,-44.75l-88.76 -69.92c-7.25,-5.62 -14,-10.39 -20.55,-19.48 -29.27,-40.65 -7.6,-96.63 42.2,-101.77 37.29,-3.84 68.78,23.41 74.75,57.25 1.17,6.59 1.32,13.41 0.56,19.46 -0.92,7.31 -3.87,15.45 -3.98,15.91l35.27 27.47z"/>
     <path class="fil1" d="M271.35 4155.74c-1.44,1.22 -5.14,10.76 -6.2,13.59 -1.76,4.73 -3.1,9.83 -4.11,15.1 -13.73,71.57 47.72,141.81 123.56,134.13 59.5,-6.03 99.75,-59.12 90.47,-118.75 -1.95,-12.56 -6.04,-24.67 -11.49,-35.06 -4.99,-9.55 -11.68,-19.01 -18.19,-25.72 -8.27,-8.55 -13.4,-12.45 -22.79,-19.67 -31.39,-24.14 -63.33,-49.53 -94.73,-74.02 -2.89,-2.26 -22.35,-17.9 -23.7,-18.26 -0.57,1.31 -1.99,3.42 -3.2,6.14 -1.04,2.36 -1.63,4.25 -2.29,6.67 -4.34,15.87 1.52,33.49 12.16,44.76l88.77 69.9c7.25,5.63 14,10.39 20.54,19.48 29.27,40.65 7.6,96.63 -42.2,101.77 -37.29,3.85 -68.78,-23.4 -74.75,-57.24 -1.16,-6.6 -1.32,-13.42 -0.56,-19.47 0.92,-7.31 3.87,-15.45 3.98,-15.9l-35.27 -27.47z"/>
    </g>
    <g>
     <path class="fil1" d="M415.51 4677.82c1.45,-1.23 5.15,-10.77 6.2,-13.6 1.76,-4.73 3.11,-9.83 4.12,-15.1 13.72,-71.57 -47.72,-141.81 -123.57,-134.13 -59.5,6.03 -99.74,59.12 -90.47,118.75 1.96,12.57 6.05,24.67 11.49,35.06 4.99,9.55 11.69,19.01 18.19,25.72 8.27,8.55 13.4,12.46 22.79,19.67 31.4,24.14 63.35,49.53 94.73,74.02 2.89,2.26 22.35,17.9 23.7,18.26 0.58,-1.31 1.99,-3.42 3.2,-6.13 1.05,-2.37 1.63,-4.26 2.29,-6.68 4.34,-15.87 -1.52,-33.49 -12.16,-44.75l-88.76 -69.92c-7.25,-5.62 -14,-10.39 -20.55,-19.48 -29.27,-40.65 -7.6,-96.63 42.2,-101.77 37.29,-3.84 68.78,23.41 74.75,57.25 1.17,6.59 1.32,13.41 0.56,19.46 -0.92,7.31 -3.87,15.45 -3.98,15.91l35.27 27.47z"/>
     <path class="fil1" d="M247.32 4724.15c-1.44,1.22 -5.14,10.76 -6.2,13.59 -1.76,4.73 -3.1,9.83 -4.11,15.1 -13.73,71.57 47.72,141.81 123.56,134.13 59.5,-6.03 99.75,-59.12 90.47,-118.75 -1.95,-12.56 -6.04,-24.67 -11.49,-35.06 -4.99,-9.55 -11.68,-19.01 -18.19,-25.72 -8.27,-8.55 -13.4,-12.45 -22.79,-19.67 -31.39,-24.14 -63.33,-49.53 -94.73,-74.02 -2.89,-2.26 -22.35,-17.9 -23.7,-18.26 -0.57,1.31 -1.99,3.42 -3.2,6.14 -1.04,2.36 -1.63,4.25 -2.29,6.67 -4.34,15.87 1.52,33.49 12.16,44.76l88.77 69.9c7.25,5.63 14,10.39 20.54,19.48 29.27,40.65 7.6,96.63 -42.2,101.77 -37.29,3.85 -68.78,-23.4 -74.75,-57.24 -1.16,-6.6 -1.32,-13.42 -0.56,-19.47 0.92,-7.31 3.87,-15.45 3.98,-15.9l-35.27 -27.47z"/>
    </g>
    <g>
     <path class="fil1" d="M404.89 5231.75c1.53,-1.08 5.94,-10.24 7.2,-12.95 2.1,-4.53 3.82,-9.48 5.23,-14.64 19.02,-69.93 -37.03,-145.72 -113.26,-145.32 -59.8,0.32 -103.89,49.32 -99.09,109.55 1.02,12.71 4.2,25.14 8.85,36 4.27,9.98 10.24,20.04 16.23,27.34 7.61,9.31 12.44,13.68 21.27,21.76 29.51,27.03 59.49,55.36 88.97,82.73 2.72,2.52 20.96,19.95 22.27,20.44 0.67,-1.25 2.25,-3.21 3.66,-5.81 1.22,-2.24 1.94,-4.07 2.79,-6.43 5.5,-15.37 0.97,-33.48 -8.8,-45.71l-83.33 -78.07c-6.82,-6.3 -13.19,-11.69 -19.04,-21.36 -26.17,-43.25 -0.39,-96.92 49.67,-97.27 37.48,-0.27 66.86,29.86 70.3,64.12 0.67,6.67 0.32,13.48 -0.89,19.43 -1.47,7.2 -5.02,15.02 -5.15,15.45l33.13 30.71z"/>
     <path class="fil1" d="M233.68 5261.8c-1.53,1.07 -5.94,10.23 -7.2,12.94 -2.1,4.55 -3.82,9.48 -5.23,14.64 -19.02,69.93 37.04,145.72 113.27,145.32 59.79,-0.31 103.89,-49.31 99.08,-109.55 -1.01,-12.7 -4.19,-25.13 -8.84,-36 -4.28,-9.98 -10.25,-20.03 -16.23,-27.34 -7.62,-9.31 -12.44,-13.68 -21.27,-21.76 -29.52,-27.03 -59.49,-55.35 -88.98,-82.72 -2.72,-2.53 -20.96,-19.96 -22.27,-20.45 -0.67,1.26 -2.25,3.22 -3.66,5.81 -1.22,2.24 -1.94,4.07 -2.78,6.43 -5.51,15.38 -0.98,33.48 8.79,45.71l83.33 78.07c6.82,6.3 13.19,11.69 19.04,21.36 26.18,43.26 0.39,96.92 -49.66,97.28 -37.49,0.27 -66.87,-29.86 -70.31,-64.13 -0.66,-6.67 -0.32,-13.47 0.9,-19.43 1.47,-7.19 5.01,-15.01 5.14,-15.44l-33.13 -30.71z"/>
    </g>
    <g>
     <path class="fil1" d="M472.73 5787.53c1.35,-1.33 4.36,-11.12 5.21,-14.02 1.4,-4.84 2.38,-10.02 3.01,-15.36 8.51,-72.36 -57.86,-137.98 -132.95,-124.82 -58.91,10.32 -95.2,66.19 -81.64,124.99 2.86,12.39 7.82,24.16 14,34.13 5.67,9.16 13.04,18.11 20.01,24.35 8.87,7.92 14.26,11.45 24.15,17.96 33.06,21.8 66.75,44.81 99.84,66.96 3.05,2.04 23.58,16.23 24.96,16.5 0.48,-1.35 1.74,-3.55 2.75,-6.35 0.87,-2.42 1.31,-4.35 1.81,-6.83 3.17,-16.13 -3.95,-33.28 -15.37,-43.75l-93.59 -63.29c-7.64,-5.09 -14.72,-9.36 -21.9,-17.95 -32.14,-38.42 -14.58,-95.82 34.71,-104.56 36.92,-6.54 70.3,18.37 78.71,51.68 1.64,6.5 2.29,13.28 1.96,19.38 -0.38,7.37 -2.74,15.69 -2.81,16.15l37.16 24.84z"/>
     <path class="fil1" d="M308.34 5845.92c-1.35,1.33 -4.36,11.12 -5.2,14.02 -1.4,4.84 -2.39,10.03 -3.02,15.36 -8.5,72.36 57.86,137.98 132.95,124.82 58.91,-10.32 95.2,-66.18 81.64,-124.99 -2.86,-12.39 -7.82,-24.16 -14,-34.13 -5.67,-9.15 -13.03,-18.11 -20,-24.34 -8.87,-7.93 -14.27,-11.45 -24.15,-17.97 -33.07,-21.8 -66.76,-44.8 -99.84,-66.96 -3.05,-2.04 -23.59,-16.23 -24.96,-16.5 -0.48,1.35 -1.75,3.55 -2.75,6.35 -0.88,2.43 -1.32,4.36 -1.81,6.83 -3.18,16.14 3.94,33.28 15.37,43.76l93.59 63.29c7.63,5.08 14.71,9.35 21.89,17.94 32.14,38.42 14.59,95.83 -34.71,104.56 -36.92,6.54 -70.3,-18.36 -78.71,-51.68 -1.63,-6.49 -2.29,-13.28 -1.96,-19.38 0.39,-7.37 2.74,-15.69 2.81,-16.15l-37.16 -24.84z"/>
    </g>
   </g>
  </g>
  <g id="_2543199828816">
   <path class="fil2" d="M1483.66 17006.95l6.43 -122.1 0 -5.78c425.28,-366.53 895.93,-704.45 1421.63,-1021.4 234.99,-141.69 476.84,-276.76 725.96,-406.37 33.57,16.27 67.25,31.71 101.15,46.48 -823.05,425.42 -1580.67,917.34 -2255.16,1509.19zm4.68 -535.98l-3.96 -117.55c413.22,-345.26 868.14,-664.21 1373.25,-963.55 114.13,-67.63 229.88,-133.67 347.22,-198.32 27.44,19.65 54.6,38.53 81.55,56.68 -646.05,354.94 -1248.47,756.64 -1798.06,1222.74zm0.1 -529.59l0.93 -32.97 6.23 -92.14c381.15,-307.31 796.77,-593.05 1253.21,-862.11l10.13 8.67 59.93 54.57c-469.93,277.09 -914.65,582.67 -1330.43,923.98zm46.74 -564.03l14.68 -128.64c250.7,-192.81 515.82,-376.79 797.03,-553.23 25.14,25.59 48.81,44.72 78.33,58.33 -308.74,193.33 -605.76,400.48 -890.04,623.53zm51.44 -562.57l0.71 -8.83 7.96 -112.75c140.1,-103.1 284.55,-203.56 433.64,-301.6 15.7,22.84 37.41,46.62 61.12,69.44 -171.72,113.09 -339.56,230.92 -503.44,353.75zm40.35 -529.44l13.87 -107.96c40.85,-30.38 81.9,-60.54 123.17,-90.42 16.1,21.28 31.92,41.51 48.26,61.35 -61.88,44.85 -123.65,90.46 -185.3,137.03zm40 -320.69l3.3 -19.58 6.67 11.41 -9.97 8.16zm2530.96 1691.15c44.56,11.44 89.58,21.87 135.01,31.31 -1051.98,502.37 -2008.46,1094.93 -2834.91,1841.55l-12.28 -112.86c439.64,-392.16 929.27,-752.6 1479.94,-1090.37 390.83,-239.71 800.81,-461.2 1232.24,-669.64zm822.14 100.6c76.3,0.21 152.79,-1.95 229.27,-6.34 -1397.35,594.59 -2654.05,1306.18 -3697.8,2265.78l-12.52 -113.06c439.01,-398.49 928.84,-765.23 1480.74,-1109.52 615.49,-383.94 1279.28,-722.75 2000.32,-1036.86zm2076.43 -709.31c25.95,-21.62 53,-44.08 81.46,-67.48l7.69 36.86c-29.75,10.2 -59.48,20.38 -89.15,30.62zm979.21 -325.72l57.91 -34.17c30.14,-20.1 60.3,-40.19 90.44,-60.3 27.63,-19.6 55.28,-39.19 82.91,-58.79l29.79 -18.5c147,-46.75 295.83,-93.6 446.63,-140.63 833.15,-259.82 1611.4,-490.92 2325.8,-694.91l19.98 44.56 15.59 33.09c-718.92,205.13 -1502.82,437.81 -2342.69,699.69 -244.24,76.16 -486.43,152.65 -726.36,229.95zm639.32 -637.07l34.73 -50.46 38.87 -60c785.32,-237.74 1521.45,-450.38 2201.02,-639.3l3.63 22.72 12.15 60.59c-691.69,192.29 -1442.16,409.19 -2243.45,652.18l-46.95 14.28zm440.5 -562.4l11.11 -17.2c22.51,-20.36 45.02,-40.73 67.53,-61.09 18.22,-9.65 36.45,-19.3 54.67,-28.95l75.35 -40.85c546.69,-157.1 1066.84,-301.61 1557.7,-434.09l16.12 83.17c-557.61,150.49 -1153.12,316.56 -1782.46,499zm699.23 -622.74l78.35 -82.04 34.79 -36.37c309.88,-84.21 610.12,-164.2 900.19,-240.09l4.1 23.99 8.4 60.15c-329.08,86.1 -671.31,177.5 -1025.83,274.36zm472.01 -545.54l4.07 -4.41c28.92,-20.79 57.84,-41.6 86.76,-62.39 25.99,-20.79 51.99,-41.59 77.98,-62.38l4.73 -2.99c100.44,-25.8 199.76,-51.17 297.91,-76.05l1.1 5.58 17.02 77.18c-160.14,40.6 -323.36,82.41 -489.58,125.47zm959.11 1721.9l11.94 21.4 23.85 56.06c-755.84,220.87 -1586.04,473.49 -2479.52,759.83 -2822.54,904.51 -5375.34,1849.66 -7234.9,3588.57 -3.47,-27.29 -8.01,-65.09 -13.56,-112.71 437.97,-404.39 927.52,-777.11 1480.07,-1127.63 1554.86,-986.37 3422.77,-1684.99 5749.02,-2430.45 886.88,-284.23 1711.52,-535.3 2463.1,-755.08zm113.13 378.27c6.7,29.76 13.4,59.94 13.4,61.93 0,1.1 1.91,9.32 4.69,20.78 -770.57,231.19 -1619.52,496.42 -2534.86,797.67 -2695.43,887.13 -5143.45,1809.34 -6967.97,3422.56 -34.29,-11.91 -65.28,-25.04 -94.65,-38.75 392.61,-350.61 826.12,-678.18 1308.13,-989.12 1548.31,-998.73 3412.18,-1712.42 5734.45,-2476.71 915.91,-301.45 1765.55,-566.93 2536.8,-798.37zm92.98 383.27l16.58 78.78 0.68 4.1c-784.27,241.52 -1650.92,519.41 -2586.98,835.62 -2475.5,836.28 -4741.41,1700.41 -6500.19,3100.77 -43.8,-4.45 -86.12,-9.49 -127,-15.11 275.93,-223.1 570.8,-437.34 886.75,-644.53 1541.74,-1011.06 3401.56,-1739.79 5719.76,-2522.88 937.23,-316.61 1805.04,-594.89 2590.4,-836.74zm52.52 344.38l2.93 29.03 6.02 56.19c-920.73,265.08 -1939.53,583.96 -2978.37,955.4 -2127.36,760.64 -3835.39,1627.82 -5166.51,2634.21l-127.35 22.04c-15.51,0.46 -30.93,0.89 -46.26,1.27 54.59,-42.47 109.75,-84.6 165.51,-126.43 1319.26,-989.87 3004.58,-1844.44 5152.4,-2612.35 1043.75,-373.19 2067.25,-693.37 2991.62,-959.36zm67.52 359.84l5.74 20.83 25.72 58.38c-1100.29,286.56 -2308.43,644.84 -3415.49,1067.99 -1345.38,514.2 -2575.29,1179.15 -3638.92,1950.83l-64.1 9.51 -129.26 35.26c416.44,-311.28 858.02,-605.38 1320.34,-879.08 778.88,-461.08 1615.95,-863.85 2487.86,-1197.11 1104.88,-422.3 2309.65,-780.06 3408.1,-1066.6zm167.05 359.44l22.17 44.74 11.57 34.47c-1321.49,303.29 -2787.6,701.34 -3931.67,1174.83 -801.18,331.6 -1565.88,777.2 -2271.43,1290.36l-105.64 26.76 -140.28 47.65c701.43,-530.25 1538.08,-1050.03 2491.07,-1444.46 1142.95,-473.06 2604.41,-870.75 3924.22,-1174.35zm93.87 400.81l9.57 82.94 0.68 1.95c-407.73,82.82 -829.18,173.69 -1248.83,271.89l-59.07 -3.24c-19.53,0 -39.07,0 -58.6,0 -21.55,-0.87 -43.09,-1.73 -64.64,-2.59 -16.37,2.01 -32.76,4.02 -49.13,6.03 -12.35,0.29 -24.7,0.58 -37.05,0.87 -26.52,1.37 -53.03,2.76 -79.54,4.13l-52.19 2.81c502.46,-123.57 1050.5,-245.51 1638.81,-364.79zm-240.49 568.33l-17.24 -13.96c-21.78,-8 -43.55,-16 -65.33,-24l-70.66 -20.06c101.16,-19.09 203.7,-38.15 307.6,-57.15 -44.67,38 -96.06,76.33 -152.54,114.82l-1.84 0.34zm-2838.76 193.89l-120.71 63.54c-42.87,27.21 -85.74,54.43 -128.61,81.64l-47.38 39.91c-353.35,118.52 -678.9,242.73 -962.37,372 -366.47,167.12 -717.69,372.67 -1050.27,601.7l-12.58 3.37 -158.28 15.83c374.11,-267.97 773.06,-508.28 1191.87,-699.29 351.04,-160.09 781.99,-320.13 1288.33,-478.69z"/>
   <path class="fil2" d="M1040.93 7453.87c70.94,-25.96 141.57,-52.31 211.89,-79.02 1568.75,-595.65 2986.98,-1376.3 4215.41,-2320.31 1322.9,-1015.71 2586.73,-1805.76 3715.46,-2415.89 -1.82,-31.19 -3.49,-62.48 -5.11,-93.79 -32.18,17.34 -64.36,34.76 -96.52,52.27 -1249.79,680.13 -2481.6,1484.27 -3661.27,2389.93 -1412.23,1085.25 -2942.06,1846.02 -4395.66,2379.39 -2.17,21.81 -4.49,43.36 -6.93,64.69l22.73 22.73zm722.73 3409.48l3.32 -20.75c269.55,-113.19 544.04,-222.17 823.22,-326.85l-26.13 34.82c0,0 -45.53,52.03 -75.88,75.88 -15.45,12.15 -47.79,32.16 -75.78,48.88 -83.92,32.45 -166.85,65.09 -248.86,97.9l-67.75 15.81 -88.88 10.84 -88.88 21.68 -154.39 41.8zm20.14 -125.8l16.98 -99.25c338.8,-134.21 685.9,-263.15 1040.88,-386.62l-36.95 34.41 -102.77 105.21c-319.13,113.57 -625.07,229.25 -918.14,346.25zm32.89 -196.23l11.05 -95.76c448.7,-169.42 912.65,-331.71 1390.85,-486.52l-85.96 55.33 -152.3 112.35c-408.19,136.25 -795.81,274.82 -1163.65,414.6zm43.24 -353.61l12.71 -96.45c1083.92,-427.15 2238.63,-827.88 3449.9,-1196.88 1729.93,-524 3190.58,-1056.3 4408.91,-1560.26 3.75,24.51 8.39,55.22 13.09,86.88 -1340.83,553.54 -2819.44,1076.03 -4403.9,1555.98 -1303.52,397.15 -2460.65,806.91 -3480.7,1210.74zm36.02 -348.74l5.88 -67.78 1.52 -26.52c1097.51,-449.41 2248.05,-888.18 3436.58,-1310.39 1670.19,-587.83 3096.1,-1158.44 4294.89,-1683.22 3.53,8.31 6.32,15.21 7.63,19.13 5.06,15.2 5.68,45.91 11.6,64.94 -1321.41,577.82 -2762.92,1142.28 -4292.2,1680.49 -1279.91,454.7 -2434.9,900.19 -3465.91,1323.35zm18.03 -345l-2.06 -89.87c1049.36,-442.89 2199.11,-921.04 3445.15,-1429.68 1603.46,-654.54 2990.53,-1263.87 4167.78,-1808.77l-0.82 12.42 18.83 71.14c-1175.98,544.09 -2560.4,1152.09 -4159.85,1805.02 -1255.53,512.52 -2413.31,994.06 -3469.03,1439.75zm-9.31 -326.01l-4.16 -47.77 -13.1 -35.87c1071.45,-462.96 2240.45,-986.04 3486.78,-1569.69 1640.53,-768.31 3073.7,-1456.69 4302.93,-2058.31l0 92.79c-1222.69,598.2 -2645.94,1281.62 -4272.79,2043.52 -1251.2,585.97 -2424.57,1110.92 -3499.65,1575.33zm-91.01 -286.02l-28.9 -79.83c1126,-491.34 2340.73,-1070.14 3606.42,-1747.06 1550.63,-829.29 2930.96,-1549.21 4131.85,-2163.76 7.48,27.54 15.04,54.87 22.72,81.84 -1198,613.15 -2574.42,1331.1 -4120.04,2157.74 -1177.2,629.59 -2388.24,1216.57 -3612.04,1751.08zm-99.01 -274.81l-28.82 -80.76c1184.7,-515.39 2445.95,-1150.5 3722.42,-1930.74 1482.46,-898.82 2821.05,-1652.97 3982.3,-2273.85 5.66,28.57 11.47,56.81 17.31,84.99 -1155.86,618.38 -2487.07,1368.66 -3960.62,2262.11 -1182.86,723.02 -2435.24,1373.22 -3732.6,1938.26zm-98.81 -281.9l-3.23 -9.37 -26.88 -71.76c1248.65,-532.49 2559.02,-1220.14 3839.43,-2107.64 1283.4,-885.46 2583.6,-1696.62 3865.13,-2411.43 4.2,29.91 8.52,59.64 12.92,89.24 -1138.06,635.66 -2432.34,1425.08 -3834.46,2392.44 -1181.78,819.15 -2475.52,1530.29 -3852.91,2118.52zm-111.43 -279.02l-36.34 -79.68c1323.32,-543.57 2691.96,-1282.99 3973.92,-2289.03 1215.19,-953.65 2472.75,-1809.83 3737.88,-2544.78l39.21 -22.75c2.85,31 5.83,61.91 8.87,92.71 -1128.63,655.1 -2396.77,1489.27 -3737.74,2541.66 -1176.59,923.38 -2515.97,1696.68 -3985.81,2301.86zm1715.09 -6142.94c16.31,24.83 32.7,49.56 49.08,74.16 -192.94,76.14 -830.94,328.98 -842.97,333.24 -189.55,67.34 -382.66,132.33 -579.26,194.93 -474.81,151.1 -970.1,288.51 -1483.15,411.51 -9.24,-27.38 -18.45,-54.78 -27.85,-82.02 656.95,-157.63 1346.57,-353.62 2037.01,-597.12 12.83,-4.51 655.57,-259.15 847.14,-334.7zm400.11 577.31c18.19,24.79 35.87,48.62 52.89,71.36 -210.85,92.78 -778.9,343.5 -794.35,349.78 -363.69,148.12 -740.78,286.73 -1130.67,415.42 -374.52,123.59 -760.96,238.18 -1158.06,343.49 -7.6,-27.85 -15.18,-55.7 -22.94,-83.5 733.8,-194.98 1500.57,-439.99 2261.23,-747.66 12.44,-5.03 590.06,-260.07 791.91,-348.89zm425.3 526.94c19.83,22.95 39.19,45.27 58,66.94 -201.42,100.59 -649.61,324.99 -670.36,334.79 -561.82,265.38 -1157.51,505.74 -1783.99,719.42 -264.52,90.23 -534.67,175.82 -809.96,256.57 -22.43,6.58 -399.9,98.46 -422.42,104.97 -6.15,-28.35 -12.22,-56.68 -18.51,-85.04 23,-6.68 400.97,-98.72 424.03,-105.49 832.86,-245.05 1699.78,-557.47 2549.6,-955.56 15.86,-7.43 489.18,-244.5 673.62,-336.6zm405.64 494.64c20.05,26.86 37.67,50.3 51.82,68.2 -118.3,69.76 -279.95,165.17 -308.57,181.33 -808.02,456.16 -1692.75,854.1 -2644.13,1188.53 -185.32,65.14 -373.26,127.93 -563.61,188.29 -24.9,7.88 -503.89,128.56 -528.88,136.39 -4.6,-28.9 -9.15,-57.8 -13.98,-86.82 22.94,-7.2 499.97,-127.27 522.96,-134.57 1025.01,-325.74 2094.5,-757.26 3121.82,-1328.59 28.22,-15.67 261.69,-153.58 362.57,-212.75zm1149.45 -691.96c27.34,-49.78 54.04,-98.94 80.16,-147.64 267.95,-161.68 635.26,-383.2 648.01,-391.09 788.22,-488.38 1612.32,-917.55 2460.95,-1281.04 133.9,-57.35 268.48,-113.11 403.62,-167.22 -2.22,31.65 -4.24,63.38 -6.24,95.11 -894.1,360.41 -1867.75,833.89 -2865.41,1455.38 -28.51,17.77 -436.18,264.05 -721.09,436.5zm508.5 -1001.37c19.41,-42.19 38.53,-84.77 57.38,-127.91l488.32 -271.6c524.78,-291.19 1067.23,-554.36 1623.98,-787.66l153.87 29.33c-582.02,237.99 -1187.65,523.91 -1801.74,867.43l-521.81 290.41zm325.32 -845.61c11.01,-36.7 21.3,-73.11 30.71,-109.04 256.85,-125.67 585.71,-283.59 900.39,-429.21l6.97 2.14 132.45 31.14c-369.61,167.56 -762.96,354.32 -1070.53,504.97zm3364.13 6963.77l2.04 83.5 0.5 7.57c-1351.95,523.87 -2855.99,1000.67 -4480.84,1420.1 -88.5,22.84 -176.22,45.84 -263.25,68.96l-47.56 -4.4 -202.82 -1.11 -58.71 1.39c184.21,-50.53 370.12,-100.05 557.77,-148.49 1774.33,-458.04 3260.25,-948.23 4492.87,-1427.54zm12.03 245.35c2.01,35.21 3.76,68.22 4.52,89.48 -1295.99,468.14 -2718.81,895.32 -4239.72,1272.68 -44.87,11.03 -89.5,22.14 -134,33.28l-184.06 -40.69c101.03,-25.88 202.51,-51.36 304.46,-76.44 1657.18,-411.16 3065.41,-849.56 4248.8,-1278.31zm11.79 242.44c2.68,41.93 5.1,76.63 5.1,76.63l1.55 11.34c-1239.05,413.57 -2580.64,792.16 -3998.58,1128.13 -28.96,6.75 -57.83,13.52 -86.63,20.33l-157.1 -49.59c76.81,-18.57 153.84,-36.86 231.12,-54.85 1541.22,-365.17 2871.49,-752.86 4004.54,-1132zm27.8 242.31l7.17 52.37 1.19 34.36c-1028.22,312.85 -2116.96,602.61 -3250.32,865.05l-0.94 -0.37 -28.97 -12.13 -49.17 -4.04 -41.08 6.06 -33.68 16.84 -22.23 20.88 -16.05 16.88c-109.76,25.01 -219.92,49.76 -330.47,74.25 -20.9,4.63 -41.7,9.32 -62.53,13.99l-20.32 -8.28 -136.43 -43.07c69.1,-15.95 138.35,-31.63 207.78,-47 1433.72,-317.55 2690.92,-654.99 3776.05,-985.79zm13.8 236.81l5.06 87.05c-990.56,271.07 -2026.13,522.54 -3091.72,750.76l-43.42 -38.35 -34.41 -31.84c1172.76,-249.86 2228.62,-511.06 3164.48,-767.63zm13.49 232.14l0.79 13.56 -7.03 75.13c-887.26,214.35 -1873.37,432.65 -2949.76,642.5l-10.41 -7.6 -59.95 -45.8 -18.29 -16c1113.87,-215.84 2131.88,-440.97 3044.66,-661.79zm34.3 222.79l23.96 64.12 6.02 16.38c-865.55,180.41 -1817.02,364.99 -2839.42,543.41l-30.3 -12.65 -78.8 -50.51 -4.75 -3.47c1054.09,-182.63 2033.87,-372.11 2923.29,-557.28zm77.92 211.03l29.85 81.28c-835.17,144.38 -1730.94,291.37 -2671.89,434.83l-25.74 -23.59 -59.95 -28.97 -40.22 -14.57c975.87,-147.87 1904.19,-299.81 2767.94,-448.98zm78.13 209.7l33.47 81.72c-844.15,113.28 -1738.27,230.54 -2657.86,347.2l-38.67 -53.17 -16.61 -25.98c926.95,-117.44 1828.54,-235.6 2679.66,-349.77zm85 207.52l19.28 47.05 13.78 35.96c-833.9,76.9 -1702.44,159.34 -2571.54,245.33 -25.11,2.49 -50.19,5.27 -75.28,7.99l-45.38 -48.21 -22.95 -30.37c47.47,-5.51 94.85,-10.64 142.13,-15.32 858.12,-84.91 1715.72,-166.36 2539.96,-242.43zm62.92 323.43l-37.61 45.94 -38.25 47.25 -1610.25 151.27 -2.8 0.2c-4.16,0.1 -258.45,8.08 -699.87,70.84l-86.31 -73.64c479.88,-71.88 765.99,-82.7 789.21,-83.48l1685.89 -158.37zm-188.97 253.58l-9.88 16.27 -13 17.57 -33.62 13.75 -31.33 16.05 -52.73 27.51 -28.02 17.1c-538.77,70.28 -946.92,131.21 -1120.64,173.28 -19.43,4.72 -42.53,9.47 -69.22,14.38l-58.35 0 -175.51 -16.5 -107.2 -15.31 -4.12 -1.03 46.85 -6.89c166.21,-24.45 286.35,-42.14 354.31,-58.58 12.6,-3.07 26.29,-6.14 41.2,-9.37 217.07,-47.09 675.54,-113.29 1261.25,-188.23zm-3652.41 -824.22l-3.49 11.99 2.7 66.01 1.59 8.56 -34.4 7.13c-26.69,5.52 -53.27,11.11 -79.85,16.7l-13.3 -7.48 -123 -50.16c68.45,-14.87 137,-29.42 205.69,-43.61l44.07 -9.14zm13.86 144.15c5.28,15.25 16.32,49.7 16.32,49.7l-65.79 -39.62 49.47 -10.08zm-5831.45 -3920.18c3.09,29.78 6.18,59.5 8.97,89.04 13.87,-4.63 470.4,-146.46 484.23,-151.12 135.01,-45.39 268.81,-92.06 401.4,-139.97 1490.31,-538.63 2827.14,-1237.36 3973.5,-2076.71 1309.91,-956.92 2590.46,-1662.72 3738.12,-2181.66 0.67,-31.68 1.54,-63.33 2.42,-95 -92.92,41.78 -185.62,84.33 -278.09,127.59 -1219.31,570.58 -2399.64,1270.48 -3508.15,2080.26 -1380.42,1010.83 -2901.21,1711.71 -4341.98,2197.71 -12.59,4.25 -467.84,145.66 -480.42,149.87zm231.81 702.16c0.77,30.88 1.44,61.61 1.86,92.03 13.14,-4.62 287.78,-85.48 300.87,-90.11 87.52,-30.97 174.58,-62.53 261.14,-94.63 1529.5,-567.11 2907.06,-1306.79 4094.41,-2198.5 1312.68,-984.16 2580.59,-1731.82 3715.63,-2296.94 -0.59,-31.47 -1.14,-62.96 -1.52,-94.5 -58.73,29.11 -117.41,58.52 -176.03,88.21 -1234.54,625.39 -2440.56,1377.37 -3584.65,2235.12 -1378.98,1035.6 -2883.22,1761.42 -4313.95,2270.25 -12.08,4.29 -285.68,84.79 -297.77,89.07z"/>
  </g>
  <g id="_2543199800352">
   <g>
    <path class="fil0" d="M9177.18 798.18l125.05 24.68 213.64 39.05 119.46 34.46 42.02 21.15 45.52 55.1 17.97 64.69 10.78 91.05 -58.71 -32.34 -79.07 1.2c0,0 -8.38,75.46 -9.58,87.45 -1.2,11.98 -38.34,182.09 -37.14,191.68 1.2,9.59 -19.17,250.37 -19.17,250.37l-28.75 268.34 -4.02 338.48 9.35 373.78 28.03 280.33 18.69 258.52 37.82 391.94 39.54 425.12 -16.48 247.16 29.66 204.32 13.19 250.46 3.3 293.3 -1.17 266.4 0 225.3 0 153.08c0,0 -40.44,89.54 -51.99,112.65 -11.55,23.11 -40.44,112.65 -46.22,141.53 -5.77,28.88 -46.21,138.64 -46.21,164.64 0,26 -8.67,155.98 -8.67,155.98l25.99 98.21c0,0 14.45,57.77 20.23,75.1 5.77,17.33 25.99,69.33 25.99,92.44 0,23.11 2.89,95.32 2.89,95.32l2.88 138.64c0,0 34.67,75.1 40.44,92.44 5.77,17.33 5.77,54.87 14.44,72.21 8.67,17.33 23.11,121.32 23.11,121.32l14.44 115.54 14.44 101.1c-274.22,-92.4 -538.15,-866.56 -451.79,-1405.06 72.18,-450.06 72.48,-807.86 20.25,-1213.37 -210.34,-1632.95 -334.58,-2229.55 -100.17,-3763.75z"/>
    <path class="fil0" d="M1540.57 8125.43l-75.63 -165.8 -118.73 -184.23 -116.68 -136.12 -121.75 -118.55 -146.28 -146.28 -37.92 -1.35 -55.53 -28.44 -52.82 -35.22 -21.37 -24.31 -33.33 -30.63 -40.09 -45.04 -29.73 -45.95 -82.26 -146.13 -84.06 -183.28 -73.03 -201.18 -88.19 -219.1 -106.13 -252.52 -80.46 -299.5 -40.24 -226.19c0,0 -22.34,-226.12 -22.34,-232.72 0,-6.6 -7.71,-257.49 -7.71,-257.49l-3.3 -303.71 1.1 -293.81 -10.77 -383.79 -1.98 -333.49 -23.35 -274.59 -19.29 -172.06 -20.6 -178.69 -19.95 -164.34 -8.16 -108.11 14.83 -20.77 5.94 -44.51 36.21 -61.14 28.49 -40.36 79.91 -63.95 66.86 -47.76 118.2 -69.25 113.22 -63.48c95.39,560.06 145.63,1697.57 90.57,2283.28 -40.88,434.88 -28.41,870.08 102.09,1296.21 72.56,236.93 115.22,655.53 375.7,973.32 300.71,366.88 581.9,786.59 545.94,916.24l-37.4 134.82z"/>
    <path class="fil3" d="M6111.87 846.44c14.36,-116.95 170.8,-357.84 155.58,-536.94 -7.95,-93.62 -132.9,-209.44 -225.96,-238.07 -13.06,-23.27 -60.51,-48.18 -73.58,-71.43 170.37,62.91 177.71,71.9 348.08,134.81 46.99,29.46 118.12,9.6 146.85,52.65 120.58,180.71 54.4,532.14 -66.91,894.97 -104.87,313.66 -218.97,586.62 -344.41,847.49 -177.36,368.87 -357.87,720.08 -586.75,1121.96 -132.15,232.05 -204.94,297 -238.67,442.84 -4.18,18.13 -25.77,88.85 -26.7,116.81l-661.73 -4c-16.35,-0.1 -143.49,-190.51 -267.52,-338.67 -120.08,-143.41 -289.42,-329.45 -476.33,-560.24 -285.77,-352.86 -1003.74,-1398.6 -1123.53,-1797.93 116.24,-88.55 269.73,-209.59 351.28,-332.84 4.35,10.42 8.52,20.62 12.51,30.64 2.63,44.79 5.27,89.57 7.9,134.37 25.4,299.09 252.06,534.53 397.59,813.27 153.41,293.82 1394.78,1893.18 1400.36,1915.7l109.22 -199.75c150.25,-274.78 207.91,-320.19 361.95,-593.35 172.01,-305.04 323.44,-610.23 444.13,-948.15 5.6,-10.02 11.21,-20.04 16.82,-30.06 49.39,-111.12 98.78,-222.26 148.17,-333.38 24.7,-63.99 49.39,-127.96 74.08,-191.95 48.5,-151.57 86.93,-180.67 117.58,-328.77z"/>
   </g>
   <g>
    <g>
     <path class="fil0" d="M1412.06 18611.26c5.18,-39.63 10.36,-79.24 15.54,-118.87 4.88,-38.71 9.76,-77.43 14.64,-116.13 3.05,-43.58 6.09,-87.18 9.14,-130.76 1.06,-45.7 2.13,-91.4 3.19,-137.1 2.1,-57.28 4.2,-114.57 6.3,-171.85 3.75,-90.64 7.51,-181.29 11.26,-271.92 0,-75.76 0,-151.51 0,-227.28 1.18,-62.79 2.36,-125.58 3.53,-188.37 2.63,-80.03 5.26,-160.07 7.89,-240.1 2.18,-41.34 4.35,-82.69 6.53,-124.04 0,-56.34 0,-112.68 0,-169.02 -0.49,-36.03 -0.97,-72.05 -1.46,-108.09 0.24,-35.55 0.49,-71.08 0.72,-106.63 -2.1,-62.28 -4.19,-124.55 -6.29,-186.83 0.46,-77.58 0.94,-155.15 1.4,-232.73 1.63,-57.72 3.27,-115.43 4.91,-173.15 5.11,-75.64 10.22,-151.28 15.33,-226.91 7.22,-75.62 14.44,-151.23 21.66,-226.85 7.97,-69.93 15.96,-139.84 23.94,-209.77 5.74,-64.36 11.48,-128.71 17.22,-193.07 6.61,-81.95 13.21,-163.91 19.82,-245.86 3.94,-55.67 7.86,-111.34 11.8,-167.01 2.65,-50.93 5.32,-101.85 7.97,-152.77 3.73,-44.45 7.47,-88.9 11.2,-133.35 8.12,-63.19 16.24,-126.38 24.36,-189.57 2.57,-33.27 5.15,-66.56 7.73,-99.83 6.62,-39.44 13.25,-78.89 19.88,-118.33 14.12,24.15 28.24,48.29 42.36,72.45 68.36,93.71 119.48,161.38 201.62,241.93 8.43,5.69 16.86,11.38 25.29,17.08 8.43,13.89 16.85,27.8 25.28,41.69 0,0 49.9,49.9 53.31,56.04 35.52,63.85 128.87,139.39 185.89,181.79 15.72,10.47 31.43,20.96 47.16,31.43 19.1,22.04 38.2,44.1 57.3,66.14 27.04,30.66 49.49,55.01 73.76,73.85 -58.27,819.38 -107.64,1636.18 -107.64,2400.52 0,466.8 181.31,1137.63 211.08,1849.34l-196.24 16.55c-110.78,2.69 -221.55,5.36 -332.33,8.05 -63.01,1.07 -126.02,2.14 -189.03,3.21 -18.16,0.28 -36.32,0.57 -54.48,0.85 -19.83,-0.56 -39.67,-1.13 -59.5,-1.68 -22.91,-4.19 -45.82,-8.38 -68.74,-12.57 -13.97,5.87 -27.94,11.74 -41.91,17.6 -9.49,14.52 -19,29.06 -28.49,43.58 -9.78,-0.28 -19.56,-0.56 -29.34,-0.84 -17.6,-6.43 -35.21,-12.85 -52.81,-19.28 0,0 -41.9,-40.23 -45.26,-51.12 -3.36,-10.9 -13.42,-102.26 -13.42,-102.26 3.64,-44.99 7.26,-89.97 10.9,-134.95 3.36,-31.01 6.7,-62.02 10.06,-93.03 5.66,-13.39 11.31,-26.79 16.97,-40.17z"/>
     <path class="fil0" d="M1763.66 10863.35l19.98 -124.86 31.63 -184.81 24.97 -216.43 36.63 -278.04 24.97 -288.03 13.21 -230.68 -3.35 -146.44 -4.47 -196.74 -6.71 -77.14 -68.18 -186.68 -85.07 -235.02 -80.63 -225.93 -54.02 -156.7 -67.85 -181.19 -79.83 -175.03 -118.73 -184.23 -7.19 -8.39c445.22,163.97 817.9,629.69 1075.1,1782.4 68.61,307.49 110.64,650.32 133.2,1019.68 -16.03,17.33 -40.45,42.67 -59.13,57.35 -30.35,23.84 -125.73,78.04 -125.73,78.04l-136.58 54.19 -130.08 30.35 -88.88 10.84 -88.88 21.68 -154.39 41.8z"/>
    </g>
    <g>
     <path class="fil0" d="M9571.2 6354.14c6.76,19.57 25.05,67.66 25.05,89.65 0,23.11 2.89,95.32 2.89,95.32l2.88 138.64c0,0 34.67,75.1 40.44,92.44 5.77,17.33 5.77,54.87 14.44,72.21 8.67,17.33 23.11,121.32 23.11,121.32l14.44 115.54 28.88 202.19c0,0 43.78,280.96 43.78,310.83 0,29.86 26.89,173.25 26.89,173.25l5.97 244.94c0,0 14.94,227.01 14.94,268.83 0,41.83 11.95,212.09 11.95,212.09l29.86 218.05 5.98 173.26 14.93 256.88 -8.96 95.59 66.42 177.76 121.57 330.92 114.8 280.27 77.67 202.61 -30.61 69.59 -41.03 50.11 -51.96 64.19 -41.27 55.02 -25.22 40.5 -29.8 42.79 -12.99 21.4 -13 17.57 -33.62 13.75 -31.33 16.05 -52.73 27.51 -45.09 27.51 -45.08 23.69 -32.1 13 -22.17 5.35 -98.57 45.08 -29.8 13.76 -18.35 19.1 -59.16 8.98 -45.11 8.11c-195.16,-759.85 -322.64,-1450.16 -328.05,-2059.85 -8.77,-990.65 134.05,-1792.94 409.08,-2395.8z"/>
     <path class="fil0" d="M11173.57 16729.66c-106.37,-241.76 -210.42,-488.03 -311.62,-738.76 -286.03,-708.65 -238.46,-1407.01 -474.01,-2174.86 -117.31,-382.43 -234.13,-754.87 -346.49,-1116.58l62.28 -77.32c25.67,-32.49 51.34,-64.99 77.01,-97.48 26.32,-32.82 52.64,-65.64 78.96,-98.46 23.72,-25.67 47.44,-51.34 71.15,-77.01 28.92,-20.79 57.84,-41.6 86.76,-62.39 25.99,-20.79 51.99,-41.59 77.98,-62.38 24.64,-15.52 49.29,-31.03 73.92,-46.55 32.51,-16.82 65.03,-33.64 97.54,-50.45 20.55,-11.96 41.1,-23.91 61.65,-35.88 16.82,-14.58 33.64,-29.14 50.45,-43.72 6.72,34.38 13.45,68.76 20.17,103.14 11.21,50.82 22.43,101.64 33.64,152.46 3.74,33.64 7.47,67.26 11.21,100.9 4.48,25.04 8.98,50.08 13.46,75.12 4.86,28.4 9.71,56.8 14.57,85.19 4.48,32.14 8.98,64.27 13.46,96.41 5.98,39.62 11.95,79.22 17.93,118.84 3.74,41.1 7.47,82.22 11.21,123.32 9.34,48.2 18.69,96.41 28.03,144.61 9.72,58.68 19.43,117.34 29.15,176.02 7.1,44.47 14.2,88.93 21.3,133.4 5.65,28.18 11.3,56.36 16.95,84.54 7.8,29.9 15.6,59.79 23.4,89.69 14.95,38.03 29.9,76.04 44.84,114.07 16.9,37.7 33.8,75.39 50.7,113.09 21.13,44.84 42.24,89.69 63.37,134.53 16.25,34.12 32.5,68.25 48.75,102.37 18.84,33.79 37.7,67.59 56.54,101.38 13,30.55 26,61.1 39,91.65 7.15,29.24 14.31,58.49 21.46,87.73 9.07,39.35 18.15,78.71 27.22,118.05 0,0 26.91,117.35 26.91,121.36 0,4.01 25.75,104.17 25.75,108.76 0,4.59 38.36,139.11 38.36,139.11 10.68,50.75 21.37,101.5 32.05,152.26 6.11,36.83 12.21,73.65 18.32,110.48 3.66,29.77 7.31,59.54 10.97,89.32 3.19,31.61 6.39,63.22 9.59,94.83 3.73,34.81 7.47,69.62 11.2,104.43 10.3,48.3 20.6,96.62 30.9,144.92 9.41,34.1 18.82,68.19 28.23,102.29 21.52,48.84 43.05,97.67 64.56,146.51 21.47,42.28 42.94,84.56 64.41,126.85 18.17,36.66 36.33,73.33 54.5,110 15.53,46.25 31.05,92.5 46.58,138.75 2.64,28.41 5.29,56.82 7.93,85.22 4.96,37.32 9.91,74.66 14.87,111.98 3.97,34.36 7.92,68.71 11.89,103.06 8.58,24.77 17.18,49.55 25.76,74.33 0,0 37.9,101.9 37.9,115.76 0,13.86 29.47,102.26 29.47,102.26 0,0 41.6,69.34 41.6,88.41 0,19.07 32.93,157.73 32.93,157.73 0,0 17.33,133.47 17.33,149.07 0,15.6 6.93,107.48 6.93,119.6 0,12.13 -8.67,83.2 -8.67,83.2 -13.81,1.39 -27.63,2.79 -41.44,4.18 -18.15,-15.26 -36.29,-30.51 -54.44,-45.76 -12.89,-24.89 -25.77,-49.78 -38.67,-74.67 0,0 -13.34,-5.34 -17.33,-24.01 -4,-18.67 -25.34,-93.33 -25.34,-93.33 -11.12,-17.33 -22.22,-34.67 -33.34,-52 -13.34,-11.12 -26.66,-22.22 -40,-33.34 -8.44,-4.89 -16.89,-9.77 -25.33,-14.66 -20,-3.55 -40,-7.12 -60,-10.67 -19.56,-9.78 -39.12,-19.56 -58.68,-29.34 -18.67,-15.11 -37.33,-30.22 -56,-45.33 -21.78,-8 -43.55,-16 -65.33,-24 -36,-10.23 -72,-20.44 -108,-30.67 -22.22,-8.89 -44.45,-17.78 -66.67,-26.67 -21.78,-7.55 -43.56,-15.11 -65.34,-22.66 -22.51,-5.85 -45.02,-11.69 -67.53,-17.54 -18.68,-0.58 -37.34,-1.15 -56.02,-1.73l-12.78 -2.98z"/>
    </g>
   </g>
   <g>
    <path class="fil0" d="M9093.88 1443.19c-67.25,-19.11 -146.37,-40.41 -219.59,-59.71 -569.4,-150.06 -1225.31,-211.57 -1738.67,-449.63 -182.71,-84.73 -417.89,-129.52 -645.7,-185.35l0.04 -0.18 2.07 -9.65 0.87 -4.09 0.17 -0.81 1.01 -4.89 1 -4.88 0.99 -4.88 0.08 -0.36 0.38 -1.95 2.43 -12.24 0.29 -1.52 2.34 -12.37 0.11 -0.59 0.51 -2.65 0.39 -2.15 0.87 -4.79 1.52 -8.43 0.02 -0.13 0.18 -0.99 2.18 -12.74 0.26 -1.52 0.03 -0.14 0.21 -1.26 2.08 -12.76 0.21 -1.27 0.18 -1.12 1.79 -11.67 0.36 -2.38 0.34 -2.29 1.33 -9.3 0.5 -3.46 0.15 -1.17 0.62 -4.62 0.62 -4.61 0.15 -1.2 0.85 -6.62 0.18 -1.36 0.56 -4.57 0.55 -4.57 0.37 -3.18 0.17 -1.36 0.51 -4.53 0.51 -4.51 0.23 -2.1 0.25 -2.42 0.9 -8.88 0.44 -4.57 0.41 -4.45 0.39 -4.45 0.06 -0.68 0.32 -3.75 0.36 -4.41 0.34 -4.41 0.13 -1.9 0.44 -6.14 0.05 -0.72 0.29 -4.37 0.27 -4.35 0.24 -3.99 0.51 -9.56 0.22 -4.87 0.31 -8.12 0.19 -5.37 0.21 -8.09 0.11 -6.5 0.01 -0.39 0.05 -4.17 0.03 -4.16c271.25,90.86 520.9,207.4 802.52,275.49 340.42,82.33 702.78,135.7 1046.09,221.97 250.79,63.01 495.32,131.29 751.12,206.59 -12.45,97.98 -23.25,192.19 -32.48,283.2z"/>
    <path class="fil0" d="M533.69 3125.97c58.44,-49.52 167.45,-134.22 263.99,-208.13 459.49,-351.73 1011.3,-656.67 1404.78,-1066.32 177.47,-184.77 440.41,-343.87 663.08,-524.32l-2.19 -3.92 -2.18 -3.9 -2.17 -3.89 -8.59 -15.52 -2.13 -3.86 -2.12 -3.85 -12.53 -22.93 -2.06 -3.79 -12.16 -22.58 -1.99 -3.73 -1.98 -3.73 -1.97 -3.71 -9.73 -18.44 -1.91 -3.66 -1.91 -3.66 -1.9 -3.64 -7.49 -14.46 -1.85 -3.59 -1.84 -3.58 -1.83 -3.56 -1.82 -3.56 -8.93 -17.65 -1.76 -3.5 -1.75 -3.49 -8.56 -17.29 -1.67 -3.42 -1.67 -3.42 -1.66 -3.4 -6.52 -13.5 -1.6 -3.36 -1.59 -3.33 -1.58 -3.33 -1.57 -3.32c-264.22,209.48 -481.06,450.55 -749.28,648.3 -276.2,203.64 -577.13,389.55 -855.02,597.84 -212.64,159.39 -418.21,321.34 -633.62,495.38l-0.02 -0.01 0.46 4.28 0.48 4.28 0.46 4.3 1.39 12.92 0.46 4.33 0.45 4.34 0.46 4.35 0.45 4.35 2.72 26.31 0.44 4.41 0.45 4.42 0.44 4.43 1.77 17.81 0.44 4.47 0.43 4.47 0.43 4.49 1.74 18.03 0.42 4.52 0.43 4.53 0.42 4.53 0.42 4.56 0.42 4.56 0.85 9.13 0.41 4.58 0.42 4.59 0.41 4.6 0.41 4.6 2.47 27.76 0.4 4.65 0.4 4.65 2 23.38 0.39 4.7 0.39 4.7 0.39 4.71 0.39 4.71 0.39 4.72 0.77 9.46 0.38 4.74 0.38 4.74 0.38 4.75z"/>
   </g>
  </g>
  <g id="_2543199812688">
   <path class="fil1" d="M9126.36 1159.98c-255.8,-75.31 -500.33,-143.58 -751.12,-206.59 -343.32,-86.27 -705.67,-139.63 -1046.09,-221.97 -281.61,-68.09 -531.26,-184.62 -802.52,-275.49l0.01 -4.16 -0.04 -9.27 -0.01 -1.47 -0.01 -0.2 -0.02 -1.27 -0.2 -10.35 -0.03 -1.35 -0.06 -1.9 -0.35 -9.79 -0.05 -1.31 -0.08 -1.5 -0.54 -10.09 -0.06 -1.24 -0.03 -0.37 -0.06 -0.9 -0.72 -10.4 -0.14 -1.78 -0.91 -10.24 -0.32 -3.26 -0.94 -8.77 -0.35 -2.96 -1.19 -9.29 -0.36 -2.67c-0.46,-3.34 -0.96,-6.63 -1.48,-9.93l-0.13 -0.86 -0.11 -0.64c-0.58,-3.57 -1.18,-7.12 -1.82,-10.63l-0.07 -0.44 -0.12 -0.67c-0.61,-3.34 -1.25,-6.65 -1.93,-9.94l-0.38 -1.86c-0.68,-3.26 -1.38,-6.5 -2.12,-9.71l-0.14 -0.65 -0.15 -0.64c-0.77,-3.35 -1.59,-6.68 -2.44,-9.99l-0.11 -0.48 -0.21 -0.8c-0.82,-3.2 -1.68,-6.36 -2.57,-9.5l-0.36 -1.25c-0.93,-3.22 -1.87,-6.4 -2.85,-9.57l-0.14 -0.46 -0.08 -0.25c-0.96,-3.05 -1.95,-6.07 -2.98,-9.08l-0.63 -1.86c-1.05,-3.04 -2.13,-6.05 -3.25,-9.04l-0.37 -0.96c-1.18,-3.11 -2.39,-6.2 -3.63,-9.25l-0.11 -0.29 -0.26 -0.59c-1.2,-2.9 -2.42,-5.76 -3.69,-8.62l-0.43 -0.99c-1.35,-3.01 -2.75,-5.99 -4.16,-8.94l-0.25 -0.51c-1.38,-2.84 -2.81,-5.67 -4.27,-8.45l-0.24 -0.45 -0.06 -0.13 -0.34 -0.62c-1.45,-2.72 -2.92,-5.4 -4.42,-8.06l-0.38 -0.69c-1.62,-2.85 -3.3,-5.65 -5,-8.42l-0.2 -0.32c-1.76,-2.84 -3.56,-5.65 -5.4,-8.41l186.38 3.8 182.58 49.44 163.55 53.25 140.74 60.87 235.82 72.26 283.88 66.72 348.68 75.65 558.08 106.38 390.52 78.1 224.12 44.24c-19.35,126.66 -36.21,246.82 -50.82,361.81z"/>
   <path class="fil1" d="M506.4 2836.13c215.41,-174.03 420.98,-335.99 633.62,-495.38 277.89,-208.29 578.82,-394.2 855.02,-597.84 268.22,-197.74 485.07,-438.82 749.28,-648.3l-6.11 -13.02 -0.02 -0.04 -1.5 -3.23 -1.49 -3.22 -1.48 -3.2 -1.47 -3.2 -4.34 -9.52 -1.42 -3.15 -5.69 -12.77 -3.75 -8.56 -0.11 -0.26 -0.11 -0.27 -0.11 -0.26 -0.11 -0.26 -0.11 -0.26 -0.11 -0.26 -0.11 -0.27 -0.11 -0.26 -0.44 -1.03 -0.11 -0.27 -4.97 -11.58 -0.11 -0.26 -0.1 -0.25 -0.11 -0.26 -0.1 -0.26 -0.11 -0.25 -0.1 -0.26 -0.03 -0.06 -2.13 -5.07 -0.11 -0.27 -0.11 -0.27 -0.1 -0.26 -0.11 -0.27 -0.11 -0.27 -0.11 -0.27 -6.17 -14.99 -0.1 -0.26 -0.24 -0.6 -2.01 -5.01 -0.11 -0.29 -0.11 -0.29 -0.12 -0.29 -0.11 -0.29 -0.11 -0.29 -0.11 -0.3 -0.11 -0.29c-1.96,-4.91 -3.83,-9.77 -5.69,-14.58l-0.11 -0.29 -0.1 -0.28 -0.11 -0.28 -0.1 -0.29 -0.11 -0.28 -0.1 -0.28 -0.89 -2.31 -0.02 -0.06 -0.11 -0.3c-2.28,-6.02 -4.45,-11.93 -6.54,-17.75l-0.1 -0.28 -0.1 -0.29 -0.48 -1.31 -0.08 -0.23c-2.33,-6.55 -4.55,-12.96 -6.61,-19.25l-0.21 -0.63c-2.06,-6.24 -3.99,-12.35 -5.78,-18.31l-0.09 -0.29 -0.08 -0.3 -0.09 -0.29 0.06 -0.05 -226.34 124.52 -138.77 96.54c-252.96,320.75 -903.52,765.68 -1291.1,1040.73l-253.4 147.82 -177.47 122.71 -105.07 70.44 -14.53 8.15 4.34 26.04 0.1 0.63 0.61 3.78 2.84 17.88 0.71 4.52 0.21 1.3 0.5 3.24 3.5 23.05 0.3 1.99 0.39 2.68 2.76 18.87 0.68 4.77 0.68 4.79 0.68 4.8 2.71 19.44 0.49 3.49 0.19 1.4 0.67 4.93 0.66 4.95 1.33 9.94 0.66 5 0.66 5.02 0.66 5.04 0.65 5.05 0.65 5.07 0.65 5.09 0.65 5.1 1.14 9 0.17 1.28 0.64 5.15 0.64 5.18 0.64 5.2 0.64 5.22 0.17 1.34 1.1 9.13 0.64 5.27 0.63 5.28 0.62 5.29 0.63 5.32 1.86 16.03 0.62 5.38 0.61 5.39 0.62 5.4 1.82 16.32 0.61 5.48 0.02 0.01z"/>
  </g>
  <g id="_2544541899952">
   <g>
    <g>
     <path class="fil1" d="M9392.72 4679.03c-1.66,-0.99 -7.13,-9.9 -8.7,-12.54 -2.61,-4.43 -4.9,-9.28 -6.87,-14.36 -26.8,-68.94 22.07,-148.31 99.57,-152.51 60.8,-3.29 110.84,43.17 112.39,103.85 0.33,12.79 -1.58,25.45 -5.14,36.62 -3.27,10.26 -8.26,20.7 -13.57,28.4 -6.75,9.78 -11.18,14.45 -19.29,23.09 -27.12,28.87 -54.54,59.07 -81.58,88.29 -2.5,2.7 -19.18,21.26 -20.46,21.84 -0.81,-1.22 -2.62,-3.09 -4.33,-5.6 -1.48,-2.18 -2.41,-3.97 -3.51,-6.28 -7.24,-15.07 -4.58,-33.49 4.05,-46.35l76.35 -83.27c6.25,-6.72 12.15,-12.52 17.07,-22.56 21.97,-44.95 -9.96,-97.18 -60.87,-94.52 -38.12,1.99 -64.75,33.98 -64.58,68.52 0.03,6.74 1.11,13.53 2.98,19.43 2.26,7.12 6.7,14.74 6.89,15.18l-30.39 32.78z"/>
     <path class="fil1" d="M9569.93 4698.83c1.67,0.99 7.13,9.9 8.7,12.54 2.62,4.43 4.91,9.29 6.88,14.36 26.8,68.95 -22.08,148.31 -99.58,152.51 -60.8,3.29 -110.84,-43.17 -112.39,-103.85 -0.32,-12.79 1.58,-25.45 5.14,-36.62 3.27,-10.26 8.27,-20.7 13.57,-28.39 6.75,-9.79 11.18,-14.46 19.29,-23.1 27.12,-28.87 54.54,-59.07 81.59,-88.28 2.49,-2.7 19.17,-21.27 20.45,-21.85 0.82,1.22 2.62,3.09 4.33,5.6 1.48,2.18 2.41,3.97 3.52,6.28 7.23,15.07 4.57,33.5 -4.06,46.35l-76.35 83.28c-6.25,6.71 -12.15,12.51 -17.07,22.55 -21.97,44.95 9.96,97.18 60.87,94.52 38.12,-1.99 64.76,-33.97 64.6,-68.52 -0.04,-6.74 -1.12,-13.53 -2.99,-19.42 -2.26,-7.13 -6.69,-14.75 -6.88,-15.19l30.38 -32.78z"/>
    </g>
    <g>
     <path class="fil1" d="M9360.34 6286.3c-1.61,-1.58 -8.27,-12.62 -10.22,-15.9 -3.24,-5.46 -6.3,-11.26 -9.17,-17.19 -38.97,-80.48 -18.49,-146.96 44,-125.89 49.02,16.54 101.48,81.26 117.71,144.86 3.42,13.41 4.98,25.94 4.81,36.38 -0.15,9.6 -1.67,18.82 -4.12,25.07 -3.12,7.96 -5.6,11.36 -10.11,17.69 -15.1,21.13 -30.13,43.52 -45.08,65.03 -1.38,1.98 -10.47,15.83 -11.38,16 -0.96,-1.53 -2.91,-4.07 -4.93,-7.24 -1.75,-2.75 -2.95,-4.92 -4.43,-7.69 -9.65,-18.05 -12,-36.32 -8.1,-46.86l42.02 -61.55c3.47,-4.94 6.88,-9.02 8.42,-17.85 6.93,-39.52 -32.12,-104.31 -73.18,-118.25 -30.74,-10.43 -44.69,14.07 -36.03,50.05 1.68,7.01 4.25,14.43 7.23,21.18 3.61,8.15 9.12,17.53 9.38,18.04l-16.82 24.12z"/>
     <path class="fil1" d="M9510.44 6365.03c1.61,1.58 8.27,12.63 10.22,15.9 3.23,5.46 6.3,11.26 9.17,17.19 38.97,80.48 18.49,146.97 -44,125.89 -49.02,-16.53 -101.48,-81.26 -117.71,-144.86 -3.42,-13.4 -4.98,-25.94 -4.81,-36.38 0.15,-9.6 1.67,-18.81 4.12,-25.07 3.12,-7.95 5.59,-11.36 10.11,-17.69 15.09,-21.13 30.13,-43.52 45.08,-65.03 1.38,-1.98 10.47,-15.83 11.38,-16 0.96,1.54 2.91,4.08 4.93,7.24 1.75,2.75 2.95,4.92 4.43,7.69 9.65,18.05 12,36.33 8.1,46.86l-42.02 61.55c-3.47,4.94 -6.88,9.02 -8.43,17.86 -6.92,39.51 32.13,104.3 73.19,118.24 30.74,10.44 44.69,-14.07 36.03,-50.05 -1.68,-7 -4.25,-14.43 -7.23,-21.18 -3.61,-8.15 -9.13,-17.53 -9.38,-18.04l16.82 -24.12z"/>
    </g>
    <g>
     <path class="fil1" d="M9356.47 5741.3c-1.15,-1.8 -3.09,-13.13 -3.62,-16.48 -0.88,-5.58 -1.33,-11.4 -1.45,-17.28 -1.51,-79.82 66.36,-130.94 135.4,-95.32 54.15,27.95 83.11,98.1 65.19,157.08 -3.78,12.43 -9.46,23.59 -16.12,32.48 -6.12,8.17 -13.8,15.63 -20.87,20.29 -9.01,5.93 -14.36,8.14 -24.18,12.28 -32.85,13.81 -66.39,28.75 -99.29,42.93 -3.03,1.31 -23.5,10.59 -24.79,10.49 -0.33,-1.58 -1.32,-4.31 -2.01,-7.58 -0.6,-2.84 -0.84,-5.03 -1.07,-7.82 -1.54,-18.16 6.64,-34.46 18.25,-42.37l93.13 -40.81c7.6,-3.24 14.59,-5.78 22.07,-12.9 33.47,-31.86 22.16,-98.28 -23.15,-121.77 -33.92,-17.58 -67.34,-0.54 -78.17,32.67 -2.11,6.48 -3.33,13.54 -3.56,20.15 -0.29,7.99 1.17,17.57 1.2,18.08l-36.95 15.89z"/>
     <path class="fil1" d="M9504.97 5850.93c1.14,1.81 3.08,13.14 3.61,16.48 0.89,5.59 1.34,11.4 1.45,17.29 1.52,79.82 -66.36,130.94 -135.39,95.31 -54.15,-27.94 -83.12,-98.09 -65.19,-157.07 3.77,-12.43 9.45,-23.59 16.12,-32.48 6.12,-8.17 13.79,-15.63 20.87,-20.29 9,-5.93 14.35,-8.15 24.18,-12.28 32.85,-13.82 66.39,-28.75 99.28,-42.94 3.04,-1.3 23.5,-10.59 24.8,-10.47 0.33,1.58 1.31,4.31 2,7.58 0.6,2.84 0.85,5.03 1.08,7.82 1.53,18.16 -6.64,34.46 -18.26,42.37l-93.13 40.81c-7.59,3.24 -14.59,5.77 -22.07,12.9 -33.46,31.86 -22.16,98.28 23.15,121.76 33.92,17.59 67.35,0.55 78.17,-32.66 2.12,-6.48 3.33,-13.54 3.56,-20.15 0.29,-7.99 -1.17,-17.57 -1.19,-18.08l36.95 -15.9z"/>
    </g>
    <g>
     <path class="fil1" d="M9416.18 5233.99c-1.6,-1.13 -6.34,-10.4 -7.71,-13.16 -2.26,-4.61 -4.16,-9.61 -5.73,-14.8 -21.29,-70.6 34.01,-145.36 111.95,-143.18 61.14,1.7 107.52,51.89 104.19,112.22 -0.7,12.72 -3.63,25.12 -8.09,35.91 -4.1,9.92 -9.94,19.88 -15.87,27.07 -7.54,9.16 -12.35,13.43 -21.17,21.34 -29.46,26.42 -59.36,54.15 -88.77,80.94 -2.72,2.47 -20.91,19.53 -22.24,20 -0.71,-1.28 -2.38,-3.29 -3.88,-5.91 -1.3,-2.28 -2.1,-4.13 -3.02,-6.52 -6.03,-15.55 -1.89,-33.61 7.78,-45.66l83.13 -76.39c6.81,-6.16 13.17,-11.43 18.89,-20.99 25.61,-42.8 -2.17,-97.23 -53.35,-98.75 -38.33,-1.15 -67.56,28.41 -70.17,62.7 -0.51,6.68 0.03,13.51 1.43,19.51 1.69,7.25 5.53,15.19 5.68,15.62l-33.06 30.05z"/>
     <path class="fil1" d="M9592.01 5268.11c1.59,1.13 6.34,10.4 7.7,13.16 2.27,4.61 4.16,9.61 5.73,14.8 21.3,70.6 -34,145.36 -111.94,143.18 -61.14,-1.7 -107.52,-51.89 -104.19,-112.22 0.69,-12.72 3.62,-25.12 8.09,-35.92 4.1,-9.91 9.94,-19.87 15.87,-27.05 7.54,-9.16 12.34,-13.43 21.17,-21.34 29.46,-26.42 59.35,-54.15 88.77,-80.94 2.72,-2.47 20.91,-19.53 22.23,-20 0.72,1.28 2.39,3.29 3.88,5.91 1.31,2.28 2.1,4.13 3.03,6.52 6.03,15.55 1.88,33.61 -7.79,45.66l-83.12 76.39c-6.81,6.16 -13.18,11.43 -18.9,20.99 -25.61,42.8 2.17,97.23 53.36,98.75 38.33,1.15 67.56,-28.41 70.16,-62.7 0.52,-6.68 -0.02,-13.51 -1.43,-19.51 -1.68,-7.25 -5.52,-15.19 -5.67,-15.62l33.06 -30.05z"/>
    </g>
    <g>
     <path class="fil1" d="M9353.17 4113.95c-1.6,-1.08 -6.52,-10.31 -7.92,-13.05 -2.36,-4.58 -4.34,-9.57 -6.01,-14.76 -22.63,-70.48 30.8,-146.88 108.34,-146.46 60.83,0.33 107.98,49.72 105.93,110.45 -0.43,12.8 -3.08,25.33 -7.29,36.28 -3.87,10.05 -9.48,20.2 -15.23,27.56 -7.3,9.38 -12,13.78 -20.6,21.93 -28.75,27.24 -57.9,55.78 -86.6,83.38 -2.64,2.54 -20.38,20.11 -21.69,20.61 -0.73,-1.26 -2.44,-3.24 -3.99,-5.85 -1.34,-2.26 -2.17,-4.11 -3.13,-6.49 -6.32,-15.5 -2.57,-33.74 6.79,-46.07l81.08 -78.69c6.63,-6.34 12.86,-11.78 18.36,-21.52 24.58,-43.6 -4.17,-97.69 -55.09,-98.06 -38.14,-0.28 -66.6,30.09 -68.48,64.63 -0.36,6.74 0.31,13.58 1.82,19.59 1.84,7.25 5.81,15.14 5.97,15.58l-32.25 30.95z"/>
     <path class="fil1" d="M9528.71 4144.27c1.61,1.08 6.52,10.31 7.93,13.05 2.34,4.58 4.34,9.57 6,14.76 22.63,70.48 -30.8,146.88 -108.34,146.46 -60.83,-0.33 -107.98,-49.72 -105.93,-110.45 0.43,-12.8 3.09,-25.33 7.3,-36.28 3.87,-10.05 9.47,-20.2 15.22,-27.56 7.31,-9.38 12,-13.78 20.61,-21.93 28.75,-27.24 57.89,-55.78 86.59,-83.38 2.64,-2.54 20.38,-20.11 21.69,-20.61 0.74,1.26 2.44,3.24 3.99,5.85 1.34,2.26 2.17,4.11 3.14,6.49 6.32,15.5 2.57,33.74 -6.8,46.07l-81.07 78.69c-6.64,6.34 -12.86,11.78 -18.36,21.52 -24.58,43.6 4.16,97.69 55.09,98.06 38.13,0.28 66.59,-30.09 68.47,-64.63 0.37,-6.74 -0.3,-13.58 -1.82,-19.59 -1.83,-7.25 -5.81,-15.14 -5.96,-15.58l32.24 -30.95z"/>
    </g>
    <g>
     <path class="fil1" d="M9284.9 3549c-1.67,-1 -7.12,-9.92 -8.68,-12.57 -2.61,-4.43 -4.9,-9.29 -6.86,-14.38 -26.71,-69.04 22.17,-148.42 99.59,-152.55 60.75,-3.23 110.71,43.33 112.21,104.07 0.31,12.8 -1.6,25.47 -5.17,36.65 -3.29,10.26 -8.28,20.71 -13.58,28.41 -6.76,9.78 -11.18,14.45 -19.29,23.09 -27.12,28.87 -54.54,59.08 -81.58,88.29 -2.49,2.7 -19.17,21.27 -20.45,21.85 -0.81,-1.22 -2.61,-3.1 -4.32,-5.61 -1.48,-2.18 -2.41,-3.98 -3.51,-6.29 -7.21,-15.1 -4.53,-33.53 4.09,-46.39l76.34 -83.28c6.25,-6.72 12.15,-12.51 17.07,-22.56 21.98,-44.97 -9.88,-97.28 -60.73,-94.68 -38.08,1.95 -64.72,33.93 -64.57,68.52 0.02,6.74 1.1,13.54 2.96,19.45 2.24,7.13 6.67,14.77 6.86,15.2l-30.38 32.79z"/>
     <path class="fil1" d="M9461.91 3569c1.67,0.99 7.12,9.91 8.68,12.56 2.61,4.43 4.9,9.3 6.86,14.38 26.71,69.05 -22.16,148.44 -99.59,152.55 -60.75,3.23 -110.71,-43.33 -112.2,-104.07 -0.32,-12.8 1.59,-25.46 5.17,-36.64 3.27,-10.27 8.27,-20.71 13.57,-28.41 6.76,-9.79 11.19,-14.46 19.3,-23.1 27.11,-28.87 54.53,-59.07 81.57,-88.29 2.49,-2.7 19.17,-21.27 20.45,-21.84 0.82,1.22 2.62,3.1 4.32,5.61 1.48,2.18 2.41,3.97 3.51,6.28 7.22,15.1 4.53,33.54 -4.09,46.39l-76.33 83.28c-6.26,6.72 -12.16,12.52 -17.08,22.57 -21.98,44.96 9.88,97.28 60.73,94.67 38.09,-1.95 64.72,-33.93 64.58,-68.51 -0.03,-6.75 -1.11,-13.55 -2.96,-19.45 -2.25,-7.14 -6.68,-14.77 -6.87,-15.21l30.38 -32.78z"/>
    </g>
    <g>
     <path class="fil1" d="M9229.08 2957.28c-1.62,-1.06 -6.69,-10.21 -8.14,-12.92 -2.43,-4.55 -4.49,-9.5 -6.25,-14.67 -23.81,-70.17 28.25,-147.55 105.71,-148.44 60.76,-0.7 108.69,47.95 107.68,108.77 -0.22,12.82 -2.65,25.41 -6.67,36.45 -3.7,10.12 -9.12,20.37 -14.73,27.84 -7.14,9.51 -11.76,14 -20.21,22.3 -28.25,27.75 -56.88,56.82 -85.07,84.91 -2.59,2.59 -20.01,20.47 -21.31,20.99 -0.76,-1.25 -2.49,-3.2 -4.08,-5.78 -1.38,-2.24 -2.23,-4.08 -3.24,-6.44 -6.58,-15.41 -3.14,-33.74 6,-46.24l79.63 -80.12c6.52,-6.47 12.64,-12 17.97,-21.86 23.8,-44.06 -5.84,-97.71 -56.7,-97.23 -38.09,0.37 -65.99,31.25 -67.28,65.84 -0.26,6.75 0.54,13.59 2.15,19.58 1.95,7.23 6.05,15.05 6.23,15.5l-31.68 31.52z"/>
     <path class="fil1" d="M9404.92 2984.67c1.62,1.07 6.68,10.22 8.14,12.93 2.43,4.55 4.49,9.5 6.25,14.67 23.81,70.17 -28.26,147.55 -105.71,148.44 -60.76,0.69 -108.69,-47.95 -107.68,-108.77 0.22,-12.82 2.65,-25.41 6.67,-36.45 3.7,-10.13 9.12,-20.37 14.73,-27.85 7.14,-9.5 11.76,-13.99 20.21,-22.29 28.25,-27.75 56.87,-56.82 85.06,-84.91 2.6,-2.59 20.02,-20.47 21.32,-20.99 0.76,1.25 2.49,3.2 4.08,5.78 1.38,2.24 2.23,4.08 3.24,6.44 6.58,15.4 3.14,33.74 -6,46.24l-79.63 80.12c-6.53,6.46 -12.65,12 -17.97,21.85 -23.8,44.06 5.84,97.72 56.69,97.23 38.1,-0.36 66,-31.24 67.29,-65.83 0.26,-6.75 -0.54,-13.59 -2.15,-19.59 -1.95,-7.22 -6.06,-15.05 -6.23,-15.49l31.68 -31.53z"/>
    </g>
    <g>
     <path class="fil1" d="M9200.1 2340.23c-1.63,-1.04 -6.83,-10.14 -8.33,-12.84 -2.49,-4.52 -4.64,-9.46 -6.47,-14.62 -24.89,-70.01 25.77,-148.35 102.98,-150.39 60.58,-1.6 109.17,46.47 109.14,107.46 0,12.86 -2.22,25.52 -6.05,36.64 -3.52,10.21 -8.76,20.56 -14.24,28.14 -6.96,9.64 -11.49,14.2 -19.78,22.65 -27.72,28.24 -55.78,57.81 -83.44,86.39 -2.55,2.63 -19.62,20.83 -20.91,21.36 -0.79,-1.24 -2.53,-3.17 -4.16,-5.73 -1.42,-2.23 -2.29,-4.06 -3.34,-6.42 -6.82,-15.34 -3.69,-33.77 5.23,-46.44l78.1 -81.51c6.39,-6.58 12.41,-12.23 17.55,-22.18 23.02,-44.53 -7.41,-97.89 -58.11,-96.65 -37.97,0.93 -65.3,32.31 -66.02,67.01 -0.14,6.77 0.75,13.63 2.46,19.6 2.07,7.22 6.29,15.01 6.46,15.44l-31.07 32.08z"/>
     <path class="fil1" d="M9375.88 2365.09c1.64,1.04 6.84,10.13 8.34,12.84 2.49,4.52 4.64,9.46 6.47,14.62 24.89,70.01 -25.77,148.35 -102.98,150.39 -60.58,1.6 -109.17,-46.47 -109.14,-107.46 0,-12.86 2.22,-25.53 6.05,-36.64 3.52,-10.22 8.76,-20.57 14.24,-28.14 6.96,-9.64 11.49,-14.2 19.78,-22.65 27.72,-28.24 55.78,-57.81 83.44,-86.39 2.55,-2.64 19.62,-20.83 20.91,-21.37 0.77,1.25 2.53,3.18 4.16,5.74 1.42,2.23 2.29,4.06 3.34,6.4 6.82,15.35 3.69,33.78 -5.23,46.44l-78.1 81.52c-6.39,6.58 -12.41,12.22 -17.55,22.18 -23.02,44.52 7.4,97.89 58.11,96.65 37.97,-0.94 65.3,-32.31 66.02,-67.01 0.14,-6.77 -0.75,-13.63 -2.46,-19.6 -2.07,-7.22 -6.29,-15.01 -6.46,-15.44l31.06 -32.08z"/>
    </g>
    <g>
     <path class="fil1" d="M9190.14 1702.68c-1.58,-1.13 -6.3,-10.47 -7.65,-13.25 -2.26,-4.65 -4.14,-9.69 -5.71,-14.93 -21.25,-71.2 33.38,-146.83 110.6,-144.89 60.58,1.52 106.63,52.03 103.46,112.94 -0.66,12.84 -3.53,25.37 -7.93,36.28 -4.04,10.01 -9.8,20.08 -15.66,27.36 -7.46,9.27 -12.21,13.59 -20.93,21.6 -29.13,26.79 -58.69,54.86 -87.77,81.99 -2.69,2.5 -20.67,19.78 -21.98,20.26 -0.72,-1.28 -2.38,-3.31 -3.86,-5.95 -1.3,-2.29 -2.09,-4.16 -3.01,-6.57 -6.01,-15.67 -1.94,-33.91 7.61,-46.1l82.19 -77.38c6.72,-6.24 13.03,-11.58 18.68,-21.25 25.28,-43.28 -2.36,-98.14 -53.07,-99.51 -37.96,-1.02 -66.87,28.9 -69.38,63.52 -0.49,6.76 0.05,13.65 1.46,19.7 1.68,7.31 5.5,15.31 5.65,15.75l-32.68 30.43z"/>
     <path class="fil1" d="M9364.41 1736.56c1.58,1.13 6.3,10.47 7.65,13.25 2.25,4.65 4.14,9.69 5.71,14.93 21.24,71.2 -33.38,146.83 -110.6,144.89 -60.58,-1.52 -106.63,-52.03 -103.47,-112.94 0.67,-12.84 3.54,-25.37 7.94,-36.28 4.04,-10.01 9.8,-20.08 15.66,-27.36 7.45,-9.27 12.21,-13.59 20.92,-21.6 29.13,-26.78 58.69,-54.86 87.78,-81.99 2.69,-2.5 20.67,-19.78 21.98,-20.26 0.71,1.28 2.37,3.31 3.86,5.95 1.3,2.29 2.09,4.16 3.01,6.57 6.01,15.67 1.94,33.91 -7.61,46.11l-82.19 77.37c-6.72,6.24 -13.03,11.58 -18.68,21.25 -25.28,43.28 2.36,98.15 53.06,99.51 37.97,1.02 66.88,-28.9 69.39,-63.52 0.49,-6.76 -0.06,-13.65 -1.46,-19.7 -1.68,-7.31 -5.51,-15.31 -5.65,-15.75l32.68 -30.43z"/>
    </g>
    <g>
     <path class="fil1" d="M9266.6 1111.2c-1.45,-1.3 -5.09,-11.15 -6.13,-14.07 -1.73,-4.88 -3.05,-10.1 -4.02,-15.51 -13.19,-73.3 49.33,-142.54 125.67,-131.97 59.88,8.28 99.96,63.75 90.08,124.08 -2.08,12.72 -6.3,24.88 -11.88,35.25 -5.11,9.53 -11.94,18.91 -18.55,25.52 -8.41,8.4 -13.6,12.18 -23.13,19.18 -31.85,23.42 -64.24,48.09 -96.08,71.87 -2.93,2.19 -22.67,17.4 -24.04,17.72 -0.57,-1.35 -1.98,-3.55 -3.17,-6.35 -1.03,-2.44 -1.6,-4.39 -2.25,-6.88 -4.23,-16.29 1.83,-34.01 12.64,-45.09l90.04 -67.9c7.37,-5.45 14.19,-10.06 20.87,-19.07 29.84,-40.3 8.52,-98.03 -41.6,-105.07 -37.53,-5.27 -69.49,21.31 -75.81,55.53 -1.23,6.66 -1.45,13.59 -0.73,19.78 0.87,7.48 3.76,15.87 3.86,16.32l-35.76 26.67z"/>
     <path class="fil1" d="M9435.61 1164.42c1.45,1.3 5.09,11.15 6.13,14.07 1.73,4.88 3.05,10.1 4.02,15.51 13.19,73.3 -49.33,142.54 -125.67,131.97 -59.88,-8.28 -99.96,-63.75 -90.08,-124.08 2.08,-12.72 6.3,-24.88 11.88,-35.25 5.11,-9.53 11.94,-18.91 18.55,-25.52 8.41,-8.4 13.6,-12.18 23.13,-19.18 31.85,-23.42 64.24,-48.09 96.08,-71.87 2.93,-2.19 22.67,-17.4 24.04,-17.72 0.57,1.35 1.98,3.55 3.17,6.35 1.03,2.44 1.6,4.38 2.25,6.88 4.23,16.29 -1.83,34.01 -12.64,45.09l-90.04 67.9c-7.37,5.45 -14.19,10.06 -20.87,19.07 -29.84,40.3 -8.52,98.03 41.6,105.07 37.53,5.27 69.49,-21.31 75.81,-55.53 1.23,-6.66 1.45,-13.59 0.73,-19.78 -0.87,-7.48 -3.76,-15.87 -3.86,-16.32l35.76 -26.67z"/>
    </g>
   </g>
   <g>
    <g>
     <path class="fil1" d="M624.09 6336.53c1.26,-1.28 3.67,-11.06 4.33,-13.97 1.12,-4.84 1.79,-10.06 2.1,-15.44 4.27,-73.15 -64.89,-143.82 -138.19,-134.83 -57.49,7.05 -90.1,61.76 -73.38,122.4 3.52,12.78 9.09,25.05 15.74,35.56 6.12,9.65 13.88,19.19 21.1,25.95 9.2,8.58 14.72,12.48 24.84,19.7 33.83,24.12 68.37,49.51 102.24,74 3.13,2.25 24.19,17.9 25.55,18.25 0.39,-1.34 1.52,-3.52 2.36,-6.3 0.72,-2.42 1.05,-4.36 1.39,-6.85 2.21,-16.23 -5.78,-34.1 -17.64,-45.42l-95.89 -69.9c-7.82,-5.62 -15.04,-10.38 -22.6,-19.54 -33.87,-40.98 -19.83,-98.37 28.27,-104.37 36.02,-4.49 70.35,22.8 80.53,57.2 1.98,6.7 3.02,13.66 3.04,19.84 0.04,7.47 -1.81,15.81 -1.85,16.26l38.05 27.47z"/>
     <path class="fil1" d="M465.33 6386.3c-1.25,1.27 -3.66,11.05 -4.33,13.96 -1.11,4.86 -1.78,10.07 -2.09,15.45 -4.28,73.15 64.89,143.82 138.18,134.83 57.5,-7.05 90.1,-61.76 73.38,-122.4 -3.52,-12.78 -9.08,-25.05 -15.73,-35.56 -6.12,-9.65 -13.88,-19.19 -21.12,-25.95 -9.19,-8.58 -14.71,-12.48 -24.83,-19.7 -33.84,-24.12 -68.37,-49.51 -102.25,-74 -3.12,-2.25 -24.18,-17.9 -25.55,-18.25 -0.39,1.34 -1.51,3.51 -2.34,6.3 -0.72,2.42 -1.05,4.36 -1.39,6.84 -2.21,16.24 5.78,34.11 17.64,45.43l95.87 69.9c7.83,5.62 15.04,10.38 22.61,19.54 33.87,40.98 19.83,98.37 -28.27,104.37 -36.02,4.49 -70.35,-22.8 -80.53,-57.21 -1.98,-6.7 -3.02,-13.65 -3.05,-19.83 -0.03,-7.47 1.82,-15.81 1.86,-16.27l-38.06 -27.46z"/>
    </g>
    <g>
     <path class="fil1" d="M982.84 7162.72c0.44,-1.48 -1.69,-10.63 -2.37,-13.33 -1.13,-4.51 -2.74,-9.2 -4.7,-13.94 -26.55,-64.24 -108.36,-103.94 -160.87,-73.85 -41.2,23.61 -43.88,80.64 -6.34,127.71 7.91,9.92 17.18,18.78 26.56,25.79 8.63,6.44 18.47,12.28 26.76,15.88 10.56,4.59 16.37,6.26 27.08,9.38 35.76,10.43 72.59,21.73 108.53,32.47 3.32,0.99 25.84,8.03 27.02,7.91 -0.25,-1.28 -0.27,-3.49 -0.76,-6.14 -0.43,-2.3 -0.97,-4.07 -1.73,-6.32 -4.93,-14.64 -18.34,-27.57 -32.04,-33.7l-101.98 -30.89c-8.3,-2.46 -15.76,-4.35 -25.3,-9.93 -42.67,-24.93 -55.31,-78.59 -20.88,-98.43 25.77,-14.85 63.21,-1.84 85.05,24.65 4.25,5.17 7.87,10.83 10.41,16.14 3.07,6.43 5.06,14.16 5.21,14.57l40.36 12.01z"/>
     <path class="fil1" d="M881.45 7254c-0.44,1.48 1.7,10.63 2.38,13.33 1.13,4.51 2.74,9.2 4.69,13.94 26.55,64.24 108.37,103.94 160.88,73.85 41.2,-23.61 43.87,-80.64 6.34,-127.71 -7.91,-9.92 -17.18,-18.78 -26.56,-25.79 -8.63,-6.44 -18.47,-12.27 -26.77,-15.88 -10.55,-4.59 -16.36,-6.25 -27.07,-9.37 -35.77,-10.43 -72.59,-21.75 -108.53,-32.48 -3.32,-0.98 -25.84,-8.03 -27.02,-7.91 0.25,1.28 0.27,3.49 0.76,6.14 0.43,2.3 0.97,4.07 1.73,6.32 4.92,14.64 18.34,27.58 32.04,33.7l101.98 30.9c8.3,2.45 15.76,4.34 25.3,9.92 42.67,24.93 55.31,78.59 20.88,98.43 -25.77,14.85 -63.22,1.85 -85.05,-24.65 -4.26,-5.17 -7.87,-10.83 -10.41,-16.14 -3.08,-6.42 -5.06,-14.15 -5.22,-14.57l-40.36 -12.01z"/>
    </g>
    <g>
     <path class="fil1" d="M788.89 6814.2c1.25,-1.28 3.48,-10.96 4.1,-13.83 1.02,-4.8 1.59,-9.95 1.8,-15.27 2.81,-72.13 -68.85,-140.34 -143.04,-130.01 -58.2,8.1 -90.15,62.64 -71.92,122.03 3.84,12.52 9.74,24.49 16.71,34.71 6.4,9.38 14.49,18.63 21.96,25.12 9.52,8.28 15.2,12 25.62,18.9 34.84,23.09 70.42,47.4 105.31,70.82 3.22,2.17 24.92,17.15 26.31,17.47 0.37,-1.33 1.47,-3.49 2.25,-6.25 0.68,-2.4 0.98,-4.32 1.27,-6.77 1.91,-16.03 -6.58,-33.48 -18.85,-44.39l-98.76 -66.92c-8.06,-5.38 -15.49,-9.93 -23.36,-18.8 -35.23,-39.69 -22.18,-96.49 26.52,-103.36 36.47,-5.15 71.88,21.04 82.93,54.72 2.15,6.57 3.34,13.39 3.5,19.47 0.19,7.37 -1.51,15.61 -1.55,16.06l39.19 26.28z"/>
     <path class="fil1" d="M628.8 6866.43c-1.25,1.28 -3.49,10.96 -4.1,13.83 -1.02,4.79 -1.6,9.95 -1.81,15.26 -2.8,72.14 68.86,140.35 143.05,130.02 58.2,-8.1 90.15,-62.65 71.92,-122.03 -3.85,-12.52 -9.74,-24.49 -16.71,-34.71 -6.4,-9.38 -14.49,-18.63 -21.97,-25.13 -9.51,-8.27 -15.2,-11.99 -25.62,-18.9 -34.84,-23.08 -70.41,-47.38 -105.31,-70.81 -3.21,-2.17 -24.92,-17.16 -26.3,-17.47 -0.37,1.33 -1.47,3.49 -2.25,6.25 -0.69,2.4 -0.98,4.31 -1.27,6.77 -1.91,16.03 6.57,33.48 18.85,44.39l98.76 66.92c8.06,5.38 15.47,9.93 23.36,18.8 35.23,39.68 22.17,96.49 -26.53,103.36 -36.46,5.14 -71.87,-21.04 -82.92,-54.72 -2.15,-6.57 -3.35,-13.39 -3.5,-19.47 -0.19,-7.37 1.51,-15.62 1.55,-16.06l-39.19 -26.28z"/>
    </g>
    <g>
     <path class="fil1" d="M373.89 3002.61c1.45,-1.23 5.15,-10.77 6.2,-13.6 1.76,-4.73 3.11,-9.83 4.12,-15.1 13.72,-71.57 -47.72,-141.81 -123.57,-134.13 -59.5,6.03 -99.74,59.12 -90.47,118.75 1.96,12.57 6.05,24.67 11.49,35.06 4.99,9.55 11.69,19.01 18.19,25.72 8.27,8.55 13.4,12.46 22.79,19.67 31.4,24.14 63.35,49.53 94.73,74.02 2.89,2.26 22.35,17.9 23.7,18.26 0.58,-1.31 1.99,-3.42 3.2,-6.13 1.05,-2.37 1.63,-4.26 2.29,-6.68 4.34,-15.87 -1.52,-33.49 -12.16,-44.75l-88.76 -69.92c-7.25,-5.62 -14,-10.39 -20.55,-19.48 -29.27,-40.65 -7.6,-96.63 42.2,-101.77 37.29,-3.84 68.78,23.41 74.75,57.25 1.17,6.59 1.32,13.41 0.56,19.46 -0.92,7.31 -3.87,15.45 -3.98,15.91l35.27 27.47z"/>
     <path class="fil1" d="M205.7 3048.94c-1.44,1.22 -5.14,10.76 -6.2,13.59 -1.76,4.73 -3.1,9.83 -4.11,15.1 -13.73,71.57 47.72,141.81 123.56,134.13 59.5,-6.03 99.75,-59.12 90.47,-118.75 -1.95,-12.56 -6.04,-24.67 -11.49,-35.06 -4.99,-9.55 -11.68,-19.01 -18.19,-25.72 -8.27,-8.55 -13.4,-12.45 -22.79,-19.67 -31.39,-24.14 -63.33,-49.53 -94.73,-74.02 -2.89,-2.26 -22.35,-17.9 -23.7,-18.26 -0.57,1.31 -1.99,3.42 -3.2,6.14 -1.04,2.36 -1.63,4.25 -2.29,6.67 -4.34,15.87 1.52,33.49 12.16,44.76l88.77 69.9c7.25,5.63 14,10.39 20.54,19.48 29.27,40.65 7.6,96.63 -42.2,101.77 -37.29,3.85 -68.78,-23.4 -74.75,-57.24 -1.16,-6.6 -1.32,-13.42 -0.56,-19.47 0.92,-7.31 3.87,-15.45 3.98,-15.9l-35.27 -27.47z"/>
    </g>
    <g>
     <path class="fil1" d="M405.25 3560.92c1.45,-1.23 5.15,-10.77 6.2,-13.6 1.76,-4.73 3.11,-9.83 4.12,-15.1 13.72,-71.57 -47.72,-141.81 -123.57,-134.13 -59.5,6.03 -99.74,59.12 -90.47,118.75 1.96,12.57 6.05,24.67 11.49,35.06 4.99,9.55 11.69,19.01 18.19,25.72 8.27,8.55 13.4,12.46 22.79,19.67 31.4,24.14 63.35,49.53 94.73,74.02 2.89,2.26 22.35,17.9 23.7,18.26 0.58,-1.31 1.99,-3.42 3.2,-6.13 1.05,-2.37 1.63,-4.26 2.29,-6.68 4.34,-15.87 -1.52,-33.49 -12.16,-44.75l-88.76 -69.92c-7.25,-5.62 -14,-10.39 -20.55,-19.48 -29.27,-40.65 -7.6,-96.63 42.2,-101.77 37.29,-3.84 68.78,23.41 74.75,57.25 1.17,6.59 1.32,13.41 0.56,19.46 -0.92,7.31 -3.87,15.45 -3.98,15.91l35.27 27.47z"/>
     <path class="fil1" d="M237.05 3607.25c-1.44,1.22 -5.14,10.76 -6.2,13.59 -1.76,4.73 -3.1,9.83 -4.11,15.1 -13.73,71.57 47.72,141.81 123.56,134.13 59.5,-6.03 99.75,-59.12 90.47,-118.75 -1.95,-12.56 -6.04,-24.67 -11.49,-35.06 -4.99,-9.55 -11.68,-19.01 -18.19,-25.72 -8.27,-8.55 -13.4,-12.45 -22.79,-19.67 -31.39,-24.14 -63.33,-49.53 -94.73,-74.02 -2.89,-2.26 -22.35,-17.9 -23.7,-18.26 -0.57,1.31 -1.99,3.42 -3.2,6.14 -1.04,2.36 -1.63,4.25 -2.29,6.67 -4.34,15.87 1.52,33.49 12.16,44.76l88.77 69.9c7.25,5.63 14,10.39 20.54,19.48 29.27,40.65 7.6,96.63 -42.2,101.77 -37.29,3.85 -68.78,-23.4 -74.75,-57.24 -1.16,-6.6 -1.32,-13.42 -0.56,-19.47 0.92,-7.31 3.87,-15.45 3.98,-15.9l-35.27 -27.47z"/>
    </g>
    <g>
     <path class="fil1" d="M439.55 4109.41c1.45,-1.23 5.15,-10.77 6.2,-13.6 1.76,-4.73 3.11,-9.83 4.12,-15.1 13.72,-71.57 -47.72,-141.81 -123.57,-134.13 -59.5,6.03 -99.74,59.12 -90.47,118.75 1.96,12.57 6.05,24.67 11.49,35.06 4.99,9.55 11.69,19.01 18.19,25.72 8.27,8.55 13.4,12.46 22.79,19.67 31.4,24.14 63.35,49.53 94.73,74.02 2.89,2.26 22.35,17.9 23.7,18.26 0.58,-1.31 1.99,-3.42 3.2,-6.13 1.05,-2.37 1.63,-4.26 2.29,-6.68 4.34,-15.87 -1.52,-33.49 -12.16,-44.75l-88.76 -69.92c-7.25,-5.62 -14,-10.39 -20.55,-19.48 -29.27,-40.65 -7.6,-96.63 42.2,-101.77 37.29,-3.84 68.78,23.41 74.75,57.25 1.17,6.59 1.32,13.41 0.56,19.46 -0.92,7.31 -3.87,15.45 -3.98,15.91l35.27 27.47z"/>
     <path class="fil1" d="M271.35 4155.74c-1.44,1.22 -5.14,10.76 -6.2,13.59 -1.76,4.73 -3.1,9.83 -4.11,15.1 -13.73,71.57 47.72,141.81 123.56,134.13 59.5,-6.03 99.75,-59.12 90.47,-118.75 -1.95,-12.56 -6.04,-24.67 -11.49,-35.06 -4.99,-9.55 -11.68,-19.01 -18.19,-25.72 -8.27,-8.55 -13.4,-12.45 -22.79,-19.67 -31.39,-24.14 -63.33,-49.53 -94.73,-74.02 -2.89,-2.26 -22.35,-17.9 -23.7,-18.26 -0.57,1.31 -1.99,3.42 -3.2,6.14 -1.04,2.36 -1.63,4.25 -2.29,6.67 -4.34,15.87 1.52,33.49 12.16,44.76l88.77 69.9c7.25,5.63 14,10.39 20.54,19.48 29.27,40.65 7.6,96.63 -42.2,101.77 -37.29,3.85 -68.78,-23.4 -74.75,-57.24 -1.16,-6.6 -1.32,-13.42 -0.56,-19.47 0.92,-7.31 3.87,-15.45 3.98,-15.9l-35.27 -27.47z"/>
    </g>
    <g>
     <path class="fil1" d="M415.51 4677.82c1.45,-1.23 5.15,-10.77 6.2,-13.6 1.76,-4.73 3.11,-9.83 4.12,-15.1 13.72,-71.57 -47.72,-141.81 -123.57,-134.13 -59.5,6.03 -99.74,59.12 -90.47,118.75 1.96,12.57 6.05,24.67 11.49,35.06 4.99,9.55 11.69,19.01 18.19,25.72 8.27,8.55 13.4,12.46 22.79,19.67 31.4,24.14 63.35,49.53 94.73,74.02 2.89,2.26 22.35,17.9 23.7,18.26 0.58,-1.31 1.99,-3.42 3.2,-6.13 1.05,-2.37 1.63,-4.26 2.29,-6.68 4.34,-15.87 -1.52,-33.49 -12.16,-44.75l-88.76 -69.92c-7.25,-5.62 -14,-10.39 -20.55,-19.48 -29.27,-40.65 -7.6,-96.63 42.2,-101.77 37.29,-3.84 68.78,23.41 74.75,57.25 1.17,6.59 1.32,13.41 0.56,19.46 -0.92,7.31 -3.87,15.45 -3.98,15.91l35.27 27.47z"/>
     <path class="fil1" d="M247.32 4724.15c-1.44,1.22 -5.14,10.76 -6.2,13.59 -1.76,4.73 -3.1,9.83 -4.11,15.1 -13.73,71.57 47.72,141.81 123.56,134.13 59.5,-6.03 99.75,-59.12 90.47,-118.75 -1.95,-12.56 -6.04,-24.67 -11.49,-35.06 -4.99,-9.55 -11.68,-19.01 -18.19,-25.72 -8.27,-8.55 -13.4,-12.45 -22.79,-19.67 -31.39,-24.14 -63.33,-49.53 -94.73,-74.02 -2.89,-2.26 -22.35,-17.9 -23.7,-18.26 -0.57,1.31 -1.99,3.42 -3.2,6.14 -1.04,2.36 -1.63,4.25 -2.29,6.67 -4.34,15.87 1.52,33.49 12.16,44.76l88.77 69.9c7.25,5.63 14,10.39 20.54,19.48 29.27,40.65 7.6,96.63 -42.2,101.77 -37.29,3.85 -68.78,-23.4 -74.75,-57.24 -1.16,-6.6 -1.32,-13.42 -0.56,-19.47 0.92,-7.31 3.87,-15.45 3.98,-15.9l-35.27 -27.47z"/>
    </g>
    <g>
     <path class="fil1" d="M404.89 5231.75c1.53,-1.08 5.94,-10.24 7.2,-12.95 2.1,-4.53 3.82,-9.48 5.23,-14.64 19.02,-69.93 -37.03,-145.72 -113.26,-145.32 -59.8,0.32 -103.89,49.32 -99.09,109.55 1.02,12.71 4.2,25.14 8.85,36 4.27,9.98 10.24,20.04 16.23,27.34 7.61,9.31 12.44,13.68 21.27,21.76 29.51,27.03 59.49,55.36 88.97,82.73 2.72,2.52 20.96,19.95 22.27,20.44 0.67,-1.25 2.25,-3.21 3.66,-5.81 1.22,-2.24 1.94,-4.07 2.79,-6.43 5.5,-15.37 0.97,-33.48 -8.8,-45.71l-83.33 -78.07c-6.82,-6.3 -13.19,-11.69 -19.04,-21.36 -26.17,-43.25 -0.39,-96.92 49.67,-97.27 37.48,-0.27 66.86,29.86 70.3,64.12 0.67,6.67 0.32,13.48 -0.89,19.43 -1.47,7.2 -5.02,15.02 -5.15,15.45l33.13 30.71z"/>
     <path class="fil1" d="M233.68 5261.8c-1.53,1.07 -5.94,10.23 -7.2,12.94 -2.1,4.55 -3.82,9.48 -5.23,14.64 -19.02,69.93 37.04,145.72 113.27,145.32 59.79,-0.31 103.89,-49.31 99.08,-109.55 -1.01,-12.7 -4.19,-25.13 -8.84,-36 -4.28,-9.98 -10.25,-20.03 -16.23,-27.34 -7.62,-9.31 -12.44,-13.68 -21.27,-21.76 -29.52,-27.03 -59.49,-55.35 -88.98,-82.72 -2.72,-2.53 -20.96,-19.96 -22.27,-20.45 -0.67,1.26 -2.25,3.22 -3.66,5.81 -1.22,2.24 -1.94,4.07 -2.78,6.43 -5.51,15.38 -0.98,33.48 8.79,45.71l83.33 78.07c6.82,6.3 13.19,11.69 19.04,21.36 26.18,43.26 0.39,96.92 -49.66,97.28 -37.49,0.27 -66.87,-29.86 -70.31,-64.13 -0.66,-6.67 -0.32,-13.47 0.9,-19.43 1.47,-7.19 5.01,-15.01 5.14,-15.44l-33.13 -30.71z"/>
    </g>
    <g>
     <path class="fil1" d="M472.73 5787.53c1.35,-1.33 4.36,-11.12 5.21,-14.02 1.4,-4.84 2.38,-10.02 3.01,-15.36 8.51,-72.36 -57.86,-137.98 -132.95,-124.82 -58.91,10.32 -95.2,66.19 -81.64,124.99 2.86,12.39 7.82,24.16 14,34.13 5.67,9.16 13.04,18.11 20.01,24.35 8.87,7.92 14.26,11.45 24.15,17.96 33.06,21.8 66.75,44.81 99.84,66.96 3.05,2.04 23.58,16.23 24.96,16.5 0.48,-1.35 1.74,-3.55 2.75,-6.35 0.87,-2.42 1.31,-4.35 1.81,-6.83 3.17,-16.13 -3.95,-33.28 -15.37,-43.75l-93.59 -63.29c-7.64,-5.09 -14.72,-9.36 -21.9,-17.95 -32.14,-38.42 -14.58,-95.82 34.71,-104.56 36.92,-6.54 70.3,18.37 78.71,51.68 1.64,6.5 2.29,13.28 1.96,19.38 -0.38,7.37 -2.74,15.69 -2.81,16.15l37.16 24.84z"/>
     <path class="fil1" d="M308.34 5845.92c-1.35,1.33 -4.36,11.12 -5.2,14.02 -1.4,4.84 -2.39,10.03 -3.02,15.36 -8.5,72.36 57.86,137.98 132.95,124.82 58.91,-10.32 95.2,-66.18 81.64,-124.99 -2.86,-12.39 -7.82,-24.16 -14,-34.13 -5.67,-9.15 -13.03,-18.11 -20,-24.34 -8.87,-7.93 -14.27,-11.45 -24.15,-17.97 -33.07,-21.8 -66.76,-44.8 -99.84,-66.96 -3.05,-2.04 -23.59,-16.23 -24.96,-16.5 -0.48,1.35 -1.75,3.55 -2.75,6.35 -0.88,2.43 -1.32,4.36 -1.81,6.83 -3.18,16.14 3.94,33.28 15.37,43.76l93.59 63.29c7.63,5.08 14.71,9.35 21.89,17.94 32.14,38.42 14.59,95.83 -34.71,104.56 -36.92,6.54 -70.3,-18.36 -78.71,-51.68 -1.63,-6.49 -2.29,-13.28 -1.96,-19.38 0.39,-7.37 2.74,-15.69 2.81,-16.15l-37.16 -24.84z"/>
    </g>
   </g>
  </g>
 </g>
</svg>
